<svg xmlns="http://www.w3.org/2000/svg" xmlns:xlink="http://www.w3.org/1999/xlink" width="150" zoomAndPan="magnify" viewBox="0 0 112.5 112.499997" height="150" preserveAspectRatio="xMidYMid meet" version="1.0"><defs><filter x="0%" y="0%" width="100%" height="100%" id="60c5b32c19"><feColorMatrix values="0 0 0 0 1 0 0 0 0 1 0 0 0 0 1 0 0 0 1 0" color-interpolation-filters="sRGB"/></filter><g/><clipPath id="a3e8b6282b"><path d="M 0 0 L 112.003906 0 L 112.003906 112.003906 L 0 112.003906 Z M 0 0 " clip-rule="nonzero"/></clipPath><clipPath id="3cce34fad6"><path d="M 56 0 L 63.886719 6.21875 L 73.304688 2.742188 L 78.882812 11.09375 L 88.917969 10.695312 L 91.640625 20.363281 L 101.308594 23.085938 L 100.910156 33.121094 L 109.261719 38.695312 L 105.78125 48.117188 L 112.003906 56 L 105.78125 63.886719 L 109.261719 73.304688 L 100.910156 78.882812 L 101.308594 88.917969 L 91.640625 91.640625 L 88.917969 101.308594 L 78.882812 100.910156 L 73.304688 109.261719 L 63.886719 105.78125 L 56 112.003906 L 48.117188 105.78125 L 38.695312 109.261719 L 33.121094 100.910156 L 23.085938 101.308594 L 20.363281 91.640625 L 10.695312 88.917969 L 11.09375 78.882812 L 2.742188 73.304688 L 6.21875 63.886719 L 0 56 L 6.21875 48.117188 L 2.742188 38.695312 L 11.09375 33.121094 L 10.695312 23.085938 L 20.363281 20.363281 L 23.085938 10.695312 L 33.121094 11.09375 L 38.695312 2.742188 L 48.117188 6.21875 Z M 56 0 " clip-rule="nonzero"/></clipPath><clipPath id="4b51d9cf5f"><path d="M 13.40625 60.953125 L 20.960938 60.953125 L 20.960938 68.507812 L 13.40625 68.507812 Z M 13.40625 60.953125 " clip-rule="nonzero"/></clipPath><clipPath id="2e350654ab"><path d="M 17.183594 60.953125 L 18.386719 63.527344 L 20.960938 64.730469 L 18.386719 65.929688 L 17.183594 68.507812 L 15.984375 65.929688 L 13.40625 64.730469 L 15.984375 63.527344 Z M 17.183594 60.953125 " clip-rule="nonzero"/></clipPath><clipPath id="603f579b7a"><path d="M 92.777344 60.953125 L 100.332031 60.953125 L 100.332031 68.507812 L 92.777344 68.507812 Z M 92.777344 60.953125 " clip-rule="nonzero"/></clipPath><clipPath id="8bec68b97a"><path d="M 96.554688 60.953125 L 97.757812 63.527344 L 100.332031 64.730469 L 97.757812 65.929688 L 96.554688 68.507812 L 95.351562 65.929688 L 92.777344 64.730469 L 95.351562 63.527344 Z M 96.554688 60.953125 " clip-rule="nonzero"/></clipPath><mask id="d8bdec803b"><g filter="url(#60c5b32c19)"><rect x="-11.25" width="135" fill="#000000" y="-11.25" height="134.999996" fill-opacity="0.1"/></g></mask><clipPath id="9d7979dbf0"><path d="M 0.152344 15.382812 L 69.59375 15.382812 L 69.59375 66.847656 L 0.152344 66.847656 Z M 0.152344 15.382812 " clip-rule="nonzero"/></clipPath><clipPath id="842413c840"><rect x="0" width="71" y="0" height="68"/></clipPath><clipPath id="467193873e"><path d="M 53 79 L 62 79 L 62 81.980469 L 53 81.980469 Z M 53 79 " clip-rule="nonzero"/></clipPath><mask id="6478f7df06"><g filter="url(#60c5b32c19)"><rect x="-11.25" width="135" fill="#000000" y="-11.25" height="134.999996" fill-opacity="0.25"/></g></mask><clipPath id="26668e2fb9"><path d="M 3 0.511719 L 11 0.511719 L 11 4 L 3 4 Z M 3 0.511719 " clip-rule="nonzero"/></clipPath><clipPath id="0ebfa62e74"><path d="M 0.628906 16 L 16.398438 16 L 16.398438 32.769531 L 0.628906 32.769531 Z M 0.628906 16 " clip-rule="nonzero"/></clipPath><clipPath id="7f827e2cd0"><rect x="0" width="17" y="0" height="33"/></clipPath><clipPath id="e76e073a20"><path d="M 34.085938 55 L 40 55 L 40 57 L 34.085938 57 Z M 34.085938 55 " clip-rule="nonzero"/></clipPath><clipPath id="18c743f8d7"><path d="M 34.085938 49 L 40 49 L 40 52 L 34.085938 52 Z M 34.085938 49 " clip-rule="nonzero"/></clipPath><clipPath id="9aa9dcfb96"><path d="M 52 29.710938 L 55 29.710938 L 55 36 L 52 36 Z M 52 29.710938 " clip-rule="nonzero"/></clipPath><clipPath id="1412506a6b"><path d="M 73 55 L 79.632812 55 L 79.632812 57 L 73 57 Z M 73 55 " clip-rule="nonzero"/></clipPath><clipPath id="edcda24c83"><path d="M 74 49 L 79.632812 49 L 79.632812 52 L 74 52 Z M 74 49 " clip-rule="nonzero"/></clipPath><clipPath id="28e471134b"><path d="M 58 29.710938 L 61 29.710938 L 61 36 L 58 36 Z M 58 29.710938 " clip-rule="nonzero"/></clipPath></defs><g clip-path="url(#a3e8b6282b)"><g clip-path="url(#3cce34fad6)"><path fill="#f67280" d="M 0 0 L 112.003906 0 L 112.003906 112.003906 L 0 112.003906 Z M 0 0 " fill-opacity="1" fill-rule="nonzero"/></g></g><g clip-path="url(#4b51d9cf5f)"><g clip-path="url(#2e350654ab)"><path fill="#ffbfc6" d="M 13.40625 60.953125 L 20.960938 60.953125 L 20.960938 68.507812 L 13.40625 68.507812 Z M 13.40625 60.953125 " fill-opacity="1" fill-rule="nonzero"/></g></g><g fill="#000000" fill-opacity="1"><g transform="translate(19.172986, 57.182781)"><g><path d="M 0.234375 -4.234375 C 0.210938 -3.515625 0.046875 -2.882812 -0.265625 -2.34375 C -0.578125 -1.8125 -1.035156 -1.398438 -1.640625 -1.109375 C -2.242188 -0.828125 -2.984375 -0.695312 -3.859375 -0.71875 C -4.722656 -0.738281 -5.445312 -0.910156 -6.03125 -1.234375 C -6.625 -1.566406 -7.0625 -2.003906 -7.34375 -2.546875 C -7.625 -3.097656 -7.753906 -3.734375 -7.734375 -4.453125 C -7.710938 -5.191406 -7.546875 -5.816406 -7.234375 -6.328125 C -6.929688 -6.847656 -6.476562 -7.210938 -5.875 -7.421875 L -5.234375 -6.28125 L -5.234375 -6.15625 C -5.640625 -6 -5.929688 -5.78125 -6.109375 -5.5 C -6.296875 -5.21875 -6.394531 -4.859375 -6.40625 -4.421875 C -6.425781 -3.773438 -6.226562 -3.265625 -5.8125 -2.890625 C -5.394531 -2.523438 -4.726562 -2.328125 -3.8125 -2.296875 C -2.882812 -2.273438 -2.203125 -2.4375 -1.765625 -2.78125 C -1.335938 -3.125 -1.113281 -3.617188 -1.09375 -4.265625 C -1.0625 -5.265625 -1.53125 -5.894531 -2.5 -6.15625 L -2.5 -6.28125 L -1.890625 -7.40625 C -1.148438 -7.164062 -0.601562 -6.785156 -0.25 -6.265625 C 0.09375 -5.742188 0.253906 -5.066406 0.234375 -4.234375 Z M 0.234375 -4.234375 "/></g></g></g><g fill="#000000" fill-opacity="1"><g transform="translate(19.766269, 47.414011)"><g><path d="M 0.28125 -0.953125 L -7.125 -3.171875 L -6.234375 -6.15625 C -6.003906 -6.925781 -5.65625 -7.453125 -5.1875 -7.734375 C -4.71875 -8.023438 -4.171875 -8.078125 -3.546875 -7.890625 C -3.097656 -7.753906 -2.765625 -7.523438 -2.546875 -7.203125 C -2.328125 -6.890625 -2.207031 -6.484375 -2.1875 -5.984375 L -2.078125 -5.953125 C -1.898438 -6.160156 -1.691406 -6.304688 -1.453125 -6.390625 C -1.210938 -6.484375 -0.882812 -6.53125 -0.46875 -6.53125 L 1.984375 -6.609375 L 1.53125 -5.109375 L -0.90625 -5.046875 C -1.144531 -5.035156 -1.34375 -5.003906 -1.5 -4.953125 C -1.65625 -4.898438 -1.78125 -4.804688 -1.875 -4.671875 C -1.96875 -4.546875 -2.046875 -4.367188 -2.109375 -4.140625 L -2.359375 -3.34375 L 0.71875 -2.421875 Z M -3.125 -5.015625 C -2.90625 -5.734375 -3.125 -6.191406 -3.78125 -6.390625 C -4.457031 -6.597656 -4.90625 -6.34375 -5.125 -5.625 L -5.53125 -4.296875 L -3.53125 -3.6875 Z M -3.125 -5.015625 "/></g></g></g><g fill="#000000" fill-opacity="1"><g transform="translate(22.778485, 38.439191)"><g><path d="M -1.625 -3.921875 L 0.203125 -2.828125 L 2.109375 -6 L 3.203125 -5.34375 L 0.515625 -0.859375 L -6.109375 -4.84375 L -3.46875 -9.25 L -2.375 -8.59375 L -4.234375 -5.5 L -2.6875 -4.5625 L -1.0625 -7.265625 L 0 -6.625 Z M -1.625 -3.921875 "/></g></g></g><g fill="#000000" fill-opacity="1"><g transform="translate(27.543088, 30.941968)"><g><path d="M 5.296875 -5.203125 L 4.140625 -4.078125 L 2.484375 -4.9375 L 0.359375 -2.859375 L 1.203125 -1.1875 L 0.078125 -0.078125 L -3.421875 -7.46875 L -2.03125 -8.84375 Z M -1.671875 -6.953125 L -0.234375 -4.078125 L 1.28125 -5.578125 L -1.578125 -7.046875 Z M -1.671875 -6.953125 "/></g></g></g><g fill="#000000" fill-opacity="1"><g transform="translate(34.754544, 24.353248)"><g><path d="M 1.5 -9.796875 L 2.140625 -8.6875 L 0.203125 -7.5625 L 3.4375 -1.984375 L 2.125 -1.234375 L -1.109375 -6.8125 L -3.046875 -5.6875 L -3.6875 -6.796875 Z M 1.5 -9.796875 "/></g></g></g><g fill="#000000" fill-opacity="1"><g transform="translate(42.540299, 20.284551)"><g><path d="M 2.40625 -0.8125 L 0.953125 -0.3125 L -1.515625 -7.640625 L -0.0625 -8.140625 Z M 2.40625 -0.8125 "/></g></g></g><g fill="#000000" fill-opacity="1"><g transform="translate(48.156659, 18.4493)"><g><path d="M 4.5625 -0.515625 L 2.734375 -0.3125 L -0.71875 -7.703125 L 0.890625 -7.890625 L 3.40625 -2.359375 L 3.53125 -2.375 L 4.734375 -8.3125 L 6.3125 -8.484375 Z M 4.5625 -0.515625 "/></g></g></g><g fill="#000000" fill-opacity="1"><g transform="translate(57.700545, 17.705091)"><g><path d="M 2.96875 -3.015625 L 2.671875 -0.90625 L 6.34375 -0.390625 L 6.171875 0.875 L 0.984375 0.140625 L 2.0625 -7.515625 L 7.15625 -6.796875 L 6.984375 -5.53125 L 3.40625 -6.03125 L 3.15625 -4.25 L 6.28125 -3.8125 L 6.09375 -2.578125 Z M 2.96875 -3.015625 "/></g></g></g><g fill="#000000" fill-opacity="1"><g transform="translate(66.59211, 19.386016)"><g/></g></g><g fill="#000000" fill-opacity="1"><g transform="translate(71.289714, 21.041367)"><g><path d="M 2.9375 1.8125 C 2.46875 1.539062 2.082031 1.242188 1.78125 0.921875 C 1.476562 0.597656 1.257812 0.273438 1.125 -0.046875 C 0.988281 -0.378906 0.921875 -0.691406 0.921875 -0.984375 L 2.171875 -1.453125 L 2.28125 -1.390625 C 2.3125 -0.972656 2.429688 -0.585938 2.640625 -0.234375 C 2.859375 0.117188 3.175781 0.414062 3.59375 0.65625 C 3.9375 0.851562 4.238281 0.929688 4.5 0.890625 C 4.769531 0.847656 4.984375 0.695312 5.140625 0.4375 C 5.234375 0.269531 5.28125 0.117188 5.28125 -0.015625 C 5.28125 -0.148438 5.234375 -0.296875 5.140625 -0.453125 C 5.054688 -0.609375 4.914062 -0.78125 4.71875 -0.96875 L 3.96875 -1.671875 C 3.445312 -2.148438 3.128906 -2.632812 3.015625 -3.125 C 2.898438 -3.613281 2.992188 -4.117188 3.296875 -4.640625 C 3.515625 -5.015625 3.800781 -5.289062 4.15625 -5.46875 C 4.507812 -5.644531 4.910156 -5.707031 5.359375 -5.65625 C 5.816406 -5.613281 6.300781 -5.445312 6.8125 -5.15625 C 7.320312 -4.851562 7.722656 -4.523438 8.015625 -4.171875 C 8.304688 -3.816406 8.492188 -3.425781 8.578125 -3 L 7.421875 -2.484375 L 7.296875 -2.5625 C 7.222656 -2.863281 7.09375 -3.132812 6.90625 -3.375 C 6.71875 -3.613281 6.46875 -3.828125 6.15625 -4.015625 C 5.789062 -4.222656 5.476562 -4.316406 5.21875 -4.296875 C 4.957031 -4.273438 4.757812 -4.148438 4.625 -3.921875 C 4.507812 -3.710938 4.476562 -3.503906 4.53125 -3.296875 C 4.59375 -3.097656 4.769531 -2.867188 5.0625 -2.609375 L 5.828125 -1.921875 C 6.398438 -1.410156 6.738281 -0.90625 6.84375 -0.40625 C 6.945312 0.0820312 6.847656 0.59375 6.546875 1.125 C 6.304688 1.539062 6.003906 1.851562 5.640625 2.0625 C 5.273438 2.269531 4.863281 2.351562 4.40625 2.3125 C 3.945312 2.28125 3.457031 2.113281 2.9375 1.8125 Z M 2.9375 1.8125 "/></g></g></g><g fill="#000000" fill-opacity="1"><g transform="translate(78.865788, 25.693775)"><g><path d="M 8.265625 -2.765625 C 8.660156 -2.378906 8.925781 -1.972656 9.0625 -1.546875 C 9.207031 -1.128906 9.222656 -0.71875 9.109375 -0.3125 C 8.992188 0.0820312 8.769531 0.453125 8.4375 0.796875 C 8.09375 1.148438 7.722656 1.382812 7.328125 1.5 C 6.941406 1.613281 6.535156 1.601562 6.109375 1.46875 C 5.691406 1.34375 5.285156 1.085938 4.890625 0.703125 L 3.828125 -0.3125 L 1.8125 1.765625 L 0.71875 0.703125 L 6.109375 -4.84375 Z M 5.578125 -0.296875 C 6.191406 0.296875 6.78125 0.300781 7.34375 -0.28125 C 7.90625 -0.863281 7.878906 -1.453125 7.265625 -2.046875 L 6.359375 -2.921875 L 4.671875 -1.171875 Z M 5.578125 -0.296875 "/></g></g></g><g fill="#000000" fill-opacity="1"><g transform="translate(85.344113, 32.343742)"><g><path d="M 3.828125 6.359375 L 3 4.984375 L 4.21875 3.5625 L 2.703125 1.015625 L 0.875 1.453125 L 0.0625 0.09375 L 8.0625 -1.59375 L 9.078125 0.09375 Z M 7.15625 0 L 4.03125 0.71875 L 5.125 2.546875 L 7.21875 0.109375 Z M 7.15625 0 "/></g></g></g><g fill="#000000" fill-opacity="1"><g transform="translate(90.095351, 40.849004)"><g><path d="M 0.28125 0.96875 L 7.71875 -1.171875 L 8.578125 1.8125 C 8.796875 2.582031 8.785156 3.21875 8.546875 3.71875 C 8.316406 4.21875 7.882812 4.554688 7.25 4.734375 C 6.800781 4.867188 6.398438 4.859375 6.046875 4.703125 C 5.691406 4.554688 5.367188 4.273438 5.078125 3.859375 L 4.96875 3.890625 C 4.9375 4.148438 4.84375 4.378906 4.6875 4.578125 C 4.53125 4.785156 4.269531 5.007812 3.90625 5.25 L 1.90625 6.640625 L 1.46875 5.125 L 3.484375 3.765625 C 3.679688 3.617188 3.828125 3.484375 3.921875 3.359375 C 4.023438 3.234375 4.082031 3.085938 4.09375 2.921875 C 4.113281 2.765625 4.085938 2.570312 4.015625 2.34375 L 3.796875 1.546875 L 0.703125 2.4375 Z M 5.34375 2.546875 C 5.550781 3.265625 5.984375 3.523438 6.640625 3.328125 C 7.328125 3.140625 7.566406 2.6875 7.359375 1.96875 L 6.984375 0.640625 L 4.96875 1.21875 Z M 5.34375 2.546875 "/></g></g></g><g fill="#000000" fill-opacity="1"><g transform="translate(92.419508, 50.013742)"><g><path d="M 0.015625 1 L 7.75 0.828125 L 7.796875 2.359375 L 4.640625 2.421875 L 4.640625 2.59375 L 7.859375 5.125 L 7.890625 6.6875 L 7.765625 6.6875 L 4.1875 3.921875 L 0.296875 7.15625 L 0.171875 7.15625 L 0.125 5.421875 L 3.40625 2.625 L 3.40625 2.453125 L 0.0625 2.53125 Z M 0.015625 1 "/></g></g></g><g fill="#000000" fill-opacity="1"><g transform="translate(16.375583, 72.212921)"><g><path d="M 1.765625 3.859375 C 1.441406 3.210938 1.296875 2.578125 1.328125 1.953125 C 1.359375 1.335938 1.570312 0.757812 1.96875 0.21875 C 2.363281 -0.3125 2.957031 -0.769531 3.75 -1.15625 C 4.53125 -1.53125 5.253906 -1.707031 5.921875 -1.6875 C 6.597656 -1.675781 7.1875 -1.488281 7.6875 -1.125 C 8.1875 -0.769531 8.597656 -0.269531 8.921875 0.375 C 9.242188 1.039062 9.382812 1.664062 9.34375 2.25 C 9.3125 2.84375 9.078125 3.378906 8.640625 3.859375 L 7.546875 3.140625 L 7.484375 3.03125 C 7.773438 2.707031 7.9375 2.375 7.96875 2.03125 C 8 1.695312 7.921875 1.335938 7.734375 0.953125 C 7.441406 0.367188 7.023438 0.0078125 6.484375 -0.125 C 5.941406 -0.257812 5.257812 -0.128906 4.4375 0.265625 C 3.601562 0.671875 3.070312 1.128906 2.84375 1.640625 C 2.625 2.148438 2.660156 2.695312 2.953125 3.28125 C 3.390625 4.175781 4.09375 4.515625 5.0625 4.296875 L 5.125 4.40625 L 5.09375 5.6875 C 4.332031 5.8125 3.675781 5.722656 3.125 5.421875 C 2.582031 5.128906 2.128906 4.609375 1.765625 3.859375 Z M 1.765625 3.859375 "/></g></g></g><g fill="#000000" fill-opacity="1"><g transform="translate(22.131986, 82.712592)"><g><path d="M 2.78125 3.171875 C 2.300781 2.648438 1.984375 2.09375 1.828125 1.5 C 1.671875 0.90625 1.707031 0.296875 1.9375 -0.328125 C 2.164062 -0.960938 2.601562 -1.578125 3.25 -2.171875 C 3.90625 -2.773438 4.554688 -3.164062 5.203125 -3.34375 C 5.847656 -3.519531 6.457031 -3.507812 7.03125 -3.3125 C 7.613281 -3.113281 8.144531 -2.753906 8.625 -2.234375 C 9.101562 -1.710938 9.421875 -1.148438 9.578125 -0.546875 C 9.734375 0.046875 9.695312 0.65625 9.46875 1.28125 C 9.25 1.90625 8.8125 2.519531 8.15625 3.125 C 7.507812 3.71875 6.859375 4.101562 6.203125 4.28125 C 5.554688 4.46875 4.941406 4.457031 4.359375 4.25 C 3.785156 4.050781 3.257812 3.691406 2.78125 3.171875 Z M 3.75 2.265625 C 4.195312 2.753906 4.695312 2.984375 5.25 2.953125 C 5.800781 2.921875 6.414062 2.59375 7.09375 1.96875 C 7.769531 1.34375 8.144531 0.753906 8.21875 0.203125 C 8.289062 -0.335938 8.101562 -0.851562 7.65625 -1.34375 C 7.21875 -1.820312 6.722656 -2.039062 6.171875 -2 C 5.617188 -1.96875 5.003906 -1.640625 4.328125 -1.015625 C 3.648438 -0.390625 3.273438 0.191406 3.203125 0.734375 C 3.128906 1.273438 3.3125 1.785156 3.75 2.265625 Z M 3.75 2.265625 "/></g></g></g><g fill="#000000" fill-opacity="1"><g transform="translate(31.346083, 91.787335)"><g><path d="M 2.109375 1.15625 L 0.875 0.484375 L 4.578125 -6.296875 L 6.328125 -5.34375 L 5.34375 0.59375 L 5.4375 0.640625 L 9.875 -3.40625 L 11.578125 -2.46875 L 7.875 4.3125 L 6.609375 3.609375 L 9.0625 -0.875 L 8.953125 -0.96875 L 4.921875 2.6875 L 3.796875 2.078125 L 4.703125 -3.296875 L 4.5625 -3.328125 Z M 2.109375 1.15625 "/></g></g></g><g fill="#000000" fill-opacity="1"><g transform="translate(44.376855, 97.885329)"><g><path d="M 5.40625 -6.828125 C 5.945312 -6.722656 6.394531 -6.53125 6.75 -6.25 C 7.101562 -5.96875 7.335938 -5.628906 7.453125 -5.234375 C 7.578125 -4.847656 7.59375 -4.421875 7.5 -3.953125 C 7.40625 -3.472656 7.226562 -3.070312 6.96875 -2.75 C 6.707031 -2.4375 6.363281 -2.21875 5.9375 -2.09375 C 5.507812 -1.976562 5.023438 -1.972656 4.484375 -2.078125 L 3.046875 -2.359375 L 2.484375 0.484375 L 0.984375 0.1875 L 2.46875 -7.40625 Z M 4.5 -3.28125 C 5.34375 -3.113281 5.84375 -3.429688 6 -4.234375 C 6.15625 -5.023438 5.8125 -5.503906 4.96875 -5.671875 L 3.734375 -5.921875 L 3.265625 -3.53125 Z M 4.5 -3.28125 "/></g></g></g><g fill="#000000" fill-opacity="1"><g transform="translate(55.591753, 99.471337)"><g><path d="M 2.03125 -7.890625 L 2.453125 -1.453125 L 5.921875 -1.671875 L 6 -0.390625 L 1 -0.0625 L 0.5 -7.78125 Z M 2.03125 -7.890625 "/></g></g></g><g fill="#000000" fill-opacity="1"><g transform="translate(66.034095, 98.274458)"><g><path d="M 1.34375 -4.03125 L 2 -2.015625 L 5.515625 -3.171875 L 5.921875 -1.953125 L 0.953125 -0.3125 L -1.46875 -7.65625 L 3.40625 -9.265625 L 3.8125 -8.046875 L 0.390625 -6.921875 L 0.953125 -5.21875 L 3.953125 -6.203125 L 4.34375 -5.015625 Z M 1.34375 -4.03125 "/></g></g></g><g fill="#000000" fill-opacity="1"><g transform="translate(76.195753, 94.330629)"><g><path d="M 1 -9.875 L 1.703125 -8.796875 L -0.171875 -7.578125 L 3.328125 -2.15625 L 2.0625 -1.328125 L -1.4375 -6.75 L -3.3125 -5.546875 L -4.015625 -6.625 Z M 1 -9.875 "/></g></g></g><g fill="#000000" fill-opacity="1"><g transform="translate(84.851936, 88.102643)"><g><path d="M -0.8125 -4.171875 L 0.75 -2.734375 L 3.25 -5.453125 L 4.203125 -4.59375 L 0.671875 -0.734375 L -5.03125 -5.953125 L -1.5625 -9.75 L -0.625 -8.890625 L -3.0625 -6.234375 L -1.734375 -5.015625 L 0.40625 -7.34375 L 1.328125 -6.5 Z M -0.8125 -4.171875 "/></g></g></g><g fill="#000000" fill-opacity="1"><g transform="translate(91.898032, 79.662156)"><g><path d="M -5.234375 -6.84375 C -4.671875 -7.957031 -3.953125 -8.664062 -3.078125 -8.96875 C -2.210938 -9.28125 -1.207031 -9.148438 -0.0625 -8.578125 C 1.082031 -8.015625 1.800781 -7.289062 2.09375 -6.40625 C 2.382812 -5.519531 2.25 -4.519531 1.6875 -3.40625 L 0.453125 -0.890625 L -6.46875 -4.328125 Z M 0.515625 -3.890625 C 0.859375 -4.597656 0.929688 -5.21875 0.734375 -5.75 C 0.546875 -6.289062 0.046875 -6.757812 -0.765625 -7.15625 C -1.578125 -7.5625 -2.253906 -7.675781 -2.796875 -7.5 C -3.335938 -7.332031 -3.78125 -6.894531 -4.125 -6.1875 L -4.65625 -5.140625 L -0.015625 -2.84375 Z M 0.515625 -3.890625 "/></g></g></g><g clip-path="url(#603f579b7a)"><g clip-path="url(#8bec68b97a)"><path fill="#ffbfc6" d="M 92.777344 60.953125 L 100.332031 60.953125 L 100.332031 68.507812 L 92.777344 68.507812 Z M 92.777344 60.953125 " fill-opacity="1" fill-rule="nonzero"/></g></g><g mask="url(#d8bdec803b)"><g transform="matrix(1, 0, 0, 1, 21, 20)"><g clip-path="url(#842413c840)"><g clip-path="url(#9d7979dbf0)"><path fill="#ffffff" d="M 41.050781 62.734375 C 41.117188 62.75 41.191406 62.734375 41.246094 62.683594 C 41.609375 62.335938 41.089844 60.59375 39.9375 56.683594 C 39.9375 56.683594 39.082031 53.769531 38.285156 51.027344 C 37.863281 49.582031 37.53125 48.398438 37.3125 47.625 C 37.488281 48.40625 37.765625 49.605469 38.082031 51.078125 C 38.300781 52.078125 38.648438 53.664062 39.328125 56.835938 C 40.191406 60.820312 40.558594 62.597656 41.042969 62.734375 Z M 55.535156 56.398438 C 55.609375 56.378906 55.667969 56.320312 55.6875 56.246094 C 55.828125 55.765625 54.5 54.515625 51.542969 51.703125 C 51.542969 51.703125 49.339844 49.605469 47.273438 47.625 C 46.183594 46.582031 45.300781 45.726562 44.722656 45.164062 C 45.269531 45.753906 46.105469 46.660156 47.121094 47.769531 C 47.816406 48.523438 48.910156 49.726562 51.09375 52.132812 C 53.828125 55.164062 55.042969 56.519531 55.535156 56.398438 Z M 63.796875 42.179688 C 63.851562 42.125 63.871094 42.050781 63.855469 41.980469 C 63.734375 41.492188 61.957031 41.078125 57.988281 40.109375 C 57.988281 40.109375 55.027344 39.390625 52.242188 38.707031 C 50.777344 38.34375 49.582031 38.042969 48.800781 37.84375 C 49.570312 38.082031 50.75 38.445312 52.1875 38.90625 C 53.164062 39.21875 54.71875 39.710938 57.816406 40.710938 C 61.703125 41.96875 63.4375 42.535156 63.796875 42.1875 Z M 5.8125 41.324219 C 5.796875 41.398438 5.816406 41.472656 5.863281 41.527344 C 6.214844 41.886719 7.972656 41.375 11.882812 40.222656 C 11.882812 40.222656 14.808594 39.367188 17.5625 38.566406 C 19.015625 38.152344 20.203125 37.816406 20.976562 37.597656 C 20.191406 37.777344 18.988281 38.050781 17.515625 38.367188 C 16.511719 38.585938 14.917969 38.929688 11.734375 39.609375 C 7.734375 40.476562 5.949219 40.847656 5.8125 41.324219 Z M 13.675781 55.765625 C 13.695312 55.839844 13.75 55.898438 13.824219 55.914062 C 14.308594 56.054688 15.5625 54.734375 18.386719 51.785156 C 18.386719 51.785156 20.492188 49.589844 22.480469 47.527344 C 23.535156 46.445312 24.386719 45.5625 24.953125 44.988281 C 24.359375 45.535156 23.449219 46.367188 22.335938 47.378906 C 21.574219 48.070312 20.367188 49.164062 17.953125 51.335938 C 14.910156 54.074219 13.550781 55.285156 13.675781 55.765625 Z M 27.933594 62.507812 C 27.984375 62.558594 28.058594 62.578125 28.132812 62.5625 C 28.621094 62.441406 29.046875 60.671875 30.011719 56.714844 C 30.011719 56.714844 30.734375 53.761719 31.421875 50.988281 C 31.785156 49.527344 32.085938 48.335938 32.285156 47.558594 C 32.046875 48.324219 31.683594 49.5 31.21875 50.933594 C 30.90625 51.910156 30.410156 53.457031 29.414062 56.542969 C 28.144531 60.417969 27.574219 62.148438 27.925781 62.507812 Z M 50.796875 63.019531 C 50.886719 63.015625 50.96875 62.96875 51.011719 62.894531 C 51.3125 62.371094 50.148438 60.53125 47.554688 56.394531 C 47.554688 56.394531 45.617188 53.3125 43.804688 50.402344 C 42.851562 48.875 42.078125 47.617188 41.578125 46.792969 C 42.039062 47.636719 42.738281 48.933594 43.589844 50.523438 C 44.167969 51.609375 45.085938 53.324219 46.898438 56.765625 C 49.183594 61.085938 50.195312 63.019531 50.796875 63.019531 Z M 63.574219 50.472656 C 63.652344 50.425781 63.699219 50.34375 63.699219 50.253906 C 63.699219 49.652344 61.769531 48.644531 57.453125 46.359375 C 57.453125 46.359375 54.234375 44.65625 51.210938 43.050781 C 49.621094 42.203125 48.324219 41.5 47.480469 41.039062 C 48.300781 41.542969 49.554688 42.316406 51.089844 43.265625 C 52.132812 43.917969 53.785156 44.945312 57.078125 47.015625 C 61.214844 49.605469 63.058594 50.773438 63.574219 50.472656 Z M 6.320312 50.273438 C 6.320312 50.363281 6.367188 50.445312 6.445312 50.492188 C 6.964844 50.792969 8.804688 49.628906 12.941406 47.03125 C 12.941406 47.03125 16.023438 45.097656 18.933594 43.285156 C 20.464844 42.332031 21.71875 41.558594 22.542969 41.058594 C 21.695312 41.519531 20.402344 42.21875 18.808594 43.066406 C 17.722656 43.648438 16.007812 44.5625 12.570312 46.378906 C 8.25 48.664062 6.316406 49.671875 6.320312 50.273438 Z M 19.015625 62.902344 C 19.0625 62.980469 19.140625 63.027344 19.230469 63.027344 C 19.832031 63.027344 20.84375 61.097656 23.125 56.78125 C 23.125 56.78125 24.828125 53.5625 26.4375 50.539062 C 27.285156 48.949219 27.984375 47.652344 28.445312 46.808594 C 27.945312 47.628906 27.171875 48.886719 26.21875 50.417969 C 25.570312 51.460938 24.542969 53.113281 22.472656 56.40625 C 19.886719 60.542969 18.710938 62.382812 19.015625 62.902344 Z M 34.890625 67.015625 C 34.96875 67.058594 35.0625 67.058594 35.140625 67.015625 C 35.664062 66.714844 35.570312 64.539062 35.390625 59.660156 C 35.390625 59.660156 35.253906 56.019531 35.140625 52.597656 C 35.082031 50.789062 35.039062 49.320312 35.015625 48.359375 C 34.992188 49.320312 34.949219 50.792969 34.890625 52.597656 C 34.847656 53.824219 34.785156 55.769531 34.640625 59.65625 C 34.460938 64.539062 34.367188 66.71875 34.890625 67.015625 Z M 41.042969 4.726562 C 41.117188 4.707031 41.191406 4.722656 41.246094 4.773438 C 41.609375 5.121094 41.089844 6.863281 39.9375 10.773438 C 39.9375 10.773438 39.082031 13.6875 38.285156 16.429688 C 37.863281 17.875 37.53125 19.058594 37.3125 19.832031 C 37.488281 19.046875 37.765625 17.847656 38.082031 16.378906 C 38.300781 15.378906 38.648438 13.792969 39.328125 10.621094 C 40.191406 6.640625 40.558594 4.859375 41.042969 4.726562 Z M 55.535156 11.0625 C 55.609375 11.082031 55.667969 11.136719 55.6875 11.210938 C 55.828125 11.691406 54.5 12.941406 51.542969 15.753906 C 51.542969 15.753906 49.339844 17.851562 47.273438 19.832031 C 46.183594 20.875 45.300781 21.730469 44.722656 22.292969 C 45.269531 21.703125 46.105469 20.800781 47.121094 19.6875 C 47.816406 18.933594 48.910156 17.730469 51.09375 15.324219 C 53.828125 12.292969 55.042969 10.9375 55.535156 11.0625 Z M 63.796875 25.277344 C 63.851562 25.328125 63.871094 25.40625 63.855469 25.476562 C 63.734375 25.964844 61.957031 26.378906 57.988281 27.347656 C 57.988281 27.347656 55.027344 28.066406 52.242188 28.75 C 50.777344 29.109375 49.582031 29.414062 48.800781 29.613281 C 49.570312 29.375 50.75 29.011719 52.1875 28.550781 C 53.164062 28.238281 54.71875 27.746094 57.816406 26.746094 C 61.703125 25.488281 63.4375 24.929688 63.796875 25.273438 Z M 5.8125 26.132812 C 5.792969 26.058594 5.8125 25.984375 5.863281 25.929688 C 6.214844 25.566406 7.972656 26.089844 11.882812 27.234375 C 11.882812 27.234375 14.808594 28.089844 17.5625 28.882812 C 19.015625 29.300781 20.203125 29.632812 20.976562 29.851562 C 20.191406 29.671875 18.988281 29.398438 17.515625 29.082031 C 16.511719 28.867188 14.917969 28.519531 11.734375 27.839844 C 7.734375 26.984375 5.949219 26.613281 5.8125 26.132812 Z M 13.675781 11.691406 C 13.695312 11.617188 13.75 11.558594 13.824219 11.539062 C 14.308594 11.402344 15.5625 12.722656 18.386719 15.667969 C 18.386719 15.667969 20.492188 17.867188 22.480469 19.925781 C 23.535156 21.011719 24.386719 21.894531 24.953125 22.464844 C 24.359375 21.921875 23.449219 21.089844 22.335938 20.078125 C 21.574219 19.386719 20.367188 18.296875 17.953125 16.121094 C 14.910156 13.386719 13.550781 12.171875 13.675781 11.691406 Z M 27.933594 4.953125 C 27.984375 4.902344 28.058594 4.878906 28.132812 4.898438 C 28.621094 5.019531 29.046875 6.789062 30.011719 10.746094 C 30.011719 10.746094 30.734375 13.695312 31.421875 16.46875 C 31.785156 17.929688 32.085938 19.121094 32.285156 19.898438 C 32.046875 19.132812 31.683594 17.960938 31.21875 16.527344 C 30.90625 15.550781 30.410156 14.003906 29.414062 10.917969 C 28.144531 7.039062 27.574219 5.3125 27.925781 4.953125 Z M 50.796875 4.441406 C 50.886719 4.441406 50.96875 4.492188 51.011719 4.566406 C 51.3125 5.085938 50.148438 6.925781 47.554688 11.0625 C 47.554688 11.0625 45.617188 14.148438 43.804688 17.054688 C 42.851562 18.585938 42.078125 19.84375 41.578125 20.664062 C 42.039062 19.820312 42.738281 18.523438 43.589844 16.933594 C 44.167969 15.847656 45.085938 14.132812 46.898438 10.691406 C 49.183594 6.371094 50.195312 4.4375 50.796875 4.441406 Z M 63.574219 16.988281 C 63.652344 17.035156 63.699219 17.117188 63.699219 17.203125 C 63.699219 17.804688 61.769531 18.816406 57.453125 21.097656 C 57.453125 21.097656 54.234375 22.800781 51.210938 24.40625 C 49.621094 25.257812 48.324219 25.960938 47.480469 26.417969 C 48.300781 25.917969 49.554688 25.144531 51.089844 24.191406 C 52.132812 23.542969 53.785156 22.515625 57.078125 20.445312 C 61.214844 17.859375 63.058594 16.683594 63.574219 16.988281 Z M 69.792969 33.617188 C 69.835938 33.691406 69.835938 33.789062 69.792969 33.867188 C 69.492188 34.386719 67.316406 34.296875 62.433594 34.113281 C 62.433594 34.113281 58.796875 33.980469 55.371094 33.867188 C 53.566406 33.804688 52.097656 33.765625 51.136719 33.742188 C 52.097656 33.714844 53.570312 33.675781 55.371094 33.617188 C 56.601562 33.574219 58.546875 33.511719 62.433594 33.367188 C 67.316406 33.183594 69.496094 33.09375 69.792969 33.617188 Z M 0.214844 33.839844 C 0.171875 33.765625 0.171875 33.667969 0.214844 33.589844 C 0.515625 33.070312 2.691406 33.160156 7.570312 33.34375 C 7.570312 33.34375 11.210938 33.476562 14.640625 33.589844 C 16.445312 33.652344 17.917969 33.691406 18.878906 33.714844 C 17.917969 33.742188 16.441406 33.78125 14.640625 33.839844 C 13.414062 33.882812 11.46875 33.945312 7.582031 34.089844 C 2.691406 34.273438 0.511719 34.363281 0.214844 33.839844 Z M 6.320312 17.191406 C 6.320312 17.101562 6.367188 17.019531 6.445312 16.972656 C 6.964844 16.671875 8.804688 17.839844 12.941406 20.433594 C 12.941406 20.433594 16.023438 22.371094 18.933594 24.183594 C 20.464844 25.136719 21.71875 25.90625 22.542969 26.410156 C 21.695312 25.957031 20.402344 25.246094 18.808594 24.398438 C 17.722656 23.820312 16.007812 22.902344 12.570312 21.089844 C 8.25 18.796875 6.316406 17.785156 6.320312 17.183594 Z M 19.015625 4.554688 C 19.0625 4.480469 19.140625 4.429688 19.230469 4.429688 C 19.832031 4.429688 20.84375 6.359375 23.125 10.675781 C 23.125 10.675781 24.828125 13.898438 26.4375 16.921875 C 27.285156 18.511719 27.984375 19.804688 28.445312 20.652344 C 27.945312 19.832031 27.171875 18.574219 26.21875 17.042969 C 25.570312 16 24.542969 14.347656 22.472656 11.050781 C 19.886719 6.917969 18.710938 5.074219 19.015625 4.554688 Z M 34.890625 0.441406 C 34.96875 0.398438 35.0625 0.398438 35.140625 0.441406 C 35.664062 0.742188 35.570312 2.921875 35.390625 7.800781 C 35.390625 7.800781 35.253906 11.441406 35.140625 14.871094 C 35.082031 16.675781 35.039062 18.148438 35.015625 19.109375 C 34.992188 18.148438 34.949219 16.671875 34.890625 14.871094 C 34.847656 13.644531 34.785156 11.695312 34.640625 7.808594 C 34.460938 2.921875 34.367188 0.742188 34.890625 0.441406 " fill-opacity="1" fill-rule="nonzero"/></g></g></g></g><path fill="#e00051" d="M 56.925781 69.566406 C 56.925781 69.566406 54.28125 69.652344 51.984375 69.347656 C 50.695312 69.179688 50.152344 68.109375 50.007812 67.089844 C 49.894531 66.292969 50.023438 65.527344 50.230469 65.25 C 48.203125 65.164062 47.847656 63.386719 47.847656 63.386719 C 47.847656 63.386719 47.09375 63.289062 46.972656 63.253906 C 46.890625 63.230469 46.335938 62.871094 45.949219 62.628906 C 45.75 62.503906 45.597656 62.410156 45.574219 62.40625 C 45.5 62.394531 45.074219 60.859375 45.074219 60.859375 L 43.628906 60.351562 L 42.667969 58.066406 L 42.75 57.546875 L 42.910156 56.527344 L 41.550781 55.695312 L 41.207031 53.203125 L 41.382812 52.488281 L 41.71875 51.109375 L 42.484375 50.238281 C 42.484375 50.238281 42.058594 48.921875 42.058594 48.886719 C 42.058594 48.871094 42.105469 48.640625 42.15625 48.375 C 42.234375 47.996094 42.328125 47.542969 42.328125 47.542969 L 43.617188 46.238281 L 44.285156 45.316406 C 44.285156 45.316406 44.289062 45.300781 44.300781 45.269531 C 44.390625 44.964844 44.882812 43.324219 44.882812 43.226562 C 44.882812 43.117188 45.695312 42.414062 45.695312 42.414062 L 46.519531 42.210938 L 48.457031 41.726562 C 48.457031 41.726562 48.578125 41.097656 48.578125 40.988281 C 48.578125 40.90625 49.257812 40.28125 49.621094 39.953125 C 49.753906 39.832031 49.84375 39.753906 49.84375 39.753906 L 51.242188 39.597656 C 51.242188 39.597656 52.359375 38.300781 52.386719 38.253906 C 52.410156 38.207031 54.222656 37.808594 54.222656 37.808594 L 56.8125 38.75 L 56.8125 38.984375 L 56.828125 43.753906 L 56.84375 47.8125 L 56.859375 51.714844 L 56.875 55.554688 L 56.886719 59.363281 L 56.902344 63.152344 L 56.914062 66.933594 Z M 56.925781 69.566406 " fill-opacity="1" fill-rule="nonzero"/><path fill="#ffb401" d="M 56.914062 66.933594 C 55.546875 67.113281 54.152344 67.207031 52.738281 67.207031 C 51.816406 67.207031 50.90625 67.167969 50.007812 67.089844 C 49.894531 66.292969 50.023438 65.527344 50.230469 65.25 C 48.203125 65.164062 47.847656 63.386719 47.847656 63.386719 C 47.847656 63.386719 47.09375 63.289062 46.972656 63.253906 C 46.890625 63.230469 46.335938 62.871094 45.949219 62.628906 C 45.75 62.503906 45.597656 62.410156 45.574219 62.40625 C 45.5 62.394531 45.074219 60.859375 45.074219 60.859375 L 43.628906 60.351562 L 42.667969 58.066406 L 42.75 57.546875 L 42.910156 56.527344 L 41.550781 55.695312 L 41.207031 53.203125 L 41.382812 52.488281 L 41.71875 51.109375 L 42.484375 50.238281 C 42.484375 50.238281 42.058594 48.921875 42.058594 48.886719 C 42.058594 48.871094 42.105469 48.640625 42.15625 48.375 C 42.234375 47.996094 42.328125 47.542969 42.328125 47.542969 L 43.617188 46.238281 L 44.285156 45.316406 C 44.285156 45.316406 44.289062 45.300781 44.300781 45.269531 C 44.390625 44.964844 44.882812 43.324219 44.882812 43.226562 C 44.882812 43.117188 45.695312 42.414062 45.695312 42.414062 L 46.519531 42.210938 L 48.457031 41.726562 C 48.457031 41.726562 48.578125 41.097656 48.578125 40.988281 C 48.578125 40.90625 49.257812 40.28125 49.621094 39.953125 C 49.753906 39.832031 49.84375 39.753906 49.84375 39.753906 L 51.242188 39.597656 C 51.242188 39.597656 52.359375 38.300781 52.386719 38.253906 C 52.410156 38.207031 54.222656 37.808594 54.222656 37.808594 L 56.8125 38.75 L 56.8125 38.984375 L 56.828125 43.753906 L 56.84375 47.8125 L 56.859375 51.714844 L 56.875 55.554688 L 56.886719 59.363281 L 56.902344 63.152344 Z M 56.914062 66.933594 " fill-opacity="0.1" fill-rule="nonzero"/><path fill="#ffb401" d="M 56.902344 63.152344 C 55.542969 63.359375 54.152344 63.464844 52.738281 63.464844 C 50.394531 63.464844 48.121094 63.175781 45.949219 62.628906 C 45.75 62.503906 45.597656 62.410156 45.574219 62.40625 C 45.5 62.394531 45.074219 60.859375 45.074219 60.859375 L 43.628906 60.351562 L 42.667969 58.066406 L 42.75 57.546875 L 42.910156 56.527344 L 41.550781 55.695312 L 41.207031 53.203125 L 41.382812 52.488281 L 41.71875 51.109375 L 42.484375 50.238281 C 42.484375 50.238281 42.058594 48.921875 42.058594 48.886719 C 42.058594 48.871094 42.105469 48.640625 42.15625 48.375 C 42.234375 47.996094 42.328125 47.542969 42.328125 47.542969 L 43.617188 46.238281 L 44.285156 45.316406 C 44.285156 45.316406 44.289062 45.300781 44.300781 45.269531 C 44.390625 44.964844 44.882812 43.324219 44.882812 43.226562 C 44.882812 43.117188 45.695312 42.414062 45.695312 42.414062 L 46.519531 42.210938 L 48.457031 41.726562 C 48.457031 41.726562 48.578125 41.097656 48.578125 40.988281 C 48.578125 40.90625 49.257812 40.28125 49.621094 39.953125 C 49.753906 39.832031 49.84375 39.753906 49.84375 39.753906 L 51.242188 39.597656 C 51.242188 39.597656 52.359375 38.300781 52.386719 38.253906 C 52.410156 38.207031 54.222656 37.808594 54.222656 37.808594 L 56.8125 38.75 L 56.8125 38.984375 L 56.828125 43.753906 L 56.84375 47.8125 L 56.859375 51.714844 L 56.875 55.554688 L 56.886719 59.363281 Z M 56.902344 63.152344 " fill-opacity="0.1" fill-rule="nonzero"/><path fill="#ffb401" d="M 56.886719 59.363281 C 55.539062 59.601562 54.152344 59.722656 52.738281 59.722656 C 49.175781 59.722656 45.789062 58.945312 42.75 57.546875 L 42.910156 56.527344 L 41.550781 55.695312 L 41.207031 53.203125 L 41.382812 52.488281 L 41.71875 51.109375 L 42.484375 50.238281 C 42.484375 50.238281 42.058594 48.921875 42.058594 48.886719 C 42.058594 48.871094 42.105469 48.640625 42.15625 48.375 C 42.234375 47.996094 42.328125 47.542969 42.328125 47.542969 L 43.617188 46.238281 L 44.285156 45.316406 C 44.285156 45.316406 44.289062 45.300781 44.300781 45.269531 C 44.390625 44.964844 44.882812 43.324219 44.882812 43.226562 C 44.882812 43.117188 45.695312 42.414062 45.695312 42.414062 L 46.519531 42.210938 L 48.457031 41.726562 C 48.457031 41.726562 48.578125 41.097656 48.578125 40.988281 C 48.578125 40.90625 49.257812 40.28125 49.621094 39.953125 C 49.753906 39.832031 49.84375 39.753906 49.84375 39.753906 L 51.242188 39.597656 C 51.242188 39.597656 52.359375 38.300781 52.386719 38.253906 C 52.410156 38.207031 54.222656 37.808594 54.222656 37.808594 L 56.8125 38.75 L 56.8125 38.984375 L 56.828125 43.753906 L 56.84375 47.8125 L 56.859375 51.714844 L 56.875 55.554688 Z M 56.886719 59.363281 " fill-opacity="0.1" fill-rule="nonzero"/><path fill="#ffb401" d="M 56.875 55.554688 C 55.539062 55.835938 54.15625 55.980469 52.738281 55.980469 C 48.53125 55.980469 44.617188 54.691406 41.382812 52.488281 L 41.71875 51.109375 L 42.484375 50.238281 C 42.484375 50.238281 42.058594 48.921875 42.058594 48.886719 C 42.058594 48.871094 42.105469 48.640625 42.15625 48.375 C 42.234375 47.996094 42.328125 47.542969 42.328125 47.542969 L 43.617188 46.238281 L 44.285156 45.316406 C 44.285156 45.316406 44.289062 45.300781 44.300781 45.269531 C 44.390625 44.964844 44.882812 43.324219 44.882812 43.226562 C 44.882812 43.117188 45.695312 42.414062 45.695312 42.414062 L 46.519531 42.210938 L 48.457031 41.726562 C 48.457031 41.726562 48.578125 41.097656 48.578125 40.988281 C 48.578125 40.90625 49.257812 40.28125 49.621094 39.953125 C 49.753906 39.832031 49.84375 39.753906 49.84375 39.753906 L 51.242188 39.597656 C 51.242188 39.597656 52.359375 38.300781 52.386719 38.253906 C 52.410156 38.207031 54.222656 37.808594 54.222656 37.808594 L 56.8125 38.75 L 56.8125 38.984375 L 56.828125 43.753906 L 56.84375 47.8125 L 56.859375 51.714844 Z M 56.875 55.554688 " fill-opacity="0.1" fill-rule="nonzero"/><path fill="#ffb401" d="M 56.859375 51.714844 C 55.542969 52.058594 54.160156 52.238281 52.738281 52.238281 C 48.707031 52.238281 45.015625 50.785156 42.15625 48.375 C 42.234375 47.996094 42.328125 47.542969 42.328125 47.542969 L 43.617188 46.238281 L 44.285156 45.316406 C 44.285156 45.316406 44.289062 45.300781 44.300781 45.269531 C 44.390625 44.964844 44.882812 43.324219 44.882812 43.226562 C 44.882812 43.117188 45.695312 42.414062 45.695312 42.414062 L 46.519531 42.210938 L 48.457031 41.726562 C 48.457031 41.726562 48.578125 41.097656 48.578125 40.988281 C 48.578125 40.90625 49.257812 40.28125 49.621094 39.953125 C 49.753906 39.832031 49.84375 39.753906 49.84375 39.753906 L 51.242188 39.597656 C 51.242188 39.597656 52.359375 38.300781 52.386719 38.253906 C 52.410156 38.207031 54.222656 37.808594 54.222656 37.808594 L 56.8125 38.75 L 56.8125 38.984375 L 56.828125 43.753906 L 56.84375 47.8125 Z M 56.859375 51.714844 " fill-opacity="0.1" fill-rule="nonzero"/><path fill="#ffb401" d="M 56.84375 47.8125 C 55.558594 48.257812 54.175781 48.496094 52.738281 48.496094 C 49.496094 48.496094 46.535156 47.273438 44.300781 45.269531 C 44.390625 44.964844 44.882812 43.324219 44.882812 43.226562 C 44.882812 43.117188 45.695312 42.414062 45.695312 42.414062 L 46.519531 42.210938 L 48.457031 41.726562 C 48.457031 41.726562 48.578125 41.097656 48.578125 40.988281 C 48.578125 40.90625 49.257812 40.28125 49.621094 39.953125 C 49.753906 39.832031 49.84375 39.753906 49.84375 39.753906 L 51.242188 39.597656 C 51.242188 39.597656 52.359375 38.300781 52.386719 38.253906 C 52.410156 38.207031 54.222656 37.808594 54.222656 37.808594 L 56.8125 38.75 L 56.8125 38.984375 L 56.828125 43.753906 Z M 56.84375 47.8125 " fill-opacity="0.1" fill-rule="nonzero"/><path fill="#ffb401" d="M 56.828125 43.753906 C 55.605469 44.394531 54.214844 44.753906 52.738281 44.753906 C 50.316406 44.753906 48.117188 43.78125 46.519531 42.210938 L 48.457031 41.726562 C 48.457031 41.726562 48.578125 41.097656 48.578125 40.988281 C 48.578125 40.90625 49.257812 40.28125 49.621094 39.953125 C 49.753906 39.832031 49.84375 39.753906 49.84375 39.753906 L 51.242188 39.597656 C 51.242188 39.597656 52.359375 38.300781 52.386719 38.253906 C 52.410156 38.207031 54.222656 37.808594 54.222656 37.808594 L 56.8125 38.75 L 56.8125 38.984375 Z M 56.828125 43.753906 " fill-opacity="0.1" fill-rule="nonzero"/><path fill="#ffb401" d="M 56.8125 38.984375 C 55.882812 40.214844 54.40625 41.011719 52.738281 41.011719 C 51.5625 41.011719 50.484375 40.617188 49.621094 39.953125 C 49.753906 39.832031 49.84375 39.753906 49.84375 39.753906 L 51.242188 39.597656 C 51.242188 39.597656 52.359375 38.300781 52.386719 38.253906 C 52.410156 38.207031 54.222656 37.808594 54.222656 37.808594 L 56.8125 38.75 Z M 56.8125 38.984375 " fill-opacity="0.1" fill-rule="nonzero"/><g clip-path="url(#467193873e)"><path fill="#001447" d="M 61.042969 79.335938 C 61.757812 82.835938 52.613281 82.835938 53.324219 79.335938 Z M 61.042969 79.335938 " fill-opacity="1" fill-rule="nonzero"/></g><path fill="#001447" d="M 57.527344 70.015625 C 57.320312 70.015625 57.109375 70.011719 56.90625 70.003906 C 56.65625 69.992188 56.460938 69.78125 56.472656 69.535156 C 56.484375 69.285156 56.691406 69.09375 56.945312 69.105469 C 57.136719 69.113281 57.332031 69.117188 57.527344 69.117188 C 57.777344 69.117188 57.980469 69.316406 57.980469 69.566406 C 57.980469 69.816406 57.777344 70.015625 57.527344 70.015625 Z M 57.527344 70.015625 " fill-opacity="1" fill-rule="nonzero"/><path fill="#ffb401" d="M 72.355469 52.800781 C 72.351562 53.097656 72.335938 53.394531 72.308594 53.691406 C 72.234375 54.503906 72.082031 55.3125 71.847656 56.105469 C 71.761719 56.402344 71.664062 56.703125 71.558594 57.003906 C 71.359375 57.574219 71.125 58.144531 70.851562 58.703125 C 70.542969 59.339844 70.15625 59.929688 69.722656 60.484375 C 69.179688 61.171875 68.554688 61.800781 67.90625 62.382812 C 67.621094 62.636719 67.34375 62.898438 67.078125 63.164062 C 66.128906 64.113281 65.308594 65.128906 64.636719 66.171875 C 64.566406 66.28125 64.496094 66.394531 64.429688 66.503906 C 64.136719 66.984375 63.886719 67.554688 63.710938 68.089844 C 63.429688 68.949219 63.335938 69.410156 62.96875 69.671875 C 62.949219 69.6875 62.933594 69.699219 62.917969 69.710938 L 56.816406 69.710938 L 56.816406 39.546875 C 56.816406 39.164062 56.933594 38.8125 57.132812 38.523438 C 57.480469 38.019531 58.070312 37.699219 58.730469 37.738281 C 63.023438 37.976562 66.40625 39.832031 68.746094 42.679688 C 69.972656 44.167969 70.914062 45.933594 71.546875 47.878906 C 71.773438 48.574219 71.960938 49.292969 72.109375 50.027344 C 72.289062 50.941406 72.375 51.871094 72.355469 52.800781 Z M 72.355469 52.800781 " fill-opacity="1" fill-rule="nonzero"/><g mask="url(#6478f7df06)"><g transform="matrix(1, 0, 0, 1, 56, 37)"><g clip-path="url(#7f827e2cd0)"><g clip-path="url(#26668e2fb9)"><path fill="#e00051" d="M 10.863281 3.8125 C 8.535156 2.46875 5.792969 1.441406 3.023438 0.757812 C 6.101562 0.945312 8.753906 2.074219 10.863281 3.8125 Z M 10.863281 3.8125 " fill-opacity="1" fill-rule="nonzero"/></g><g clip-path="url(#0ebfa62e74)"><path fill="#e00051" d="M 16.339844 16.183594 C 16.1875 18.78125 15.3125 21.402344 13.722656 23.484375 C 12.113281 25.410156 9.886719 27.007812 8.636719 29.171875 C 8.25 29.753906 7.925781 30.417969 7.710938 31.089844 C 7.414062 31.992188 7.34375 32.421875 6.917969 32.710938 L 0.816406 32.710938 L 0.816406 32.277344 L 2.261719 32.277344 C 2.6875 31.988281 2.757812 31.554688 3.054688 30.652344 C 3.269531 29.984375 3.617188 29.335938 3.980469 28.734375 C 8.445312 21.320312 12.378906 24.777344 16.328125 16.203125 C 16.332031 16.195312 16.335938 16.191406 16.339844 16.183594 Z M 16.339844 16.183594 " fill-opacity="1" fill-rule="nonzero"/></g></g></g></g><path fill="#e00051" d="M 72.355469 52.800781 C 72.335938 53.914062 72.167969 55.027344 71.847656 56.105469 C 71.761719 56.402344 71.664062 56.703125 71.558594 57.003906 C 71.359375 57.574219 71.125 58.144531 70.851562 58.703125 C 70.542969 59.339844 70.15625 59.929688 69.722656 60.484375 C 69.179688 61.171875 68.554688 61.800781 67.90625 62.382812 C 67.621094 62.636719 67.34375 62.898438 67.078125 63.164062 C 66.128906 64.113281 65.308594 65.128906 64.636719 66.171875 C 64.566406 66.28125 64.496094 66.394531 64.429688 66.503906 C 64.136719 66.984375 63.886719 67.554688 63.710938 68.089844 C 63.429688 68.949219 63.335938 69.410156 62.96875 69.671875 C 62.949219 69.6875 62.933594 69.699219 62.917969 69.710938 L 56.816406 69.710938 L 56.816406 41.691406 C 58.039062 41.519531 59.292969 41.433594 60.5625 41.433594 C 63.414062 41.433594 66.160156 41.871094 68.746094 42.679688 C 69.972656 44.167969 70.914062 45.933594 71.546875 47.878906 C 71.773438 48.574219 71.960938 49.292969 72.109375 50.027344 C 72.289062 50.941406 72.375 51.871094 72.355469 52.800781 Z M 72.355469 52.800781 " fill-opacity="0.1" fill-rule="nonzero"/><path fill="#e00051" d="M 72.355469 52.800781 C 72.335938 53.914062 72.167969 55.027344 71.847656 56.105469 C 71.761719 56.402344 71.664062 56.703125 71.558594 57.003906 C 71.359375 57.574219 71.125 58.144531 70.851562 58.703125 C 70.542969 59.339844 70.15625 59.929688 69.722656 60.484375 C 69.179688 61.171875 68.554688 61.800781 67.90625 62.382812 C 67.621094 62.636719 67.34375 62.898438 67.078125 63.164062 C 66.128906 64.113281 65.308594 65.128906 64.636719 66.171875 C 64.566406 66.28125 64.496094 66.394531 64.429688 66.503906 C 64.136719 66.984375 63.886719 67.554688 63.710938 68.089844 C 63.429688 68.949219 63.335938 69.410156 62.96875 69.671875 C 62.949219 69.6875 62.933594 69.699219 62.917969 69.710938 L 56.816406 69.710938 L 56.816406 45.472656 C 58.035156 45.277344 59.289062 45.175781 60.5625 45.175781 C 64.527344 45.175781 68.265625 46.15625 71.546875 47.878906 C 71.773438 48.574219 71.960938 49.292969 72.109375 50.027344 C 72.289062 50.941406 72.375 51.871094 72.355469 52.800781 Z M 72.355469 52.800781 " fill-opacity="0.1" fill-rule="nonzero"/><path fill="#e00051" d="M 72.355469 52.800781 C 72.335938 53.914062 72.167969 55.027344 71.847656 56.105469 C 71.761719 56.402344 71.664062 56.703125 71.558594 57.003906 C 71.359375 57.574219 71.125 58.144531 70.851562 58.703125 C 70.542969 59.339844 70.15625 59.929688 69.722656 60.484375 C 69.179688 61.171875 68.554688 61.800781 67.90625 62.382812 C 67.621094 62.636719 67.34375 62.898438 67.078125 63.164062 C 66.128906 64.113281 65.308594 65.128906 64.636719 66.171875 C 64.566406 66.28125 64.496094 66.394531 64.429688 66.503906 C 64.136719 66.984375 63.886719 67.554688 63.710938 68.089844 C 63.429688 68.949219 63.335938 69.410156 62.96875 69.671875 C 62.949219 69.6875 62.933594 69.699219 62.917969 69.710938 L 56.816406 69.710938 L 56.816406 49.273438 C 58.027344 49.039062 59.28125 48.917969 60.5625 48.917969 C 64.976562 48.917969 69.058594 50.363281 72.355469 52.800781 Z M 72.355469 52.800781 " fill-opacity="0.1" fill-rule="nonzero"/><path fill="#e00051" d="M 71.558594 57.003906 C 71.359375 57.574219 71.125 58.144531 70.851562 58.703125 C 70.542969 59.339844 70.15625 59.929688 69.722656 60.484375 C 69.179688 61.171875 68.554688 61.800781 67.90625 62.382812 C 67.621094 62.636719 67.34375 62.898438 67.078125 63.164062 C 66.128906 64.113281 65.308594 65.128906 64.636719 66.171875 C 64.566406 66.28125 64.496094 66.394531 64.429688 66.503906 C 64.136719 66.984375 63.886719 67.554688 63.710938 68.089844 C 63.429688 68.949219 63.335938 69.410156 62.96875 69.671875 C 62.949219 69.6875 62.933594 69.699219 62.917969 69.710938 L 56.816406 69.710938 L 56.816406 53.101562 C 58.019531 52.8125 59.273438 52.660156 60.5625 52.660156 C 64.816406 52.660156 68.683594 54.3125 71.558594 57.003906 Z M 71.558594 57.003906 " fill-opacity="0.1" fill-rule="nonzero"/><path fill="#e00051" d="M 69.722656 60.484375 C 69.179688 61.171875 68.554688 61.800781 67.90625 62.382812 C 67.621094 62.636719 67.34375 62.898438 67.078125 63.164062 C 66.128906 64.113281 65.308594 65.128906 64.636719 66.171875 C 64.566406 66.28125 64.496094 66.394531 64.429688 66.503906 C 64.136719 66.984375 63.886719 67.554688 63.710938 68.089844 C 63.429688 68.949219 63.335938 69.410156 62.96875 69.671875 C 62.949219 69.6875 62.933594 69.699219 62.917969 69.710938 L 56.816406 69.710938 L 56.816406 56.984375 C 57.996094 56.609375 59.257812 56.402344 60.5625 56.402344 C 64.199219 56.402344 67.46875 57.980469 69.722656 60.484375 Z M 69.722656 60.484375 " fill-opacity="0.1" fill-rule="nonzero"/><path fill="#e00051" d="M 67.078125 63.164062 C 66.128906 64.113281 65.308594 65.128906 64.636719 66.171875 C 64.566406 66.28125 64.496094 66.394531 64.429688 66.503906 C 64.136719 66.984375 63.886719 67.554688 63.710938 68.089844 C 63.429688 68.949219 63.335938 69.410156 62.96875 69.671875 C 62.949219 69.6875 62.933594 69.699219 62.917969 69.710938 L 56.816406 69.710938 L 56.816406 61.011719 C 57.945312 60.457031 59.21875 60.144531 60.5625 60.144531 C 63.175781 60.144531 65.515625 61.320312 67.078125 63.164062 Z M 67.078125 63.164062 " fill-opacity="0.1" fill-rule="nonzero"/><path fill="#e00051" d="M 64.636719 66.171875 C 64.566406 66.28125 64.496094 66.394531 64.429688 66.503906 C 64.136719 66.984375 63.886719 67.554688 63.710938 68.089844 C 63.429688 68.949219 63.335938 69.410156 62.96875 69.671875 C 62.949219 69.6875 62.933594 69.699219 62.917969 69.710938 L 56.816406 69.710938 L 56.816406 65.703125 C 57.6875 64.597656 59.042969 63.886719 60.5625 63.886719 C 62.289062 63.886719 63.804688 64.800781 64.636719 66.171875 Z M 64.636719 66.171875 " fill-opacity="0.3" fill-rule="nonzero"/><path fill="#ffffff" d="M 72.355469 52.800781 C 72.351562 53.097656 72.335938 53.394531 72.308594 53.691406 C 72.136719 53.679688 71.960938 53.664062 71.78125 53.636719 C 71.015625 38.796875 57.390625 39.871094 57.390625 39.871094 L 57.132812 38.523438 C 57.480469 38.019531 58.070312 37.699219 58.730469 37.738281 C 63.023438 37.976562 66.40625 39.832031 68.746094 42.679688 C 69.972656 44.167969 70.914062 45.933594 71.546875 47.878906 C 71.773438 48.574219 71.960938 49.292969 72.109375 50.027344 C 72.289062 50.941406 72.375 51.871094 72.355469 52.800781 Z M 72.355469 52.800781 " fill-opacity="0.55" fill-rule="nonzero"/><path fill="#001447" d="M 63.171875 70.015625 L 56.472656 70.015625 L 56.472656 39.113281 C 56.472656 38.570312 56.6875 38.0625 57.082031 37.683594 C 57.480469 37.304688 58 37.109375 58.550781 37.128906 C 62.234375 37.265625 65.5 38.585938 67.992188 40.945312 C 70.332031 43.160156 71.945312 46.21875 72.660156 49.796875 C 73.082031 51.894531 72.988281 54.070312 72.390625 56.085938 C 72.109375 57.042969 71.765625 57.941406 71.367188 58.757812 C 70.734375 60.0625 69.734375 61.308594 68.316406 62.574219 C 66.945312 63.792969 65.804688 65.144531 64.925781 66.59375 C 64.664062 67.019531 64.425781 67.550781 64.25 68.082031 C 64.207031 68.214844 64.167969 68.339844 64.132812 68.453125 C 63.917969 69.128906 63.777344 69.578125 63.347656 69.890625 C 63.328125 69.902344 63.308594 69.917969 63.289062 69.929688 Z M 57.375 69.117188 L 62.867188 69.117188 C 63.015625 68.972656 63.105469 68.707031 63.269531 68.183594 C 63.304688 68.066406 63.34375 67.941406 63.390625 67.804688 C 63.585938 67.207031 63.855469 66.609375 64.152344 66.125 C 65.078125 64.601562 66.277344 63.183594 67.710938 61.902344 C 69.042969 60.71875 69.972656 59.5625 70.554688 58.363281 C 70.929688 57.59375 71.257812 56.742188 71.523438 55.832031 C 72.078125 53.957031 72.164062 51.929688 71.773438 49.972656 C 70.328125 42.75 65.375 38.285156 58.515625 38.027344 C 58.214844 38.015625 57.929688 38.125 57.710938 38.332031 C 57.496094 38.539062 57.378906 38.816406 57.378906 39.113281 L 57.378906 69.117188 Z M 57.375 69.117188 " fill-opacity="1" fill-rule="nonzero"/><path fill="#001447" d="M 59.6875 69.855469 C 59.679688 69.855469 59.667969 69.855469 59.65625 69.851562 C 59.40625 69.835938 59.21875 69.621094 59.234375 69.375 C 59.292969 68.566406 59.332031 67.464844 59.371094 66.296875 C 59.433594 64.617188 59.496094 62.882812 59.613281 61.71875 C 59.984375 58.019531 61.058594 55.277344 62.882812 53.371094 C 62.855469 53.320312 62.832031 53.269531 62.808594 53.214844 C 62.550781 52.644531 62.386719 52.027344 62.332031 51.417969 C 62.070312 51.382812 61.820312 51.335938 61.597656 51.296875 C 61.21875 51.222656 60.8125 51.140625 60.40625 51.003906 C 60.238281 51.167969 60.078125 51.308594 59.9375 51.425781 L 59.789062 51.546875 C 58.929688 52.253906 57.753906 53.21875 56.753906 53.523438 C 56.515625 53.597656 56.261719 53.464844 56.1875 53.226562 C 56.117188 52.988281 56.25 52.738281 56.488281 52.664062 C 57.316406 52.410156 58.457031 51.472656 59.210938 50.855469 L 59.359375 50.730469 C 59.40625 50.695312 59.457031 50.652344 59.511719 50.601562 C 59.488281 50.589844 59.464844 50.574219 59.441406 50.558594 C 58.667969 50.066406 58.234375 49.199219 58.289062 48.238281 C 58.304688 47.914062 58.359375 46.929688 59.292969 46.609375 C 59.886719 46.402344 60.550781 46.542969 60.941406 46.957031 C 61.300781 47.332031 61.53125 47.824219 61.589844 48.335938 C 61.671875 49.054688 61.40625 49.710938 61.035156 50.253906 C 61.285156 50.316406 61.53125 50.367188 61.765625 50.410156 C 61.957031 50.449219 62.148438 50.480469 62.332031 50.507812 C 62.335938 50.441406 62.339844 50.371094 62.34375 50.304688 C 62.371094 49.8125 62.402344 49.304688 62.597656 48.808594 C 62.636719 48.710938 62.683594 48.621094 62.738281 48.535156 C 63.21875 47.773438 64.167969 47.617188 64.832031 47.710938 C 65.351562 47.785156 65.746094 48.066406 65.890625 48.464844 C 66.042969 48.886719 66.011719 49.375 65.8125 49.800781 C 65.503906 50.445312 64.839844 50.988281 63.984375 51.292969 C 63.742188 51.378906 63.492188 51.425781 63.242188 51.445312 C 63.292969 51.882812 63.40625 52.3125 63.574219 52.71875 C 63.597656 52.699219 63.621094 52.679688 63.644531 52.664062 C 63.925781 52.425781 64.269531 52.167969 64.691406 52.03125 C 65.324219 51.824219 66.164062 51.933594 66.824219 52.300781 C 67.429688 52.636719 67.835938 53.191406 67.914062 53.785156 C 68.011719 54.550781 67.578125 55.386719 66.902344 55.730469 C 66.238281 56.066406 65.429688 55.917969 64.5 55.289062 C 64.070312 54.996094 63.6875 54.621094 63.367188 54.179688 C 61.789062 55.929688 60.851562 58.441406 60.511719 61.808594 C 60.398438 62.941406 60.335938 64.664062 60.277344 66.328125 C 60.234375 67.503906 60.195312 68.617188 60.136719 69.433594 C 60.121094 69.671875 59.921875 69.855469 59.6875 69.855469 Z M 64.015625 53.53125 C 64.292969 53.933594 64.628906 54.285156 65.011719 54.542969 C 65.648438 54.976562 66.144531 55.105469 66.492188 54.925781 C 66.832031 54.753906 67.070312 54.292969 67.015625 53.898438 C 66.976562 53.597656 66.730469 53.277344 66.386719 53.085938 C 65.941406 52.835938 65.375 52.757812 64.976562 52.886719 C 64.699219 52.976562 64.441406 53.171875 64.226562 53.351562 C 64.15625 53.410156 64.085938 53.46875 64.019531 53.53125 Z M 64.476562 48.585938 C 64.109375 48.585938 63.699219 48.710938 63.503906 49.011719 C 63.480469 49.050781 63.460938 49.09375 63.441406 49.136719 C 63.296875 49.5 63.273438 49.914062 63.246094 50.355469 C 63.242188 50.417969 63.242188 50.480469 63.238281 50.542969 C 63.390625 50.527344 63.539062 50.496094 63.679688 50.445312 C 64.300781 50.222656 64.792969 49.835938 64.992188 49.417969 C 65.09375 49.203125 65.109375 48.96875 65.039062 48.765625 C 65.015625 48.707031 64.886719 48.628906 64.703125 48.601562 C 64.632812 48.59375 64.554688 48.585938 64.476562 48.585938 Z M 59.847656 47.417969 C 59.761719 47.417969 59.675781 47.429688 59.59375 47.457031 C 59.375 47.53125 59.222656 47.703125 59.191406 48.285156 C 59.15625 48.929688 59.425781 49.480469 59.929688 49.800781 C 60.003906 49.847656 60.078125 49.890625 60.15625 49.929688 C 60.484375 49.503906 60.753906 48.980469 60.691406 48.4375 C 60.65625 48.117188 60.511719 47.8125 60.289062 47.578125 C 60.1875 47.472656 60.023438 47.417969 59.847656 47.417969 Z M 59.847656 47.417969 " fill-opacity="1" fill-rule="nonzero"/><path fill="#001447" d="M 52.273438 41.972656 C 52.171875 41.972656 52.066406 41.9375 51.984375 41.867188 C 51.320312 41.3125 50.960938 40.714844 50.921875 40.085938 C 50.882812 39.5 51.125 38.90625 51.628906 38.367188 C 52.296875 37.644531 53.21875 37.238281 54.15625 37.25 C 55.003906 37.261719 55.644531 37.59375 56.164062 37.863281 C 56.339844 37.953125 56.503906 38.042969 56.65625 38.101562 C 56.886719 38.195312 57 38.457031 56.90625 38.6875 C 56.8125 38.917969 56.550781 39.027344 56.316406 38.9375 C 56.125 38.859375 55.941406 38.761719 55.742188 38.660156 C 55.269531 38.414062 54.777344 38.160156 54.144531 38.152344 C 53.460938 38.140625 52.789062 38.441406 52.292969 38.976562 C 51.960938 39.335938 51.800781 39.6875 51.824219 40.027344 C 51.847656 40.402344 52.097656 40.789062 52.5625 41.175781 C 52.753906 41.335938 52.78125 41.621094 52.621094 41.808594 C 52.53125 41.917969 52.402344 41.972656 52.273438 41.972656 Z M 52.273438 41.972656 " fill-opacity="1" fill-rule="nonzero"/><path fill="#001447" d="M 52.648438 44.65625 C 52.125 44.65625 51.59375 44.511719 51.117188 44.222656 C 50.902344 44.09375 50.835938 43.816406 50.964844 43.605469 C 51.09375 43.394531 51.371094 43.324219 51.585938 43.453125 C 52.417969 43.957031 53.300781 43.765625 53.804688 43.355469 C 54.300781 42.945312 54.449219 42.335938 54.207031 41.675781 C 54.121094 41.441406 54.242188 41.183594 54.476562 41.097656 C 54.710938 41.011719 54.96875 41.132812 55.054688 41.367188 C 55.433594 42.390625 55.179688 43.394531 54.378906 44.050781 C 53.886719 44.449219 53.273438 44.65625 52.648438 44.65625 Z M 52.648438 44.65625 " fill-opacity="1" fill-rule="nonzero"/><path fill="#001447" d="M 48.140625 45.96875 C 47.28125 45.96875 46.359375 45.421875 46.246094 44.457031 C 46.21875 44.210938 46.394531 43.984375 46.644531 43.957031 C 46.890625 43.925781 47.117188 44.105469 47.144531 44.351562 C 47.199219 44.824219 47.738281 45.09375 48.199219 45.070312 C 48.484375 45.054688 49.148438 44.902344 49.160156 43.84375 C 49.164062 43.597656 49.367188 43.398438 49.613281 43.398438 C 49.613281 43.398438 49.617188 43.398438 49.617188 43.398438 C 49.867188 43.398438 50.070312 43.605469 50.066406 43.851562 C 50.050781 45.34375 49.078125 45.921875 48.246094 45.964844 C 48.214844 45.96875 48.179688 45.96875 48.144531 45.96875 Z M 48.140625 45.96875 " fill-opacity="1" fill-rule="nonzero"/><path fill="#001447" d="M 55.515625 51.222656 C 55.292969 51.222656 55.101562 51.058594 55.070312 50.832031 C 54.90625 49.660156 55.09375 48.957031 55.402344 48.53125 C 55.09375 48.375 54.839844 48.15625 54.640625 47.886719 C 54.199219 47.269531 54.09375 46.421875 54.320312 45.371094 C 54.324219 45.355469 54.328125 45.339844 54.332031 45.332031 C 54.378906 45.089844 54.617188 44.929688 54.863281 44.980469 C 55.109375 45.027344 55.265625 45.265625 55.21875 45.507812 C 55.214844 45.523438 55.210938 45.539062 55.207031 45.5625 C 54.988281 46.550781 55.179688 47.085938 55.378906 47.363281 C 55.605469 47.679688 55.980469 47.863281 56.523438 47.925781 C 56.746094 47.953125 56.917969 48.136719 56.921875 48.359375 C 56.929688 48.585938 56.769531 48.777344 56.546875 48.816406 C 56 48.910156 55.800781 49.546875 55.964844 50.707031 C 56 50.957031 55.828125 51.183594 55.578125 51.214844 C 55.558594 51.21875 55.535156 51.222656 55.515625 51.222656 Z M 55.515625 51.222656 " fill-opacity="1" fill-rule="nonzero"/><path fill="#001447" d="M 48.367188 42.421875 C 48.128906 42.421875 47.929688 42.234375 47.917969 41.992188 C 47.875 41.078125 48.207031 40.285156 48.882812 39.703125 C 49.683594 39.007812 50.808594 38.773438 51.507812 38.902344 C 51.753906 38.945312 51.914062 39.179688 51.867188 39.425781 C 51.824219 39.667969 51.585938 39.832031 51.339844 39.785156 C 50.9375 39.710938 50.09375 39.847656 49.476562 40.382812 C 49.011719 40.78125 48.792969 41.3125 48.820312 41.953125 C 48.832031 42.199219 48.640625 42.410156 48.390625 42.421875 C 48.382812 42.421875 48.375 42.421875 48.367188 42.421875 Z M 48.367188 42.421875 " fill-opacity="1" fill-rule="nonzero"/><path fill="#001447" d="M 51.601562 52.617188 C 51.558594 52.617188 51.515625 52.613281 51.476562 52.601562 C 51.234375 52.53125 51.097656 52.28125 51.164062 52.042969 C 51.589844 50.578125 51.492188 49.550781 50.882812 49.066406 C 50.40625 48.6875 49.753906 48.753906 49.625 48.824219 L 49.59375 48.84375 L 49.5625 48.855469 C 48.160156 49.4375 46.933594 49.242188 46.472656 49.132812 L 46.445312 49.125 L 46.414062 49.113281 C 44.175781 48.25 43.707031 46.691406 43.628906 45.84375 C 43.488281 44.355469 44.285156 42.808594 45.609375 41.988281 C 46.871094 41.207031 48.371094 41.230469 49.722656 42.054688 C 49.9375 42.183594 50.003906 42.460938 49.875 42.671875 C 49.742188 42.886719 49.464844 42.953125 49.25 42.820312 C 47.8125 41.945312 46.652344 42.402344 46.089844 42.75 C 45.0625 43.386719 44.421875 44.621094 44.53125 45.757812 C 44.632812 46.863281 45.410156 47.75 46.714844 48.265625 C 47.109375 48.355469 48.070312 48.488281 49.1875 48.035156 C 49.636719 47.792969 50.648438 47.757812 51.40625 48.332031 C 52.070312 48.832031 52.71875 49.925781 52.035156 52.292969 C 51.976562 52.488281 51.796875 52.617188 51.601562 52.617188 Z M 51.601562 52.617188 " fill-opacity="1" fill-rule="nonzero"/><path fill="#ffffff" d="M 48.59375 43.289062 C 48.402344 43.25 48.214844 43.21875 48.027344 43.199219 C 47.84375 43.183594 47.65625 43.179688 47.476562 43.191406 C 47.113281 43.21875 46.769531 43.324219 46.492188 43.511719 C 46.355469 43.609375 46.230469 43.722656 46.125 43.851562 C 46.023438 43.980469 45.9375 44.125 45.867188 44.277344 C 45.734375 44.582031 45.675781 44.921875 45.691406 45.257812 C 45.699219 45.425781 45.726562 45.589844 45.773438 45.75 C 45.820312 45.910156 45.886719 46.0625 45.96875 46.203125 C 46.144531 46.480469 46.394531 46.707031 46.707031 46.84375 C 46.859375 46.910156 47.027344 46.960938 47.203125 46.988281 C 47.375 47.015625 47.558594 47.023438 47.742188 47.019531 C 48.109375 47.015625 48.480469 46.941406 48.855469 46.859375 C 48.691406 46.953125 48.519531 47.046875 48.335938 47.117188 C 48.246094 47.15625 48.152344 47.183594 48.058594 47.214844 C 47.964844 47.242188 47.871094 47.269531 47.773438 47.289062 C 47.578125 47.328125 47.375 47.351562 47.167969 47.34375 C 46.964844 47.339844 46.753906 47.308594 46.554688 47.246094 C 46.144531 47.117188 45.777344 46.839844 45.535156 46.484375 C 45.410156 46.308594 45.320312 46.109375 45.253906 45.90625 C 45.1875 45.703125 45.152344 45.496094 45.140625 45.28125 C 45.132812 45.070312 45.148438 44.859375 45.191406 44.652344 C 45.234375 44.445312 45.300781 44.246094 45.398438 44.054688 C 45.496094 43.867188 45.613281 43.6875 45.765625 43.53125 C 45.910156 43.375 46.085938 43.246094 46.273438 43.144531 C 46.460938 43.042969 46.664062 42.976562 46.867188 42.941406 C 47.074219 42.90625 47.28125 42.902344 47.480469 42.925781 C 47.679688 42.945312 47.875 42.992188 48.0625 43.050781 C 48.246094 43.113281 48.421875 43.195312 48.59375 43.289062 Z M 48.59375 43.289062 " fill-opacity="0.55" fill-rule="nonzero"/><path fill="#ffffff" d="M 43.75 47.332031 C 43.652344 47.664062 43.597656 47.972656 43.585938 48.273438 C 43.578125 48.574219 43.605469 48.871094 43.675781 49.148438 C 43.75 49.429688 43.863281 49.691406 44.027344 49.933594 C 44.113281 50.050781 44.210938 50.164062 44.324219 50.273438 C 44.4375 50.382812 44.566406 50.480469 44.707031 50.585938 C 44.355469 50.605469 43.992188 50.46875 43.710938 50.222656 C 43.429688 49.980469 43.234375 49.640625 43.144531 49.285156 C 43.054688 48.925781 43.0625 48.546875 43.164062 48.199219 C 43.214844 48.027344 43.289062 47.863281 43.386719 47.714844 C 43.484375 47.566406 43.605469 47.433594 43.75 47.332031 Z M 43.75 47.332031 " fill-opacity="0.55" fill-rule="nonzero"/><path fill="#ffffff" d="M 42.667969 51.523438 C 42.492188 51.859375 42.367188 52.195312 42.289062 52.539062 C 42.214844 52.882812 42.183594 53.230469 42.199219 53.578125 C 42.214844 53.921875 42.277344 54.265625 42.386719 54.601562 C 42.492188 54.9375 42.652344 55.261719 42.851562 55.585938 C 42.523438 55.386719 42.257812 55.082031 42.074219 54.734375 C 41.890625 54.382812 41.789062 53.992188 41.773438 53.597656 C 41.753906 53.203125 41.820312 52.804688 41.96875 52.4375 C 42.121094 52.078125 42.355469 51.746094 42.667969 51.523438 Z M 42.667969 51.523438 " fill-opacity="0.55" fill-rule="nonzero"/><path fill="#ffffff" d="M 43.507812 57.621094 C 43.539062 57.878906 43.59375 58.109375 43.671875 58.332031 C 43.753906 58.550781 43.859375 58.753906 43.992188 58.945312 C 44.121094 59.132812 44.273438 59.308594 44.449219 59.460938 C 44.628906 59.617188 44.828125 59.75 45.054688 59.875 C 44.792969 59.882812 44.53125 59.804688 44.300781 59.675781 C 44.066406 59.539062 43.867188 59.351562 43.714844 59.132812 C 43.5625 58.910156 43.460938 58.65625 43.421875 58.394531 C 43.378906 58.132812 43.402344 57.859375 43.507812 57.621094 Z M 43.507812 57.621094 " fill-opacity="0.55" fill-rule="nonzero"/><path fill="#ffffff" d="M 55.539062 39.371094 C 55.40625 39.222656 55.261719 39.09375 55.105469 38.996094 C 54.949219 38.902344 54.78125 38.835938 54.605469 38.804688 C 54.261719 38.742188 53.902344 38.800781 53.585938 38.949219 C 53.273438 39.09375 52.996094 39.328125 52.832031 39.636719 C 52.75 39.789062 52.699219 39.957031 52.679688 40.140625 C 52.65625 40.324219 52.675781 40.515625 52.707031 40.710938 C 52.589844 40.550781 52.507812 40.355469 52.472656 40.148438 C 52.4375 39.9375 52.460938 39.714844 52.53125 39.507812 C 52.601562 39.300781 52.726562 39.109375 52.875 38.949219 C 52.914062 38.910156 52.957031 38.875 52.996094 38.839844 C 53.039062 38.800781 53.082031 38.769531 53.125 38.738281 C 53.171875 38.707031 53.21875 38.679688 53.265625 38.648438 C 53.3125 38.621094 53.363281 38.597656 53.410156 38.570312 C 53.609375 38.480469 53.824219 38.421875 54.042969 38.40625 C 54.261719 38.390625 54.488281 38.417969 54.695312 38.492188 C 54.902344 38.566406 55.089844 38.683594 55.234375 38.839844 C 55.378906 38.996094 55.484375 39.175781 55.539062 39.371094 Z M 55.539062 39.371094 " fill-opacity="0.55" fill-rule="nonzero"/><path fill="#001447" d="M 50.917969 49 C 50.894531 49 50.875 49 50.851562 48.996094 C 50.605469 48.960938 50.433594 48.734375 50.46875 48.488281 C 50.703125 46.847656 51.421875 45.957031 52.03125 45.800781 C 52.273438 45.742188 52.515625 45.886719 52.578125 46.125 C 52.640625 46.367188 52.496094 46.609375 52.253906 46.675781 C 52.09375 46.71875 51.554688 47.28125 51.363281 48.613281 C 51.332031 48.839844 51.136719 49 50.917969 49 Z M 50.917969 49 " fill-opacity="1" fill-rule="nonzero"/><path fill="#001447" d="M 51.832031 51.539062 C 51.785156 51.539062 51.738281 51.53125 51.691406 51.515625 C 51.453125 51.4375 51.324219 51.183594 51.402344 50.949219 C 51.785156 49.785156 52.339844 49.605469 53.027344 49.492188 C 53.074219 49.484375 53.121094 49.476562 53.167969 49.46875 C 53.414062 49.425781 53.648438 49.589844 53.691406 49.832031 C 53.734375 50.078125 53.570312 50.3125 53.324219 50.355469 C 53.273438 50.363281 53.226562 50.371094 53.175781 50.378906 C 52.699219 50.457031 52.503906 50.492188 52.261719 51.226562 C 52.199219 51.417969 52.023438 51.539062 51.832031 51.539062 Z M 51.832031 51.539062 " fill-opacity="1" fill-rule="nonzero"/><path fill="#001447" d="M 45.738281 56.9375 C 45.582031 56.9375 45.433594 56.863281 45.347656 56.722656 C 45.21875 56.511719 45.289062 56.234375 45.5 56.105469 C 46.40625 55.554688 47.453125 54.699219 47.292969 53.726562 C 47.148438 52.8125 45.996094 52.09375 45.539062 51.988281 C 45.292969 51.929688 45.144531 51.6875 45.199219 51.445312 C 45.257812 51.203125 45.5 51.054688 45.742188 51.109375 C 46.460938 51.277344 47.964844 52.203125 48.1875 53.585938 C 48.277344 54.144531 48.148438 54.699219 47.804688 55.238281 C 47.4375 55.804688 46.820312 56.355469 45.96875 56.871094 C 45.898438 56.917969 45.816406 56.9375 45.734375 56.9375 Z M 45.738281 56.9375 " fill-opacity="1" fill-rule="nonzero"/><path fill="#001447" d="M 50.175781 56.378906 C 48.90625 56.378906 47.394531 55.585938 47.195312 55.476562 C 46.976562 55.359375 46.894531 55.085938 47.015625 54.867188 C 47.132812 54.648438 47.410156 54.570312 47.628906 54.6875 C 48.394531 55.101562 49.875 55.664062 50.597656 55.421875 C 51.183594 55.226562 51.636719 54.617188 52.074219 54.03125 C 52.117188 53.972656 52.160156 53.914062 52.203125 53.855469 C 52.808594 53.050781 53.726562 52.550781 54.722656 52.480469 C 55.292969 52.441406 55.910156 52.488281 56.558594 52.617188 C 56.804688 52.664062 56.960938 52.902344 56.914062 53.144531 C 56.867188 53.386719 56.628906 53.546875 56.382812 53.5 C 55.8125 53.386719 55.273438 53.347656 54.785156 53.378906 C 54.050781 53.429688 53.375 53.800781 52.929688 54.394531 C 52.886719 54.449219 52.84375 54.507812 52.800781 54.566406 C 52.304688 55.234375 51.742188 55.988281 50.886719 56.277344 C 50.667969 56.347656 50.425781 56.382812 50.175781 56.382812 Z M 50.175781 56.378906 " fill-opacity="1" fill-rule="nonzero"/><path fill="#001447" d="M 55.3125 59.140625 C 55.082031 59.140625 54.839844 59.097656 54.585938 59.003906 C 54.351562 58.917969 54.230469 58.65625 54.320312 58.425781 C 54.40625 58.191406 54.664062 58.074219 54.898438 58.160156 C 55.558594 58.402344 55.761719 58.042969 55.832031 57.925781 C 56.105469 57.441406 55.992188 56.609375 55.609375 56.304688 C 55.136719 55.925781 54.355469 56.539062 54.039062 56.824219 C 53.855469 56.988281 53.566406 56.976562 53.402344 56.792969 C 53.234375 56.605469 53.246094 56.320312 53.433594 56.15625 C 54.890625 54.84375 55.835938 55.332031 56.175781 55.601562 C 56.902344 56.179688 57.113281 57.5 56.617188 58.371094 C 56.328125 58.875 55.867188 59.140625 55.3125 59.140625 Z M 55.3125 59.140625 " fill-opacity="1" fill-rule="nonzero"/><path fill="#001447" d="M 55.785156 62.054688 C 54.824219 62.054688 54.402344 61.640625 54.105469 61.175781 C 53.996094 61.003906 53.820312 60.886719 53.609375 60.847656 C 52.679688 60.667969 51.914062 60.03125 51.335938 58.953125 L 51.316406 58.914062 C 51.199219 58.695312 51.277344 58.421875 51.5 58.304688 C 51.71875 58.1875 51.992188 58.265625 52.113281 58.484375 C 52.117188 58.496094 52.128906 58.511719 52.136719 58.53125 C 52.578125 59.355469 53.132812 59.839844 53.785156 59.964844 C 54.230469 60.050781 54.625 60.316406 54.867188 60.691406 C 55.046875 60.96875 55.25 61.285156 56.351562 61.105469 C 56.597656 61.066406 56.832031 61.230469 56.871094 61.476562 C 56.914062 61.722656 56.746094 61.953125 56.5 61.992188 C 56.234375 62.035156 55.996094 62.058594 55.785156 62.058594 Z M 55.785156 62.054688 " fill-opacity="1" fill-rule="nonzero"/><path fill="#001447" d="M 53.332031 63.988281 C 52.710938 63.988281 52.132812 63.816406 51.628906 63.472656 C 50.992188 63.039062 50.640625 62.453125 50.492188 62.199219 C 50.476562 62.171875 50.460938 62.148438 50.449219 62.132812 C 50.3125 61.925781 50.371094 61.648438 50.578125 61.511719 C 50.789062 61.375 51.070312 61.429688 51.207031 61.636719 C 51.222656 61.664062 51.242188 61.695312 51.269531 61.742188 C 51.535156 62.183594 52.335938 63.527344 54.222656 62.945312 C 54.460938 62.871094 54.714844 63.003906 54.789062 63.242188 C 54.863281 63.480469 54.730469 63.730469 54.492188 63.804688 C 54.09375 63.929688 53.703125 63.988281 53.332031 63.988281 Z M 53.332031 63.988281 " fill-opacity="1" fill-rule="nonzero"/><path fill="#001447" d="M 53.480469 69.71875 C 53.300781 69.71875 53.128906 69.609375 53.058594 69.433594 C 52.804688 68.773438 52.800781 66.992188 53.714844 65.933594 C 54.175781 65.40625 55.042969 64.84375 56.585938 65.1875 C 56.828125 65.242188 56.980469 65.484375 56.929688 65.726562 C 56.875 65.96875 56.632812 66.121094 56.386719 66.066406 C 55.5 65.867188 54.835938 66.023438 54.402344 66.519531 C 53.722656 67.308594 53.765625 68.75 53.90625 69.105469 C 53.996094 69.339844 53.878906 69.597656 53.648438 69.6875 C 53.59375 69.710938 53.539062 69.71875 53.484375 69.71875 Z M 53.480469 69.71875 " fill-opacity="1" fill-rule="nonzero"/><path fill="#001447" d="M 51.929688 69.878906 C 51.839844 69.878906 51.75 69.855469 51.671875 69.800781 C 51.613281 69.761719 51.539062 69.714844 51.464844 69.667969 C 51.058594 69.410156 50.441406 69.023438 50 68.320312 C 49.480469 67.5 49.316406 66.433594 49.511719 65.152344 C 49.550781 64.90625 49.78125 64.738281 50.027344 64.773438 C 50.273438 64.8125 50.445312 65.039062 50.40625 65.285156 C 50.039062 67.699219 51.1875 68.425781 51.949219 68.90625 C 52.03125 68.960938 52.109375 69.007812 52.183594 69.058594 C 52.390625 69.199219 52.441406 69.480469 52.300781 69.683594 C 52.214844 69.8125 52.070312 69.878906 51.925781 69.878906 Z M 51.929688 69.878906 " fill-opacity="1" fill-rule="nonzero"/><path fill="#001447" d="M 49.96875 65.667969 C 49.652344 65.667969 49.246094 65.632812 48.84375 65.472656 C 48.300781 65.257812 47.59375 64.746094 47.328125 63.515625 C 47.277344 63.273438 47.433594 63.035156 47.679688 62.980469 C 47.921875 62.929688 48.164062 63.085938 48.214844 63.328125 C 48.511719 64.699219 49.457031 64.816406 50.339844 64.75 C 50.40625 64.746094 50.460938 64.742188 50.511719 64.742188 C 50.515625 64.742188 50.515625 64.742188 50.519531 64.742188 C 50.765625 64.742188 50.96875 64.9375 50.972656 65.183594 C 50.976562 65.433594 50.777344 65.636719 50.527344 65.640625 C 50.503906 65.640625 50.457031 65.644531 50.410156 65.648438 C 50.300781 65.65625 50.148438 65.667969 49.972656 65.667969 Z M 49.96875 65.667969 " fill-opacity="1" fill-rule="nonzero"/><path fill="#001447" d="M 47.457031 63.871094 C 47.214844 63.871094 46.96875 63.835938 46.726562 63.761719 C 45.804688 63.484375 44.859375 62.582031 44.972656 60.886719 L 44.972656 60.863281 L 44.976562 60.839844 C 45.152344 59.863281 45.597656 59.140625 46.308594 58.691406 C 47.542969 57.90625 49.152344 58.214844 49.789062 58.378906 C 50.03125 58.445312 50.175781 58.691406 50.109375 58.929688 C 50.046875 59.171875 49.796875 59.316406 49.558594 59.25 C 49.152344 59.144531 47.753906 58.839844 46.796875 59.449219 C 46.3125 59.753906 46.003906 60.265625 45.875 60.96875 C 45.785156 62.382812 46.625 62.792969 46.988281 62.902344 C 47.570312 63.078125 48.132812 62.898438 48.296875 62.621094 C 48.476562 62.3125 48.226562 61.796875 47.628906 61.246094 C 47.449219 61.074219 47.4375 60.789062 47.609375 60.609375 C 47.78125 60.425781 48.066406 60.417969 48.25 60.585938 C 49.582031 61.828125 49.273438 62.734375 49.082031 63.070312 C 48.785156 63.578125 48.148438 63.871094 47.453125 63.871094 Z M 47.457031 63.871094 " fill-opacity="1" fill-rule="nonzero"/><path fill="#001447" d="M 45.335938 61.269531 C 44.511719 61.269531 43.332031 60.71875 42.648438 59.726562 C 42.003906 58.785156 41.953125 57.652344 42.507812 56.539062 L 42.53125 56.488281 L 42.570312 56.445312 C 43.757812 55.078125 43.648438 54.496094 43.613281 54.390625 C 43.59375 54.332031 43.558594 54.296875 43.507812 54.285156 C 43.265625 54.230469 43.113281 53.992188 43.167969 53.746094 C 43.222656 53.503906 43.464844 53.355469 43.710938 53.410156 C 44.074219 53.492188 44.351562 53.746094 44.472656 54.109375 C 44.636719 54.609375 44.5625 55.507812 43.292969 56.988281 C 42.90625 57.800781 42.941406 58.550781 43.398438 59.21875 C 43.949219 60.023438 44.933594 60.410156 45.402344 60.367188 C 45.652344 60.347656 45.871094 60.53125 45.894531 60.777344 C 45.914062 61.027344 45.730469 61.246094 45.480469 61.265625 C 45.433594 61.269531 45.386719 61.269531 45.335938 61.269531 Z M 45.335938 61.269531 " fill-opacity="1" fill-rule="nonzero"/><path fill="#001447" d="M 44.074219 57.554688 C 42.902344 57.554688 41.554688 56.589844 40.90625 55.25 C 40.078125 53.539062 40.542969 51.648438 42.183594 50.058594 C 42.359375 49.886719 42.648438 49.890625 42.820312 50.066406 C 42.996094 50.246094 42.992188 50.53125 42.8125 50.703125 C 40.972656 52.484375 41.339844 54.070312 41.71875 54.859375 C 42.292969 56.042969 43.472656 56.738281 44.210938 56.644531 C 44.457031 56.613281 44.683594 56.789062 44.714844 57.035156 C 44.746094 57.28125 44.574219 57.507812 44.324219 57.539062 C 44.242188 57.546875 44.15625 57.554688 44.070312 57.554688 Z M 44.074219 57.554688 " fill-opacity="1" fill-rule="nonzero"/><path fill="#001447" d="M 44.34375 52 C 44.304688 52 44.261719 51.992188 44.222656 51.984375 C 42.234375 51.4375 41.617188 49.90625 41.707031 48.652344 C 41.808594 47.167969 42.820312 45.925781 44.058594 45.765625 C 44.308594 45.730469 44.535156 45.90625 44.566406 46.152344 C 44.601562 46.398438 44.425781 46.625 44.175781 46.65625 C 43.371094 46.761719 42.679688 47.664062 42.609375 48.714844 C 42.570312 49.273438 42.671875 50.625 44.460938 51.117188 C 44.703125 51.179688 44.84375 51.429688 44.777344 51.667969 C 44.722656 51.867188 44.542969 52 44.34375 52 Z M 44.34375 52 " fill-opacity="1" fill-rule="nonzero"/><path fill="#001447" d="M 58.285156 69.855469 C 58.28125 69.855469 58.277344 69.855469 58.273438 69.855469 C 58.023438 69.847656 57.828125 69.644531 57.832031 69.394531 L 58.085938 54.9375 C 58.089844 54.691406 58.292969 54.496094 58.539062 54.496094 C 58.542969 54.496094 58.542969 54.496094 58.546875 54.496094 C 58.796875 54.5 58.996094 54.703125 58.992188 54.953125 L 58.734375 69.410156 C 58.730469 69.65625 58.53125 69.855469 58.285156 69.855469 Z M 58.285156 69.855469 " fill-opacity="1" fill-rule="nonzero"/><path fill="#001447" d="M 47.609375 53.148438 C 47.480469 53.148438 47.351562 53.09375 47.265625 52.988281 C 47.101562 52.796875 47.128906 52.511719 47.320312 52.351562 C 47.855469 51.90625 48.207031 51.578125 48.179688 51.113281 C 48.164062 50.867188 48.355469 50.652344 48.601562 50.636719 C 48.851562 50.625 49.066406 50.8125 49.082031 51.0625 C 49.136719 52.015625 48.453125 52.585938 47.902344 53.042969 C 47.816406 53.113281 47.714844 53.148438 47.609375 53.148438 Z M 47.609375 53.148438 " fill-opacity="1" fill-rule="nonzero"/><path fill="#001447" d="M 59.339844 54.5625 C 59.339844 54.789062 59.261719 54.980469 59.101562 55.140625 C 58.941406 55.300781 58.746094 55.378906 58.519531 55.378906 C 58.292969 55.378906 58.101562 55.300781 57.941406 55.140625 C 57.78125 54.980469 57.699219 54.789062 57.699219 54.5625 C 57.699219 54.339844 57.78125 54.144531 57.941406 53.988281 C 58.101562 53.828125 58.292969 53.746094 58.519531 53.746094 C 58.746094 53.746094 58.941406 53.828125 59.101562 53.988281 C 59.261719 54.144531 59.339844 54.339844 59.339844 54.5625 Z M 59.339844 54.5625 " fill-opacity="1" fill-rule="nonzero"/><path fill="#e00051" d="M 63.421875 70.363281 C 63.433594 70.40625 63.460938 70.5 63.453125 70.546875 C 63.308594 71.363281 63.300781 72.066406 62.207031 72.234375 C 58.664062 72.78125 55.585938 72.898438 52.042969 72.25 C 50.949219 72.050781 50.96875 71.363281 50.863281 70.546875 C 50.855469 70.5 50.875 70.398438 50.894531 70.359375 C 51.214844 69.648438 51.402344 68.921875 52.457031 69.125 C 55.886719 69.785156 58.46875 69.640625 61.90625 69.050781 C 62.089844 69.019531 62.175781 69.054688 62.273438 69.046875 C 62.347656 69.039062 62.289062 69.046875 62.289062 69.046875 C 63.015625 69.125 63.300781 69.714844 63.421875 70.363281 Z M 63.421875 70.363281 " fill-opacity="1" fill-rule="nonzero"/><path fill="#001447" d="M 63.425781 70.363281 C 63.425781 70.410156 63.460938 70.5 63.453125 70.546875 C 63.304688 71.363281 63.300781 72.066406 62.207031 72.234375 C 58.664062 72.78125 55.589844 72.902344 52.042969 72.25 C 50.949219 72.046875 50.972656 71.367188 50.859375 70.542969 C 50.855469 70.496094 50.890625 70.40625 50.898438 70.359375 C 50.917969 70.15625 51.011719 69.972656 51.074219 69.792969 C 51.320312 70.480469 51.320312 71.003906 52.25 71.183594 C 55.722656 71.859375 58.714844 71.726562 62.1875 71.132812 C 62.988281 70.996094 63.035156 70.621094 63.367188 70.042969 C 63.375 70.148438 63.425781 70.25 63.425781 70.359375 Z M 63.425781 70.363281 " fill-opacity="0.42" fill-rule="nonzero"/><path fill="#ffb401" d="M 63.636719 70.441406 C 63.625 70.398438 63.632812 70.296875 63.617188 70.253906 C 63.335938 69.542969 63.121094 68.777344 62.085938 68.949219 C 58.71875 69.511719 56.050781 69.746094 52.664062 69.078125 C 51.621094 68.875 51.417969 69.59375 51.101562 70.300781 C 51.085938 70.34375 51.085938 70.445312 51.078125 70.488281 C 51.039062 70.6875 51.066406 70.886719 51.082031 71.070312 C 51.5 70.503906 51.679688 69.972656 52.589844 70.152344 C 56 70.832031 58.894531 70.613281 62.285156 70.007812 C 63.070312 69.867188 63.226562 70.324219 63.652344 70.765625 C 63.636719 70.667969 63.660156 70.546875 63.636719 70.441406 Z M 63.636719 70.441406 " fill-opacity="0.6" fill-rule="nonzero"/><path fill="#ffffff" d="M 51.277344 71.308594 C 51.277344 71.308594 51.140625 69.285156 58.636719 69.792969 C 58.636719 69.792969 53.011719 69.175781 52.972656 69.175781 C 52.9375 69.175781 51.589844 69.203125 51.589844 69.203125 C 51.589844 69.203125 51.121094 70.210938 51.105469 70.417969 C 51.085938 70.628906 51.160156 71.316406 51.167969 71.363281 C 51.175781 71.40625 51.277344 71.308594 51.277344 71.308594 Z M 51.277344 71.308594 " fill-opacity="0.55" fill-rule="nonzero"/><path fill="#001447" d="M 56.832031 73.140625 C 55.167969 73.140625 53.589844 72.988281 51.960938 72.691406 C 50.511719 72.523438 50.179688 70.796875 50.574219 69.964844 C 50.851562 69.316406 51.238281 68.429688 52.546875 68.679688 C 56.179688 69.445312 58.875 69.023438 62.265625 68.59375 C 63.246094 68.578125 64.039062 69.746094 63.859375 70.84375 C 63.742188 71.570312 63.59375 72.476562 62.277344 72.679688 C 60.289062 72.984375 58.515625 73.140625 56.832031 73.140625 Z M 51.316406 70.519531 C 51.40625 71.230469 51.386719 71.710938 52.125 71.808594 C 55.296875 72.386719 58.292969 72.382812 62.140625 71.789062 C 63.269531 71.773438 63.179688 69.550781 62.273438 69.496094 C 58.820312 69.957031 56.101562 70.335938 52.371094 69.566406 C 51.75 69.382812 51.589844 69.886719 51.316406 70.519531 Z M 63.003906 70.554688 Z M 51.308594 70.539062 L 51.308594 70.542969 C 51.308594 70.542969 51.308594 70.539062 51.308594 70.539062 Z M 51.316406 70.535156 Z M 63.007812 70.46875 Z M 63.007812 70.46875 " fill-opacity="1" fill-rule="nonzero"/><path fill="#e00051" d="M 63.421875 73.773438 C 63.433594 73.816406 63.460938 73.910156 63.453125 73.957031 C 63.308594 74.773438 63.300781 75.476562 62.207031 75.644531 C 58.664062 76.191406 55.585938 76.308594 52.042969 75.660156 C 50.949219 75.460938 50.96875 74.773438 50.863281 73.957031 C 50.855469 73.910156 50.875 73.808594 50.894531 73.769531 C 51.214844 73.058594 51.402344 72.332031 52.457031 72.535156 C 55.886719 73.195312 58.46875 73.050781 61.90625 72.460938 C 62.089844 72.429688 62.175781 72.464844 62.273438 72.457031 C 62.347656 72.449219 62.289062 72.457031 62.289062 72.457031 C 63.015625 72.535156 63.300781 73.125 63.421875 73.773438 Z M 63.421875 73.773438 " fill-opacity="1" fill-rule="nonzero"/><path fill="#001447" d="M 63.425781 73.773438 C 63.425781 73.820312 63.460938 73.910156 63.453125 73.957031 C 63.304688 74.773438 63.300781 75.476562 62.207031 75.644531 C 58.664062 76.191406 55.589844 76.3125 52.042969 75.660156 C 50.949219 75.457031 50.972656 74.777344 50.859375 73.953125 C 50.855469 73.90625 50.890625 73.816406 50.898438 73.769531 C 50.917969 73.566406 51.011719 73.382812 51.074219 73.203125 C 51.320312 73.890625 51.320312 74.414062 52.25 74.59375 C 55.722656 75.269531 58.714844 75.136719 62.1875 74.542969 C 62.988281 74.40625 63.035156 74.03125 63.367188 73.457031 C 63.375 73.558594 63.425781 73.660156 63.425781 73.773438 Z M 63.425781 73.773438 " fill-opacity="0.42" fill-rule="nonzero"/><path fill="#ffb401" d="M 63.636719 73.851562 C 63.625 73.808594 63.632812 73.707031 63.617188 73.664062 C 63.335938 72.953125 63.121094 72.1875 62.085938 72.359375 C 58.71875 72.921875 56.050781 73.15625 52.664062 72.492188 C 51.621094 72.285156 51.417969 73.003906 51.101562 73.714844 C 51.085938 73.753906 51.085938 73.855469 51.078125 73.898438 C 51.039062 74.097656 51.066406 74.296875 51.082031 74.480469 C 51.5 73.914062 51.679688 73.382812 52.589844 73.566406 C 56 74.242188 58.894531 74.023438 62.285156 73.417969 C 63.070312 73.277344 63.226562 73.738281 63.652344 74.175781 C 63.636719 74.078125 63.660156 73.957031 63.636719 73.851562 Z M 63.636719 73.851562 " fill-opacity="0.6" fill-rule="nonzero"/><path fill="#ffffff" d="M 51.289062 74.972656 C 51.289062 74.972656 51.152344 72.949219 58.652344 73.457031 C 58.652344 73.457031 53.023438 72.839844 52.988281 72.839844 C 52.949219 72.839844 51.601562 72.867188 51.601562 72.867188 C 51.601562 72.867188 51.136719 73.875 51.117188 74.082031 C 51.097656 74.292969 51.171875 74.980469 51.179688 75.027344 C 51.191406 75.070312 51.289062 74.972656 51.289062 74.972656 Z M 51.289062 74.972656 " fill-opacity="0.55" fill-rule="nonzero"/><path fill="#001447" d="M 56.832031 76.550781 C 55.167969 76.550781 53.589844 76.402344 51.960938 76.101562 C 50.511719 75.933594 50.179688 74.210938 50.574219 73.378906 C 50.851562 72.726562 51.238281 71.839844 52.546875 72.089844 C 56.179688 72.855469 58.875 72.433594 62.265625 72.003906 C 63.246094 71.988281 64.039062 73.15625 63.859375 74.253906 C 63.742188 74.980469 63.59375 75.886719 62.277344 76.089844 C 60.289062 76.394531 58.515625 76.550781 56.832031 76.550781 Z M 51.316406 73.933594 C 51.40625 74.640625 51.386719 75.125 52.125 75.21875 C 55.296875 75.796875 58.292969 75.792969 62.140625 75.199219 C 63.269531 75.183594 63.179688 72.960938 62.273438 72.90625 C 58.820312 73.367188 56.101562 73.746094 52.371094 72.976562 C 51.75 72.792969 51.589844 73.296875 51.316406 73.933594 Z M 63.003906 73.964844 Z M 51.308594 73.949219 L 51.308594 73.953125 C 51.308594 73.953125 51.308594 73.949219 51.308594 73.949219 Z M 51.316406 73.945312 Z M 63.007812 73.878906 Z M 63.007812 73.878906 " fill-opacity="1" fill-rule="nonzero"/><path fill="#e00051" d="M 63.421875 77.183594 C 63.433594 77.226562 63.460938 77.320312 63.453125 77.367188 C 63.308594 78.183594 63.300781 78.886719 62.207031 79.054688 C 58.664062 79.601562 55.585938 79.71875 52.042969 79.070312 C 50.949219 78.871094 50.96875 78.183594 50.863281 77.367188 C 50.855469 77.320312 50.875 77.21875 50.894531 77.179688 C 51.214844 76.46875 51.402344 75.742188 52.457031 75.945312 C 55.886719 76.605469 58.46875 76.464844 61.90625 75.871094 C 62.089844 75.839844 62.175781 75.875 62.273438 75.867188 C 62.347656 75.863281 62.289062 75.867188 62.289062 75.867188 C 63.015625 75.945312 63.300781 76.535156 63.421875 77.183594 Z M 63.421875 77.183594 " fill-opacity="1" fill-rule="nonzero"/><path fill="#001447" d="M 63.425781 77.183594 C 63.425781 77.230469 63.460938 77.320312 63.453125 77.367188 C 63.304688 78.183594 63.300781 78.886719 62.207031 79.054688 C 58.664062 79.601562 55.589844 79.722656 52.042969 79.070312 C 50.949219 78.871094 50.972656 78.1875 50.859375 77.363281 C 50.855469 77.316406 50.890625 77.226562 50.898438 77.183594 C 50.917969 76.976562 51.011719 76.792969 51.074219 76.613281 C 51.320312 77.300781 51.320312 77.824219 52.25 78.007812 C 55.722656 78.683594 58.714844 78.546875 62.1875 77.953125 C 62.988281 77.816406 63.035156 77.441406 63.367188 76.867188 C 63.375 76.96875 63.425781 77.070312 63.425781 77.183594 Z M 63.425781 77.183594 " fill-opacity="0.42" fill-rule="nonzero"/><path fill="#ffb401" d="M 63.636719 77.261719 C 63.625 77.21875 63.632812 77.117188 63.617188 77.078125 C 63.335938 76.363281 63.121094 75.597656 62.085938 75.769531 C 58.71875 76.332031 56.050781 76.566406 52.664062 75.902344 C 51.621094 75.695312 51.417969 76.414062 51.101562 77.125 C 51.085938 77.164062 51.085938 77.265625 51.078125 77.308594 C 51.039062 77.507812 51.066406 77.707031 51.082031 77.890625 C 51.5 77.324219 51.679688 76.792969 52.589844 76.976562 C 56 77.652344 58.894531 77.433594 62.285156 76.828125 C 63.070312 76.6875 63.226562 77.148438 63.652344 77.585938 C 63.636719 77.488281 63.660156 77.371094 63.636719 77.261719 Z M 63.636719 77.261719 " fill-opacity="0.6" fill-rule="nonzero"/><path fill="#ffffff" d="M 51.433594 78.21875 C 51.433594 78.21875 51.296875 76.195312 58.792969 76.703125 C 58.792969 76.703125 53.167969 76.085938 53.128906 76.085938 C 53.09375 76.085938 51.746094 76.113281 51.746094 76.113281 C 51.746094 76.113281 51.277344 77.121094 51.261719 77.328125 C 51.242188 77.539062 51.316406 78.226562 51.324219 78.273438 C 51.332031 78.316406 51.433594 78.21875 51.433594 78.21875 Z M 51.433594 78.21875 " fill-opacity="0.55" fill-rule="nonzero"/><path fill="#001447" d="M 56.832031 79.960938 C 55.167969 79.960938 53.589844 79.8125 51.960938 79.511719 C 50.511719 79.34375 50.179688 77.621094 50.574219 76.789062 C 50.851562 76.140625 51.238281 75.25 52.546875 75.503906 C 56.179688 76.265625 58.875 75.84375 62.265625 75.414062 C 63.246094 75.398438 64.039062 76.566406 63.859375 77.664062 C 63.742188 78.390625 63.59375 79.296875 62.277344 79.5 C 60.289062 79.808594 58.515625 79.960938 56.832031 79.960938 Z M 51.316406 77.34375 C 51.40625 78.050781 51.386719 78.535156 52.125 78.628906 C 55.296875 79.210938 58.292969 79.203125 62.140625 78.609375 C 63.269531 78.59375 63.179688 76.371094 62.273438 76.316406 C 58.820312 76.777344 56.101562 77.15625 52.371094 76.386719 C 51.75 76.203125 51.589844 76.710938 51.316406 77.34375 Z M 63.003906 77.375 Z M 51.308594 77.359375 L 51.308594 77.363281 C 51.308594 77.363281 51.308594 77.363281 51.308594 77.359375 Z M 51.316406 77.355469 Z M 63.007812 77.289062 Z M 63.007812 77.289062 " fill-opacity="1" fill-rule="nonzero"/><path fill="#001447" d="M 60.617188 69.441406 C 60.617188 69.441406 61.65625 71.871094 56.183594 72.359375 C 56.039062 73.070312 61.65625 72.761719 61.65625 72.761719 C 61.65625 72.761719 63.136719 71.128906 63.171875 71.128906 C 63.207031 71.128906 63.171875 69.335938 63.171875 69.335938 Z M 60.617188 69.441406 " fill-opacity="0.29" fill-rule="nonzero"/><path fill="#001447" d="M 60.582031 72.898438 C 60.582031 72.898438 61.621094 75.332031 56.148438 75.820312 C 56.003906 76.527344 61.621094 76.21875 61.621094 76.21875 C 61.621094 76.21875 63.097656 74.585938 63.136719 74.585938 C 63.171875 74.585938 63.136719 72.796875 63.136719 72.796875 Z M 60.582031 72.898438 " fill-opacity="0.29" fill-rule="nonzero"/><path fill="#ffb401" d="M 39.6875 66.984375 C 39.546875 66.984375 39.40625 66.914062 39.316406 66.792969 C 39.171875 66.589844 39.222656 66.308594 39.425781 66.164062 L 43.101562 63.597656 C 43.308594 63.457031 43.589844 63.503906 43.734375 63.707031 C 43.875 63.914062 43.828125 64.191406 43.621094 64.335938 L 39.945312 66.902344 C 39.867188 66.957031 39.777344 66.984375 39.6875 66.984375 Z M 39.6875 66.984375 " fill-opacity="1" fill-rule="nonzero"/><path fill="#ffb401" d="M 36.550781 62.089844 C 36.363281 62.089844 36.191406 61.976562 36.125 61.792969 C 36.039062 61.558594 36.160156 61.300781 36.394531 61.214844 L 40.613281 59.683594 C 40.847656 59.597656 41.109375 59.71875 41.191406 59.949219 C 41.277344 60.183594 41.15625 60.441406 40.921875 60.527344 L 36.707031 62.058594 C 36.652344 62.078125 36.601562 62.089844 36.550781 62.089844 Z M 36.550781 62.089844 " fill-opacity="1" fill-rule="nonzero"/><g clip-path="url(#e76e073a20)"><path fill="#ffb401" d="M 34.792969 56.550781 C 34.5625 56.550781 34.363281 56.375 34.34375 56.140625 C 34.320312 55.894531 34.503906 55.675781 34.753906 55.652344 L 39.226562 55.261719 C 39.476562 55.238281 39.695312 55.421875 39.71875 55.667969 C 39.738281 55.917969 39.554688 56.132812 39.304688 56.15625 L 34.832031 56.550781 C 34.820312 56.550781 34.804688 56.550781 34.792969 56.550781 Z M 34.792969 56.550781 " fill-opacity="1" fill-rule="nonzero"/></g><g clip-path="url(#18c743f8d7)"><path fill="#ffb401" d="M 38.960938 51.523438 C 38.9375 51.523438 38.910156 51.523438 38.882812 51.515625 L 34.460938 50.746094 C 34.214844 50.703125 34.046875 50.46875 34.089844 50.226562 C 34.132812 49.980469 34.371094 49.816406 34.617188 49.859375 L 39.039062 50.628906 C 39.285156 50.671875 39.449219 50.90625 39.40625 51.152344 C 39.367188 51.371094 39.175781 51.523438 38.960938 51.523438 Z M 38.960938 51.523438 " fill-opacity="1" fill-rule="nonzero"/></g><path fill="#ffb401" d="M 39.871094 46.96875 C 39.808594 46.96875 39.742188 46.957031 39.679688 46.925781 L 35.609375 45.042969 C 35.382812 44.9375 35.285156 44.671875 35.390625 44.445312 C 35.496094 44.21875 35.761719 44.121094 35.992188 44.226562 L 40.0625 46.109375 C 40.289062 46.214844 40.386719 46.484375 40.28125 46.707031 C 40.207031 46.871094 40.042969 46.96875 39.871094 46.96875 Z M 39.871094 46.96875 " fill-opacity="1" fill-rule="nonzero"/><path fill="#ffb401" d="M 41.9375 42.804688 C 41.835938 42.804688 41.730469 42.769531 41.648438 42.699219 L 38.203125 39.832031 C 38.011719 39.671875 37.988281 39.386719 38.148438 39.199219 C 38.308594 39.007812 38.59375 38.984375 38.785156 39.140625 L 42.226562 42.007812 C 42.417969 42.167969 42.445312 42.453125 42.285156 42.640625 C 42.195312 42.75 42.066406 42.804688 41.9375 42.804688 Z M 41.9375 42.804688 " fill-opacity="1" fill-rule="nonzero"/><path fill="#ffb401" d="M 45.015625 39.3125 C 44.875 39.3125 44.734375 39.246094 44.644531 39.121094 L 42.066406 35.464844 C 41.921875 35.261719 41.972656 34.980469 42.175781 34.839844 C 42.378906 34.695312 42.664062 34.746094 42.804688 34.949219 L 45.386719 38.605469 C 45.53125 38.808594 45.480469 39.089844 45.277344 39.230469 C 45.195312 39.285156 45.105469 39.3125 45.015625 39.3125 Z M 45.015625 39.3125 " fill-opacity="1" fill-rule="nonzero"/><path fill="#ffb401" d="M 48.898438 36.730469 C 48.714844 36.730469 48.539062 36.617188 48.472656 36.4375 L 46.933594 32.242188 C 46.847656 32.007812 46.96875 31.75 47.203125 31.664062 C 47.4375 31.578125 47.695312 31.699219 47.78125 31.933594 L 49.324219 36.128906 C 49.410156 36.359375 49.289062 36.617188 49.054688 36.703125 C 49.003906 36.722656 48.949219 36.730469 48.898438 36.730469 Z M 48.898438 36.730469 " fill-opacity="1" fill-rule="nonzero"/><g clip-path="url(#9aa9dcfb96)"><path fill="#ffb401" d="M 54.335938 35.039062 C 54.121094 35.039062 53.933594 34.890625 53.890625 34.679688 L 52.996094 30.300781 C 52.949219 30.058594 53.105469 29.820312 53.351562 29.769531 C 53.597656 29.722656 53.835938 29.878906 53.886719 30.121094 L 54.777344 34.5 C 54.828125 34.742188 54.667969 34.980469 54.425781 35.03125 C 54.394531 35.035156 54.363281 35.039062 54.335938 35.039062 Z M 54.335938 35.039062 " fill-opacity="1" fill-rule="nonzero"/></g><path fill="#ffb401" d="M 74.03125 66.984375 C 73.941406 66.984375 73.847656 66.957031 73.769531 66.902344 L 70.09375 64.335938 C 69.890625 64.191406 69.839844 63.910156 69.984375 63.707031 C 70.128906 63.503906 70.410156 63.457031 70.613281 63.597656 L 74.289062 66.164062 C 74.496094 66.308594 74.542969 66.585938 74.402344 66.789062 C 74.3125 66.914062 74.171875 66.980469 74.03125 66.980469 Z M 74.03125 66.984375 " fill-opacity="1" fill-rule="nonzero"/><path fill="#ffb401" d="M 77.167969 62.089844 C 77.117188 62.089844 77.0625 62.078125 77.011719 62.058594 L 72.792969 60.527344 C 72.558594 60.441406 72.4375 60.183594 72.523438 59.949219 C 72.609375 59.71875 72.871094 59.597656 73.105469 59.683594 L 77.324219 61.214844 C 77.558594 61.300781 77.679688 61.558594 77.59375 61.792969 C 77.523438 61.976562 77.351562 62.089844 77.167969 62.089844 Z M 77.167969 62.089844 " fill-opacity="1" fill-rule="nonzero"/><g clip-path="url(#1412506a6b)"><path fill="#ffb401" d="M 78.925781 56.550781 C 78.910156 56.550781 78.898438 56.550781 78.882812 56.550781 L 74.410156 56.15625 C 74.160156 56.132812 73.976562 55.914062 74 55.667969 C 74.023438 55.421875 74.242188 55.238281 74.492188 55.261719 L 78.964844 55.652344 C 79.214844 55.675781 79.398438 55.894531 79.375 56.140625 C 79.355469 56.375 79.15625 56.550781 78.925781 56.550781 Z M 78.925781 56.550781 " fill-opacity="1" fill-rule="nonzero"/></g><g clip-path="url(#edcda24c83)"><path fill="#ffb401" d="M 74.757812 51.523438 C 74.539062 51.523438 74.347656 51.371094 74.3125 51.152344 C 74.265625 50.90625 74.433594 50.671875 74.679688 50.628906 L 79.101562 49.859375 C 79.347656 49.816406 79.582031 49.980469 79.625 50.226562 C 79.667969 50.46875 79.503906 50.703125 79.257812 50.746094 L 74.835938 51.515625 C 74.808594 51.523438 74.78125 51.523438 74.757812 51.523438 Z M 74.757812 51.523438 " fill-opacity="1" fill-rule="nonzero"/></g><path fill="#ffb401" d="M 73.847656 46.96875 C 73.675781 46.96875 73.511719 46.871094 73.4375 46.707031 C 73.332031 46.484375 73.429688 46.214844 73.65625 46.109375 L 77.726562 44.226562 C 77.953125 44.121094 78.222656 44.21875 78.328125 44.445312 C 78.433594 44.671875 78.335938 44.9375 78.109375 45.042969 L 74.035156 46.925781 C 73.976562 46.957031 73.910156 46.96875 73.847656 46.96875 Z M 73.847656 46.96875 " fill-opacity="1" fill-rule="nonzero"/><path fill="#ffb401" d="M 71.78125 42.804688 C 71.652344 42.804688 71.523438 42.75 71.433594 42.644531 C 71.273438 42.453125 71.296875 42.167969 71.492188 42.007812 L 74.933594 39.140625 C 75.125 38.984375 75.410156 39.007812 75.570312 39.199219 C 75.730469 39.390625 75.707031 39.671875 75.515625 39.832031 L 72.070312 42.699219 C 71.984375 42.769531 71.882812 42.804688 71.78125 42.804688 Z M 71.78125 42.804688 " fill-opacity="1" fill-rule="nonzero"/><path fill="#ffb401" d="M 68.703125 39.3125 C 68.613281 39.3125 68.519531 39.285156 68.441406 39.230469 C 68.238281 39.085938 68.1875 38.808594 68.332031 38.601562 L 70.910156 34.949219 C 71.054688 34.746094 71.335938 34.695312 71.542969 34.839844 C 71.746094 34.980469 71.796875 35.261719 71.652344 35.464844 L 69.070312 39.121094 C 68.984375 39.246094 68.84375 39.3125 68.703125 39.3125 Z M 68.703125 39.3125 " fill-opacity="1" fill-rule="nonzero"/><path fill="#ffb401" d="M 64.820312 36.730469 C 64.769531 36.730469 64.714844 36.722656 64.664062 36.703125 C 64.429688 36.617188 64.308594 36.359375 64.394531 36.128906 L 65.933594 31.933594 C 66.019531 31.699219 66.28125 31.578125 66.515625 31.664062 C 66.75 31.75 66.871094 32.007812 66.785156 32.242188 L 65.246094 36.4375 C 65.175781 36.617188 65.003906 36.730469 64.820312 36.730469 Z M 64.820312 36.730469 " fill-opacity="1" fill-rule="nonzero"/><g clip-path="url(#28e471134b)"><path fill="#ffb401" d="M 59.300781 35.070312 C 59.28125 35.070312 59.265625 35.066406 59.246094 35.066406 C 59 35.039062 58.820312 34.816406 58.847656 34.566406 L 59.363281 30.132812 C 59.390625 29.882812 59.617188 29.707031 59.863281 29.734375 C 60.113281 29.765625 60.292969 29.988281 60.261719 30.234375 L 59.75 34.671875 C 59.722656 34.898438 59.527344 35.070312 59.300781 35.070312 Z M 59.300781 35.070312 " fill-opacity="1" fill-rule="nonzero"/></g></svg>