<svg xmlns="http://www.w3.org/2000/svg" xmlns:xlink="http://www.w3.org/1999/xlink" width="150" zoomAndPan="magnify" viewBox="0 0 112.5 112.499997" height="150" preserveAspectRatio="xMidYMid meet" version="1.0"><defs><filter x="0%" y="0%" width="100%" height="100%" id="36fedbad4d"><feColorMatrix values="0 0 0 0 1 0 0 0 0 1 0 0 0 0 1 0 0 0 1 0" color-interpolation-filters="sRGB"/></filter><g/><clipPath id="8323b4fc8a"><path d="M 0 0 L 112.003906 0 L 112.003906 112.003906 L 0 112.003906 Z M 0 0 " clip-rule="nonzero"/></clipPath><clipPath id="7a01102610"><path d="M 56 0 L 63.886719 6.21875 L 73.304688 2.742188 L 78.882812 11.09375 L 88.917969 10.695312 L 91.640625 20.363281 L 101.308594 23.085938 L 100.910156 33.121094 L 109.261719 38.695312 L 105.78125 48.117188 L 112.003906 56 L 105.78125 63.886719 L 109.261719 73.304688 L 100.910156 78.882812 L 101.308594 88.917969 L 91.640625 91.640625 L 88.917969 101.308594 L 78.882812 100.910156 L 73.304688 109.261719 L 63.886719 105.78125 L 56 112.003906 L 48.117188 105.78125 L 38.695312 109.261719 L 33.121094 100.910156 L 23.085938 101.308594 L 20.363281 91.640625 L 10.695312 88.917969 L 11.09375 78.882812 L 2.742188 73.304688 L 6.21875 63.886719 L 0 56 L 6.21875 48.117188 L 2.742188 38.695312 L 11.09375 33.121094 L 10.695312 23.085938 L 20.363281 20.363281 L 23.085938 10.695312 L 33.121094 11.09375 L 38.695312 2.742188 L 48.117188 6.21875 Z M 56 0 " clip-rule="nonzero"/></clipPath><clipPath id="ee7c6a544e"><path d="M 12.667969 63.238281 L 20.222656 63.238281 L 20.222656 70.792969 L 12.667969 70.792969 Z M 12.667969 63.238281 " clip-rule="nonzero"/></clipPath><clipPath id="d52aa627a0"><path d="M 16.445312 63.238281 L 17.644531 65.8125 L 20.222656 67.015625 L 17.644531 68.214844 L 16.445312 70.792969 L 15.242188 68.214844 L 12.667969 67.015625 L 15.242188 65.8125 Z M 16.445312 63.238281 " clip-rule="nonzero"/></clipPath><clipPath id="4822387b16"><path d="M 92.039062 63.238281 L 99.589844 63.238281 L 99.589844 70.792969 L 92.039062 70.792969 Z M 92.039062 63.238281 " clip-rule="nonzero"/></clipPath><clipPath id="f048c9e135"><path d="M 95.816406 63.238281 L 97.015625 65.8125 L 99.589844 67.015625 L 97.015625 68.214844 L 95.816406 70.792969 L 94.613281 68.214844 L 92.039062 67.015625 L 94.613281 65.8125 Z M 95.816406 63.238281 " clip-rule="nonzero"/></clipPath><mask id="a0da3bb3a0"><g filter="url(#36fedbad4d)"><rect x="-11.25" width="135" fill="#000000" y="-11.25" height="134.999996" fill-opacity="0.42"/></g></mask><clipPath id="54b7992125"><path d="M 0.152344 15.382812 L 69.59375 15.382812 L 69.59375 66.847656 L 0.152344 66.847656 Z M 0.152344 15.382812 " clip-rule="nonzero"/></clipPath><clipPath id="aa03a1f1a4"><rect x="0" width="71" y="0" height="68"/></clipPath><clipPath id="e3c920dd9f"><path d="M 64 46 L 80.914062 46 L 80.914062 63 L 64 63 Z M 64 46 " clip-rule="nonzero"/></clipPath><clipPath id="c3b177234b"><path d="M 66 46 L 80.914062 46 L 80.914062 63 L 66 63 Z M 66 46 " clip-rule="nonzero"/></clipPath><clipPath id="5fb9a47e8d"><path d="M 46.542969 60.082031 L 65.261719 60.082031 L 65.261719 79.4375 L 46.542969 79.4375 Z M 46.542969 60.082031 " clip-rule="nonzero"/></clipPath><clipPath id="be3322dd2c"><path d="M 63.878906 45.734375 L 80.90625 45.734375 L 80.90625 62.902344 L 63.878906 62.902344 Z M 63.878906 45.734375 " clip-rule="nonzero"/></clipPath><clipPath id="9080dffaeb"><path d="M 47 35.382812 L 65 35.382812 L 65 53 L 47 53 Z M 47 35.382812 " clip-rule="nonzero"/></clipPath><clipPath id="bf3a542ab9"><path d="M 30.886719 45 L 48 45 L 48 63 L 30.886719 63 Z M 30.886719 45 " clip-rule="nonzero"/></clipPath></defs><g clip-path="url(#8323b4fc8a)"><g clip-path="url(#7a01102610)"><path fill="#ecde47" d="M 0 0 L 112.003906 0 L 112.003906 112.003906 L 0 112.003906 Z M 0 0 " fill-opacity="1" fill-rule="nonzero"/></g></g><g clip-path="url(#ee7c6a544e)"><g clip-path="url(#d52aa627a0)"><path fill="#f67280" d="M 12.667969 63.238281 L 20.222656 63.238281 L 20.222656 70.792969 L 12.667969 70.792969 Z M 12.667969 63.238281 " fill-opacity="1" fill-rule="nonzero"/></g></g><g fill="#000000" fill-opacity="1"><g transform="translate(19.170753, 57.330703)"><g><path d="M -3.328125 -2.640625 L -1.203125 -2.578125 L -1.09375 -6.28125 L 0.1875 -6.234375 L 0.03125 -1 L -7.703125 -1.234375 L -7.546875 -6.375 L -6.265625 -6.34375 L -6.375 -2.734375 L -4.578125 -2.671875 L -4.484375 -5.828125 L -3.234375 -5.796875 Z M -3.328125 -2.640625 "/></g></g></g><g fill="#000000" fill-opacity="1"><g transform="translate(19.413417, 49.067661)"><g><path d="M 0.71875 -2.296875 L 0.296875 -0.953125 L -7.09375 -3.234375 L -6.5 -5.140625 L -0.484375 -5.359375 L -0.453125 -5.453125 L -5.3125 -9 L -4.734375 -10.859375 L 2.65625 -8.578125 L 2.234375 -7.1875 L -2.640625 -8.703125 L -2.71875 -8.578125 L 1.65625 -5.359375 L 1.28125 -4.140625 L -4.15625 -3.953125 L -4.15625 -3.8125 Z M 0.71875 -2.296875 "/></g></g></g><g fill="#000000" fill-opacity="1"><g transform="translate(23.133707, 38.191874)"><g><path d="M 2.453125 -3.4375 C 2.054688 -2.851562 1.585938 -2.414062 1.046875 -2.125 C 0.503906 -1.832031 -0.0976562 -1.722656 -0.765625 -1.796875 C -1.429688 -1.878906 -2.132812 -2.164062 -2.875 -2.65625 C -3.601562 -3.15625 -4.128906 -3.695312 -4.453125 -4.28125 C -4.773438 -4.863281 -4.90625 -5.460938 -4.84375 -6.078125 C -4.78125 -6.703125 -4.550781 -7.304688 -4.15625 -7.890625 C -3.757812 -8.472656 -3.289062 -8.90625 -2.75 -9.1875 C -2.207031 -9.476562 -1.601562 -9.585938 -0.9375 -9.515625 C -0.269531 -9.441406 0.425781 -9.15625 1.15625 -8.65625 C 1.894531 -8.164062 2.425781 -7.625 2.75 -7.03125 C 3.070312 -6.445312 3.203125 -5.847656 3.140625 -5.234375 C 3.078125 -4.617188 2.847656 -4.019531 2.453125 -3.4375 Z M 1.34375 -4.1875 C 1.707031 -4.726562 1.8125 -5.257812 1.65625 -5.78125 C 1.5 -6.3125 1.035156 -6.832031 0.265625 -7.34375 C -0.492188 -7.863281 -1.144531 -8.09375 -1.6875 -8.03125 C -2.238281 -7.976562 -2.695312 -7.679688 -3.0625 -7.140625 C -3.425781 -6.597656 -3.53125 -6.0625 -3.375 -5.53125 C -3.21875 -5.007812 -2.757812 -4.488281 -2 -3.96875 C -1.226562 -3.457031 -0.566406 -3.226562 -0.015625 -3.28125 C 0.523438 -3.34375 0.976562 -3.644531 1.34375 -4.1875 Z M 1.34375 -4.1875 "/></g></g></g><g fill="#000000" fill-opacity="1"><g transform="translate(29.016831, 30.028195)"><g><path d="M -0.5625 -9.890625 L 0.296875 -8.9375 L -1.359375 -7.453125 L 2.953125 -2.65625 L 1.828125 -1.640625 L -2.484375 -6.4375 L -4.15625 -4.9375 L -5.015625 -5.890625 Z M -0.5625 -9.890625 "/></g></g></g><g fill="#000000" fill-opacity="1"><g transform="translate(35.335413, 24.757687)"><g><path d="M 2.15625 -1.3125 L 0.859375 -0.515625 L -3.15625 -7.125 L -1.859375 -7.921875 Z M 2.15625 -1.3125 "/></g></g></g><g fill="#000000" fill-opacity="1"><g transform="translate(39.84269, 21.935126)"><g><path d="M 4.015625 -1.28125 C 3.347656 -1.039062 2.710938 -0.96875 2.109375 -1.0625 C 1.503906 -1.15625 0.957031 -1.4375 0.46875 -1.90625 C -0.0195312 -2.375 -0.410156 -3.023438 -0.703125 -3.859375 C -0.992188 -4.691406 -1.085938 -5.4375 -0.984375 -6.09375 C -0.890625 -6.757812 -0.632812 -7.316406 -0.21875 -7.765625 C 0.1875 -8.222656 0.722656 -8.570312 1.390625 -8.8125 C 2.054688 -9.039062 2.691406 -9.101562 3.296875 -9 C 3.910156 -8.90625 4.457031 -8.628906 4.9375 -8.171875 C 5.425781 -7.710938 5.816406 -7.066406 6.109375 -6.234375 C 6.398438 -5.398438 6.5 -4.644531 6.40625 -3.96875 C 6.3125 -3.300781 6.054688 -2.742188 5.640625 -2.296875 C 5.222656 -1.847656 4.679688 -1.507812 4.015625 -1.28125 Z M 3.578125 -2.546875 C 4.191406 -2.765625 4.597656 -3.128906 4.796875 -3.640625 C 4.992188 -4.148438 4.9375 -4.84375 4.625 -5.71875 C 4.320312 -6.582031 3.929688 -7.160156 3.453125 -7.453125 C 2.984375 -7.742188 2.441406 -7.78125 1.828125 -7.5625 C 1.203125 -7.34375 0.796875 -6.972656 0.609375 -6.453125 C 0.421875 -5.929688 0.476562 -5.238281 0.78125 -4.375 C 1.09375 -3.5 1.476562 -2.921875 1.9375 -2.640625 C 2.40625 -2.359375 2.953125 -2.328125 3.578125 -2.546875 Z M 3.578125 -2.546875 "/></g></g></g><g fill="#000000" fill-opacity="1"><g transform="translate(49.356854, 18.843676)"><g><path d="M 2.484375 -0.15625 L 1 -0.0625 L 0.515625 -7.78125 L 2.28125 -7.890625 L 5.671875 -3.109375 L 5.8125 -3.15625 L 5.5 -8.09375 L 6.96875 -8.1875 L 7.453125 -0.46875 L 5.890625 -0.375 L 2.296875 -5.46875 L 2.15625 -5.453125 Z M 2.484375 -0.15625 "/></g></g></g><g fill="#000000" fill-opacity="1"><g transform="translate(59.600374, 18.67425)"><g/></g></g><g fill="#000000" fill-opacity="1"><g transform="translate(63.982714, 19.260075)"><g><path d="M 3.453125 -2.453125 L 2.796875 -0.4375 L 6.328125 0.703125 L 5.9375 1.921875 L 0.953125 0.3125 L 3.328125 -7.046875 L 8.21875 -5.46875 L 7.828125 -4.25 L 4.390625 -5.359375 L 3.84375 -3.65625 L 6.84375 -2.6875 L 6.453125 -1.484375 Z M 3.453125 -2.453125 "/></g></g></g><g fill="#000000" fill-opacity="1"><g transform="translate(71.858695, 21.973992)"><g><path d="M 3.921875 2.390625 L 2.34375 1.4375 L 4.15625 -6.515625 L 5.53125 -5.671875 L 4.140625 0.234375 L 4.25 0.296875 L 8.828125 -3.65625 L 10.1875 -2.828125 Z M 3.921875 2.390625 "/></g></g></g><g fill="#000000" fill-opacity="1"><g transform="translate(79.431961, 26.771622)"><g><path d="M 2.84375 3.125 C 2.351562 2.613281 2.023438 2.0625 1.859375 1.46875 C 1.691406 0.882812 1.71875 0.273438 1.9375 -0.359375 C 2.15625 -1.003906 2.582031 -1.628906 3.21875 -2.234375 C 3.863281 -2.847656 4.503906 -3.25 5.140625 -3.4375 C 5.785156 -3.625 6.398438 -3.625 6.984375 -3.4375 C 7.578125 -3.25 8.117188 -2.898438 8.609375 -2.390625 C 9.097656 -1.878906 9.421875 -1.328125 9.578125 -0.734375 C 9.734375 -0.140625 9.703125 0.472656 9.484375 1.109375 C 9.273438 1.742188 8.847656 2.367188 8.203125 2.984375 C 7.566406 3.585938 6.925781 3.984375 6.28125 4.171875 C 5.632812 4.367188 5.019531 4.367188 4.4375 4.171875 C 3.863281 3.984375 3.332031 3.632812 2.84375 3.125 Z M 3.796875 2.203125 C 4.242188 2.679688 4.738281 2.898438 5.28125 2.859375 C 5.832031 2.816406 6.441406 2.476562 7.109375 1.84375 C 7.773438 1.207031 8.140625 0.613281 8.203125 0.0625 C 8.273438 -0.476562 8.085938 -0.988281 7.640625 -1.46875 C 7.179688 -1.9375 6.675781 -2.148438 6.125 -2.109375 C 5.582031 -2.066406 4.976562 -1.726562 4.3125 -1.09375 C 3.644531 -0.457031 3.273438 0.128906 3.203125 0.671875 C 3.140625 1.222656 3.335938 1.734375 3.796875 2.203125 Z M 3.796875 2.203125 "/></g></g></g><g fill="#000000" fill-opacity="1"><g transform="translate(86.158832, 34.225826)"><g><path d="M 0.484375 0.875 L 7.25 -2.875 L 8 -1.53125 L 5.234375 0 L 5.3125 0.140625 L 9.34375 0.875 L 10.09375 2.25 L 9.984375 2.3125 L 5.53125 1.53125 L 3.578125 6.1875 L 3.46875 6.25 L 2.625 4.734375 L 4.234375 0.734375 L 4.15625 0.59375 L 1.234375 2.21875 Z M 0.484375 0.875 "/></g></g></g><g fill="#000000" fill-opacity="1"><g transform="translate(90.248334, 42.047262)"><g><path d="M 3.96875 1.515625 L 1.921875 2.09375 L 2.921875 5.65625 L 1.6875 6 L 0.265625 0.96875 L 7.71875 -1.109375 L 9.109375 3.828125 L 7.875 4.171875 L 6.90625 0.703125 L 5.171875 1.1875 L 6.015625 4.234375 L 4.8125 4.5625 Z M 3.96875 1.515625 "/></g></g></g><g fill="#000000" fill-opacity="1"><g transform="translate(92.339112, 50.113913)"><g><path d="M 0.03125 1 L 7.765625 0.703125 L 7.890625 3.8125 C 7.921875 4.613281 7.757812 5.226562 7.40625 5.65625 C 7.0625 6.082031 6.5625 6.304688 5.90625 6.328125 C 5.4375 6.347656 5.046875 6.242188 4.734375 6.015625 C 4.429688 5.785156 4.1875 5.4375 4 4.96875 L 3.890625 4.96875 C 3.796875 5.21875 3.644531 5.421875 3.4375 5.578125 C 3.238281 5.742188 2.941406 5.894531 2.546875 6.03125 L 0.265625 6.90625 L 0.203125 5.328125 L 2.484375 4.484375 C 2.710938 4.398438 2.890625 4.304688 3.015625 4.203125 C 3.140625 4.109375 3.226562 3.984375 3.28125 3.828125 C 3.332031 3.671875 3.351562 3.472656 3.34375 3.234375 L 3.3125 2.40625 L 0.09375 2.53125 Z M 4.59375 3.75 C 4.613281 4.5 4.96875 4.863281 5.65625 4.84375 C 6.363281 4.8125 6.707031 4.421875 6.6875 3.671875 L 6.625 2.28125 L 4.53125 2.359375 Z M 4.59375 3.75 "/></g></g></g><g fill="#000000" fill-opacity="1"><g transform="translate(18.316917, 76.059553)"><g><path d="M 2.125 3.671875 C 1.75 3.054688 1.546875 2.441406 1.515625 1.828125 C 1.484375 1.210938 1.640625 0.613281 1.984375 0.03125 C 2.328125 -0.539062 2.867188 -1.054688 3.609375 -1.515625 C 4.347656 -1.960938 5.050781 -2.207031 5.71875 -2.25 C 6.394531 -2.300781 7.003906 -2.175781 7.546875 -1.875 C 8.085938 -1.570312 8.546875 -1.113281 8.921875 -0.5 C 9.304688 0.132812 9.507812 0.75 9.53125 1.34375 C 9.550781 1.9375 9.363281 2.492188 8.96875 3.015625 L 7.8125 2.390625 L 7.75 2.28125 C 8 1.9375 8.125 1.597656 8.125 1.265625 C 8.125 0.929688 8.007812 0.578125 7.78125 0.203125 C 7.4375 -0.347656 6.988281 -0.664062 6.4375 -0.75 C 5.882812 -0.84375 5.21875 -0.648438 4.4375 -0.171875 C 3.65625 0.316406 3.175781 0.820312 3 1.34375 C 2.832031 1.875 2.921875 2.414062 3.265625 2.96875 C 3.785156 3.820312 4.515625 4.097656 5.453125 3.796875 L 5.515625 3.90625 L 5.625 5.171875 C 4.882812 5.367188 4.222656 5.34375 3.640625 5.09375 C 3.054688 4.851562 2.550781 4.378906 2.125 3.671875 Z M 2.125 3.671875 "/></g></g></g><g fill="#000000" fill-opacity="1"><g transform="translate(24.376082, 85.189218)"><g><path d="M 3 2.953125 C 2.488281 2.472656 2.132812 1.941406 1.9375 1.359375 C 1.738281 0.785156 1.726562 0.175781 1.90625 -0.46875 C 2.082031 -1.113281 2.472656 -1.757812 3.078125 -2.40625 C 3.679688 -3.050781 4.300781 -3.484375 4.9375 -3.703125 C 5.570312 -3.929688 6.1875 -3.96875 6.78125 -3.8125 C 7.382812 -3.65625 7.941406 -3.335938 8.453125 -2.859375 C 8.972656 -2.367188 9.328125 -1.832031 9.515625 -1.25 C 9.710938 -0.664062 9.71875 -0.0546875 9.53125 0.578125 C 9.351562 1.222656 8.960938 1.867188 8.359375 2.515625 C 7.753906 3.160156 7.132812 3.597656 6.5 3.828125 C 5.875 4.054688 5.265625 4.085938 4.671875 3.921875 C 4.078125 3.765625 3.519531 3.441406 3 2.953125 Z M 3.90625 1.984375 C 4.382812 2.429688 4.894531 2.617188 5.4375 2.546875 C 5.988281 2.484375 6.578125 2.113281 7.203125 1.4375 C 7.828125 0.769531 8.160156 0.160156 8.203125 -0.390625 C 8.242188 -0.941406 8.023438 -1.441406 7.546875 -1.890625 C 7.066406 -2.335938 6.550781 -2.519531 6 -2.4375 C 5.445312 -2.363281 4.859375 -1.992188 4.234375 -1.328125 C 3.609375 -0.648438 3.273438 -0.0390625 3.234375 0.5 C 3.203125 1.039062 3.425781 1.535156 3.90625 1.984375 Z M 3.90625 1.984375 "/></g></g></g><g fill="#000000" fill-opacity="1"><g transform="translate(33.351761, 93.026743)"><g><path d="M 2.171875 1.046875 L 0.90625 0.4375 L 4.28125 -6.515625 L 6.078125 -5.640625 L 5.359375 0.328125 L 5.453125 0.375 L 9.703125 -3.875 L 11.453125 -3.03125 L 8.078125 3.921875 L 6.78125 3.296875 L 9.015625 -1.296875 L 8.890625 -1.390625 L 5.046875 2.453125 L 3.890625 1.890625 L 4.546875 -3.515625 L 4.40625 -3.546875 Z M 2.171875 1.046875 "/></g></g></g><g fill="#000000" fill-opacity="1"><g transform="translate(45.667054, 98.242216)"><g><path d="M 5.25 -6.953125 C 5.800781 -6.859375 6.25 -6.675781 6.59375 -6.40625 C 6.945312 -6.132812 7.191406 -5.800781 7.328125 -5.40625 C 7.460938 -5.019531 7.488281 -4.59375 7.40625 -4.125 C 7.320312 -3.644531 7.148438 -3.242188 6.890625 -2.921875 C 6.640625 -2.597656 6.300781 -2.367188 5.875 -2.234375 C 5.457031 -2.097656 4.972656 -2.078125 4.421875 -2.171875 L 2.984375 -2.421875 L 2.5 0.421875 L 0.984375 0.171875 L 2.296875 -7.453125 Z M 4.4375 -3.390625 C 5.269531 -3.242188 5.753906 -3.570312 5.890625 -4.375 C 6.035156 -5.175781 5.691406 -5.648438 4.859375 -5.796875 L 3.609375 -6.015625 L 3.1875 -3.609375 Z M 4.4375 -3.390625 "/></g></g></g><g fill="#000000" fill-opacity="1"><g transform="translate(55.892764, 99.559364)"><g><path d="M 2.03125 -7.890625 L 2.453125 -1.453125 L 5.921875 -1.671875 L 6 -0.390625 L 1 -0.0625 L 0.5 -7.78125 Z M 2.03125 -7.890625 "/></g></g></g><g fill="#000000" fill-opacity="1"><g transform="translate(65.336944, 98.59403)"><g><path d="M 1.4375 -4 L 2.046875 -1.953125 L 5.59375 -3.03125 L 5.96875 -1.8125 L 0.953125 -0.296875 L -1.296875 -7.703125 L 3.625 -9.1875 L 4 -7.953125 L 0.546875 -6.90625 L 1.0625 -5.1875 L 4.078125 -6.109375 L 4.453125 -4.921875 Z M 1.4375 -4 "/></g></g></g><g fill="#000000" fill-opacity="1"><g transform="translate(74.674133, 95.354209)"><g><path d="M 1.484375 -9.796875 L 2.125 -8.6875 L 0.203125 -7.578125 L 3.4375 -2 L 2.125 -1.234375 L -1.109375 -6.8125 L -3.046875 -5.6875 L -3.6875 -6.796875 Z M 1.484375 -9.796875 "/></g></g></g><g fill="#000000" fill-opacity="1"><g transform="translate(82.831738, 90.205045)"><g><path d="M -0.5 -4.203125 L 0.96875 -2.671875 L 3.65625 -5.21875 L 4.53125 -4.28125 L 0.734375 -0.6875 L -4.578125 -6.3125 L -0.84375 -9.84375 L 0.03125 -8.90625 L -2.59375 -6.421875 L -1.359375 -5.125 L 0.9375 -7.296875 L 1.796875 -6.375 Z M -0.5 -4.203125 "/></g></g></g><g fill="#000000" fill-opacity="1"><g transform="translate(89.855524, 83.119294)"><g><path d="M -4.546875 -7.3125 C -3.890625 -8.375 -3.109375 -9.015625 -2.203125 -9.234375 C -1.304688 -9.460938 -0.3125 -9.234375 0.78125 -8.546875 C 1.863281 -7.867188 2.503906 -7.078125 2.703125 -6.171875 C 2.898438 -5.265625 2.671875 -4.28125 2.015625 -3.21875 L 0.53125 -0.84375 L -6.03125 -4.9375 Z M 0.875 -3.8125 C 1.289062 -4.476562 1.425781 -5.085938 1.28125 -5.640625 C 1.144531 -6.203125 0.695312 -6.722656 -0.0625 -7.203125 C -0.832031 -7.691406 -1.492188 -7.875 -2.046875 -7.75 C -2.597656 -7.625 -3.082031 -7.226562 -3.5 -6.5625 L -4.125 -5.5625 L 0.25 -2.8125 Z M 0.875 -3.8125 "/></g></g></g><g clip-path="url(#4822387b16)"><g clip-path="url(#f048c9e135)"><path fill="#f67280" d="M 92.039062 63.238281 L 99.589844 63.238281 L 99.589844 70.792969 L 92.039062 70.792969 Z M 92.039062 63.238281 " fill-opacity="1" fill-rule="nonzero"/></g></g><g mask="url(#a0da3bb3a0)"><g transform="matrix(1, 0, 0, 1, 21, 20)"><g clip-path="url(#aa03a1f1a4)"><g clip-path="url(#54b7992125)"><path fill="#ffffff" d="M 41.050781 62.734375 C 41.117188 62.75 41.191406 62.734375 41.246094 62.683594 C 41.609375 62.335938 41.089844 60.59375 39.9375 56.683594 C 39.9375 56.683594 39.082031 53.769531 38.285156 51.027344 C 37.863281 49.582031 37.53125 48.398438 37.3125 47.625 C 37.488281 48.40625 37.765625 49.605469 38.082031 51.078125 C 38.300781 52.078125 38.648438 53.664062 39.328125 56.835938 C 40.191406 60.820312 40.558594 62.597656 41.042969 62.734375 Z M 55.535156 56.398438 C 55.609375 56.378906 55.667969 56.320312 55.6875 56.246094 C 55.828125 55.765625 54.5 54.515625 51.542969 51.703125 C 51.542969 51.703125 49.339844 49.605469 47.273438 47.625 C 46.183594 46.582031 45.300781 45.726562 44.722656 45.164062 C 45.269531 45.753906 46.105469 46.660156 47.121094 47.769531 C 47.816406 48.523438 48.910156 49.726562 51.09375 52.132812 C 53.828125 55.164062 55.042969 56.519531 55.535156 56.398438 Z M 63.796875 42.179688 C 63.851562 42.125 63.871094 42.050781 63.855469 41.980469 C 63.734375 41.492188 61.957031 41.078125 57.988281 40.109375 C 57.988281 40.109375 55.027344 39.390625 52.242188 38.707031 C 50.777344 38.34375 49.582031 38.042969 48.800781 37.84375 C 49.570312 38.082031 50.75 38.445312 52.1875 38.90625 C 53.164062 39.21875 54.71875 39.710938 57.816406 40.710938 C 61.703125 41.96875 63.4375 42.535156 63.796875 42.1875 Z M 5.8125 41.324219 C 5.796875 41.398438 5.816406 41.472656 5.863281 41.527344 C 6.214844 41.886719 7.972656 41.375 11.882812 40.222656 C 11.882812 40.222656 14.808594 39.367188 17.5625 38.566406 C 19.015625 38.152344 20.203125 37.816406 20.976562 37.597656 C 20.191406 37.777344 18.988281 38.050781 17.515625 38.367188 C 16.511719 38.585938 14.917969 38.929688 11.734375 39.609375 C 7.734375 40.476562 5.949219 40.847656 5.8125 41.324219 Z M 13.675781 55.765625 C 13.695312 55.839844 13.75 55.898438 13.824219 55.914062 C 14.308594 56.054688 15.5625 54.734375 18.386719 51.785156 C 18.386719 51.785156 20.492188 49.589844 22.480469 47.527344 C 23.535156 46.445312 24.386719 45.5625 24.953125 44.988281 C 24.359375 45.535156 23.449219 46.367188 22.335938 47.378906 C 21.574219 48.070312 20.367188 49.164062 17.953125 51.335938 C 14.910156 54.074219 13.550781 55.285156 13.675781 55.765625 Z M 27.933594 62.507812 C 27.984375 62.558594 28.058594 62.578125 28.132812 62.5625 C 28.621094 62.441406 29.046875 60.671875 30.011719 56.714844 C 30.011719 56.714844 30.734375 53.761719 31.421875 50.988281 C 31.785156 49.527344 32.085938 48.335938 32.285156 47.558594 C 32.046875 48.324219 31.683594 49.5 31.21875 50.933594 C 30.90625 51.910156 30.410156 53.457031 29.414062 56.542969 C 28.144531 60.417969 27.574219 62.148438 27.925781 62.507812 Z M 50.796875 63.019531 C 50.886719 63.015625 50.96875 62.96875 51.011719 62.894531 C 51.3125 62.371094 50.148438 60.53125 47.554688 56.394531 C 47.554688 56.394531 45.617188 53.3125 43.804688 50.402344 C 42.851562 48.875 42.078125 47.617188 41.578125 46.792969 C 42.039062 47.636719 42.738281 48.933594 43.589844 50.523438 C 44.167969 51.609375 45.085938 53.324219 46.898438 56.765625 C 49.183594 61.085938 50.195312 63.019531 50.796875 63.019531 Z M 63.574219 50.472656 C 63.652344 50.425781 63.699219 50.34375 63.699219 50.253906 C 63.699219 49.652344 61.769531 48.644531 57.453125 46.359375 C 57.453125 46.359375 54.234375 44.65625 51.210938 43.050781 C 49.621094 42.203125 48.324219 41.5 47.480469 41.039062 C 48.300781 41.542969 49.554688 42.316406 51.089844 43.265625 C 52.132812 43.917969 53.785156 44.945312 57.078125 47.015625 C 61.214844 49.605469 63.058594 50.773438 63.574219 50.472656 Z M 6.320312 50.273438 C 6.320312 50.363281 6.367188 50.445312 6.445312 50.492188 C 6.964844 50.792969 8.804688 49.628906 12.941406 47.03125 C 12.941406 47.03125 16.023438 45.097656 18.933594 43.285156 C 20.464844 42.332031 21.71875 41.558594 22.542969 41.058594 C 21.695312 41.519531 20.402344 42.21875 18.808594 43.066406 C 17.722656 43.648438 16.007812 44.5625 12.570312 46.378906 C 8.25 48.664062 6.316406 49.671875 6.320312 50.273438 Z M 19.015625 62.902344 C 19.0625 62.980469 19.140625 63.027344 19.230469 63.027344 C 19.832031 63.027344 20.84375 61.097656 23.125 56.78125 C 23.125 56.78125 24.828125 53.5625 26.4375 50.539062 C 27.285156 48.949219 27.984375 47.652344 28.445312 46.808594 C 27.945312 47.628906 27.171875 48.886719 26.21875 50.417969 C 25.570312 51.460938 24.542969 53.113281 22.472656 56.40625 C 19.886719 60.542969 18.710938 62.382812 19.015625 62.902344 Z M 34.890625 67.015625 C 34.96875 67.058594 35.0625 67.058594 35.140625 67.015625 C 35.664062 66.714844 35.570312 64.539062 35.390625 59.660156 C 35.390625 59.660156 35.253906 56.019531 35.140625 52.597656 C 35.082031 50.789062 35.039062 49.320312 35.015625 48.359375 C 34.992188 49.320312 34.949219 50.792969 34.890625 52.597656 C 34.847656 53.824219 34.785156 55.769531 34.640625 59.65625 C 34.460938 64.539062 34.367188 66.71875 34.890625 67.015625 Z M 41.042969 4.726562 C 41.117188 4.707031 41.191406 4.722656 41.246094 4.773438 C 41.609375 5.121094 41.089844 6.863281 39.9375 10.773438 C 39.9375 10.773438 39.082031 13.6875 38.285156 16.429688 C 37.863281 17.875 37.53125 19.058594 37.3125 19.832031 C 37.488281 19.046875 37.765625 17.847656 38.082031 16.378906 C 38.300781 15.378906 38.648438 13.792969 39.328125 10.621094 C 40.191406 6.640625 40.558594 4.859375 41.042969 4.726562 Z M 55.535156 11.0625 C 55.609375 11.082031 55.667969 11.136719 55.6875 11.210938 C 55.828125 11.691406 54.5 12.941406 51.542969 15.753906 C 51.542969 15.753906 49.339844 17.851562 47.273438 19.832031 C 46.183594 20.875 45.300781 21.730469 44.722656 22.292969 C 45.269531 21.703125 46.105469 20.800781 47.121094 19.6875 C 47.816406 18.933594 48.910156 17.730469 51.09375 15.324219 C 53.828125 12.292969 55.042969 10.9375 55.535156 11.0625 Z M 63.796875 25.277344 C 63.851562 25.328125 63.871094 25.40625 63.855469 25.476562 C 63.734375 25.964844 61.957031 26.378906 57.988281 27.347656 C 57.988281 27.347656 55.027344 28.066406 52.242188 28.75 C 50.777344 29.109375 49.582031 29.414062 48.800781 29.613281 C 49.570312 29.375 50.75 29.011719 52.1875 28.550781 C 53.164062 28.238281 54.71875 27.746094 57.816406 26.746094 C 61.703125 25.488281 63.4375 24.929688 63.796875 25.273438 Z M 5.8125 26.132812 C 5.792969 26.058594 5.8125 25.984375 5.863281 25.929688 C 6.214844 25.566406 7.972656 26.089844 11.882812 27.234375 C 11.882812 27.234375 14.808594 28.089844 17.5625 28.882812 C 19.015625 29.300781 20.203125 29.632812 20.976562 29.851562 C 20.191406 29.671875 18.988281 29.398438 17.515625 29.082031 C 16.511719 28.867188 14.917969 28.519531 11.734375 27.839844 C 7.734375 26.984375 5.949219 26.613281 5.8125 26.132812 Z M 13.675781 11.691406 C 13.695312 11.617188 13.75 11.558594 13.824219 11.539062 C 14.308594 11.402344 15.5625 12.722656 18.386719 15.667969 C 18.386719 15.667969 20.492188 17.867188 22.480469 19.925781 C 23.535156 21.011719 24.386719 21.894531 24.953125 22.464844 C 24.359375 21.921875 23.449219 21.089844 22.335938 20.078125 C 21.574219 19.386719 20.367188 18.296875 17.953125 16.121094 C 14.910156 13.386719 13.550781 12.171875 13.675781 11.691406 Z M 27.933594 4.953125 C 27.984375 4.902344 28.058594 4.878906 28.132812 4.898438 C 28.621094 5.019531 29.046875 6.789062 30.011719 10.746094 C 30.011719 10.746094 30.734375 13.695312 31.421875 16.46875 C 31.785156 17.929688 32.085938 19.121094 32.285156 19.898438 C 32.046875 19.132812 31.683594 17.960938 31.21875 16.527344 C 30.90625 15.550781 30.410156 14.003906 29.414062 10.917969 C 28.144531 7.039062 27.574219 5.3125 27.925781 4.953125 Z M 50.796875 4.441406 C 50.886719 4.441406 50.96875 4.492188 51.011719 4.566406 C 51.3125 5.085938 50.148438 6.925781 47.554688 11.0625 C 47.554688 11.0625 45.617188 14.148438 43.804688 17.054688 C 42.851562 18.585938 42.078125 19.84375 41.578125 20.664062 C 42.039062 19.820312 42.738281 18.523438 43.589844 16.933594 C 44.167969 15.847656 45.085938 14.132812 46.898438 10.691406 C 49.183594 6.371094 50.195312 4.4375 50.796875 4.441406 Z M 63.574219 16.988281 C 63.652344 17.035156 63.699219 17.117188 63.699219 17.203125 C 63.699219 17.804688 61.769531 18.816406 57.453125 21.097656 C 57.453125 21.097656 54.234375 22.800781 51.210938 24.40625 C 49.621094 25.257812 48.324219 25.960938 47.480469 26.417969 C 48.300781 25.917969 49.554688 25.144531 51.089844 24.191406 C 52.132812 23.542969 53.785156 22.515625 57.078125 20.445312 C 61.214844 17.859375 63.058594 16.683594 63.574219 16.988281 Z M 69.792969 33.617188 C 69.835938 33.691406 69.835938 33.789062 69.792969 33.867188 C 69.492188 34.386719 67.316406 34.296875 62.433594 34.113281 C 62.433594 34.113281 58.796875 33.980469 55.371094 33.867188 C 53.566406 33.804688 52.097656 33.765625 51.136719 33.742188 C 52.097656 33.714844 53.570312 33.675781 55.371094 33.617188 C 56.601562 33.574219 58.546875 33.511719 62.433594 33.367188 C 67.316406 33.183594 69.496094 33.09375 69.792969 33.617188 Z M 0.214844 33.839844 C 0.171875 33.765625 0.171875 33.667969 0.214844 33.589844 C 0.515625 33.070312 2.691406 33.160156 7.570312 33.34375 C 7.570312 33.34375 11.210938 33.476562 14.640625 33.589844 C 16.445312 33.652344 17.917969 33.691406 18.878906 33.714844 C 17.917969 33.742188 16.441406 33.78125 14.640625 33.839844 C 13.414062 33.882812 11.46875 33.945312 7.582031 34.089844 C 2.691406 34.273438 0.511719 34.363281 0.214844 33.839844 Z M 6.320312 17.191406 C 6.320312 17.101562 6.367188 17.019531 6.445312 16.972656 C 6.964844 16.671875 8.804688 17.839844 12.941406 20.433594 C 12.941406 20.433594 16.023438 22.371094 18.933594 24.183594 C 20.464844 25.136719 21.71875 25.90625 22.542969 26.410156 C 21.695312 25.957031 20.402344 25.246094 18.808594 24.398438 C 17.722656 23.820312 16.007812 22.902344 12.570312 21.089844 C 8.25 18.796875 6.316406 17.785156 6.320312 17.183594 Z M 19.015625 4.554688 C 19.0625 4.480469 19.140625 4.429688 19.230469 4.429688 C 19.832031 4.429688 20.84375 6.359375 23.125 10.675781 C 23.125 10.675781 24.828125 13.898438 26.4375 16.921875 C 27.285156 18.511719 27.984375 19.804688 28.445312 20.652344 C 27.945312 19.832031 27.171875 18.574219 26.21875 17.042969 C 25.570312 16 24.542969 14.347656 22.472656 11.050781 C 19.886719 6.917969 18.710938 5.074219 19.015625 4.554688 Z M 34.890625 0.441406 C 34.96875 0.398438 35.0625 0.398438 35.140625 0.441406 C 35.664062 0.742188 35.570312 2.921875 35.390625 7.800781 C 35.390625 7.800781 35.253906 11.441406 35.140625 14.871094 C 35.082031 16.675781 35.039062 18.148438 35.015625 19.109375 C 34.992188 18.148438 34.949219 16.671875 34.890625 14.871094 C 34.847656 13.644531 34.785156 11.695312 34.640625 7.808594 C 34.460938 2.921875 34.367188 0.742188 34.890625 0.441406 " fill-opacity="1" fill-rule="nonzero"/></g></g></g></g><g clip-path="url(#e3c920dd9f)"><path fill="#ffffff" d="M 72.394531 46.539062 C 68.136719 46.539062 64.671875 50.03125 64.671875 54.320312 C 64.671875 58.609375 68.136719 62.101562 72.394531 62.101562 C 76.652344 62.101562 80.117188 58.609375 80.117188 54.320312 C 80.117188 50.03125 76.652344 46.539062 72.394531 46.539062 " fill-opacity="1" fill-rule="nonzero"/></g><path fill="#ffffff" d="M 55.898438 51.742188 C 60.160156 51.742188 63.621094 48.25 63.621094 43.960938 C 63.621094 39.671875 60.160156 36.179688 55.898438 36.179688 C 51.640625 36.179688 48.175781 39.671875 48.175781 43.960938 C 48.175781 45.917969 48.917969 47.808594 50.226562 49.238281 C 50.605469 48.566406 51.320312 48.113281 52.140625 48.113281 L 52.164062 48.113281 C 53.375 48.113281 54.363281 49.105469 54.363281 50.324219 L 54.363281 51.585938 C 54.867188 51.6875 55.382812 51.742188 55.898438 51.742188 " fill-opacity="1" fill-rule="nonzero"/><path fill="#ffffff" d="M 63.042969 60.886719 C 62.257812 60.886719 61.621094 61.53125 61.621094 62.320312 L 61.621094 63.277344 C 61.621094 63.496094 61.445312 63.675781 61.226562 63.675781 C 61.007812 63.675781 60.832031 63.496094 60.832031 63.277344 L 60.832031 60.003906 C 60.832031 59.214844 60.195312 58.574219 59.410156 58.574219 C 58.628906 58.574219 57.992188 59.214844 57.992188 60.003906 L 57.992188 63.277344 C 57.992188 63.496094 57.8125 63.675781 57.597656 63.675781 C 57.378906 63.675781 57.203125 63.496094 57.203125 63.277344 L 57.203125 58.578125 C 57.203125 57.789062 56.566406 57.148438 55.78125 57.148438 C 55 57.148438 54.363281 57.789062 54.363281 58.578125 L 54.363281 63.277344 C 54.363281 63.496094 54.183594 63.675781 53.964844 63.675781 C 53.75 63.675781 53.570312 63.496094 53.570312 63.277344 L 53.570312 51.90625 C 53.570312 51.898438 53.570312 51.890625 53.570312 51.882812 L 53.570312 50.324219 C 53.570312 49.542969 52.941406 48.90625 52.164062 48.90625 L 52.140625 48.90625 C 51.363281 48.90625 50.730469 49.542969 50.730469 50.324219 L 50.730469 67.175781 C 50.730469 67.394531 50.554688 67.574219 50.335938 67.574219 C 50.117188 67.574219 49.941406 67.394531 49.941406 67.175781 L 49.941406 63.144531 C 49.847656 63.265625 49.753906 63.386719 49.664062 63.5 C 47.613281 66.113281 47.347656 66.449219 47.339844 68.046875 L 47.339844 68.191406 C 47.332031 69.613281 47.308594 72.574219 50.539062 75.246094 C 50.628906 75.320312 50.683594 75.433594 50.683594 75.554688 L 50.683594 77.28125 C 50.683594 78.03125 51.289062 78.644531 52.03125 78.644531 L 60.761719 78.644531 C 61.507812 78.644531 62.113281 78.03125 62.113281 77.28125 L 62.113281 75.554688 C 62.113281 75.441406 62.160156 75.332031 62.246094 75.257812 C 64.460938 73.277344 64.460938 70.835938 64.460938 69.378906 L 64.460938 62.320312 C 64.460938 61.53125 63.824219 60.886719 63.042969 60.886719 " fill-opacity="1" fill-rule="nonzero"/><path fill="#ffffff" d="M 47.128906 54.320312 C 47.128906 50.03125 43.664062 46.539062 39.40625 46.539062 C 35.148438 46.539062 31.683594 50.03125 31.683594 54.320312 C 31.683594 58.609375 35.148438 62.101562 39.40625 62.101562 C 43.664062 62.101562 47.128906 58.609375 47.128906 54.320312 " fill-opacity="1" fill-rule="nonzero"/><g clip-path="url(#c3b177234b)"><path fill="#ff9194" d="M 73.726562 62.101562 C 69.964844 62.101562 66.902344 58.609375 66.902344 54.320312 C 66.902344 50.03125 69.964844 46.539062 73.726562 46.539062 C 77.488281 46.539062 80.546875 50.03125 80.546875 54.320312 C 80.546875 58.609375 77.488281 62.101562 73.726562 62.101562 " fill-opacity="1" fill-rule="nonzero"/></g><path fill="#8cd681" d="M 50.410156 43.960938 C 50.410156 39.671875 53.480469 36.179688 57.257812 36.179688 C 61.03125 36.179688 64.105469 39.671875 64.105469 43.960938 C 64.105469 48.25 60.660156 52.195312 56.886719 52.195312 C 56.425781 52.195312 55.363281 52.304688 54.609375 52.050781 C 54.609375 52.050781 53.515625 51.363281 52.226562 49.238281 C 51.066406 47.808594 50.410156 45.917969 50.410156 43.960938 " fill-opacity="1" fill-rule="nonzero"/><path fill="#ffffff" d="M 55.78125 57.148438 C 56.566406 57.148438 57.203125 57.789062 57.203125 58.578125 L 57.203125 63.277344 C 57.203125 63.496094 57.378906 63.675781 57.597656 63.675781 C 57.8125 63.675781 57.992188 63.496094 57.992188 63.277344 L 57.992188 60.003906 C 57.992188 59.214844 58.628906 58.574219 59.410156 58.574219 C 60.195312 58.574219 60.832031 59.214844 60.832031 60.003906 L 60.832031 63.277344 C 60.832031 63.496094 61.007812 63.675781 61.226562 63.675781 C 61.445312 63.675781 61.621094 63.496094 61.621094 63.277344 L 61.621094 62.320312 C 61.621094 61.53125 62.257812 60.886719 63.042969 60.886719 C 63.824219 60.886719 64.460938 61.53125 64.460938 62.320312 L 64.460938 69.378906 C 64.460938 70.835938 64.460938 73.277344 62.246094 75.257812 C 62.160156 75.332031 62.113281 75.441406 62.113281 75.554688 L 62.113281 77.28125 C 62.113281 78.03125 61.507812 78.644531 60.761719 78.644531 L 52.03125 78.644531 C 51.289062 78.644531 50.683594 78.03125 50.683594 77.28125 L 50.683594 75.554688 C 50.683594 75.433594 50.628906 75.320312 50.539062 75.246094 C 47.308594 72.574219 47.332031 69.613281 47.339844 68.191406 L 47.339844 68.046875 C 47.347656 66.449219 47.613281 66.113281 49.664062 63.5 C 49.753906 63.386719 49.847656 63.265625 49.941406 63.144531 L 49.941406 67.175781 C 49.941406 67.394531 50.117188 67.574219 50.335938 67.574219 C 50.554688 67.574219 50.730469 67.394531 50.730469 67.175781 L 50.730469 50.324219 C 50.730469 49.542969 51.363281 48.90625 52.140625 48.90625 L 52.164062 48.90625 C 52.941406 48.90625 53.570312 49.542969 53.570312 50.324219 L 53.570312 51.882812 C 53.570312 51.890625 53.570312 51.898438 53.570312 51.90625 L 53.570312 63.277344 C 53.570312 63.496094 53.75 63.675781 53.964844 63.675781 C 54.183594 63.675781 54.363281 63.496094 54.363281 63.277344 L 54.363281 58.578125 C 54.363281 57.789062 55 57.148438 55.78125 57.148438 " fill-opacity="1" fill-rule="nonzero"/><path fill="#ffd55e" d="M 33.914062 54.320312 C 33.914062 50.03125 36.964844 46.539062 40.710938 46.539062 C 44.457031 46.539062 47.507812 50.03125 47.507812 54.320312 C 47.507812 58.609375 44.457031 62.101562 40.710938 62.101562 C 36.964844 62.101562 33.914062 58.609375 33.914062 54.320312 " fill-opacity="1" fill-rule="nonzero"/><path fill="#1a2157" d="M 57.597656 63.675781 C 57.378906 63.675781 57.203125 63.496094 57.203125 63.277344 L 57.203125 58.578125 C 57.203125 57.789062 56.566406 57.148438 55.78125 57.148438 C 55 57.148438 54.363281 57.789062 54.363281 58.578125 C 54.363281 58.796875 54.183594 58.976562 53.964844 58.976562 C 53.75 58.976562 53.570312 58.796875 53.570312 58.578125 C 53.570312 57.347656 54.5625 56.351562 55.78125 56.351562 C 57 56.351562 57.992188 57.347656 57.992188 58.578125 L 57.992188 63.277344 C 57.992188 63.496094 57.816406 63.675781 57.597656 63.675781 " fill-opacity="1" fill-rule="nonzero"/><path fill="#1a2157" d="M 61.226562 63.675781 C 61.007812 63.675781 60.832031 63.496094 60.832031 63.277344 L 60.832031 60.003906 C 60.832031 59.214844 60.195312 58.574219 59.410156 58.574219 C 58.628906 58.574219 57.992188 59.214844 57.992188 60.003906 C 57.992188 60.222656 57.816406 60.402344 57.597656 60.402344 C 57.378906 60.402344 57.203125 60.222656 57.203125 60.003906 C 57.203125 58.777344 58.191406 57.777344 59.410156 57.777344 C 60.628906 57.777344 61.621094 58.777344 61.621094 60.003906 L 61.621094 63.277344 C 61.621094 63.496094 61.445312 63.675781 61.226562 63.675781 " fill-opacity="1" fill-rule="nonzero"/><path fill="#1a2157" d="M 50.335938 67.574219 C 50.117188 67.574219 49.941406 67.394531 49.941406 67.175781 L 49.941406 50.324219 C 49.941406 49.105469 50.929688 48.113281 52.140625 48.113281 L 52.164062 48.113281 C 53.375 48.113281 54.363281 49.105469 54.363281 50.324219 L 54.363281 63.277344 C 54.363281 63.496094 54.183594 63.675781 53.964844 63.675781 C 53.75 63.675781 53.570312 63.496094 53.570312 63.277344 L 53.570312 50.324219 C 53.570312 49.542969 52.941406 48.90625 52.164062 48.90625 L 52.140625 48.90625 C 51.363281 48.90625 50.730469 49.542969 50.730469 50.324219 L 50.730469 67.175781 C 50.730469 67.394531 50.554688 67.574219 50.335938 67.574219 " fill-opacity="1" fill-rule="nonzero"/><g clip-path="url(#5fb9a47e8d)"><path fill="#1a2157" d="M 60.761719 79.4375 L 52.03125 79.4375 C 50.851562 79.4375 49.894531 78.472656 49.894531 77.28125 L 49.894531 75.738281 C 46.519531 72.859375 46.539062 69.710938 46.550781 68.1875 L 46.550781 68.042969 C 46.558594 66.171875 46.9375 65.6875 49.046875 63.003906 C 49.335938 62.632812 49.664062 62.21875 50.027344 61.75 C 50.160156 61.578125 50.410156 61.546875 50.582031 61.683594 C 50.753906 61.820312 50.78125 62.070312 50.648438 62.242188 C 50.28125 62.710938 49.957031 63.128906 49.664062 63.5 C 47.613281 66.113281 47.347656 66.449219 47.339844 68.046875 L 47.339844 68.191406 C 47.332031 69.613281 47.308594 72.574219 50.539062 75.246094 C 50.628906 75.320312 50.683594 75.433594 50.683594 75.554688 L 50.683594 77.28125 C 50.683594 78.03125 51.289062 78.644531 52.03125 78.644531 L 60.761719 78.644531 C 61.507812 78.644531 62.113281 78.03125 62.113281 77.28125 L 62.113281 75.554688 C 62.113281 75.441406 62.160156 75.332031 62.246094 75.257812 C 64.460938 73.277344 64.460938 70.835938 64.460938 69.378906 L 64.460938 62.320312 C 64.460938 61.53125 63.824219 60.886719 63.039062 60.886719 C 62.257812 60.886719 61.621094 61.53125 61.621094 62.320312 C 61.621094 62.539062 61.445312 62.714844 61.226562 62.714844 C 61.007812 62.714844 60.832031 62.539062 60.832031 62.320312 C 60.832031 61.089844 61.824219 60.09375 63.039062 60.09375 C 64.257812 60.09375 65.25 61.089844 65.25 62.320312 L 65.25 69.378906 C 65.25 70.839844 65.25 73.535156 62.902344 75.730469 L 62.902344 77.28125 C 62.902344 78.472656 61.941406 79.4375 60.761719 79.4375 " fill-opacity="1" fill-rule="nonzero"/></g><g clip-path="url(#be3322dd2c)"><path fill="#1a2157" d="M 72.394531 46.539062 C 68.136719 46.539062 64.671875 50.03125 64.671875 54.320312 C 64.671875 58.609375 68.136719 62.101562 72.394531 62.101562 C 76.652344 62.101562 80.117188 58.609375 80.117188 54.320312 C 80.117188 50.03125 76.652344 46.539062 72.394531 46.539062 Z M 72.394531 62.894531 C 67.699219 62.894531 63.882812 59.046875 63.882812 54.320312 C 63.882812 49.589844 67.699219 45.742188 72.394531 45.742188 C 77.089844 45.742188 80.90625 49.589844 80.90625 54.320312 C 80.90625 59.046875 77.089844 62.894531 72.394531 62.894531 " fill-opacity="1" fill-rule="nonzero"/></g><path fill="#1a2157" d="M 74.617188 52.761719 C 74.398438 52.761719 74.21875 52.585938 74.21875 52.367188 L 74.21875 51.210938 C 74.21875 50.992188 74.398438 50.816406 74.617188 50.816406 C 74.832031 50.816406 75.011719 50.992188 75.011719 51.210938 L 75.011719 52.367188 C 75.011719 52.585938 74.832031 52.761719 74.617188 52.761719 " fill-opacity="1" fill-rule="nonzero"/><path fill="#1a2157" d="M 70.171875 52.761719 C 69.957031 52.761719 69.777344 52.585938 69.777344 52.367188 L 69.777344 51.210938 C 69.777344 50.992188 69.957031 50.816406 70.171875 50.816406 C 70.390625 50.816406 70.570312 50.992188 70.570312 51.210938 L 70.570312 52.367188 C 70.570312 52.585938 70.390625 52.761719 70.171875 52.761719 " fill-opacity="1" fill-rule="nonzero"/><path fill="#1a2157" d="M 69.351562 57.824219 C 69.304688 57.824219 69.257812 57.816406 69.210938 57.796875 C 69.003906 57.71875 68.90625 57.488281 68.984375 57.28125 C 69.535156 55.855469 70.875 54.933594 72.394531 54.933594 C 73.914062 54.933594 75.253906 55.855469 75.804688 57.28125 C 75.882812 57.488281 75.785156 57.71875 75.582031 57.796875 C 75.375 57.878906 75.148438 57.777344 75.070312 57.570312 C 74.636719 56.453125 73.585938 55.730469 72.394531 55.730469 C 71.203125 55.730469 70.152344 56.453125 69.71875 57.570312 C 69.660156 57.726562 69.511719 57.824219 69.351562 57.824219 " fill-opacity="1" fill-rule="nonzero"/><g clip-path="url(#9080dffaeb)"><path fill="#1a2157" d="M 55.898438 52.535156 C 55.214844 52.535156 54.53125 52.453125 53.871094 52.292969 C 53.660156 52.238281 53.53125 52.023438 53.582031 51.808594 C 53.632812 51.597656 53.847656 51.464844 54.058594 51.519531 C 54.65625 51.664062 55.277344 51.742188 55.898438 51.742188 C 60.160156 51.742188 63.621094 48.25 63.621094 43.960938 C 63.621094 39.671875 60.160156 36.179688 55.898438 36.179688 C 51.640625 36.179688 48.175781 39.671875 48.175781 43.960938 C 48.175781 46.117188 49.078125 48.195312 50.644531 49.660156 C 50.804688 49.8125 50.8125 50.0625 50.664062 50.222656 C 50.515625 50.382812 50.265625 50.394531 50.105469 50.246094 C 48.378906 48.625 47.386719 46.335938 47.386719 43.960938 C 47.386719 39.230469 51.207031 35.382812 55.898438 35.382812 C 60.59375 35.382812 64.414062 39.230469 64.414062 43.960938 C 64.414062 48.6875 60.59375 52.535156 55.898438 52.535156 " fill-opacity="1" fill-rule="nonzero"/></g><path fill="#1a2157" d="M 58.121094 42.402344 C 57.902344 42.402344 57.726562 42.226562 57.726562 42.007812 L 57.726562 40.851562 C 57.726562 40.632812 57.902344 40.457031 58.121094 40.457031 C 58.339844 40.457031 58.515625 40.632812 58.515625 40.851562 L 58.515625 42.007812 C 58.515625 42.226562 58.339844 42.402344 58.121094 42.402344 " fill-opacity="1" fill-rule="nonzero"/><path fill="#1a2157" d="M 53.679688 42.402344 C 53.460938 42.402344 53.285156 42.226562 53.285156 42.007812 L 53.285156 40.851562 C 53.285156 40.632812 53.460938 40.457031 53.679688 40.457031 C 53.898438 40.457031 54.074219 40.632812 54.074219 40.851562 L 54.074219 42.007812 C 54.074219 42.226562 53.898438 42.402344 53.679688 42.402344 " fill-opacity="1" fill-rule="nonzero"/><path fill="#1a2157" d="M 55.898438 47.464844 C 54.378906 47.464844 53.042969 46.542969 52.488281 45.117188 C 52.410156 44.914062 52.511719 44.683594 52.714844 44.601562 C 52.917969 44.523438 53.144531 44.625 53.226562 44.828125 C 53.660156 45.945312 54.707031 46.667969 55.898438 46.667969 C 57.089844 46.667969 58.140625 45.945312 58.574219 44.828125 C 58.652344 44.625 58.882812 44.523438 59.085938 44.601562 C 59.289062 44.683594 59.390625 44.914062 59.308594 45.117188 C 58.757812 46.542969 57.417969 47.464844 55.898438 47.464844 " fill-opacity="1" fill-rule="nonzero"/><g clip-path="url(#bf3a542ab9)"><path fill="#1a2157" d="M 39.40625 46.539062 C 35.148438 46.539062 31.683594 50.03125 31.683594 54.320312 C 31.683594 58.609375 35.148438 62.101562 39.40625 62.101562 C 43.664062 62.101562 47.128906 58.609375 47.128906 54.320312 C 47.128906 50.03125 43.664062 46.539062 39.40625 46.539062 Z M 39.40625 62.894531 C 34.710938 62.894531 30.890625 59.046875 30.890625 54.320312 C 30.890625 49.589844 34.710938 45.742188 39.40625 45.742188 C 44.097656 45.742188 47.917969 49.589844 47.917969 54.320312 C 47.917969 59.046875 44.097656 62.894531 39.40625 62.894531 " fill-opacity="1" fill-rule="nonzero"/></g><path fill="#1a2157" d="M 41.625 53.128906 C 41.40625 53.128906 41.230469 52.949219 41.230469 52.730469 L 41.230469 51.578125 C 41.230469 51.359375 41.40625 51.179688 41.625 51.179688 C 41.84375 51.179688 42.019531 51.359375 42.019531 51.578125 L 42.019531 52.730469 C 42.019531 52.949219 41.84375 53.128906 41.625 53.128906 " fill-opacity="1" fill-rule="nonzero"/><path fill="#1a2157" d="M 37.183594 53.128906 C 36.964844 53.128906 36.789062 52.949219 36.789062 52.730469 L 36.789062 51.578125 C 36.789062 51.359375 36.964844 51.179688 37.183594 51.179688 C 37.402344 51.179688 37.578125 51.359375 37.578125 51.578125 L 37.578125 52.730469 C 37.578125 52.949219 37.402344 53.128906 37.183594 53.128906 " fill-opacity="1" fill-rule="nonzero"/><path fill="#1a2157" d="M 42.445312 56.914062 L 36.363281 56.914062 C 36.144531 56.914062 35.96875 56.734375 35.96875 56.515625 C 35.96875 56.296875 36.144531 56.117188 36.363281 56.117188 L 42.445312 56.117188 C 42.664062 56.117188 42.84375 56.296875 42.84375 56.515625 C 42.84375 56.734375 42.664062 56.914062 42.445312 56.914062 " fill-opacity="1" fill-rule="nonzero"/></svg>