<svg xmlns="http://www.w3.org/2000/svg" xmlns:xlink="http://www.w3.org/1999/xlink" width="150" zoomAndPan="magnify" viewBox="0 0 112.5 112.499997" height="150" preserveAspectRatio="xMidYMid meet" version="1.0"><defs><filter x="0%" y="0%" width="100%" height="100%" id="4021cbbcc9"><feColorMatrix values="0 0 0 0 1 0 0 0 0 1 0 0 0 0 1 0 0 0 1 0" color-interpolation-filters="sRGB"/></filter><g/><clipPath id="b8f2fba967"><path d="M 0 0 L 112.003906 0 L 112.003906 112.003906 L 0 112.003906 Z M 0 0 " clip-rule="nonzero"/></clipPath><clipPath id="f89546adfe"><path d="M 56 0 L 63.886719 6.21875 L 73.304688 2.742188 L 78.882812 11.09375 L 88.917969 10.695312 L 91.640625 20.363281 L 101.308594 23.085938 L 100.910156 33.121094 L 109.261719 38.695312 L 105.78125 48.117188 L 112.003906 56 L 105.78125 63.886719 L 109.261719 73.304688 L 100.910156 78.882812 L 101.308594 88.917969 L 91.640625 91.640625 L 88.917969 101.308594 L 78.882812 100.910156 L 73.304688 109.261719 L 63.886719 105.78125 L 56 112.003906 L 48.117188 105.78125 L 38.695312 109.261719 L 33.121094 100.910156 L 23.085938 101.308594 L 20.363281 91.640625 L 10.695312 88.917969 L 11.09375 78.882812 L 2.742188 73.304688 L 6.21875 63.886719 L 0 56 L 6.21875 48.117188 L 2.742188 38.695312 L 11.09375 33.121094 L 10.695312 23.085938 L 20.363281 20.363281 L 23.085938 10.695312 L 33.121094 11.09375 L 38.695312 2.742188 L 48.117188 6.21875 Z M 56 0 " clip-rule="nonzero"/></clipPath><clipPath id="fa892c2ae8"><path d="M 12.539062 59.566406 L 20.09375 59.566406 L 20.09375 67.121094 L 12.539062 67.121094 Z M 12.539062 59.566406 " clip-rule="nonzero"/></clipPath><clipPath id="47cf869d8c"><path d="M 16.316406 59.566406 L 17.519531 62.140625 L 20.09375 63.34375 L 17.519531 64.542969 L 16.316406 67.121094 L 15.113281 64.542969 L 12.539062 63.34375 L 15.113281 62.140625 Z M 16.316406 59.566406 " clip-rule="nonzero"/></clipPath><clipPath id="39f6e86c70"><path d="M 91.910156 59.566406 L 99.464844 59.566406 L 99.464844 67.121094 L 91.910156 67.121094 Z M 91.910156 59.566406 " clip-rule="nonzero"/></clipPath><clipPath id="9fb4c24540"><path d="M 95.6875 59.566406 L 96.886719 62.140625 L 99.464844 63.34375 L 96.886719 64.542969 L 95.6875 67.121094 L 94.484375 64.542969 L 91.910156 63.34375 L 94.484375 62.140625 Z M 95.6875 59.566406 " clip-rule="nonzero"/></clipPath><mask id="06f8575669"><g filter="url(#4021cbbcc9)"><rect x="-11.25" width="135" fill="#000000" y="-11.25" height="134.999996" fill-opacity="0.42"/></g></mask><clipPath id="0aed3346fc"><path d="M 0.152344 15.382812 L 69.59375 15.382812 L 69.59375 66.847656 L 0.152344 66.847656 Z M 0.152344 15.382812 " clip-rule="nonzero"/></clipPath><clipPath id="de6b159102"><rect x="0" width="71" y="0" height="68"/></clipPath><clipPath id="648940a8bf"><path d="M 48 28.382812 L 66 28.382812 L 66 46 L 48 46 Z M 48 28.382812 " clip-rule="nonzero"/></clipPath><clipPath id="0083e7fc4d"><path d="M 72 41 L 74.667969 41 L 74.667969 44 L 72 44 Z M 72 41 " clip-rule="nonzero"/></clipPath><clipPath id="a385507b7c"><path d="M 72 38 L 74.667969 38 L 74.667969 41 L 72 41 Z M 72 38 " clip-rule="nonzero"/></clipPath><clipPath id="4da847010e"><path d="M 39.574219 48 L 42 48 L 42 51 L 39.574219 51 Z M 39.574219 48 " clip-rule="nonzero"/></clipPath><clipPath id="c1949ed8f0"><path d="M 39.574219 51 L 42 51 L 42 54 L 39.574219 54 Z M 39.574219 51 " clip-rule="nonzero"/></clipPath></defs><g clip-path="url(#b8f2fba967)"><g clip-path="url(#f89546adfe)"><path fill="#f3c5d5" d="M 0 0 L 112.003906 0 L 112.003906 112.003906 L 0 112.003906 Z M 0 0 " fill-opacity="1" fill-rule="nonzero"/></g></g><g clip-path="url(#fa892c2ae8)"><g clip-path="url(#47cf869d8c)"><path fill="#ff659a" d="M 12.539062 59.566406 L 20.09375 59.566406 L 20.09375 67.121094 L 12.539062 67.121094 Z M 12.539062 59.566406 " fill-opacity="1" fill-rule="nonzero"/></g></g><g fill="#000000" fill-opacity="1"><g transform="translate(19.174219, 53.960699)"><g><path d="M -7 -6.78125 L -5.71875 -6.625 L -6.109375 -3.265625 L -4.078125 -3.03125 L -3.71875 -6.09375 L -2.46875 -5.9375 L -2.828125 -2.875 L 0.296875 -2.515625 L 0.109375 -1 L -7.578125 -1.90625 Z M -7 -6.78125 "/></g></g></g><g fill="#000000" fill-opacity="1"><g transform="translate(20.351828, 45.589709)"><g><path d="M 2.640625 -6.9375 L 2.078125 -5.4375 L 0.21875 -5.53125 L -0.84375 -2.75 L 0.609375 -1.578125 L 0.03125 -0.109375 L -6.21875 -5.375 L -5.53125 -7.203125 Z M -4.40625 -5.625 L -1.921875 -3.609375 L -1.15625 -5.59375 L -4.359375 -5.75 Z M -4.40625 -5.625 "/></g></g></g><g fill="#000000" fill-opacity="1"><g transform="translate(24.01012, 36.650673)"><g><path d="M 1.484375 -1.984375 L 0.59375 -0.796875 L -5.609375 -5.421875 L -4.546875 -6.84375 L 1.296875 -6.34375 L 1.34375 -6.46875 L -2.625 -9.4375 L -1.734375 -10.609375 L 4.46875 -5.984375 L 3.53125 -4.734375 L -2.703125 -5.296875 L -2.78125 -5.15625 Z M 1.484375 -1.984375 "/></g></g></g><g fill="#000000" fill-opacity="1"><g transform="translate(30.872274, 28.375121)"><g/></g></g><g fill="#000000" fill-opacity="1"><g transform="translate(34.629428, 25.162489)"><g><path d="M 1.1875 -9.671875 L 1.828125 -8.5625 L -1.09375 -6.84375 L -0.046875 -5.078125 L 2.59375 -6.640625 L 3.234375 -5.546875 L 0.59375 -3.984375 L 2.1875 -1.28125 L 0.859375 -0.5 L -3.0625 -7.171875 Z M 1.1875 -9.671875 "/></g></g></g><g fill="#000000" fill-opacity="1"><g transform="translate(42.008134, 21.039583)"><g><path d="M 7.125 -2.078125 L 5.578125 -1.625 L 4.53125 -3.171875 L 1.671875 -2.34375 L 1.625 -0.46875 L 0.109375 -0.03125 L 0.515625 -8.203125 L 2.390625 -8.75 Z M 1.828125 -6.90625 L 1.71875 -3.703125 L 3.765625 -4.296875 L 1.9375 -6.9375 Z M 1.828125 -6.90625 "/></g></g></g><g fill="#000000" fill-opacity="1"><g transform="translate(51.387003, 18.602492)"><g><path d="M 4.59375 -0.109375 L 2.75 -0.0625 L -0.03125 -7.734375 L 1.59375 -7.78125 L 3.59375 -2.046875 L 3.734375 -2.0625 L 5.453125 -7.859375 L 7.046875 -7.90625 Z M 4.59375 -0.109375 "/></g></g></g><g fill="#000000" fill-opacity="1"><g transform="translate(60.86016, 18.599168)"><g><path d="M 4.0625 1.15625 C 3.375 0.976562 2.800781 0.679688 2.34375 0.265625 C 1.894531 -0.148438 1.59375 -0.679688 1.4375 -1.328125 C 1.289062 -1.984375 1.328125 -2.738281 1.546875 -3.59375 C 1.765625 -4.457031 2.09375 -5.140625 2.53125 -5.640625 C 2.976562 -6.140625 3.5 -6.460938 4.09375 -6.609375 C 4.695312 -6.753906 5.34375 -6.738281 6.03125 -6.5625 C 6.71875 -6.394531 7.285156 -6.101562 7.734375 -5.6875 C 8.179688 -5.269531 8.484375 -4.734375 8.640625 -4.078125 C 8.796875 -3.429688 8.765625 -2.675781 8.546875 -1.8125 C 8.328125 -0.957031 7.992188 -0.28125 7.546875 0.21875 C 7.097656 0.71875 6.578125 1.039062 5.984375 1.1875 C 5.390625 1.332031 4.75 1.320312 4.0625 1.15625 Z M 4.390625 -0.140625 C 5.023438 0.015625 5.5625 -0.0625 6 -0.375 C 6.445312 -0.695312 6.785156 -1.304688 7.015625 -2.203125 C 7.242188 -3.097656 7.238281 -3.796875 7 -4.296875 C 6.769531 -4.796875 6.335938 -5.125 5.703125 -5.28125 C 5.066406 -5.445312 4.523438 -5.363281 4.078125 -5.03125 C 3.640625 -4.707031 3.304688 -4.097656 3.078125 -3.203125 C 2.847656 -2.304688 2.847656 -1.613281 3.078125 -1.125 C 3.316406 -0.632812 3.753906 -0.304688 4.390625 -0.140625 Z M 4.390625 -0.140625 "/></g></g></g><g fill="#000000" fill-opacity="1"><g transform="translate(70.972304, 21.494989)"><g><path d="M 3.484375 2.1875 C 2.554688 1.632812 2 1.007812 1.8125 0.3125 C 1.632812 -0.382812 1.796875 -1.160156 2.296875 -2.015625 L 4.75 -6.171875 L 6.03125 -5.40625 L 3.578125 -1.25 C 3.296875 -0.769531 3.203125 -0.34375 3.296875 0.03125 C 3.390625 0.414062 3.679688 0.753906 4.171875 1.046875 C 5.109375 1.597656 5.859375 1.390625 6.421875 0.421875 L 8.875 -3.734375 L 10.171875 -2.96875 L 7.71875 1.1875 C 7.21875 2.039062 6.613281 2.550781 5.90625 2.71875 C 5.195312 2.894531 4.390625 2.71875 3.484375 2.1875 Z M 3.484375 2.1875 "/></g></g></g><g fill="#000000" fill-opacity="1"><g transform="translate(79.686288, 27.037186)"><g><path d="M 0.703125 0.71875 L 6.25 -4.671875 L 8.40625 -2.4375 C 8.96875 -1.863281 9.257812 -1.300781 9.28125 -0.75 C 9.3125 -0.195312 9.09375 0.304688 8.625 0.765625 C 8.289062 1.085938 7.929688 1.265625 7.546875 1.296875 C 7.171875 1.335938 6.753906 1.242188 6.296875 1.015625 L 6.21875 1.09375 C 6.3125 1.34375 6.335938 1.59375 6.296875 1.84375 C 6.253906 2.101562 6.128906 2.414062 5.921875 2.78125 L 4.8125 4.953125 L 3.703125 3.828125 L 4.84375 1.671875 C 4.945312 1.460938 5.015625 1.273438 5.046875 1.109375 C 5.078125 0.953125 5.0625 0.800781 5 0.65625 C 4.9375 0.507812 4.820312 0.347656 4.65625 0.171875 L 4.078125 -0.421875 L 1.765625 1.8125 Z M 5.921875 -0.28125 C 6.441406 0.257812 6.945312 0.289062 7.4375 -0.1875 C 7.945312 -0.675781 7.941406 -1.191406 7.421875 -1.734375 L 6.453125 -2.734375 L 4.953125 -1.28125 Z M 5.921875 -0.28125 "/></g></g></g><g fill="#000000" fill-opacity="1"><g transform="translate(85.993311, 34.170481)"><g><path d="M 1.34375 2.140625 L 0.53125 0.84375 L 7.078125 -3.265625 L 7.890625 -1.96875 Z M 1.34375 2.140625 "/></g></g></g><g fill="#000000" fill-opacity="1"><g transform="translate(89.044797, 39.205231)"><g><path d="M 9.421875 3.0625 L 8.21875 3.515625 L 7.4375 1.4375 L 1.40625 3.71875 L 0.859375 2.296875 L 6.890625 0.015625 L 6.109375 -2.078125 L 7.3125 -2.53125 Z M 9.421875 3.0625 "/></g></g></g><g fill="#000000" fill-opacity="1"><g transform="translate(91.85771, 47.362311)"><g><path d="M 3.6875 2.09375 L 1.578125 2.359375 L 2.03125 6.03125 L 0.765625 6.1875 L 0.125 1 L 7.796875 0.0625 L 8.421875 5.15625 L 7.15625 5.3125 L 6.71875 1.734375 L 4.9375 1.953125 L 5.3125 5.078125 L 4.0625 5.21875 Z M 3.6875 2.09375 "/></g></g></g><g fill="#000000" fill-opacity="1"><g transform="translate(17.379339, 75.103828)"><g><path d="M 2.03125 3.71875 C 1.664062 3.101562 1.472656 2.484375 1.453125 1.859375 C 1.441406 1.242188 1.617188 0.65625 1.984375 0.09375 C 2.347656 -0.46875 2.910156 -0.96875 3.671875 -1.40625 C 4.410156 -1.84375 5.113281 -2.078125 5.78125 -2.109375 C 6.457031 -2.148438 7.054688 -2.007812 7.578125 -1.6875 C 8.109375 -1.363281 8.554688 -0.894531 8.921875 -0.28125 C 9.285156 0.363281 9.472656 0.984375 9.484375 1.578125 C 9.503906 2.171875 9.3125 2.71875 8.90625 3.21875 L 7.75 2.59375 L 7.6875 2.484375 C 7.957031 2.128906 8.09375 1.785156 8.09375 1.453125 C 8.101562 1.117188 8 0.757812 7.78125 0.375 C 7.457031 -0.175781 7.019531 -0.5 6.46875 -0.59375 C 5.914062 -0.6875 5.242188 -0.503906 4.453125 -0.046875 C 3.648438 0.410156 3.15625 0.898438 2.96875 1.421875 C 2.78125 1.953125 2.847656 2.492188 3.171875 3.046875 C 3.671875 3.921875 4.398438 4.210938 5.359375 3.921875 L 5.421875 4.015625 L 5.5 5.3125 C 4.75 5.476562 4.085938 5.4375 3.515625 5.1875 C 2.941406 4.9375 2.445312 4.445312 2.03125 3.71875 Z M 2.03125 3.71875 "/></g></g></g><g fill="#000000" fill-opacity="1"><g transform="translate(23.379903, 84.578079)"><g><path d="M 2.953125 3.015625 C 2.441406 2.523438 2.085938 1.988281 1.890625 1.40625 C 1.703125 0.820312 1.707031 0.207031 1.90625 -0.4375 C 2.113281 -1.082031 2.523438 -1.722656 3.140625 -2.359375 C 3.753906 -2.992188 4.375 -3.414062 5 -3.625 C 5.632812 -3.84375 6.25 -3.863281 6.84375 -3.6875 C 7.4375 -3.519531 7.988281 -3.191406 8.5 -2.703125 C 9.007812 -2.210938 9.351562 -1.671875 9.53125 -1.078125 C 9.71875 -0.492188 9.71875 0.113281 9.53125 0.75 C 9.34375 1.394531 8.941406 2.035156 8.328125 2.671875 C 7.710938 3.304688 7.082031 3.734375 6.4375 3.953125 C 5.789062 4.171875 5.175781 4.191406 4.59375 4.015625 C 4.007812 3.835938 3.460938 3.503906 2.953125 3.015625 Z M 3.875 2.0625 C 4.34375 2.519531 4.847656 2.71875 5.390625 2.65625 C 5.941406 2.601562 6.539062 2.242188 7.1875 1.578125 C 7.820312 0.921875 8.160156 0.316406 8.203125 -0.234375 C 8.253906 -0.785156 8.046875 -1.289062 7.578125 -1.75 C 7.109375 -2.207031 6.597656 -2.40625 6.046875 -2.34375 C 5.492188 -2.28125 4.898438 -1.921875 4.265625 -1.265625 C 3.617188 -0.597656 3.273438 0.00390625 3.234375 0.546875 C 3.191406 1.097656 3.40625 1.601562 3.875 2.0625 Z M 3.875 2.0625 "/></g></g></g><g fill="#000000" fill-opacity="1"><g transform="translate(32.426949, 92.72285)"><g><path d="M 2.15625 1.078125 L 0.890625 0.453125 L 4.359375 -6.46875 L 6.15625 -5.578125 L 5.359375 0.390625 L 5.46875 0.453125 L 9.75 -3.78125 L 11.5 -2.90625 L 8.03125 4.015625 L 6.734375 3.375 L 9.015625 -1.1875 L 8.90625 -1.28125 L 5.015625 2.515625 L 3.875 1.9375 L 4.578125 -3.453125 L 4.4375 -3.484375 Z M 2.15625 1.078125 "/></g></g></g><g fill="#000000" fill-opacity="1"><g transform="translate(44.927794, 98.155932)"><g><path d="M 5.296875 -6.90625 C 5.835938 -6.8125 6.285156 -6.628906 6.640625 -6.359375 C 6.992188 -6.097656 7.234375 -5.769531 7.359375 -5.375 C 7.484375 -4.976562 7.503906 -4.546875 7.421875 -4.078125 C 7.335938 -3.585938 7.164062 -3.1875 6.90625 -2.875 C 6.65625 -2.5625 6.316406 -2.335938 5.890625 -2.203125 C 5.460938 -2.066406 4.976562 -2.046875 4.4375 -2.140625 L 3 -2.40625 L 2.5 0.4375 L 0.984375 0.171875 L 2.34375 -7.4375 Z M 4.453125 -3.375 C 5.296875 -3.21875 5.785156 -3.539062 5.921875 -4.34375 C 6.066406 -5.144531 5.71875 -5.625 4.875 -5.78125 L 3.640625 -6 L 3.21875 -3.59375 Z M 4.453125 -3.375 "/></g></g></g><g fill="#000000" fill-opacity="1"><g transform="translate(55.404253, 99.538808)"><g><path d="M 2.03125 -7.890625 L 2.453125 -1.453125 L 5.921875 -1.671875 L 6 -0.390625 L 1 -0.0625 L 0.5 -7.78125 Z M 2.03125 -7.890625 "/></g></g></g><g fill="#000000" fill-opacity="1"><g transform="translate(65.101362, 98.517206)"><g><path d="M 1.40625 -4 L 2.046875 -1.96875 L 5.578125 -3.0625 L 5.953125 -1.84375 L 0.953125 -0.296875 L -1.34375 -7.6875 L 3.5625 -9.203125 L 3.953125 -7.96875 L 0.515625 -6.90625 L 1.046875 -5.203125 L 4.0625 -6.140625 L 4.421875 -4.9375 Z M 1.40625 -4 "/></g></g></g><g fill="#000000" fill-opacity="1"><g transform="translate(74.65076, 95.105428)"><g><path d="M 1.359375 -9.8125 L 2.015625 -8.71875 L 0.09375 -7.578125 L 3.40625 -2.03125 L 2.109375 -1.25 L -1.203125 -6.796875 L -3.125 -5.65625 L -3.78125 -6.75 Z M 1.359375 -9.8125 "/></g></g></g><g fill="#000000" fill-opacity="1"><g transform="translate(82.943931, 89.691118)"><g><path d="M -0.578125 -4.203125 L 0.921875 -2.6875 L 3.5625 -5.28125 L 4.453125 -4.359375 L 0.71875 -0.703125 L -4.703125 -6.21875 L -1.03125 -9.8125 L -0.125 -8.90625 L -2.703125 -6.375 L -1.453125 -5.09375 L 0.796875 -7.3125 L 1.671875 -6.421875 Z M -0.578125 -4.203125 "/></g></g></g><g fill="#000000" fill-opacity="1"><g transform="translate(89.990291, 82.268469)"><g><path d="M -4.71875 -7.203125 C -4.082031 -8.273438 -3.316406 -8.929688 -2.421875 -9.171875 C -1.535156 -9.421875 -0.539062 -9.21875 0.5625 -8.5625 C 1.65625 -7.914062 2.316406 -7.140625 2.546875 -6.234375 C 2.773438 -5.328125 2.570312 -4.335938 1.9375 -3.265625 L 0.515625 -0.859375 L -6.140625 -4.796875 Z M 0.78125 -3.84375 C 1.175781 -4.519531 1.296875 -5.132812 1.140625 -5.6875 C 0.992188 -6.238281 0.535156 -6.742188 -0.234375 -7.203125 C -1.015625 -7.660156 -1.679688 -7.820312 -2.234375 -7.6875 C -2.796875 -7.550781 -3.273438 -7.144531 -3.671875 -6.46875 L -4.28125 -5.453125 L 0.171875 -2.828125 Z M 0.78125 -3.84375 "/></g></g></g><g clip-path="url(#39f6e86c70)"><g clip-path="url(#9fb4c24540)"><path fill="#ff659a" d="M 91.910156 59.566406 L 99.464844 59.566406 L 99.464844 67.121094 L 91.910156 67.121094 Z M 91.910156 59.566406 " fill-opacity="1" fill-rule="nonzero"/></g></g><g mask="url(#06f8575669)"><g transform="matrix(1, 0, 0, 1, 21, 20)"><g clip-path="url(#de6b159102)"><g clip-path="url(#0aed3346fc)"><path fill="#ffffff" d="M 41.050781 62.734375 C 41.117188 62.75 41.191406 62.734375 41.246094 62.683594 C 41.609375 62.335938 41.089844 60.59375 39.9375 56.683594 C 39.9375 56.683594 39.082031 53.769531 38.285156 51.027344 C 37.863281 49.582031 37.53125 48.398438 37.3125 47.625 C 37.488281 48.40625 37.765625 49.605469 38.082031 51.078125 C 38.300781 52.078125 38.648438 53.664062 39.328125 56.835938 C 40.191406 60.820312 40.558594 62.597656 41.042969 62.734375 Z M 55.535156 56.398438 C 55.609375 56.378906 55.667969 56.320312 55.6875 56.246094 C 55.828125 55.765625 54.5 54.515625 51.542969 51.703125 C 51.542969 51.703125 49.339844 49.605469 47.273438 47.625 C 46.183594 46.582031 45.300781 45.726562 44.722656 45.164062 C 45.269531 45.753906 46.105469 46.660156 47.121094 47.769531 C 47.816406 48.523438 48.910156 49.726562 51.09375 52.132812 C 53.828125 55.164062 55.042969 56.519531 55.535156 56.398438 Z M 63.796875 42.179688 C 63.851562 42.125 63.871094 42.050781 63.855469 41.980469 C 63.734375 41.492188 61.957031 41.078125 57.988281 40.109375 C 57.988281 40.109375 55.027344 39.390625 52.242188 38.707031 C 50.777344 38.34375 49.582031 38.042969 48.800781 37.84375 C 49.570312 38.082031 50.75 38.445312 52.1875 38.90625 C 53.164062 39.21875 54.71875 39.710938 57.816406 40.710938 C 61.703125 41.96875 63.4375 42.535156 63.796875 42.1875 Z M 5.8125 41.324219 C 5.796875 41.398438 5.816406 41.472656 5.863281 41.527344 C 6.214844 41.886719 7.972656 41.375 11.882812 40.222656 C 11.882812 40.222656 14.808594 39.367188 17.5625 38.566406 C 19.015625 38.152344 20.203125 37.816406 20.976562 37.597656 C 20.191406 37.777344 18.988281 38.050781 17.515625 38.367188 C 16.511719 38.585938 14.917969 38.929688 11.734375 39.609375 C 7.734375 40.476562 5.949219 40.847656 5.8125 41.324219 Z M 13.675781 55.765625 C 13.695312 55.839844 13.75 55.898438 13.824219 55.914062 C 14.308594 56.054688 15.5625 54.734375 18.386719 51.785156 C 18.386719 51.785156 20.492188 49.589844 22.480469 47.527344 C 23.535156 46.445312 24.386719 45.5625 24.953125 44.988281 C 24.359375 45.535156 23.449219 46.367188 22.335938 47.378906 C 21.574219 48.070312 20.367188 49.164062 17.953125 51.335938 C 14.910156 54.074219 13.550781 55.285156 13.675781 55.765625 Z M 27.933594 62.507812 C 27.984375 62.558594 28.058594 62.578125 28.132812 62.5625 C 28.621094 62.441406 29.046875 60.671875 30.011719 56.714844 C 30.011719 56.714844 30.734375 53.761719 31.421875 50.988281 C 31.785156 49.527344 32.085938 48.335938 32.285156 47.558594 C 32.046875 48.324219 31.683594 49.5 31.21875 50.933594 C 30.90625 51.910156 30.410156 53.457031 29.414062 56.542969 C 28.144531 60.417969 27.574219 62.148438 27.925781 62.507812 Z M 50.796875 63.019531 C 50.886719 63.015625 50.96875 62.96875 51.011719 62.894531 C 51.3125 62.371094 50.148438 60.53125 47.554688 56.394531 C 47.554688 56.394531 45.617188 53.3125 43.804688 50.402344 C 42.851562 48.875 42.078125 47.617188 41.578125 46.792969 C 42.039062 47.636719 42.738281 48.933594 43.589844 50.523438 C 44.167969 51.609375 45.085938 53.324219 46.898438 56.765625 C 49.183594 61.085938 50.195312 63.019531 50.796875 63.019531 Z M 63.574219 50.472656 C 63.652344 50.425781 63.699219 50.34375 63.699219 50.253906 C 63.699219 49.652344 61.769531 48.644531 57.453125 46.359375 C 57.453125 46.359375 54.234375 44.65625 51.210938 43.050781 C 49.621094 42.203125 48.324219 41.5 47.480469 41.039062 C 48.300781 41.542969 49.554688 42.316406 51.089844 43.265625 C 52.132812 43.917969 53.785156 44.945312 57.078125 47.015625 C 61.214844 49.605469 63.058594 50.773438 63.574219 50.472656 Z M 6.320312 50.273438 C 6.320312 50.363281 6.367188 50.445312 6.445312 50.492188 C 6.964844 50.792969 8.804688 49.628906 12.941406 47.03125 C 12.941406 47.03125 16.023438 45.097656 18.933594 43.285156 C 20.464844 42.332031 21.71875 41.558594 22.542969 41.058594 C 21.695312 41.519531 20.402344 42.21875 18.808594 43.066406 C 17.722656 43.648438 16.007812 44.5625 12.570312 46.378906 C 8.25 48.664062 6.316406 49.671875 6.320312 50.273438 Z M 19.015625 62.902344 C 19.0625 62.980469 19.140625 63.027344 19.230469 63.027344 C 19.832031 63.027344 20.84375 61.097656 23.125 56.78125 C 23.125 56.78125 24.828125 53.5625 26.4375 50.539062 C 27.285156 48.949219 27.984375 47.652344 28.445312 46.808594 C 27.945312 47.628906 27.171875 48.886719 26.21875 50.417969 C 25.570312 51.460938 24.542969 53.113281 22.472656 56.40625 C 19.886719 60.542969 18.710938 62.382812 19.015625 62.902344 Z M 34.890625 67.015625 C 34.96875 67.058594 35.0625 67.058594 35.140625 67.015625 C 35.664062 66.714844 35.570312 64.539062 35.390625 59.660156 C 35.390625 59.660156 35.253906 56.019531 35.140625 52.597656 C 35.082031 50.789062 35.039062 49.320312 35.015625 48.359375 C 34.992188 49.320312 34.949219 50.792969 34.890625 52.597656 C 34.847656 53.824219 34.785156 55.769531 34.640625 59.65625 C 34.460938 64.539062 34.367188 66.71875 34.890625 67.015625 Z M 41.042969 4.726562 C 41.117188 4.707031 41.191406 4.722656 41.246094 4.773438 C 41.609375 5.121094 41.089844 6.863281 39.9375 10.773438 C 39.9375 10.773438 39.082031 13.6875 38.285156 16.429688 C 37.863281 17.875 37.53125 19.058594 37.3125 19.832031 C 37.488281 19.046875 37.765625 17.847656 38.082031 16.378906 C 38.300781 15.378906 38.648438 13.792969 39.328125 10.621094 C 40.191406 6.640625 40.558594 4.859375 41.042969 4.726562 Z M 55.535156 11.0625 C 55.609375 11.082031 55.667969 11.136719 55.6875 11.210938 C 55.828125 11.691406 54.5 12.941406 51.542969 15.753906 C 51.542969 15.753906 49.339844 17.851562 47.273438 19.832031 C 46.183594 20.875 45.300781 21.730469 44.722656 22.292969 C 45.269531 21.703125 46.105469 20.800781 47.121094 19.6875 C 47.816406 18.933594 48.910156 17.730469 51.09375 15.324219 C 53.828125 12.292969 55.042969 10.9375 55.535156 11.0625 Z M 63.796875 25.277344 C 63.851562 25.328125 63.871094 25.40625 63.855469 25.476562 C 63.734375 25.964844 61.957031 26.378906 57.988281 27.347656 C 57.988281 27.347656 55.027344 28.066406 52.242188 28.75 C 50.777344 29.109375 49.582031 29.414062 48.800781 29.613281 C 49.570312 29.375 50.75 29.011719 52.1875 28.550781 C 53.164062 28.238281 54.71875 27.746094 57.816406 26.746094 C 61.703125 25.488281 63.4375 24.929688 63.796875 25.273438 Z M 5.8125 26.132812 C 5.792969 26.058594 5.8125 25.984375 5.863281 25.929688 C 6.214844 25.566406 7.972656 26.089844 11.882812 27.234375 C 11.882812 27.234375 14.808594 28.089844 17.5625 28.882812 C 19.015625 29.300781 20.203125 29.632812 20.976562 29.851562 C 20.191406 29.671875 18.988281 29.398438 17.515625 29.082031 C 16.511719 28.867188 14.917969 28.519531 11.734375 27.839844 C 7.734375 26.984375 5.949219 26.613281 5.8125 26.132812 Z M 13.675781 11.691406 C 13.695312 11.617188 13.75 11.558594 13.824219 11.539062 C 14.308594 11.402344 15.5625 12.722656 18.386719 15.667969 C 18.386719 15.667969 20.492188 17.867188 22.480469 19.925781 C 23.535156 21.011719 24.386719 21.894531 24.953125 22.464844 C 24.359375 21.921875 23.449219 21.089844 22.335938 20.078125 C 21.574219 19.386719 20.367188 18.296875 17.953125 16.121094 C 14.910156 13.386719 13.550781 12.171875 13.675781 11.691406 Z M 27.933594 4.953125 C 27.984375 4.902344 28.058594 4.878906 28.132812 4.898438 C 28.621094 5.019531 29.046875 6.789062 30.011719 10.746094 C 30.011719 10.746094 30.734375 13.695312 31.421875 16.46875 C 31.785156 17.929688 32.085938 19.121094 32.285156 19.898438 C 32.046875 19.132812 31.683594 17.960938 31.21875 16.527344 C 30.90625 15.550781 30.410156 14.003906 29.414062 10.917969 C 28.144531 7.039062 27.574219 5.3125 27.925781 4.953125 Z M 50.796875 4.441406 C 50.886719 4.441406 50.96875 4.492188 51.011719 4.566406 C 51.3125 5.085938 50.148438 6.925781 47.554688 11.0625 C 47.554688 11.0625 45.617188 14.148438 43.804688 17.054688 C 42.851562 18.585938 42.078125 19.84375 41.578125 20.664062 C 42.039062 19.820312 42.738281 18.523438 43.589844 16.933594 C 44.167969 15.847656 45.085938 14.132812 46.898438 10.691406 C 49.183594 6.371094 50.195312 4.4375 50.796875 4.441406 Z M 63.574219 16.988281 C 63.652344 17.035156 63.699219 17.117188 63.699219 17.203125 C 63.699219 17.804688 61.769531 18.816406 57.453125 21.097656 C 57.453125 21.097656 54.234375 22.800781 51.210938 24.40625 C 49.621094 25.257812 48.324219 25.960938 47.480469 26.417969 C 48.300781 25.917969 49.554688 25.144531 51.089844 24.191406 C 52.132812 23.542969 53.785156 22.515625 57.078125 20.445312 C 61.214844 17.859375 63.058594 16.683594 63.574219 16.988281 Z M 69.792969 33.617188 C 69.835938 33.691406 69.835938 33.789062 69.792969 33.867188 C 69.492188 34.386719 67.316406 34.296875 62.433594 34.113281 C 62.433594 34.113281 58.796875 33.980469 55.371094 33.867188 C 53.566406 33.804688 52.097656 33.765625 51.136719 33.742188 C 52.097656 33.714844 53.570312 33.675781 55.371094 33.617188 C 56.601562 33.574219 58.546875 33.511719 62.433594 33.367188 C 67.316406 33.183594 69.496094 33.09375 69.792969 33.617188 Z M 0.214844 33.839844 C 0.171875 33.765625 0.171875 33.667969 0.214844 33.589844 C 0.515625 33.070312 2.691406 33.160156 7.570312 33.34375 C 7.570312 33.34375 11.210938 33.476562 14.640625 33.589844 C 16.445312 33.652344 17.917969 33.691406 18.878906 33.714844 C 17.917969 33.742188 16.441406 33.78125 14.640625 33.839844 C 13.414062 33.882812 11.46875 33.945312 7.582031 34.089844 C 2.691406 34.273438 0.511719 34.363281 0.214844 33.839844 Z M 6.320312 17.191406 C 6.320312 17.101562 6.367188 17.019531 6.445312 16.972656 C 6.964844 16.671875 8.804688 17.839844 12.941406 20.433594 C 12.941406 20.433594 16.023438 22.371094 18.933594 24.183594 C 20.464844 25.136719 21.71875 25.90625 22.542969 26.410156 C 21.695312 25.957031 20.402344 25.246094 18.808594 24.398438 C 17.722656 23.820312 16.007812 22.902344 12.570312 21.089844 C 8.25 18.796875 6.316406 17.785156 6.320312 17.183594 Z M 19.015625 4.554688 C 19.0625 4.480469 19.140625 4.429688 19.230469 4.429688 C 19.832031 4.429688 20.84375 6.359375 23.125 10.675781 C 23.125 10.675781 24.828125 13.898438 26.4375 16.921875 C 27.285156 18.511719 27.984375 19.804688 28.445312 20.652344 C 27.945312 19.832031 27.171875 18.574219 26.21875 17.042969 C 25.570312 16 24.542969 14.347656 22.472656 11.050781 C 19.886719 6.917969 18.710938 5.074219 19.015625 4.554688 Z M 34.890625 0.441406 C 34.96875 0.398438 35.0625 0.398438 35.140625 0.441406 C 35.664062 0.742188 35.570312 2.921875 35.390625 7.800781 C 35.390625 7.800781 35.253906 11.441406 35.140625 14.871094 C 35.082031 16.675781 35.039062 18.148438 35.015625 19.109375 C 34.992188 18.148438 34.949219 16.671875 34.890625 14.871094 C 34.847656 13.644531 34.785156 11.695312 34.640625 7.808594 C 34.460938 2.921875 34.367188 0.742188 34.890625 0.441406 " fill-opacity="1" fill-rule="nonzero"/></g></g></g></g><path fill="#f2ad94" d="M 52.238281 53.40625 L 49.339844 50.527344 C 48.015625 49.210938 48.015625 47.15625 49.339844 45.839844 C 50.664062 44.523438 52.734375 44.523438 54.058594 45.839844 L 56.957031 48.71875 Z M 52.238281 53.40625 " fill-opacity="1" fill-rule="nonzero"/><path fill="#fccab1" d="M 66.308594 67.386719 L 66.886719 66.8125 C 67.882812 65.824219 67.882812 64.261719 66.886719 63.359375 L 63.992188 60.480469 L 64.570312 59.902344 C 65.5625 58.917969 65.5625 57.355469 64.570312 56.449219 L 61.589844 53.40625 L 66.308594 48.71875 C 67.632812 47.402344 67.632812 45.347656 66.308594 44.03125 C 64.984375 42.714844 62.914062 42.714844 61.589844 44.03125 L 47.519531 58.011719 C 42.636719 62.863281 42.636719 70.679688 47.519531 75.449219 C 52.402344 80.300781 60.265625 80.300781 65.066406 75.449219 L 67.964844 72.570312 C 68.957031 71.582031 68.957031 70.019531 67.964844 69.113281 Z M 66.308594 67.386719 " fill-opacity="1" fill-rule="nonzero"/><path fill="#fddfd0" d="M 50.085938 75.53125 C 45.203125 70.679688 45.203125 62.863281 50.085938 58.09375 L 64.15625 44.113281 C 64.488281 43.785156 64.820312 43.535156 65.234375 43.371094 C 64.074219 42.878906 62.585938 43.125 61.675781 44.113281 L 47.601562 58.09375 C 42.71875 62.945312 42.71875 70.761719 47.601562 75.53125 C 50.335938 78.246094 54.058594 79.394531 57.617188 79.066406 C 54.886719 78.820312 52.15625 77.585938 50.085938 75.53125 Z M 50.085938 75.53125 " fill-opacity="1" fill-rule="nonzero"/><path fill="#000000" d="M 68.625 68.539062 L 67.46875 67.386719 C 68.792969 66.070312 68.792969 64.015625 67.46875 62.699219 L 65.148438 60.398438 C 66.476562 59.082031 66.476562 57.023438 65.148438 55.710938 L 62.832031 53.40625 L 66.886719 49.292969 C 67.632812 48.554688 68.128906 47.484375 68.128906 46.414062 C 68.128906 45.347656 67.714844 44.277344 66.886719 43.535156 C 66.144531 42.796875 65.066406 42.304688 63.992188 42.304688 C 62.914062 42.304688 61.839844 42.714844 61.011719 43.535156 L 56.957031 47.566406 L 54.636719 45.265625 C 53.894531 44.523438 52.816406 44.03125 51.742188 44.03125 C 50.664062 44.03125 49.589844 44.441406 48.84375 45.265625 C 47.273438 46.828125 47.273438 49.457031 48.84375 51.101562 L 51.164062 53.40625 L 47.023438 57.519531 C 44.539062 59.984375 43.132812 63.277344 43.132812 66.8125 C 43.132812 70.347656 44.539062 73.640625 47.023438 76.105469 C 49.589844 78.65625 52.984375 79.972656 56.375 79.972656 C 59.769531 79.972656 63.164062 78.65625 65.730469 76.105469 L 68.625 73.226562 C 69.289062 72.570312 69.621094 71.746094 69.621094 70.925781 C 69.621094 70.101562 69.289062 69.199219 68.625 68.539062 Z M 49.921875 49.953125 C 48.925781 48.964844 48.925781 47.402344 49.921875 46.496094 C 50.417969 46.003906 50.996094 45.757812 51.660156 45.757812 C 52.320312 45.757812 52.984375 46.003906 53.398438 46.496094 L 55.714844 48.800781 L 52.238281 52.253906 Z M 67.46875 71.992188 L 64.570312 74.953125 C 60.019531 79.476562 52.734375 79.476562 48.183594 74.953125 C 46.03125 72.816406 44.789062 69.855469 44.789062 66.8125 C 44.789062 63.769531 46.03125 60.808594 48.183594 58.667969 L 62.253906 44.6875 C 62.75 44.195312 63.328125 43.949219 63.992188 43.949219 C 64.652344 43.949219 65.316406 44.195312 65.730469 44.6875 C 66.144531 45.179688 66.476562 45.757812 66.476562 46.414062 C 66.476562 47.074219 66.226562 47.730469 65.730469 48.140625 L 61.011719 52.832031 C 61.011719 52.832031 61.011719 52.914062 60.929688 52.914062 C 60.929688 52.914062 60.847656 52.914062 60.847656 52.996094 L 52.238281 61.546875 C 51.90625 61.878906 51.90625 62.371094 52.238281 62.699219 C 52.402344 62.863281 52.652344 62.945312 52.816406 62.945312 C 52.984375 62.945312 53.230469 62.863281 53.398438 62.699219 L 61.589844 54.558594 L 63.910156 56.859375 C 64.570312 57.519531 64.570312 58.503906 63.910156 59.164062 L 63.328125 59.738281 C 63.328125 59.738281 63.328125 59.738281 63.328125 59.820312 C 63.328125 59.820312 63.328125 59.820312 63.246094 59.820312 L 56.875 66.152344 C 56.542969 66.484375 56.542969 66.976562 56.875 67.304688 C 57.039062 67.46875 57.289062 67.550781 57.453125 67.550781 C 57.617188 67.550781 57.867188 67.46875 58.03125 67.304688 L 63.910156 61.464844 L 66.226562 63.769531 C 66.886719 64.425781 66.886719 65.414062 66.226562 66.070312 L 65.648438 66.648438 C 65.648438 66.648438 65.648438 66.648438 65.648438 66.730469 C 65.648438 66.730469 65.5625 66.730469 65.5625 66.730469 L 61.589844 70.679688 C 61.261719 71.007812 61.261719 71.5 61.589844 71.828125 C 61.757812 71.992188 62.003906 72.074219 62.171875 72.074219 C 62.335938 72.074219 62.585938 71.992188 62.75 71.828125 L 66.226562 68.375 L 67.386719 69.527344 C 67.714844 69.855469 67.882812 70.265625 67.882812 70.679688 C 67.964844 71.335938 67.800781 71.746094 67.46875 71.992188 Z M 67.46875 71.992188 " fill-opacity="1" fill-rule="nonzero"/><path fill="#f46972" d="M 63.496094 38.355469 C 66.476562 35.640625 65.066406 29.636719 61.34375 29.554688 C 61.34375 29.554688 61.261719 29.554688 61.261719 29.554688 C 59.605469 29.554688 58.03125 30.625 57.121094 32.1875 C 56.210938 30.625 54.722656 29.554688 52.984375 29.554688 C 49.257812 29.636719 47.769531 35.558594 50.664062 38.355469 L 57.121094 44.359375 Z M 63.496094 38.355469 " fill-opacity="1" fill-rule="nonzero"/><path fill="#f8a5aa" d="M 53.148438 38.355469 C 50.5 35.804688 51.492188 30.789062 54.390625 29.71875 C 53.976562 29.554688 53.5625 29.472656 53.066406 29.472656 C 52.984375 29.554688 52.984375 29.554688 52.984375 29.554688 C 49.257812 29.636719 47.769531 35.558594 50.664062 38.355469 L 57.121094 44.359375 L 58.363281 43.207031 Z M 53.148438 38.355469 " fill-opacity="1" fill-rule="nonzero"/><g clip-path="url(#648940a8bf)"><path fill="#000000" d="M 57.121094 45.179688 C 56.957031 45.179688 56.707031 45.097656 56.542969 44.933594 L 50.085938 38.929688 C 48.347656 37.203125 47.769531 34.324219 48.761719 31.859375 C 49.589844 29.964844 51.078125 28.730469 52.984375 28.730469 L 53.066406 28.730469 C 54.636719 28.730469 56.046875 29.472656 57.203125 30.707031 C 58.28125 29.472656 59.6875 28.730469 61.261719 28.730469 L 61.34375 28.730469 C 63.164062 28.730469 64.738281 29.964844 65.480469 31.941406 C 66.390625 34.40625 65.8125 37.285156 64.074219 38.929688 L 57.699219 44.933594 C 57.535156 45.097656 57.289062 45.179688 57.121094 45.179688 Z M 53.066406 30.378906 C 51.328125 30.378906 50.582031 31.859375 50.335938 32.515625 C 49.753906 33.996094 49.753906 36.300781 51.246094 37.78125 L 57.121094 43.207031 L 62.914062 37.695312 C 64.40625 36.300781 64.488281 34.078125 63.910156 32.515625 C 63.742188 31.941406 63 30.378906 61.34375 30.378906 C 59.9375 30.378906 58.695312 31.199219 57.867188 32.597656 C 57.535156 33.089844 56.707031 33.089844 56.460938 32.597656 C 55.632812 31.199219 54.390625 30.378906 53.066406 30.378906 Z M 53.066406 30.378906 " fill-opacity="1" fill-rule="nonzero"/></g><path fill="#ffffff" d="M 62.085938 31.308594 C 62.230469 31.390625 62.355469 31.488281 62.46875 31.601562 C 62.578125 31.710938 62.664062 31.828125 62.726562 31.953125 C 62.789062 32.078125 62.820312 32.199219 62.824219 32.320312 C 62.828125 32.4375 62.804688 32.542969 62.75 32.640625 C 62.695312 32.734375 62.613281 32.808594 62.507812 32.863281 C 62.402344 32.921875 62.28125 32.953125 62.140625 32.960938 C 62.003906 32.972656 61.855469 32.957031 61.703125 32.917969 C 61.550781 32.875 61.402344 32.816406 61.261719 32.734375 C 61.117188 32.652344 60.992188 32.554688 60.878906 32.445312 C 60.769531 32.332031 60.683594 32.214844 60.621094 32.089844 C 60.558594 31.964844 60.527344 31.84375 60.523438 31.726562 C 60.519531 31.605469 60.542969 31.5 60.597656 31.40625 C 60.652344 31.3125 60.734375 31.234375 60.839844 31.179688 C 60.945312 31.125 61.066406 31.089844 61.207031 31.082031 C 61.347656 31.074219 61.492188 31.089844 61.644531 31.128906 C 61.796875 31.167969 61.945312 31.226562 62.085938 31.308594 Z M 62.085938 31.308594 " fill-opacity="1" fill-rule="nonzero"/><path fill="#000000" d="M 71.441406 40.492188 C 71.109375 40.824219 70.613281 40.824219 70.28125 40.492188 L 69.703125 39.917969 C 69.371094 39.589844 69.371094 39.09375 69.703125 38.765625 C 70.035156 38.4375 70.53125 38.4375 70.863281 38.765625 L 71.441406 39.34375 C 71.773438 39.671875 71.773438 40.164062 71.441406 40.492188 Z M 71.441406 40.492188 " fill-opacity="1" fill-rule="nonzero"/><g clip-path="url(#0083e7fc4d)"><path fill="#000000" d="M 74.335938 43.371094 C 74.007812 43.699219 73.511719 43.699219 73.179688 43.371094 L 72.597656 42.796875 C 72.269531 42.46875 72.269531 41.972656 72.597656 41.644531 C 72.929688 41.316406 73.425781 41.316406 73.757812 41.644531 L 74.335938 42.21875 C 74.667969 42.550781 74.667969 43.042969 74.335938 43.371094 Z M 74.335938 43.371094 " fill-opacity="1" fill-rule="nonzero"/></g><g clip-path="url(#a385507b7c)"><path fill="#000000" d="M 74.335938 39.917969 L 73.757812 40.492188 C 73.425781 40.824219 72.929688 40.824219 72.597656 40.492188 C 72.269531 40.164062 72.269531 39.671875 72.597656 39.34375 L 73.179688 38.765625 C 73.511719 38.4375 74.007812 38.4375 74.335938 38.765625 C 74.667969 39.09375 74.667969 39.589844 74.335938 39.917969 Z M 74.335938 39.917969 " fill-opacity="1" fill-rule="nonzero"/></g><path fill="#000000" d="M 71.441406 42.796875 L 70.863281 43.371094 C 70.53125 43.699219 70.035156 43.699219 69.703125 43.371094 C 69.371094 43.042969 69.371094 42.550781 69.703125 42.21875 L 70.28125 41.644531 C 70.613281 41.316406 71.109375 41.316406 71.441406 41.644531 C 71.773438 41.972656 71.773438 42.46875 71.441406 42.796875 Z M 71.441406 42.796875 " fill-opacity="1" fill-rule="nonzero"/><g clip-path="url(#4da847010e)"><path fill="#000000" d="M 41.644531 50.363281 C 41.3125 50.691406 40.816406 50.691406 40.484375 50.363281 L 39.90625 49.789062 C 39.574219 49.457031 39.574219 48.964844 39.90625 48.636719 C 40.238281 48.308594 40.734375 48.308594 41.066406 48.636719 L 41.644531 49.210938 C 41.976562 49.539062 41.976562 50.035156 41.644531 50.363281 Z M 41.644531 50.363281 " fill-opacity="1" fill-rule="nonzero"/></g><path fill="#000000" d="M 44.539062 53.242188 C 44.210938 53.570312 43.714844 53.570312 43.382812 53.242188 L 42.800781 52.664062 C 42.472656 52.335938 42.472656 51.84375 42.800781 51.515625 C 43.132812 51.183594 43.628906 51.183594 43.960938 51.515625 L 44.539062 52.089844 C 44.871094 52.417969 44.871094 52.914062 44.539062 53.242188 Z M 44.539062 53.242188 " fill-opacity="1" fill-rule="nonzero"/><path fill="#000000" d="M 44.539062 49.789062 L 43.960938 50.363281 C 43.628906 50.691406 43.132812 50.691406 42.800781 50.363281 C 42.472656 50.035156 42.472656 49.539062 42.800781 49.210938 L 43.382812 48.636719 C 43.714844 48.308594 44.210938 48.308594 44.539062 48.636719 C 44.871094 48.964844 44.871094 49.457031 44.539062 49.789062 Z M 44.539062 49.789062 " fill-opacity="1" fill-rule="nonzero"/><g clip-path="url(#c1949ed8f0)"><path fill="#000000" d="M 41.644531 52.664062 L 41.066406 53.242188 C 40.734375 53.570312 40.238281 53.570312 39.90625 53.242188 C 39.574219 52.914062 39.574219 52.417969 39.90625 52.089844 L 40.484375 51.515625 C 40.816406 51.183594 41.3125 51.183594 41.644531 51.515625 C 41.976562 51.84375 41.976562 52.335938 41.644531 52.664062 Z M 41.644531 52.664062 " fill-opacity="1" fill-rule="nonzero"/></g></svg>