<svg xmlns="http://www.w3.org/2000/svg" xmlns:xlink="http://www.w3.org/1999/xlink" width="150" zoomAndPan="magnify" viewBox="0 0 112.5 112.499997" height="150" preserveAspectRatio="xMidYMid meet" version="1.0"><defs><filter x="0%" y="0%" width="100%" height="100%" id="198a6ee1e5"><feColorMatrix values="0 0 0 0 1 0 0 0 0 1 0 0 0 0 1 0 0 0 1 0" color-interpolation-filters="sRGB"/></filter><g/><clipPath id="63e5f451fc"><path d="M 0 0 L 112.003906 0 L 112.003906 112.003906 L 0 112.003906 Z M 0 0 " clip-rule="nonzero"/></clipPath><clipPath id="b3a7b4db39"><path d="M 56 0 L 63.886719 6.21875 L 73.304688 2.742188 L 78.882812 11.09375 L 88.917969 10.695312 L 91.640625 20.363281 L 101.308594 23.085938 L 100.910156 33.121094 L 109.261719 38.695312 L 105.78125 48.117188 L 112.003906 56 L 105.78125 63.886719 L 109.261719 73.304688 L 100.910156 78.882812 L 101.308594 88.917969 L 91.640625 91.640625 L 88.917969 101.308594 L 78.882812 100.910156 L 73.304688 109.261719 L 63.886719 105.78125 L 56 112.003906 L 48.117188 105.78125 L 38.695312 109.261719 L 33.121094 100.910156 L 23.085938 101.308594 L 20.363281 91.640625 L 10.695312 88.917969 L 11.09375 78.882812 L 2.742188 73.304688 L 6.21875 63.886719 L 0 56 L 6.21875 48.117188 L 2.742188 38.695312 L 11.09375 33.121094 L 10.695312 23.085938 L 20.363281 20.363281 L 23.085938 10.695312 L 33.121094 11.09375 L 38.695312 2.742188 L 48.117188 6.21875 Z M 56 0 " clip-rule="nonzero"/></clipPath><clipPath id="3c113a676e"><path d="M 12.695312 57.441406 L 20.25 57.441406 L 20.25 64.992188 L 12.695312 64.992188 Z M 12.695312 57.441406 " clip-rule="nonzero"/></clipPath><clipPath id="6e17f3fc46"><path d="M 16.472656 57.441406 L 17.675781 60.015625 L 20.25 61.214844 L 17.675781 62.417969 L 16.472656 64.992188 L 15.269531 62.417969 L 12.695312 61.214844 L 15.269531 60.015625 Z M 16.472656 57.441406 " clip-rule="nonzero"/></clipPath><clipPath id="2a57b65ea6"><path d="M 91.753906 57.441406 L 99.304688 57.441406 L 99.304688 64.992188 L 91.753906 64.992188 Z M 91.753906 57.441406 " clip-rule="nonzero"/></clipPath><clipPath id="eaab3ef6f6"><path d="M 95.53125 57.441406 L 96.730469 60.015625 L 99.304688 61.214844 L 96.730469 62.417969 L 95.53125 64.992188 L 94.328125 62.417969 L 91.753906 61.214844 L 94.328125 60.015625 Z M 95.53125 57.441406 " clip-rule="nonzero"/></clipPath><mask id="197b4b7281"><g filter="url(#198a6ee1e5)"><rect x="-11.25" width="135" fill="#000000" y="-11.25" height="134.999996" fill-opacity="0.42"/></g></mask><clipPath id="5b9ebbbd02"><path d="M 0.152344 15.382812 L 69.59375 15.382812 L 69.59375 66.847656 L 0.152344 66.847656 Z M 0.152344 15.382812 " clip-rule="nonzero"/></clipPath><clipPath id="495713d565"><rect x="0" width="71" y="0" height="68"/></clipPath><clipPath id="4e282cbf50"><path d="M 67 67 L 78 67 L 78 78 L 67 78 Z M 67 67 " clip-rule="nonzero"/></clipPath><clipPath id="5ae5a22a03"><path d="M 30.730469 34.300781 L 59.136719 22.882812 L 81.136719 77.617188 L 52.730469 89.035156 Z M 30.730469 34.300781 " clip-rule="nonzero"/></clipPath><clipPath id="f2a2750153"><path d="M 30.730469 34.300781 L 59.136719 22.882812 L 81.136719 77.617188 L 52.730469 89.035156 Z M 30.730469 34.300781 " clip-rule="nonzero"/></clipPath><clipPath id="dc58af499f"><path d="M 30.730469 34.300781 L 59.136719 22.882812 L 81.136719 77.617188 L 52.730469 89.035156 Z M 30.730469 34.300781 " clip-rule="nonzero"/></clipPath><clipPath id="436d8d41d8"><path d="M 66 67 L 78 67 L 78 79 L 66 79 Z M 66 67 " clip-rule="nonzero"/></clipPath><clipPath id="440b7529ec"><path d="M 30.730469 34.300781 L 59.136719 22.882812 L 81.136719 77.617188 L 52.730469 89.035156 Z M 30.730469 34.300781 " clip-rule="nonzero"/></clipPath><clipPath id="91f7770e72"><path d="M 30.730469 34.300781 L 59.136719 22.882812 L 81.136719 77.617188 L 52.730469 89.035156 Z M 30.730469 34.300781 " clip-rule="nonzero"/></clipPath><clipPath id="7a033d05c9"><path d="M 30.730469 34.300781 L 59.136719 22.882812 L 81.136719 77.617188 L 52.730469 89.035156 Z M 30.730469 34.300781 " clip-rule="nonzero"/></clipPath><clipPath id="694e94e3f4"><path d="M 75 75 L 78 75 L 78 79 L 75 79 Z M 75 75 " clip-rule="nonzero"/></clipPath><clipPath id="21150f2250"><path d="M 30.730469 34.300781 L 59.136719 22.882812 L 81.136719 77.617188 L 52.730469 89.035156 Z M 30.730469 34.300781 " clip-rule="nonzero"/></clipPath><clipPath id="247c23af4a"><path d="M 30.730469 34.300781 L 59.136719 22.882812 L 81.136719 77.617188 L 52.730469 89.035156 Z M 30.730469 34.300781 " clip-rule="nonzero"/></clipPath><clipPath id="3c7aa17677"><path d="M 30.730469 34.300781 L 59.136719 22.882812 L 81.136719 77.617188 L 52.730469 89.035156 Z M 30.730469 34.300781 " clip-rule="nonzero"/></clipPath><clipPath id="87b76a4a07"><path d="M 74 75 L 79 75 L 79 79 L 74 79 Z M 74 75 " clip-rule="nonzero"/></clipPath><clipPath id="7a27a74763"><path d="M 30.730469 34.300781 L 59.136719 22.882812 L 81.136719 77.617188 L 52.730469 89.035156 Z M 30.730469 34.300781 " clip-rule="nonzero"/></clipPath><clipPath id="764fdeda12"><path d="M 30.730469 34.300781 L 59.136719 22.882812 L 81.136719 77.617188 L 52.730469 89.035156 Z M 30.730469 34.300781 " clip-rule="nonzero"/></clipPath><clipPath id="eba4eb4d78"><path d="M 30.730469 34.300781 L 59.136719 22.882812 L 81.136719 77.617188 L 52.730469 89.035156 Z M 30.730469 34.300781 " clip-rule="nonzero"/></clipPath><clipPath id="13c45ec16f"><path d="M 32 32 L 44 32 L 44 43 L 32 43 Z M 32 32 " clip-rule="nonzero"/></clipPath><clipPath id="12c032dccb"><path d="M 30.730469 34.300781 L 59.136719 22.882812 L 81.136719 77.617188 L 52.730469 89.035156 Z M 30.730469 34.300781 " clip-rule="nonzero"/></clipPath><clipPath id="e1726dbb24"><path d="M 30.730469 34.300781 L 59.136719 22.882812 L 81.136719 77.617188 L 52.730469 89.035156 Z M 30.730469 34.300781 " clip-rule="nonzero"/></clipPath><clipPath id="df2608e3e5"><path d="M 30.730469 34.300781 L 59.136719 22.882812 L 81.136719 77.617188 L 52.730469 89.035156 Z M 30.730469 34.300781 " clip-rule="nonzero"/></clipPath><clipPath id="7ba1244528"><path d="M 32 31 L 45 31 L 45 44 L 32 44 Z M 32 31 " clip-rule="nonzero"/></clipPath><clipPath id="162a564566"><path d="M 30.730469 34.300781 L 59.136719 22.882812 L 81.136719 77.617188 L 52.730469 89.035156 Z M 30.730469 34.300781 " clip-rule="nonzero"/></clipPath><clipPath id="6acb2df487"><path d="M 30.730469 34.300781 L 59.136719 22.882812 L 81.136719 77.617188 L 52.730469 89.035156 Z M 30.730469 34.300781 " clip-rule="nonzero"/></clipPath><clipPath id="7016ddb04a"><path d="M 30.730469 34.300781 L 59.136719 22.882812 L 81.136719 77.617188 L 52.730469 89.035156 Z M 30.730469 34.300781 " clip-rule="nonzero"/></clipPath><clipPath id="84150a4d04"><path d="M 40 39 L 75 39 L 75 75 L 40 75 Z M 40 39 " clip-rule="nonzero"/></clipPath><clipPath id="365249d5a2"><path d="M 30.730469 34.300781 L 59.136719 22.882812 L 81.136719 77.617188 L 52.730469 89.035156 Z M 30.730469 34.300781 " clip-rule="nonzero"/></clipPath><clipPath id="abba0cefc0"><path d="M 30.730469 34.300781 L 59.136719 22.882812 L 81.136719 77.617188 L 52.730469 89.035156 Z M 30.730469 34.300781 " clip-rule="nonzero"/></clipPath><clipPath id="c6e2479b92"><path d="M 30.730469 34.300781 L 59.136719 22.882812 L 81.136719 77.617188 L 52.730469 89.035156 Z M 30.730469 34.300781 " clip-rule="nonzero"/></clipPath><clipPath id="10af399471"><path d="M 39 38 L 75 38 L 75 75 L 39 75 Z M 39 38 " clip-rule="nonzero"/></clipPath><clipPath id="21e94b93a6"><path d="M 30.730469 34.300781 L 59.136719 22.882812 L 81.136719 77.617188 L 52.730469 89.035156 Z M 30.730469 34.300781 " clip-rule="nonzero"/></clipPath><clipPath id="bbb84a97e3"><path d="M 30.730469 34.300781 L 59.136719 22.882812 L 81.136719 77.617188 L 52.730469 89.035156 Z M 30.730469 34.300781 " clip-rule="nonzero"/></clipPath><clipPath id="4e12801235"><path d="M 30.730469 34.300781 L 59.136719 22.882812 L 81.136719 77.617188 L 52.730469 89.035156 Z M 30.730469 34.300781 " clip-rule="nonzero"/></clipPath><clipPath id="b581596c78"><path d="M 36 36 L 47 36 L 47 47 L 36 47 Z M 36 36 " clip-rule="nonzero"/></clipPath><clipPath id="8ab0aceb15"><path d="M 30.730469 34.300781 L 59.136719 22.882812 L 81.136719 77.617188 L 52.730469 89.035156 Z M 30.730469 34.300781 " clip-rule="nonzero"/></clipPath><clipPath id="1182565fa6"><path d="M 30.730469 34.300781 L 59.136719 22.882812 L 81.136719 77.617188 L 52.730469 89.035156 Z M 30.730469 34.300781 " clip-rule="nonzero"/></clipPath><clipPath id="b8ce91da70"><path d="M 30.730469 34.300781 L 59.136719 22.882812 L 81.136719 77.617188 L 52.730469 89.035156 Z M 30.730469 34.300781 " clip-rule="nonzero"/></clipPath><clipPath id="1a6b30d6db"><path d="M 36 35 L 48 35 L 48 47 L 36 47 Z M 36 35 " clip-rule="nonzero"/></clipPath><clipPath id="f0a570fa0f"><path d="M 30.730469 34.300781 L 59.136719 22.882812 L 81.136719 77.617188 L 52.730469 89.035156 Z M 30.730469 34.300781 " clip-rule="nonzero"/></clipPath><clipPath id="48f2694903"><path d="M 30.730469 34.300781 L 59.136719 22.882812 L 81.136719 77.617188 L 52.730469 89.035156 Z M 30.730469 34.300781 " clip-rule="nonzero"/></clipPath><clipPath id="6b0e8f8185"><path d="M 30.730469 34.300781 L 59.136719 22.882812 L 81.136719 77.617188 L 52.730469 89.035156 Z M 30.730469 34.300781 " clip-rule="nonzero"/></clipPath><clipPath id="6101caa30d"><path d="M 45 47 L 66 47 L 66 69 L 45 69 Z M 45 47 " clip-rule="nonzero"/></clipPath><clipPath id="9bbe04364b"><path d="M 30.730469 34.300781 L 59.136719 22.882812 L 81.136719 77.617188 L 52.730469 89.035156 Z M 30.730469 34.300781 " clip-rule="nonzero"/></clipPath><clipPath id="0d15a89d9f"><path d="M 30.730469 34.300781 L 59.136719 22.882812 L 81.136719 77.617188 L 52.730469 89.035156 Z M 30.730469 34.300781 " clip-rule="nonzero"/></clipPath><clipPath id="d1c746a50c"><path d="M 30.730469 34.300781 L 59.136719 22.882812 L 81.136719 77.617188 L 52.730469 89.035156 Z M 30.730469 34.300781 " clip-rule="nonzero"/></clipPath><clipPath id="8fb7a9efd0"><path d="M 47 44 L 69 44 L 69 66 L 47 66 Z M 47 44 " clip-rule="nonzero"/></clipPath><clipPath id="66f418241e"><path d="M 30.730469 34.300781 L 59.136719 22.882812 L 81.136719 77.617188 L 52.730469 89.035156 Z M 30.730469 34.300781 " clip-rule="nonzero"/></clipPath><clipPath id="4ca9ef5c59"><path d="M 30.730469 34.300781 L 59.136719 22.882812 L 81.136719 77.617188 L 52.730469 89.035156 Z M 30.730469 34.300781 " clip-rule="nonzero"/></clipPath><clipPath id="4f0fbb7667"><path d="M 30.730469 34.300781 L 59.136719 22.882812 L 81.136719 77.617188 L 52.730469 89.035156 Z M 30.730469 34.300781 " clip-rule="nonzero"/></clipPath><clipPath id="dc62e9ff2f"><path d="M 54 31 L 63 31 L 63 40 L 54 40 Z M 54 31 " clip-rule="nonzero"/></clipPath><clipPath id="d3edd9380c"><path d="M 30.730469 34.300781 L 59.136719 22.882812 L 81.136719 77.617188 L 52.730469 89.035156 Z M 30.730469 34.300781 " clip-rule="nonzero"/></clipPath><clipPath id="6fbc7e9026"><path d="M 30.730469 34.300781 L 59.136719 22.882812 L 81.136719 77.617188 L 52.730469 89.035156 Z M 30.730469 34.300781 " clip-rule="nonzero"/></clipPath><clipPath id="389cda9d1b"><path d="M 30.730469 34.300781 L 59.136719 22.882812 L 81.136719 77.617188 L 52.730469 89.035156 Z M 30.730469 34.300781 " clip-rule="nonzero"/></clipPath><clipPath id="62eb56589e"><path d="M 54 30 L 64 30 L 64 40 L 54 40 Z M 54 30 " clip-rule="nonzero"/></clipPath><clipPath id="07e350eaa7"><path d="M 30.730469 34.300781 L 59.136719 22.882812 L 81.136719 77.617188 L 52.730469 89.035156 Z M 30.730469 34.300781 " clip-rule="nonzero"/></clipPath><clipPath id="f46c042bd0"><path d="M 30.730469 34.300781 L 59.136719 22.882812 L 81.136719 77.617188 L 52.730469 89.035156 Z M 30.730469 34.300781 " clip-rule="nonzero"/></clipPath><clipPath id="596e32e74d"><path d="M 30.730469 34.300781 L 59.136719 22.882812 L 81.136719 77.617188 L 52.730469 89.035156 Z M 30.730469 34.300781 " clip-rule="nonzero"/></clipPath><clipPath id="4991cdb804"><path d="M 50 67 L 59 67 L 59 76 L 50 76 Z M 50 67 " clip-rule="nonzero"/></clipPath><clipPath id="48e3837270"><path d="M 30.730469 34.300781 L 59.136719 22.882812 L 81.136719 77.617188 L 52.730469 89.035156 Z M 30.730469 34.300781 " clip-rule="nonzero"/></clipPath><clipPath id="960de59b29"><path d="M 30.730469 34.300781 L 59.136719 22.882812 L 81.136719 77.617188 L 52.730469 89.035156 Z M 30.730469 34.300781 " clip-rule="nonzero"/></clipPath><clipPath id="c4a2966f1f"><path d="M 30.730469 34.300781 L 59.136719 22.882812 L 81.136719 77.617188 L 52.730469 89.035156 Z M 30.730469 34.300781 " clip-rule="nonzero"/></clipPath><clipPath id="98604e0a9d"><path d="M 50 66 L 60 66 L 60 76 L 50 76 Z M 50 66 " clip-rule="nonzero"/></clipPath><clipPath id="d8c3d0eea3"><path d="M 30.730469 34.300781 L 59.136719 22.882812 L 81.136719 77.617188 L 52.730469 89.035156 Z M 30.730469 34.300781 " clip-rule="nonzero"/></clipPath><clipPath id="86e3839188"><path d="M 30.730469 34.300781 L 59.136719 22.882812 L 81.136719 77.617188 L 52.730469 89.035156 Z M 30.730469 34.300781 " clip-rule="nonzero"/></clipPath><clipPath id="922d516b6a"><path d="M 30.730469 34.300781 L 59.136719 22.882812 L 81.136719 77.617188 L 52.730469 89.035156 Z M 30.730469 34.300781 " clip-rule="nonzero"/></clipPath></defs><g clip-path="url(#63e5f451fc)"><g clip-path="url(#b3a7b4db39)"><path fill="#3d8778" d="M 0 0 L 112.003906 0 L 112.003906 112.003906 L 0 112.003906 Z M 0 0 " fill-opacity="1" fill-rule="nonzero"/></g></g><g clip-path="url(#3c113a676e)"><g clip-path="url(#6e17f3fc46)"><path fill="#00d1a7" d="M 12.695312 57.441406 L 20.25 57.441406 L 20.25 64.992188 L 12.695312 64.992188 Z M 12.695312 57.441406 " fill-opacity="1" fill-rule="nonzero"/></g></g><g fill="#000000" fill-opacity="1"><g transform="translate(17.119897, 50.423556)"><g><path d="M -5.90625 -7.75 L -4.65625 -7.421875 L -5.546875 -4.140625 L -3.578125 -3.59375 L -2.78125 -6.5625 L -1.5625 -6.234375 L -2.359375 -3.265625 L 0.671875 -2.4375 L 0.265625 -0.96875 L -7.203125 -3 Z M -5.90625 -7.75 "/></g></g></g><g fill="#000000" fill-opacity="1"><g transform="translate(20.44247, 40.608567)"><g><path d="M 1.203125 -2.21875 L 0.46875 -0.875 L -6.328125 -4.5625 L -5.59375 -5.90625 Z M 1.203125 -2.21875 "/></g></g></g><g fill="#000000" fill-opacity="1"><g transform="translate(24.3208, 34.023904)"><g><path d="M 0.671875 -0.734375 L -5.046875 -5.9375 L -2.953125 -8.25 C -2.410156 -8.84375 -1.863281 -9.164062 -1.3125 -9.21875 C -0.769531 -9.28125 -0.257812 -9.085938 0.21875 -8.640625 C 0.5625 -8.328125 0.765625 -7.984375 0.828125 -7.609375 C 0.890625 -7.234375 0.816406 -6.8125 0.609375 -6.34375 L 0.703125 -6.265625 C 0.941406 -6.390625 1.191406 -6.4375 1.453125 -6.40625 C 1.710938 -6.375 2.03125 -6.269531 2.40625 -6.09375 L 4.640625 -5.109375 L 3.578125 -3.9375 L 1.359375 -4.953125 C 1.140625 -5.035156 0.953125 -5.085938 0.796875 -5.109375 C 0.640625 -5.128906 0.488281 -5.101562 0.34375 -5.03125 C 0.195312 -4.957031 0.046875 -4.832031 -0.109375 -4.65625 L -0.671875 -4.046875 L 1.703125 -1.875 Z M -0.640625 -5.890625 C -0.140625 -6.441406 -0.144531 -6.945312 -0.65625 -7.40625 C -1.175781 -7.882812 -1.6875 -7.847656 -2.1875 -7.296875 L -3.125 -6.265625 L -1.578125 -4.859375 Z M -0.640625 -5.890625 "/></g></g></g><g fill="#000000" fill-opacity="1"><g transform="translate(32.282483, 26.143018)"><g><path d="M 2.984375 -1.71875 C 2.523438 -1.4375 2.082031 -1.238281 1.65625 -1.125 C 1.238281 -1.007812 0.847656 -0.972656 0.484375 -1.015625 C 0.128906 -1.054688 -0.171875 -1.144531 -0.421875 -1.28125 L -0.25 -2.59375 L -0.140625 -2.65625 C 0.234375 -2.488281 0.628906 -2.414062 1.046875 -2.4375 C 1.460938 -2.457031 1.875 -2.59375 2.28125 -2.84375 C 2.625 -3.050781 2.835938 -3.285156 2.921875 -3.546875 C 3.015625 -3.804688 2.976562 -4.066406 2.8125 -4.328125 C 2.71875 -4.484375 2.609375 -4.59375 2.484375 -4.65625 C 2.367188 -4.726562 2.222656 -4.757812 2.046875 -4.75 C 1.867188 -4.738281 1.648438 -4.691406 1.390625 -4.609375 L 0.421875 -4.28125 C -0.253906 -4.050781 -0.832031 -4 -1.3125 -4.125 C -1.800781 -4.257812 -2.203125 -4.582031 -2.515625 -5.09375 C -2.742188 -5.457031 -2.851562 -5.835938 -2.84375 -6.234375 C -2.832031 -6.640625 -2.695312 -7.03125 -2.4375 -7.40625 C -2.1875 -7.789062 -1.8125 -8.132812 -1.3125 -8.4375 C -0.8125 -8.75 -0.335938 -8.945312 0.109375 -9.03125 C 0.554688 -9.113281 0.992188 -9.097656 1.421875 -8.984375 L 1.3125 -7.71875 L 1.203125 -7.640625 C 0.898438 -7.710938 0.597656 -7.722656 0.296875 -7.671875 C -0.00390625 -7.628906 -0.3125 -7.507812 -0.625 -7.3125 C -0.976562 -7.09375 -1.207031 -6.859375 -1.3125 -6.609375 C -1.414062 -6.367188 -1.398438 -6.140625 -1.265625 -5.921875 C -1.140625 -5.722656 -0.972656 -5.597656 -0.765625 -5.546875 C -0.554688 -5.503906 -0.269531 -5.550781 0.09375 -5.6875 L 1.078125 -6.046875 C 1.796875 -6.304688 2.394531 -6.363281 2.875 -6.21875 C 3.363281 -6.070312 3.769531 -5.738281 4.09375 -5.21875 C 4.34375 -4.8125 4.472656 -4.398438 4.484375 -3.984375 C 4.503906 -3.566406 4.382812 -3.160156 4.125 -2.765625 C 3.875 -2.378906 3.492188 -2.03125 2.984375 -1.71875 Z M 2.984375 -1.71875 "/></g></g></g><g fill="#000000" fill-opacity="1"><g transform="translate(41.60905, 21.012034)"><g><path d="M 3.765625 -9.171875 L 4.125 -7.9375 L 1.984375 -7.3125 L 3.8125 -1.125 L 2.359375 -0.6875 L 0.53125 -6.875 L -1.625 -6.25 L -1.984375 -7.484375 Z M 3.765625 -9.171875 "/></g></g></g><g fill="#000000" fill-opacity="1"><g transform="translate(51.892763, 18.678481)"><g/></g></g><g fill="#000000" fill-opacity="1"><g transform="translate(58.551055, 18.388476)"><g><path d="M 5.09375 -6.9375 C 6.320312 -6.726562 7.203125 -6.242188 7.734375 -5.484375 C 8.273438 -4.734375 8.429688 -3.726562 8.203125 -2.46875 C 7.984375 -1.207031 7.488281 -0.316406 6.71875 0.203125 C 5.957031 0.722656 4.960938 0.878906 3.734375 0.671875 L 0.984375 0.171875 L 2.34375 -7.4375 Z M 3.859375 -0.625 C 4.640625 -0.476562 5.257812 -0.570312 5.71875 -0.90625 C 6.1875 -1.25 6.5 -1.863281 6.65625 -2.75 C 6.820312 -3.644531 6.742188 -4.328125 6.421875 -4.796875 C 6.097656 -5.265625 5.546875 -5.570312 4.765625 -5.71875 L 3.625 -5.921875 L 2.71875 -0.828125 Z M 3.859375 -0.625 "/></g></g></g><g fill="#000000" fill-opacity="1"><g transform="translate(70.410343, 21.163637)"><g><path d="M 0.890625 0.453125 L 4.421875 -6.4375 L 7.1875 -5.015625 C 7.90625 -4.648438 8.363281 -4.207031 8.5625 -3.6875 C 8.757812 -3.175781 8.707031 -2.628906 8.40625 -2.046875 C 8.1875 -1.628906 7.898438 -1.34375 7.546875 -1.1875 C 7.203125 -1.03125 6.78125 -0.988281 6.28125 -1.0625 L 6.234375 -0.96875 C 6.398438 -0.757812 6.503906 -0.523438 6.546875 -0.265625 C 6.585938 -0.015625 6.570312 0.316406 6.5 0.734375 L 6.140625 3.140625 L 4.75 2.421875 L 5.125 0.03125 C 5.15625 -0.207031 5.160156 -0.40625 5.140625 -0.5625 C 5.117188 -0.726562 5.050781 -0.867188 4.9375 -0.984375 C 4.832031 -1.109375 4.671875 -1.222656 4.453125 -1.328125 L 3.71875 -1.703125 L 2.25 1.15625 Z M 5.5 -2.171875 C 6.175781 -1.828125 6.671875 -1.960938 6.984375 -2.578125 C 7.304688 -3.203125 7.128906 -3.6875 6.453125 -4.03125 L 5.21875 -4.65625 L 4.265625 -2.796875 Z M 5.5 -2.171875 "/></g></g></g><g fill="#000000" fill-opacity="1"><g transform="translate(80.09801, 26.739187)"><g><path d="M 5.375 5.125 L 4.203125 4.015625 L 5.015625 2.328125 L 2.875 0.28125 L 1.21875 1.171875 L 0.078125 0.078125 L 7.375 -3.65625 L 8.78125 -2.3125 Z M 6.90625 -1.890625 L 4.0625 -0.375 L 5.609375 1.09375 L 7 -1.8125 Z M 6.90625 -1.890625 "/></g></g></g><g fill="#000000" fill-opacity="1"><g transform="translate(87.970818, 35.130627)"><g><path d="M 9.671875 1.1875 L 8.5625 1.84375 L 6.84375 -1.078125 L 5.078125 -0.046875 L 6.640625 2.59375 L 5.546875 3.234375 L 3.984375 0.59375 L 1.28125 2.1875 L 0.5 0.859375 L 7.171875 -3.0625 Z M 9.671875 1.1875 "/></g></g></g><g fill="#000000" fill-opacity="1"><g transform="translate(92.722171, 44.236654)"><g><path d="M 9.09375 3.9375 L 7.859375 4.28125 L 7.265625 2.125 L 1.046875 3.828125 L 0.65625 2.359375 L 6.875 0.65625 L 6.28125 -1.484375 L 7.515625 -1.828125 Z M 9.09375 3.9375 "/></g></g></g><g fill="#000000" fill-opacity="1"><g transform="translate(17.379339, 75.103828)"><g><path d="M 2.03125 3.71875 C 1.664062 3.101562 1.472656 2.484375 1.453125 1.859375 C 1.441406 1.242188 1.617188 0.65625 1.984375 0.09375 C 2.347656 -0.46875 2.910156 -0.96875 3.671875 -1.40625 C 4.410156 -1.84375 5.113281 -2.078125 5.78125 -2.109375 C 6.457031 -2.148438 7.054688 -2.007812 7.578125 -1.6875 C 8.109375 -1.363281 8.554688 -0.894531 8.921875 -0.28125 C 9.285156 0.363281 9.472656 0.984375 9.484375 1.578125 C 9.503906 2.171875 9.3125 2.71875 8.90625 3.21875 L 7.75 2.59375 L 7.6875 2.484375 C 7.957031 2.128906 8.09375 1.785156 8.09375 1.453125 C 8.101562 1.117188 8 0.757812 7.78125 0.375 C 7.457031 -0.175781 7.019531 -0.5 6.46875 -0.59375 C 5.914062 -0.6875 5.242188 -0.503906 4.453125 -0.046875 C 3.648438 0.410156 3.15625 0.898438 2.96875 1.421875 C 2.78125 1.953125 2.847656 2.492188 3.171875 3.046875 C 3.671875 3.921875 4.398438 4.210938 5.359375 3.921875 L 5.421875 4.015625 L 5.5 5.3125 C 4.75 5.476562 4.085938 5.4375 3.515625 5.1875 C 2.941406 4.9375 2.445312 4.445312 2.03125 3.71875 Z M 2.03125 3.71875 "/></g></g></g><g fill="#000000" fill-opacity="1"><g transform="translate(23.379903, 84.578079)"><g><path d="M 2.953125 3.015625 C 2.441406 2.523438 2.085938 1.988281 1.890625 1.40625 C 1.703125 0.820312 1.707031 0.207031 1.90625 -0.4375 C 2.113281 -1.082031 2.523438 -1.722656 3.140625 -2.359375 C 3.753906 -2.992188 4.375 -3.414062 5 -3.625 C 5.632812 -3.84375 6.25 -3.863281 6.84375 -3.6875 C 7.4375 -3.519531 7.988281 -3.191406 8.5 -2.703125 C 9.007812 -2.210938 9.351562 -1.671875 9.53125 -1.078125 C 9.71875 -0.492188 9.71875 0.113281 9.53125 0.75 C 9.34375 1.394531 8.941406 2.035156 8.328125 2.671875 C 7.710938 3.304688 7.082031 3.734375 6.4375 3.953125 C 5.789062 4.171875 5.175781 4.191406 4.59375 4.015625 C 4.007812 3.835938 3.460938 3.503906 2.953125 3.015625 Z M 3.875 2.0625 C 4.34375 2.519531 4.847656 2.71875 5.390625 2.65625 C 5.941406 2.601562 6.539062 2.242188 7.1875 1.578125 C 7.820312 0.921875 8.160156 0.316406 8.203125 -0.234375 C 8.253906 -0.785156 8.046875 -1.289062 7.578125 -1.75 C 7.109375 -2.207031 6.597656 -2.40625 6.046875 -2.34375 C 5.492188 -2.28125 4.898438 -1.921875 4.265625 -1.265625 C 3.617188 -0.597656 3.273438 0.00390625 3.234375 0.546875 C 3.191406 1.097656 3.40625 1.601562 3.875 2.0625 Z M 3.875 2.0625 "/></g></g></g><g fill="#000000" fill-opacity="1"><g transform="translate(32.426949, 92.72285)"><g><path d="M 2.15625 1.078125 L 0.890625 0.453125 L 4.359375 -6.46875 L 6.15625 -5.578125 L 5.359375 0.390625 L 5.46875 0.453125 L 9.75 -3.78125 L 11.5 -2.90625 L 8.03125 4.015625 L 6.734375 3.375 L 9.015625 -1.1875 L 8.90625 -1.28125 L 5.015625 2.515625 L 3.875 1.9375 L 4.578125 -3.453125 L 4.4375 -3.484375 Z M 2.15625 1.078125 "/></g></g></g><g fill="#000000" fill-opacity="1"><g transform="translate(44.927794, 98.155932)"><g><path d="M 5.296875 -6.90625 C 5.835938 -6.8125 6.285156 -6.628906 6.640625 -6.359375 C 6.992188 -6.097656 7.234375 -5.769531 7.359375 -5.375 C 7.484375 -4.976562 7.503906 -4.546875 7.421875 -4.078125 C 7.335938 -3.585938 7.164062 -3.1875 6.90625 -2.875 C 6.65625 -2.5625 6.316406 -2.335938 5.890625 -2.203125 C 5.460938 -2.066406 4.976562 -2.046875 4.4375 -2.140625 L 3 -2.40625 L 2.5 0.4375 L 0.984375 0.171875 L 2.34375 -7.4375 Z M 4.453125 -3.375 C 5.296875 -3.21875 5.785156 -3.539062 5.921875 -4.34375 C 6.066406 -5.144531 5.71875 -5.625 4.875 -5.78125 L 3.640625 -6 L 3.21875 -3.59375 Z M 4.453125 -3.375 "/></g></g></g><g fill="#000000" fill-opacity="1"><g transform="translate(55.404253, 99.538808)"><g><path d="M 2.03125 -7.890625 L 2.453125 -1.453125 L 5.921875 -1.671875 L 6 -0.390625 L 1 -0.0625 L 0.5 -7.78125 Z M 2.03125 -7.890625 "/></g></g></g><g fill="#000000" fill-opacity="1"><g transform="translate(65.101362, 98.517206)"><g><path d="M 1.40625 -4 L 2.046875 -1.96875 L 5.578125 -3.0625 L 5.953125 -1.84375 L 0.953125 -0.296875 L -1.34375 -7.6875 L 3.5625 -9.203125 L 3.953125 -7.96875 L 0.515625 -6.90625 L 1.046875 -5.203125 L 4.0625 -6.140625 L 4.421875 -4.9375 Z M 1.40625 -4 "/></g></g></g><g fill="#000000" fill-opacity="1"><g transform="translate(74.65076, 95.105428)"><g><path d="M 1.359375 -9.8125 L 2.015625 -8.71875 L 0.09375 -7.578125 L 3.40625 -2.03125 L 2.109375 -1.25 L -1.203125 -6.796875 L -3.125 -5.65625 L -3.78125 -6.75 Z M 1.359375 -9.8125 "/></g></g></g><g fill="#000000" fill-opacity="1"><g transform="translate(82.943931, 89.691118)"><g><path d="M -0.578125 -4.203125 L 0.921875 -2.6875 L 3.5625 -5.28125 L 4.453125 -4.359375 L 0.71875 -0.703125 L -4.703125 -6.21875 L -1.03125 -9.8125 L -0.125 -8.90625 L -2.703125 -6.375 L -1.453125 -5.09375 L 0.796875 -7.3125 L 1.671875 -6.421875 Z M -0.578125 -4.203125 "/></g></g></g><g fill="#000000" fill-opacity="1"><g transform="translate(89.990291, 82.268469)"><g><path d="M -4.71875 -7.203125 C -4.082031 -8.273438 -3.316406 -8.929688 -2.421875 -9.171875 C -1.535156 -9.421875 -0.539062 -9.21875 0.5625 -8.5625 C 1.65625 -7.914062 2.316406 -7.140625 2.546875 -6.234375 C 2.773438 -5.328125 2.570312 -4.335938 1.9375 -3.265625 L 0.515625 -0.859375 L -6.140625 -4.796875 Z M 0.78125 -3.84375 C 1.175781 -4.519531 1.296875 -5.132812 1.140625 -5.6875 C 0.992188 -6.238281 0.535156 -6.742188 -0.234375 -7.203125 C -1.015625 -7.660156 -1.679688 -7.820312 -2.234375 -7.6875 C -2.796875 -7.550781 -3.273438 -7.144531 -3.671875 -6.46875 L -4.28125 -5.453125 L 0.171875 -2.828125 Z M 0.78125 -3.84375 "/></g></g></g><g clip-path="url(#2a57b65ea6)"><g clip-path="url(#eaab3ef6f6)"><path fill="#00d1a7" d="M 91.753906 57.441406 L 99.304688 57.441406 L 99.304688 64.992188 L 91.753906 64.992188 Z M 91.753906 57.441406 " fill-opacity="1" fill-rule="nonzero"/></g></g><g mask="url(#197b4b7281)"><g transform="matrix(1, 0, 0, 1, 21, 20)"><g clip-path="url(#495713d565)"><g clip-path="url(#5b9ebbbd02)"><path fill="#ffffff" d="M 41.050781 62.734375 C 41.117188 62.75 41.191406 62.734375 41.246094 62.683594 C 41.609375 62.335938 41.089844 60.59375 39.9375 56.683594 C 39.9375 56.683594 39.082031 53.769531 38.285156 51.027344 C 37.863281 49.582031 37.53125 48.398438 37.3125 47.625 C 37.488281 48.40625 37.765625 49.605469 38.082031 51.078125 C 38.300781 52.078125 38.648438 53.664062 39.328125 56.835938 C 40.191406 60.820312 40.558594 62.597656 41.042969 62.734375 Z M 55.535156 56.398438 C 55.609375 56.378906 55.667969 56.320312 55.6875 56.246094 C 55.828125 55.765625 54.5 54.515625 51.542969 51.703125 C 51.542969 51.703125 49.339844 49.605469 47.273438 47.625 C 46.183594 46.582031 45.300781 45.726562 44.722656 45.164062 C 45.269531 45.753906 46.105469 46.660156 47.121094 47.769531 C 47.816406 48.523438 48.910156 49.726562 51.09375 52.132812 C 53.828125 55.164062 55.042969 56.519531 55.535156 56.398438 Z M 63.796875 42.179688 C 63.851562 42.125 63.871094 42.050781 63.855469 41.980469 C 63.734375 41.492188 61.957031 41.078125 57.988281 40.109375 C 57.988281 40.109375 55.027344 39.390625 52.242188 38.707031 C 50.777344 38.34375 49.582031 38.042969 48.800781 37.84375 C 49.570312 38.082031 50.75 38.445312 52.1875 38.90625 C 53.164062 39.21875 54.71875 39.710938 57.816406 40.710938 C 61.703125 41.96875 63.4375 42.535156 63.796875 42.1875 Z M 5.8125 41.324219 C 5.796875 41.398438 5.816406 41.472656 5.863281 41.527344 C 6.214844 41.886719 7.972656 41.375 11.882812 40.222656 C 11.882812 40.222656 14.808594 39.367188 17.5625 38.566406 C 19.015625 38.152344 20.203125 37.816406 20.976562 37.597656 C 20.191406 37.777344 18.988281 38.050781 17.515625 38.367188 C 16.511719 38.585938 14.917969 38.929688 11.734375 39.609375 C 7.734375 40.476562 5.949219 40.847656 5.8125 41.324219 Z M 13.675781 55.765625 C 13.695312 55.839844 13.75 55.898438 13.824219 55.914062 C 14.308594 56.054688 15.5625 54.734375 18.386719 51.785156 C 18.386719 51.785156 20.492188 49.589844 22.480469 47.527344 C 23.535156 46.445312 24.386719 45.5625 24.953125 44.988281 C 24.359375 45.535156 23.449219 46.367188 22.335938 47.378906 C 21.574219 48.070312 20.367188 49.164062 17.953125 51.335938 C 14.910156 54.074219 13.550781 55.285156 13.675781 55.765625 Z M 27.933594 62.507812 C 27.984375 62.558594 28.058594 62.578125 28.132812 62.5625 C 28.621094 62.441406 29.046875 60.671875 30.011719 56.714844 C 30.011719 56.714844 30.734375 53.761719 31.421875 50.988281 C 31.785156 49.527344 32.085938 48.335938 32.285156 47.558594 C 32.046875 48.324219 31.683594 49.5 31.21875 50.933594 C 30.90625 51.910156 30.410156 53.457031 29.414062 56.542969 C 28.144531 60.417969 27.574219 62.148438 27.925781 62.507812 Z M 50.796875 63.019531 C 50.886719 63.015625 50.96875 62.96875 51.011719 62.894531 C 51.3125 62.371094 50.148438 60.53125 47.554688 56.394531 C 47.554688 56.394531 45.617188 53.3125 43.804688 50.402344 C 42.851562 48.875 42.078125 47.617188 41.578125 46.792969 C 42.039062 47.636719 42.738281 48.933594 43.589844 50.523438 C 44.167969 51.609375 45.085938 53.324219 46.898438 56.765625 C 49.183594 61.085938 50.195312 63.019531 50.796875 63.019531 Z M 63.574219 50.472656 C 63.652344 50.425781 63.699219 50.34375 63.699219 50.253906 C 63.699219 49.652344 61.769531 48.644531 57.453125 46.359375 C 57.453125 46.359375 54.234375 44.65625 51.210938 43.050781 C 49.621094 42.203125 48.324219 41.5 47.480469 41.039062 C 48.300781 41.542969 49.554688 42.316406 51.089844 43.265625 C 52.132812 43.917969 53.785156 44.945312 57.078125 47.015625 C 61.214844 49.605469 63.058594 50.773438 63.574219 50.472656 Z M 6.320312 50.273438 C 6.320312 50.363281 6.367188 50.445312 6.445312 50.492188 C 6.964844 50.792969 8.804688 49.628906 12.941406 47.03125 C 12.941406 47.03125 16.023438 45.097656 18.933594 43.285156 C 20.464844 42.332031 21.71875 41.558594 22.542969 41.058594 C 21.695312 41.519531 20.402344 42.21875 18.808594 43.066406 C 17.722656 43.648438 16.007812 44.5625 12.570312 46.378906 C 8.25 48.664062 6.316406 49.671875 6.320312 50.273438 Z M 19.015625 62.902344 C 19.0625 62.980469 19.140625 63.027344 19.230469 63.027344 C 19.832031 63.027344 20.84375 61.097656 23.125 56.78125 C 23.125 56.78125 24.828125 53.5625 26.4375 50.539062 C 27.285156 48.949219 27.984375 47.652344 28.445312 46.808594 C 27.945312 47.628906 27.171875 48.886719 26.21875 50.417969 C 25.570312 51.460938 24.542969 53.113281 22.472656 56.40625 C 19.886719 60.542969 18.710938 62.382812 19.015625 62.902344 Z M 34.890625 67.015625 C 34.96875 67.058594 35.0625 67.058594 35.140625 67.015625 C 35.664062 66.714844 35.570312 64.539062 35.390625 59.660156 C 35.390625 59.660156 35.253906 56.019531 35.140625 52.597656 C 35.082031 50.789062 35.039062 49.320312 35.015625 48.359375 C 34.992188 49.320312 34.949219 50.792969 34.890625 52.597656 C 34.847656 53.824219 34.785156 55.769531 34.640625 59.65625 C 34.460938 64.539062 34.367188 66.71875 34.890625 67.015625 Z M 41.042969 4.726562 C 41.117188 4.707031 41.191406 4.722656 41.246094 4.773438 C 41.609375 5.121094 41.089844 6.863281 39.9375 10.773438 C 39.9375 10.773438 39.082031 13.6875 38.285156 16.429688 C 37.863281 17.875 37.53125 19.058594 37.3125 19.832031 C 37.488281 19.046875 37.765625 17.847656 38.082031 16.378906 C 38.300781 15.378906 38.648438 13.792969 39.328125 10.621094 C 40.191406 6.640625 40.558594 4.859375 41.042969 4.726562 Z M 55.535156 11.0625 C 55.609375 11.082031 55.667969 11.136719 55.6875 11.210938 C 55.828125 11.691406 54.5 12.941406 51.542969 15.753906 C 51.542969 15.753906 49.339844 17.851562 47.273438 19.832031 C 46.183594 20.875 45.300781 21.730469 44.722656 22.292969 C 45.269531 21.703125 46.105469 20.800781 47.121094 19.6875 C 47.816406 18.933594 48.910156 17.730469 51.09375 15.324219 C 53.828125 12.292969 55.042969 10.9375 55.535156 11.0625 Z M 63.796875 25.277344 C 63.851562 25.328125 63.871094 25.40625 63.855469 25.476562 C 63.734375 25.964844 61.957031 26.378906 57.988281 27.347656 C 57.988281 27.347656 55.027344 28.066406 52.242188 28.75 C 50.777344 29.109375 49.582031 29.414062 48.800781 29.613281 C 49.570312 29.375 50.75 29.011719 52.1875 28.550781 C 53.164062 28.238281 54.71875 27.746094 57.816406 26.746094 C 61.703125 25.488281 63.4375 24.929688 63.796875 25.273438 Z M 5.8125 26.132812 C 5.792969 26.058594 5.8125 25.984375 5.863281 25.929688 C 6.214844 25.566406 7.972656 26.089844 11.882812 27.234375 C 11.882812 27.234375 14.808594 28.089844 17.5625 28.882812 C 19.015625 29.300781 20.203125 29.632812 20.976562 29.851562 C 20.191406 29.671875 18.988281 29.398438 17.515625 29.082031 C 16.511719 28.867188 14.917969 28.519531 11.734375 27.839844 C 7.734375 26.984375 5.949219 26.613281 5.8125 26.132812 Z M 13.675781 11.691406 C 13.695312 11.617188 13.75 11.558594 13.824219 11.539062 C 14.308594 11.402344 15.5625 12.722656 18.386719 15.667969 C 18.386719 15.667969 20.492188 17.867188 22.480469 19.925781 C 23.535156 21.011719 24.386719 21.894531 24.953125 22.464844 C 24.359375 21.921875 23.449219 21.089844 22.335938 20.078125 C 21.574219 19.386719 20.367188 18.296875 17.953125 16.121094 C 14.910156 13.386719 13.550781 12.171875 13.675781 11.691406 Z M 27.933594 4.953125 C 27.984375 4.902344 28.058594 4.878906 28.132812 4.898438 C 28.621094 5.019531 29.046875 6.789062 30.011719 10.746094 C 30.011719 10.746094 30.734375 13.695312 31.421875 16.46875 C 31.785156 17.929688 32.085938 19.121094 32.285156 19.898438 C 32.046875 19.132812 31.683594 17.960938 31.21875 16.527344 C 30.90625 15.550781 30.410156 14.003906 29.414062 10.917969 C 28.144531 7.039062 27.574219 5.3125 27.925781 4.953125 Z M 50.796875 4.441406 C 50.886719 4.441406 50.96875 4.492188 51.011719 4.566406 C 51.3125 5.085938 50.148438 6.925781 47.554688 11.0625 C 47.554688 11.0625 45.617188 14.148438 43.804688 17.054688 C 42.851562 18.585938 42.078125 19.84375 41.578125 20.664062 C 42.039062 19.820312 42.738281 18.523438 43.589844 16.933594 C 44.167969 15.847656 45.085938 14.132812 46.898438 10.691406 C 49.183594 6.371094 50.195312 4.4375 50.796875 4.441406 Z M 63.574219 16.988281 C 63.652344 17.035156 63.699219 17.117188 63.699219 17.203125 C 63.699219 17.804688 61.769531 18.816406 57.453125 21.097656 C 57.453125 21.097656 54.234375 22.800781 51.210938 24.40625 C 49.621094 25.257812 48.324219 25.960938 47.480469 26.417969 C 48.300781 25.917969 49.554688 25.144531 51.089844 24.191406 C 52.132812 23.542969 53.785156 22.515625 57.078125 20.445312 C 61.214844 17.859375 63.058594 16.683594 63.574219 16.988281 Z M 69.792969 33.617188 C 69.835938 33.691406 69.835938 33.789062 69.792969 33.867188 C 69.492188 34.386719 67.316406 34.296875 62.433594 34.113281 C 62.433594 34.113281 58.796875 33.980469 55.371094 33.867188 C 53.566406 33.804688 52.097656 33.765625 51.136719 33.742188 C 52.097656 33.714844 53.570312 33.675781 55.371094 33.617188 C 56.601562 33.574219 58.546875 33.511719 62.433594 33.367188 C 67.316406 33.183594 69.496094 33.09375 69.792969 33.617188 Z M 0.214844 33.839844 C 0.171875 33.765625 0.171875 33.667969 0.214844 33.589844 C 0.515625 33.070312 2.691406 33.160156 7.570312 33.34375 C 7.570312 33.34375 11.210938 33.476562 14.640625 33.589844 C 16.445312 33.652344 17.917969 33.691406 18.878906 33.714844 C 17.917969 33.742188 16.441406 33.78125 14.640625 33.839844 C 13.414062 33.882812 11.46875 33.945312 7.582031 34.089844 C 2.691406 34.273438 0.511719 34.363281 0.214844 33.839844 Z M 6.320312 17.191406 C 6.320312 17.101562 6.367188 17.019531 6.445312 16.972656 C 6.964844 16.671875 8.804688 17.839844 12.941406 20.433594 C 12.941406 20.433594 16.023438 22.371094 18.933594 24.183594 C 20.464844 25.136719 21.71875 25.90625 22.542969 26.410156 C 21.695312 25.957031 20.402344 25.246094 18.808594 24.398438 C 17.722656 23.820312 16.007812 22.902344 12.570312 21.089844 C 8.25 18.796875 6.316406 17.785156 6.320312 17.183594 Z M 19.015625 4.554688 C 19.0625 4.480469 19.140625 4.429688 19.230469 4.429688 C 19.832031 4.429688 20.84375 6.359375 23.125 10.675781 C 23.125 10.675781 24.828125 13.898438 26.4375 16.921875 C 27.285156 18.511719 27.984375 19.804688 28.445312 20.652344 C 27.945312 19.832031 27.171875 18.574219 26.21875 17.042969 C 25.570312 16 24.542969 14.347656 22.472656 11.050781 C 19.886719 6.917969 18.710938 5.074219 19.015625 4.554688 Z M 34.890625 0.441406 C 34.96875 0.398438 35.0625 0.398438 35.140625 0.441406 C 35.664062 0.742188 35.570312 2.921875 35.390625 7.800781 C 35.390625 7.800781 35.253906 11.441406 35.140625 14.871094 C 35.082031 16.675781 35.039062 18.148438 35.015625 19.109375 C 34.992188 18.148438 34.949219 16.671875 34.890625 14.871094 C 34.847656 13.644531 34.785156 11.695312 34.640625 7.808594 C 34.460938 2.921875 34.367188 0.742188 34.890625 0.441406 " fill-opacity="1" fill-rule="nonzero"/></g></g></g></g><g clip-path="url(#4e282cbf50)"><g clip-path="url(#5ae5a22a03)"><g clip-path="url(#f2a2750153)"><g clip-path="url(#dc58af499f)"><path fill="#dac0b7" d="M 75.460938 77.640625 L 68.5625 74.535156 C 67.832031 74.324219 67.152344 73.164062 67.691406 72.632812 L 72.535156 67.875 C 73.070312 67.347656 74.191406 68.074219 74.378906 68.8125 L 77.285156 75.839844 L 75.460938 77.640625 " fill-opacity="1" fill-rule="nonzero"/></g></g></g></g><g clip-path="url(#436d8d41d8)"><g clip-path="url(#440b7529ec)"><g clip-path="url(#91f7770e72)"><g clip-path="url(#7a033d05c9)"><path stroke-linecap="round" transform="matrix(0.0232258, -0.00933577, -0.00945161, -0.023514, 26.772969, 125.802904)" fill="none" stroke-linejoin="round" d="M 2522.287768 1046.815345 L 2312.85426 1262.036164 C 2288.920966 1280.509165 2281.012631 1332.988073 2308.909165 1344.505244 L 2559.339191 1447.416654 C 2587.032733 1458.848295 2617.762796 1415.748297 2613.712964 1385.958629 L 2616.735963 1085.899974 Z M 2522.287768 1046.815345 " stroke="#000000" stroke-width="40" stroke-opacity="1" stroke-miterlimit="10"/></g></g></g></g><g clip-path="url(#694e94e3f4)"><g clip-path="url(#21150f2250)"><g clip-path="url(#247c23af4a)"><g clip-path="url(#3c7aa17677)"><path fill="#000000" d="M 77.230469 75.714844 L 77.898438 77.339844 C 78.082031 78.070312 77.644531 78.496094 76.929688 78.292969 L 75.339844 77.582031 L 77.230469 75.714844 " fill-opacity="1" fill-rule="nonzero"/></g></g></g></g><g clip-path="url(#87b76a4a07)"><g clip-path="url(#7a27a74763)"><g clip-path="url(#764fdeda12)"><g clip-path="url(#eba4eb4d78)"><path stroke-linecap="round" transform="matrix(0.0232258, -0.00933577, -0.00945161, -0.023514, 26.772969, 125.802904)" fill="none" stroke-linejoin="round" d="M 2616.571283 1091.281349 L 2617.119411 1021.955828 C 2612.954596 992.710186 2590.480653 983.35932 2567.010126 1001.316339 L 2518.672219 1050.742702 Z M 2616.571283 1091.281349 " stroke="#000000" stroke-width="40" stroke-opacity="1" stroke-miterlimit="10"/></g></g></g></g><g clip-path="url(#13c45ec16f)"><g clip-path="url(#12c032dccb)"><g clip-path="url(#e1726dbb24)"><g clip-path="url(#df2608e3e5)"><path fill="#ef2e68" d="M 33.28125 38.480469 C 32.847656 38.039062 32.855469 37.328125 33.289062 36.898438 L 37.832031 32.414062 C 38.269531 31.980469 38.972656 31.992188 39.402344 32.4375 L 43.214844 36.363281 C 43.644531 36.808594 43.640625 37.519531 43.203125 37.949219 L 38.660156 42.433594 C 38.222656 42.863281 37.523438 42.851562 37.089844 42.410156 L 33.28125 38.480469 " fill-opacity="1" fill-rule="nonzero"/></g></g></g></g><g clip-path="url(#7ba1244528)"><g clip-path="url(#162a564566)"><g clip-path="url(#6acb2df487)"><g clip-path="url(#7016ddb04a)"><path fill="#000000" d="M 40.21875 33.996094 L 40.394531 34.179688 C 40.492188 34.277344 40.609375 34.332031 40.746094 34.332031 C 40.886719 34.335938 41.003906 34.285156 41.101562 34.1875 C 41.203125 34.09375 41.25 33.972656 41.253906 33.832031 C 41.253906 33.695312 41.203125 33.574219 41.109375 33.472656 L 40.929688 33.292969 C 40.835938 33.191406 40.714844 33.140625 40.578125 33.140625 C 40.4375 33.136719 40.320312 33.183594 40.222656 33.28125 C 40.125 33.378906 40.074219 33.496094 40.074219 33.636719 C 40.070312 33.777344 40.121094 33.898438 40.21875 33.996094 Z M 41.273438 35.085938 L 42.859375 36.71875 C 42.976562 36.839844 43.035156 36.984375 43.03125 37.15625 C 43.03125 37.324219 42.972656 37.46875 42.851562 37.585938 L 38.554688 41.824219 C 38.457031 41.921875 38.40625 42.042969 38.40625 42.179688 C 38.40625 42.320312 38.453125 42.441406 38.550781 42.542969 C 38.648438 42.640625 38.765625 42.691406 38.902344 42.695312 C 39.042969 42.699219 39.160156 42.648438 39.257812 42.550781 L 43.558594 38.3125 C 43.875 38 44.03125 37.617188 44.035156 37.167969 C 44.039062 36.722656 43.882812 36.335938 43.570312 36.011719 L 41.988281 34.382812 C 41.890625 34.28125 41.773438 34.230469 41.636719 34.226562 C 41.496094 34.226562 41.378906 34.273438 41.28125 34.371094 C 41.179688 34.46875 41.132812 34.585938 41.128906 34.726562 C 41.128906 34.867188 41.175781 34.984375 41.273438 35.085938 Z M 37.71875 42.222656 C 37.675781 42.207031 37.632812 42.191406 37.59375 42.167969 C 37.472656 42.101562 37.34375 42.089844 37.210938 42.128906 C 37.078125 42.167969 36.980469 42.25 36.914062 42.371094 C 36.847656 42.496094 36.835938 42.621094 36.878906 42.757812 C 36.917969 42.890625 37 42.992188 37.121094 43.058594 C 37.230469 43.117188 37.339844 43.164062 37.460938 43.195312 C 37.59375 43.234375 37.71875 43.21875 37.839844 43.148438 C 37.960938 43.082031 38.039062 42.980469 38.074219 42.84375 C 38.109375 42.710938 38.09375 42.582031 38.023438 42.460938 C 37.957031 42.339844 37.855469 42.257812 37.71875 42.222656 Z M 36.800781 41.390625 L 33.636719 38.128906 C 33.519531 38.007812 33.460938 37.863281 33.460938 37.691406 C 33.460938 37.523438 33.519531 37.378906 33.640625 37.261719 L 38.183594 32.773438 C 38.304688 32.65625 38.449219 32.601562 38.617188 32.601562 C 38.785156 32.605469 38.925781 32.667969 39.042969 32.789062 L 39.160156 32.910156 C 39.257812 33.007812 39.375 33.058594 39.515625 33.0625 C 39.652344 33.0625 39.769531 33.015625 39.871094 32.917969 C 39.96875 32.820312 40.019531 32.703125 40.019531 32.5625 C 40.019531 32.421875 39.972656 32.304688 39.875 32.203125 L 39.757812 32.085938 C 39.449219 31.761719 39.070312 31.597656 38.625 31.589844 C 38.179688 31.585938 37.796875 31.738281 37.480469 32.050781 L 32.9375 36.535156 C 32.621094 36.847656 32.460938 37.226562 32.457031 37.675781 C 32.453125 38.125 32.609375 38.511719 32.921875 38.832031 L 36.085938 42.097656 C 36.183594 42.195312 36.300781 42.246094 36.441406 42.25 C 36.578125 42.25 36.695312 42.203125 36.796875 42.105469 C 36.894531 42.007812 36.945312 41.890625 36.945312 41.75 C 36.945312 41.613281 36.898438 41.492188 36.800781 41.390625 Z M 36.800781 41.390625 " fill-opacity="1" fill-rule="nonzero"/></g></g></g></g><g clip-path="url(#84150a4d04)"><g clip-path="url(#365249d5a2)"><g clip-path="url(#abba0cefc0)"><g clip-path="url(#c6e2479b92)"><path fill="#ee8f42" d="M 68.191406 74.363281 C 68.179688 74.355469 68.109375 74.300781 68.101562 74.289062 L 40.375 45.742188 C 39.945312 45.304688 39.953125 44.597656 40.386719 44.171875 L 44.894531 39.722656 C 45.324219 39.292969 46.023438 39.304688 46.453125 39.746094 L 74.175781 68.375 C 74.1875 68.386719 74.257812 68.503906 74.265625 68.511719 L 72.796875 68.15625 L 73.101562 69.632812 L 71.261719 69.433594 L 71.480469 71.195312 L 69.648438 70.84375 L 69.773438 72.839844 L 68.019531 72.484375 L 68.191406 74.363281 " fill-opacity="1" fill-rule="nonzero"/></g></g></g></g><g clip-path="url(#10af399471)"><g clip-path="url(#21e94b93a6)"><g clip-path="url(#bbb84a97e3)"><g clip-path="url(#4e12801235)"><path fill="#000000" d="M 68.652344 63.390625 L 68.828125 63.574219 C 68.925781 63.675781 69.042969 63.726562 69.183594 63.726562 C 69.320312 63.730469 69.4375 63.683594 69.539062 63.585938 C 69.636719 63.488281 69.6875 63.371094 69.6875 63.230469 C 69.6875 63.089844 69.640625 62.96875 69.542969 62.871094 L 69.367188 62.6875 C 69.269531 62.589844 69.152344 62.535156 69.011719 62.535156 C 68.875 62.53125 68.757812 62.578125 68.65625 62.675781 C 68.558594 62.773438 68.507812 62.894531 68.507812 63.03125 C 68.507812 63.171875 68.554688 63.292969 68.652344 63.390625 Z M 69.707031 64.484375 L 73.816406 68.726562 L 74.175781 68.375 L 73.792969 68.699219 C 73.78125 68.6875 73.773438 68.675781 73.769531 68.667969 C 73.773438 68.671875 73.777344 68.679688 73.78125 68.6875 C 73.792969 68.703125 73.804688 68.722656 73.824219 68.753906 C 73.835938 68.773438 73.84375 68.785156 73.84375 68.789062 L 74.265625 68.511719 L 74.378906 68.023438 L 72.914062 67.664062 C 72.777344 67.632812 72.652344 67.652344 72.535156 67.726562 C 72.414062 67.796875 72.339844 67.902344 72.308594 68.039062 C 72.292969 68.109375 72.292969 68.183594 72.308594 68.253906 L 72.609375 69.730469 L 73.101562 69.632812 L 73.152344 69.128906 L 71.3125 68.929688 C 71.175781 68.914062 71.054688 68.949219 70.945312 69.039062 C 70.839844 69.125 70.777344 69.238281 70.765625 69.378906 C 70.761719 69.414062 70.761719 69.453125 70.765625 69.492188 L 70.984375 71.253906 L 71.480469 71.195312 L 71.570312 70.699219 L 69.738281 70.347656 C 69.601562 70.320312 69.476562 70.347656 69.363281 70.425781 C 69.25 70.503906 69.179688 70.613281 69.15625 70.75 C 69.148438 70.789062 69.144531 70.832031 69.148438 70.871094 L 69.273438 72.867188 L 69.773438 72.839844 L 69.867188 72.34375 L 68.113281 71.988281 C 67.980469 71.960938 67.851562 71.984375 67.738281 72.0625 C 67.625 72.140625 67.554688 72.246094 67.527344 72.382812 C 67.519531 72.433594 67.515625 72.480469 67.519531 72.527344 L 67.691406 74.40625 L 68.191406 74.363281 L 68.492188 73.960938 C 68.476562 73.949219 68.464844 73.9375 68.449219 73.929688 C 68.441406 73.921875 68.433594 73.914062 68.429688 73.910156 C 68.441406 73.921875 68.449219 73.929688 68.460938 73.941406 L 40.730469 45.390625 C 40.613281 45.269531 40.558594 45.128906 40.558594 44.960938 C 40.558594 44.792969 40.621094 44.652344 40.738281 44.535156 L 45.246094 40.085938 C 45.363281 39.96875 45.503906 39.910156 45.667969 39.914062 C 45.835938 39.917969 45.976562 39.980469 46.09375 40.097656 L 67.597656 62.300781 C 67.695312 62.402344 67.8125 62.453125 67.949219 62.457031 C 68.089844 62.457031 68.207031 62.410156 68.304688 62.3125 C 68.40625 62.214844 68.453125 62.097656 68.457031 61.957031 C 68.457031 61.820312 68.410156 61.699219 68.3125 61.597656 L 46.808594 39.394531 C 46.496094 39.074219 46.121094 38.910156 45.679688 38.902344 C 45.234375 38.894531 44.855469 39.046875 44.539062 39.359375 L 40.03125 43.808594 C 39.71875 44.121094 39.558594 44.5 39.554688 44.945312 C 39.550781 45.390625 39.707031 45.777344 40.019531 46.097656 L 67.738281 74.636719 C 67.765625 74.664062 67.816406 74.707031 67.890625 74.765625 C 67.996094 74.84375 68.109375 74.878906 68.238281 74.867188 C 68.375 74.855469 68.488281 74.796875 68.578125 74.6875 C 68.667969 74.582031 68.703125 74.460938 68.691406 74.320312 L 68.519531 72.441406 L 68.019531 72.484375 L 67.925781 72.980469 L 69.679688 73.335938 C 69.71875 73.34375 69.761719 73.347656 69.804688 73.34375 C 69.941406 73.335938 70.058594 73.28125 70.148438 73.175781 C 70.242188 73.074219 70.28125 72.953125 70.273438 72.8125 L 70.148438 70.816406 L 69.648438 70.84375 L 69.558594 71.339844 L 71.390625 71.691406 C 71.441406 71.699219 71.492188 71.703125 71.542969 71.695312 C 71.679688 71.679688 71.792969 71.617188 71.875 71.507812 C 71.960938 71.398438 71.996094 71.273438 71.976562 71.136719 L 71.761719 69.375 L 71.261719 69.433594 L 71.214844 69.9375 L 73.050781 70.136719 C 73.101562 70.140625 73.152344 70.140625 73.203125 70.128906 C 73.339844 70.101562 73.445312 70.03125 73.519531 69.914062 C 73.597656 69.800781 73.621094 69.671875 73.59375 69.535156 L 73.289062 68.058594 L 72.796875 68.15625 L 72.683594 68.648438 L 74.148438 69.003906 C 74.289062 69.039062 74.421875 69.015625 74.539062 68.9375 C 74.65625 68.863281 74.726562 68.753906 74.753906 68.621094 C 74.78125 68.484375 74.757812 68.355469 74.683594 68.238281 C 74.679688 68.234375 74.675781 68.226562 74.671875 68.222656 C 74.617188 68.132812 74.578125 68.074219 74.554688 68.046875 C 74.546875 68.039062 74.539062 68.03125 74.53125 68.023438 L 70.421875 63.777344 C 70.324219 63.679688 70.207031 63.628906 70.070312 63.625 C 69.929688 63.621094 69.8125 63.671875 69.714844 63.765625 C 69.617188 63.863281 69.566406 63.984375 69.5625 64.121094 C 69.5625 64.261719 69.613281 64.382812 69.707031 64.484375 Z M 69.707031 64.484375 " fill-opacity="1" fill-rule="nonzero"/></g></g></g></g><g clip-path="url(#b581596c78)"><g clip-path="url(#8ab0aceb15)"><g clip-path="url(#1182565fa6)"><g clip-path="url(#b8ce91da70)"><path fill="#918f8f" d="M 40.652344 46.078125 C 40.640625 46.066406 40.628906 46.058594 40.613281 46.042969 L 36.804688 42.113281 L 42.925781 36.070312 L 46.738281 40 C 46.75 40.011719 46.761719 40.027344 46.773438 40.039062 L 40.652344 46.078125 " fill-opacity="1" fill-rule="nonzero"/></g></g></g></g><g clip-path="url(#1a6b30d6db)"><g clip-path="url(#f0a570fa0f)"><g clip-path="url(#48f2694903)"><g clip-path="url(#6b0e8f8185)"><path stroke-linecap="round" transform="matrix(0.0232258, -0.00933577, -0.00945161, -0.023514, 26.772969, 125.802904)" fill="none" stroke-linejoin="round" d="M 1702.30414 2714.662443 C 1702.044365 2715.263957 1701.726389 2715.722452 1701.380022 2716.52447 L 1618.75726 2916.449787 L 1935.682163 3047.615699 L 2018.449717 2847.632895 C 2018.709493 2847.031382 2018.911068 2846.286851 2019.170843 2845.685338 Z M 1702.30414 2714.662443 " stroke="#000000" stroke-width="40" stroke-opacity="1" stroke-miterlimit="10"/></g></g></g></g><g clip-path="url(#6101caa30d)"><g clip-path="url(#9bbe04364b)"><g clip-path="url(#0d15a89d9f)"><g clip-path="url(#d1c746a50c)"><path fill="#000000" d="M 45.234375 47.234375 L 65.859375 68.621094 " fill-opacity="1" fill-rule="nonzero"/><path fill="#000000" d="M 45.234375 47.234375 C 45.234375 47.234375 45.324219 47.308594 45.488281 47.453125 C 45.652344 47.601562 45.894531 47.808594 46.195312 48.082031 C 46.796875 48.628906 47.65625 49.414062 48.664062 50.375 C 49.171875 50.851562 49.71875 51.371094 50.285156 51.929688 C 50.859375 52.488281 51.464844 53.074219 52.074219 53.691406 C 52.691406 54.308594 53.335938 54.9375 53.96875 55.59375 C 54.609375 56.25 55.257812 56.910156 55.90625 57.578125 C 56.546875 58.246094 57.1875 58.921875 57.820312 59.582031 C 58.453125 60.242188 59.054688 60.910156 59.652344 61.542969 C 60.246094 62.179688 60.808594 62.808594 61.34375 63.398438 C 61.882812 63.988281 62.382812 64.554688 62.84375 65.078125 C 63.769531 66.121094 64.523438 67.011719 65.046875 67.632812 C 65.570312 68.257812 65.859375 68.621094 65.859375 68.621094 C 65.859375 68.621094 65.507812 68.316406 64.90625 67.773438 C 64.300781 67.226562 63.441406 66.445312 62.433594 65.480469 C 61.925781 65.003906 61.378906 64.480469 60.808594 63.921875 C 60.238281 63.367188 59.632812 62.78125 59.019531 62.164062 C 58.40625 61.542969 57.761719 60.917969 57.125 60.261719 C 56.488281 59.605469 55.839844 58.945312 55.191406 58.277344 C 54.550781 57.605469 53.910156 56.933594 53.28125 56.273438 C 52.648438 55.609375 52.042969 54.945312 51.449219 54.308594 C 50.851562 53.671875 50.289062 53.046875 49.753906 52.453125 C 49.214844 51.863281 48.714844 51.296875 48.253906 50.777344 C 47.332031 49.730469 46.578125 48.84375 46.050781 48.222656 C 45.789062 47.910156 45.589844 47.660156 45.449219 47.492188 C 45.308594 47.320312 45.234375 47.234375 45.234375 47.234375 " fill-opacity="1" fill-rule="nonzero"/></g></g></g></g><g clip-path="url(#8fb7a9efd0)"><g clip-path="url(#66f418241e)"><g clip-path="url(#4ca9ef5c59)"><g clip-path="url(#4f0fbb7667)"><path fill="#000000" d="M 47.382812 44.609375 L 68.007812 66 " fill-opacity="1" fill-rule="nonzero"/><path fill="#000000" d="M 47.382812 44.609375 C 47.382812 44.609375 47.472656 44.6875 47.636719 44.832031 C 47.796875 44.976562 48.042969 45.183594 48.339844 45.460938 C 48.945312 46.003906 49.804688 46.789062 50.808594 47.75 C 51.316406 48.230469 51.863281 48.75 52.433594 49.3125 C 53.003906 49.867188 53.613281 50.453125 54.222656 51.070312 C 54.835938 51.6875 55.484375 52.3125 56.117188 52.96875 C 56.757812 53.625 57.402344 54.289062 58.054688 54.953125 C 58.695312 55.628906 59.335938 56.300781 59.964844 56.960938 C 60.597656 57.617188 61.203125 58.289062 61.796875 58.921875 C 62.394531 59.558594 62.957031 60.183594 63.492188 60.777344 C 64.03125 61.367188 64.53125 61.933594 64.992188 62.457031 C 65.917969 63.5 66.671875 64.386719 67.191406 65.011719 C 67.71875 65.636719 68.007812 66 68.007812 66 C 68.007812 66 67.65625 65.695312 67.050781 65.152344 C 66.449219 64.605469 65.589844 63.820312 64.582031 62.859375 C 64.074219 62.378906 63.527344 61.859375 62.957031 61.300781 C 62.386719 60.746094 61.78125 60.160156 61.167969 59.542969 C 60.554688 58.921875 59.910156 58.296875 59.273438 57.640625 C 58.636719 56.984375 57.988281 56.320312 57.339844 55.65625 C 56.699219 54.984375 56.058594 54.3125 55.429688 53.648438 C 54.792969 52.988281 54.191406 52.324219 53.597656 51.6875 C 53 51.050781 52.4375 50.425781 51.902344 49.835938 C 51.363281 49.246094 50.863281 48.675781 50.402344 48.152344 C 49.480469 47.109375 48.722656 46.222656 48.199219 45.601562 C 47.933594 45.289062 47.738281 45.039062 47.597656 44.871094 C 47.457031 44.699219 47.382812 44.609375 47.382812 44.609375 " fill-opacity="1" fill-rule="nonzero"/></g></g></g></g><g clip-path="url(#dc62e9ff2f)"><g clip-path="url(#d3edd9380c)"><g clip-path="url(#6fbc7e9026)"><g clip-path="url(#389cda9d1b)"><path fill="#ffffff" d="M 62.941406 33.683594 C 59.601562 35.359375 59.464844 35.691406 60.582031 39.304688 C 58.890625 35.921875 58.5625 35.777344 54.992188 36.878906 C 58.328125 35.199219 58.464844 34.867188 57.347656 31.253906 C 59.042969 34.636719 59.367188 34.777344 62.941406 33.683594 " fill-opacity="1" fill-rule="nonzero"/></g></g></g></g><g clip-path="url(#62eb56589e)"><g clip-path="url(#07e350eaa7)"><g clip-path="url(#f46c042bd0)"><g clip-path="url(#596e32e74d)"><path stroke-linecap="round" transform="matrix(0.0232258, -0.00933577, -0.00945161, -0.023514, 26.772969, 125.802904)" fill="none" stroke-linejoin="round" d="M 2713.156852 2840.436199 C 2564.39176 2828.233066 2554.377017 2818.088628 2541.952296 2669.356234 C 2529.658775 2818.101182 2519.649654 2828.221731 2370.897271 2840.43389 C 2519.575771 2852.837528 2529.590514 2862.981966 2542.015235 3011.71436 C 2554.453549 2862.911926 2564.376078 2852.991881 2713.156852 2840.436199 Z M 2713.156852 2840.436199 " stroke="#000000" stroke-width="38.945999" stroke-opacity="1" stroke-miterlimit="10"/></g></g></g></g><g clip-path="url(#4991cdb804)"><g clip-path="url(#48e3837270)"><g clip-path="url(#960de59b29)"><g clip-path="url(#c4a2966f1f)"><path fill="#ffffff" d="M 58.875 69.671875 C 55.535156 71.351562 55.398438 71.679688 56.515625 75.296875 C 54.824219 71.910156 54.496094 71.769531 50.925781 72.871094 C 54.261719 71.1875 54.402344 70.859375 53.28125 67.246094 C 54.976562 70.628906 55.300781 70.769531 58.875 69.671875 " fill-opacity="1" fill-rule="nonzero"/></g></g></g></g><g clip-path="url(#98604e0a9d)"><g clip-path="url(#d8c3d0eea3)"><g clip-path="url(#86e3839188)"><g clip-path="url(#922d516b6a)"><path stroke-linecap="round" transform="matrix(0.0232258, -0.00933577, -0.00945161, -0.023514, 26.772969, 125.802904)" fill="none" stroke-linejoin="round" d="M 2026.229364 1582.660512 C 1877.406072 1570.314362 1867.44953 1560.312941 1854.966608 1411.437529 C 1842.731287 1560.325494 1832.663966 1570.303026 1683.911583 1582.515186 C 1832.648283 1595.061841 1842.749618 1605.005775 1855.029547 1753.795655 C 1867.467861 1604.993221 1877.390389 1595.073176 2026.229364 1582.660512 Z M 2026.229364 1582.660512 " stroke="#000000" stroke-width="38.945999" stroke-opacity="1" stroke-miterlimit="10"/></g></g></g></g></svg>