<svg xmlns="http://www.w3.org/2000/svg" xmlns:xlink="http://www.w3.org/1999/xlink" width="150" zoomAndPan="magnify" viewBox="0 0 112.5 112.499997" height="150" preserveAspectRatio="xMidYMid meet" version="1.0"><defs><filter x="0%" y="0%" width="100%" height="100%" id="3ae92728f0"><feColorMatrix values="0 0 0 0 1 0 0 0 0 1 0 0 0 0 1 0 0 0 1 0" color-interpolation-filters="sRGB"/></filter><g/><clipPath id="354072af3e"><path d="M 0 0 L 112.003906 0 L 112.003906 112.003906 L 0 112.003906 Z M 0 0 " clip-rule="nonzero"/></clipPath><clipPath id="9993e0de18"><path d="M 56 0 L 63.886719 6.21875 L 73.304688 2.742188 L 78.882812 11.09375 L 88.917969 10.695312 L 91.640625 20.363281 L 101.308594 23.085938 L 100.910156 33.121094 L 109.261719 38.695312 L 105.78125 48.117188 L 112.003906 56 L 105.78125 63.886719 L 109.261719 73.304688 L 100.910156 78.882812 L 101.308594 88.917969 L 91.640625 91.640625 L 88.917969 101.308594 L 78.882812 100.910156 L 73.304688 109.261719 L 63.886719 105.78125 L 56 112.003906 L 48.117188 105.78125 L 38.695312 109.261719 L 33.121094 100.910156 L 23.085938 101.308594 L 20.363281 91.640625 L 10.695312 88.917969 L 11.09375 78.882812 L 2.742188 73.304688 L 6.21875 63.886719 L 0 56 L 6.21875 48.117188 L 2.742188 38.695312 L 11.09375 33.121094 L 10.695312 23.085938 L 20.363281 20.363281 L 23.085938 10.695312 L 33.121094 11.09375 L 38.695312 2.742188 L 48.117188 6.21875 Z M 56 0 " clip-rule="nonzero"/></clipPath><clipPath id="a3e4f762eb"><path d="M 12.667969 63.238281 L 20.222656 63.238281 L 20.222656 70.792969 L 12.667969 70.792969 Z M 12.667969 63.238281 " clip-rule="nonzero"/></clipPath><clipPath id="a8b1ab5d9a"><path d="M 16.445312 63.238281 L 17.644531 65.8125 L 20.222656 67.015625 L 17.644531 68.214844 L 16.445312 70.792969 L 15.242188 68.214844 L 12.667969 67.015625 L 15.242188 65.8125 Z M 16.445312 63.238281 " clip-rule="nonzero"/></clipPath><clipPath id="ac5697058f"><path d="M 92.039062 63.238281 L 99.589844 63.238281 L 99.589844 70.792969 L 92.039062 70.792969 Z M 92.039062 63.238281 " clip-rule="nonzero"/></clipPath><clipPath id="884f3dde39"><path d="M 95.816406 63.238281 L 97.015625 65.8125 L 99.589844 67.015625 L 97.015625 68.214844 L 95.816406 70.792969 L 94.613281 68.214844 L 92.039062 67.015625 L 94.613281 65.8125 Z M 95.816406 63.238281 " clip-rule="nonzero"/></clipPath><mask id="40af9688a1"><g filter="url(#3ae92728f0)"><rect x="-11.25" width="135" fill="#000000" y="-11.25" height="134.999996" fill-opacity="0.42"/></g></mask><clipPath id="f929124049"><path d="M 0.152344 15.382812 L 69.59375 15.382812 L 69.59375 66.847656 L 0.152344 66.847656 Z M 0.152344 15.382812 " clip-rule="nonzero"/></clipPath><clipPath id="8640c53be8"><rect x="0" width="71" y="0" height="68"/></clipPath><clipPath id="c8619e284a"><path d="M 45 69 L 67 69 L 67 85.882812 L 45 85.882812 Z M 45 69 " clip-rule="nonzero"/></clipPath><clipPath id="e05ad930b2"><path d="M 45 72 L 61 72 L 61 85.882812 L 45 85.882812 Z M 45 72 " clip-rule="nonzero"/></clipPath><clipPath id="5cc88cb996"><path d="M 32 32.929688 L 80 32.929688 L 80 85.882812 L 32 85.882812 Z M 32 32.929688 " clip-rule="nonzero"/></clipPath></defs><g clip-path="url(#354072af3e)"><g clip-path="url(#9993e0de18)"><path fill="#85a898" d="M 0 0 L 112.003906 0 L 112.003906 112.003906 L 0 112.003906 Z M 0 0 " fill-opacity="1" fill-rule="nonzero"/></g></g><g clip-path="url(#a3e4f762eb)"><g clip-path="url(#a8b1ab5d9a)"><path fill="#9affd1" d="M 12.667969 63.238281 L 20.222656 63.238281 L 20.222656 70.792969 L 12.667969 70.792969 Z M 12.667969 63.238281 " fill-opacity="1" fill-rule="nonzero"/></g></g><g fill="#000000" fill-opacity="1"><g transform="translate(19.407039, 58.625055)"><g><path d="M -0.125 -2.53125 L -0.046875 -1 L -7.765625 -0.640625 L -7.84375 -2.171875 Z M -0.125 -2.53125 "/></g></g></g><g fill="#000000" fill-opacity="1"><g transform="translate(19.01574, 52.828825)"><g><path d="M 0.46875 -2.359375 L 0.203125 -0.984375 L -7.375 -2.5 L -6.984375 -4.453125 L -1.03125 -5.28125 L -1 -5.390625 L -6.203125 -8.40625 L -5.8125 -10.328125 L 1.765625 -8.8125 L 1.484375 -7.390625 L -3.53125 -8.390625 L -3.59375 -8.265625 L 1.109375 -5.5 L 0.84375 -4.25 L -4.546875 -3.515625 L -4.546875 -3.359375 Z M 0.46875 -2.359375 "/></g></g></g><g fill="#000000" fill-opacity="1"><g transform="translate(21.859662, 41.126594)"><g><path d="M 3.515625 -6.53125 L 2.75 -5.125 L 0.921875 -5.453125 L -0.484375 -2.84375 L 0.796875 -1.484375 L 0.046875 -0.09375 L -5.484375 -6.125 L -4.5625 -7.84375 Z M -3.640625 -6.140625 L -1.453125 -3.828125 L -0.4375 -5.6875 L -3.59375 -6.25 Z M -3.640625 -6.140625 "/></g></g></g><g fill="#000000" fill-opacity="1"><g transform="translate(26.66766, 32.71215)"><g><path d="M 2.6875 -2.640625 C 2.238281 -2.171875 1.742188 -1.867188 1.203125 -1.734375 C 0.671875 -1.597656 0.101562 -1.640625 -0.5 -1.859375 C -1.113281 -2.085938 -1.738281 -2.507812 -2.375 -3.125 C -3.007812 -3.726562 -3.4375 -4.347656 -3.65625 -4.984375 C -3.875 -5.617188 -3.898438 -6.234375 -3.734375 -6.828125 C -3.566406 -7.429688 -3.234375 -7.988281 -2.734375 -8.5 C -2.222656 -9.039062 -1.6875 -9.398438 -1.125 -9.578125 C -0.570312 -9.765625 -0.0195312 -9.75 0.53125 -9.53125 L 0.234375 -8.25 L 0.15625 -8.15625 C -0.207031 -8.28125 -0.546875 -8.289062 -0.859375 -8.1875 C -1.171875 -8.09375 -1.476562 -7.890625 -1.78125 -7.578125 C -2.238281 -7.097656 -2.4375 -6.582031 -2.375 -6.03125 C -2.3125 -5.488281 -1.945312 -4.898438 -1.28125 -4.265625 C -0.601562 -3.609375 -0.00390625 -3.253906 0.515625 -3.203125 C 1.046875 -3.148438 1.535156 -3.351562 1.984375 -3.8125 C 2.378906 -4.21875 2.578125 -4.601562 2.578125 -4.96875 C 2.585938 -5.332031 2.414062 -5.6875 2.0625 -6.03125 L 1.8125 -6.265625 L 0.53125 -4.9375 L -0.359375 -5.796875 L 1.96875 -8.21875 L 5.046875 -5.265625 L 4.03125 -4.203125 L 3.28125 -4.921875 L 3.203125 -4.84375 C 3.359375 -4.476562 3.394531 -4.109375 3.3125 -3.734375 C 3.238281 -3.367188 3.03125 -3.003906 2.6875 -2.640625 Z M 2.6875 -2.640625 "/></g></g></g><g fill="#000000" fill-opacity="1"><g transform="translate(34.015331, 25.585067)"><g><path d="M 0.390625 -4.21875 L 1.484375 -2.40625 L 4.65625 -4.34375 L 5.328125 -3.25 L 0.859375 -0.515625 L -3.15625 -7.125 L 1.234375 -9.796875 L 1.890625 -8.703125 L -1.203125 -6.828125 L -0.265625 -5.296875 L 2.4375 -6.9375 L 3.09375 -5.859375 Z M 0.390625 -4.21875 "/></g></g></g><g fill="#000000" fill-opacity="1"><g transform="translate(41.705083, 21.181259)"><g><path d="M 0.953125 -0.296875 L -1.3125 -7.6875 L 1.65625 -8.59375 C 2.425781 -8.832031 3.0625 -8.835938 3.5625 -8.609375 C 4.0625 -8.378906 4.410156 -7.953125 4.609375 -7.328125 C 4.742188 -6.878906 4.738281 -6.476562 4.59375 -6.125 C 4.457031 -5.769531 4.179688 -5.441406 3.765625 -5.140625 L 3.796875 -5.046875 C 4.066406 -5.015625 4.300781 -4.921875 4.5 -4.765625 C 4.707031 -4.609375 4.9375 -4.351562 5.1875 -4 L 6.609375 -2.03125 L 5.09375 -1.5625 L 3.703125 -3.546875 C 3.546875 -3.753906 3.40625 -3.898438 3.28125 -3.984375 C 3.15625 -4.078125 3.015625 -4.128906 2.859375 -4.140625 C 2.703125 -4.160156 2.507812 -4.132812 2.28125 -4.0625 L 1.484375 -3.828125 L 2.421875 -0.75 Z M 2.453125 -5.40625 C 3.171875 -5.625 3.425781 -6.0625 3.21875 -6.71875 C 3.007812 -7.394531 2.546875 -7.625 1.828125 -7.40625 L 0.5 -7 L 1.125 -5 Z M 2.453125 -5.40625 "/></g></g></g><g fill="#000000" fill-opacity="1"><g transform="translate(50.800253, 18.699166)"><g><path d="M 4.234375 -0.1875 L 2.71875 -0.125 L 2.578125 -3.171875 L -0.3125 -7.734375 L 1.328125 -7.8125 L 3.25 -4.859375 L 3.375 -4.859375 L 4.96875 -7.96875 L 6.578125 -8.046875 L 4.09375 -3.234375 Z M 4.234375 -0.1875 "/></g></g></g><g fill="#000000" fill-opacity="1"><g transform="translate(60.103049, 18.725437)"><g/></g></g><g fill="#000000" fill-opacity="1"><g transform="translate(64.993272, 19.495425)"><g><path d="M 3.53125 -2.359375 L 2.8125 -0.359375 L 6.296875 0.875 L 5.875 2.078125 L 0.9375 0.328125 L 3.515625 -6.96875 L 8.359375 -5.25 L 7.9375 -4.03125 L 4.546875 -5.234375 L 3.9375 -3.546875 L 6.90625 -2.5 L 6.5 -1.3125 Z M 3.53125 -2.359375 "/></g></g></g><g fill="#000000" fill-opacity="1"><g transform="translate(73.265131, 22.691803)"><g><path d="M 1.421875 0.9375 L 0.109375 0.0625 L 4.21875 -1.96875 L 4.484375 -6.296875 L 5.84375 -5.40625 L 5.640625 -2.21875 L 5.75 -2.140625 L 8.640625 -3.53125 L 9.921875 -2.6875 L 6.03125 -0.765625 L 5.734375 3.8125 L 4.390625 2.921875 L 4.609375 -0.515625 L 4.5 -0.59375 Z M 1.421875 0.9375 "/></g></g></g><g fill="#000000" fill-opacity="1"><g transform="translate(80.789309, 28.021152)"><g><path d="M 8.421875 -2.203125 C 8.796875 -1.785156 9.035156 -1.363281 9.140625 -0.9375 C 9.253906 -0.507812 9.242188 -0.0976562 9.109375 0.296875 C 8.972656 0.691406 8.726562 1.050781 8.375 1.375 C 8.007812 1.695312 7.625 1.898438 7.21875 1.984375 C 6.820312 2.078125 6.414062 2.046875 6 1.890625 C 5.59375 1.734375 5.203125 1.445312 4.828125 1.03125 L 3.84375 -0.046875 L 1.6875 1.890625 L 0.671875 0.75 L 6.421875 -4.421875 Z M 5.578125 0.09375 C 6.148438 0.726562 6.738281 0.773438 7.34375 0.234375 C 7.945312 -0.304688 7.960938 -0.894531 7.390625 -1.53125 L 6.546875 -2.46875 L 4.734375 -0.84375 Z M 5.578125 0.09375 "/></g></g></g><g fill="#000000" fill-opacity="1"><g transform="translate(86.76508, 35.120756)"><g><path d="M 4.1875 0.640625 L 2.3125 1.640625 L 4.046875 4.921875 L 2.90625 5.515625 L 0.46875 0.890625 L 7.3125 -2.71875 L 9.703125 1.828125 L 8.5625 2.4375 L 6.875 -0.765625 L 5.296875 0.0625 L 6.78125 2.859375 L 5.671875 3.4375 Z M 4.1875 0.640625 "/></g></g></g><g fill="#000000" fill-opacity="1"><g transform="translate(90.681356, 43.069596)"><g><path d="M 0.234375 0.96875 L 7.75 -0.828125 L 8.46875 2.203125 C 8.65625 2.984375 8.617188 3.613281 8.359375 4.09375 C 8.109375 4.570312 7.664062 4.890625 7.03125 5.046875 C 6.570312 5.148438 6.171875 5.117188 5.828125 4.953125 C 5.484375 4.796875 5.171875 4.503906 4.890625 4.078125 L 4.78125 4.109375 C 4.75 4.367188 4.648438 4.597656 4.484375 4.796875 C 4.316406 4.992188 4.046875 5.195312 3.671875 5.40625 L 1.609375 6.71875 L 1.25 5.1875 L 3.3125 3.90625 C 3.507812 3.769531 3.660156 3.644531 3.765625 3.53125 C 3.878906 3.414062 3.941406 3.273438 3.953125 3.109375 C 3.972656 2.941406 3.957031 2.742188 3.90625 2.515625 L 3.71875 1.71875 L 0.59375 2.46875 Z M 5.234375 2.78125 C 5.398438 3.507812 5.816406 3.789062 6.484375 3.625 C 7.171875 3.46875 7.429688 3.023438 7.265625 2.296875 L 6.9375 0.953125 L 4.90625 1.4375 Z M 5.234375 2.78125 "/></g></g></g><g fill="#000000" fill-opacity="1"><g transform="translate(92.564414, 52.327003)"><g><path d="M 7.671875 6.28125 L 6.390625 6.28125 L 6.40625 4.046875 L -0.046875 3.96875 L -0.03125 2.453125 L 6.421875 2.53125 L 6.453125 0.296875 L 7.734375 0.296875 Z M 7.671875 6.28125 "/></g></g></g><g fill="#000000" fill-opacity="1"><g transform="translate(18.316917, 76.059553)"><g><path d="M 2.125 3.671875 C 1.75 3.054688 1.546875 2.441406 1.515625 1.828125 C 1.484375 1.210938 1.640625 0.613281 1.984375 0.03125 C 2.328125 -0.539062 2.867188 -1.054688 3.609375 -1.515625 C 4.347656 -1.960938 5.050781 -2.207031 5.71875 -2.25 C 6.394531 -2.300781 7.003906 -2.175781 7.546875 -1.875 C 8.085938 -1.570312 8.546875 -1.113281 8.921875 -0.5 C 9.304688 0.132812 9.507812 0.75 9.53125 1.34375 C 9.550781 1.9375 9.363281 2.492188 8.96875 3.015625 L 7.8125 2.390625 L 7.75 2.28125 C 8 1.9375 8.125 1.597656 8.125 1.265625 C 8.125 0.929688 8.007812 0.578125 7.78125 0.203125 C 7.4375 -0.347656 6.988281 -0.664062 6.4375 -0.75 C 5.882812 -0.84375 5.21875 -0.648438 4.4375 -0.171875 C 3.65625 0.316406 3.175781 0.820312 3 1.34375 C 2.832031 1.875 2.921875 2.414062 3.265625 2.96875 C 3.785156 3.820312 4.515625 4.097656 5.453125 3.796875 L 5.515625 3.90625 L 5.625 5.171875 C 4.882812 5.367188 4.222656 5.34375 3.640625 5.09375 C 3.054688 4.851562 2.550781 4.378906 2.125 3.671875 Z M 2.125 3.671875 "/></g></g></g><g fill="#000000" fill-opacity="1"><g transform="translate(24.376082, 85.189218)"><g><path d="M 3 2.953125 C 2.488281 2.472656 2.132812 1.941406 1.9375 1.359375 C 1.738281 0.785156 1.726562 0.175781 1.90625 -0.46875 C 2.082031 -1.113281 2.472656 -1.757812 3.078125 -2.40625 C 3.679688 -3.050781 4.300781 -3.484375 4.9375 -3.703125 C 5.570312 -3.929688 6.1875 -3.96875 6.78125 -3.8125 C 7.382812 -3.65625 7.941406 -3.335938 8.453125 -2.859375 C 8.972656 -2.367188 9.328125 -1.832031 9.515625 -1.25 C 9.710938 -0.664062 9.71875 -0.0546875 9.53125 0.578125 C 9.351562 1.222656 8.960938 1.867188 8.359375 2.515625 C 7.753906 3.160156 7.132812 3.597656 6.5 3.828125 C 5.875 4.054688 5.265625 4.085938 4.671875 3.921875 C 4.078125 3.765625 3.519531 3.441406 3 2.953125 Z M 3.90625 1.984375 C 4.382812 2.429688 4.894531 2.617188 5.4375 2.546875 C 5.988281 2.484375 6.578125 2.113281 7.203125 1.4375 C 7.828125 0.769531 8.160156 0.160156 8.203125 -0.390625 C 8.242188 -0.941406 8.023438 -1.441406 7.546875 -1.890625 C 7.066406 -2.335938 6.550781 -2.519531 6 -2.4375 C 5.445312 -2.363281 4.859375 -1.992188 4.234375 -1.328125 C 3.609375 -0.648438 3.273438 -0.0390625 3.234375 0.5 C 3.203125 1.039062 3.425781 1.535156 3.90625 1.984375 Z M 3.90625 1.984375 "/></g></g></g><g fill="#000000" fill-opacity="1"><g transform="translate(33.351761, 93.026743)"><g><path d="M 2.171875 1.046875 L 0.90625 0.4375 L 4.28125 -6.515625 L 6.078125 -5.640625 L 5.359375 0.328125 L 5.453125 0.375 L 9.703125 -3.875 L 11.453125 -3.03125 L 8.078125 3.921875 L 6.78125 3.296875 L 9.015625 -1.296875 L 8.890625 -1.390625 L 5.046875 2.453125 L 3.890625 1.890625 L 4.546875 -3.515625 L 4.40625 -3.546875 Z M 2.171875 1.046875 "/></g></g></g><g fill="#000000" fill-opacity="1"><g transform="translate(45.667054, 98.242216)"><g><path d="M 5.25 -6.953125 C 5.800781 -6.859375 6.25 -6.675781 6.59375 -6.40625 C 6.945312 -6.132812 7.191406 -5.800781 7.328125 -5.40625 C 7.460938 -5.019531 7.488281 -4.59375 7.40625 -4.125 C 7.320312 -3.644531 7.148438 -3.242188 6.890625 -2.921875 C 6.640625 -2.597656 6.300781 -2.367188 5.875 -2.234375 C 5.457031 -2.097656 4.972656 -2.078125 4.421875 -2.171875 L 2.984375 -2.421875 L 2.5 0.421875 L 0.984375 0.171875 L 2.296875 -7.453125 Z M 4.4375 -3.390625 C 5.269531 -3.242188 5.753906 -3.570312 5.890625 -4.375 C 6.035156 -5.175781 5.691406 -5.648438 4.859375 -5.796875 L 3.609375 -6.015625 L 3.1875 -3.609375 Z M 4.4375 -3.390625 "/></g></g></g><g fill="#000000" fill-opacity="1"><g transform="translate(55.892764, 99.559364)"><g><path d="M 2.03125 -7.890625 L 2.453125 -1.453125 L 5.921875 -1.671875 L 6 -0.390625 L 1 -0.0625 L 0.5 -7.78125 Z M 2.03125 -7.890625 "/></g></g></g><g fill="#000000" fill-opacity="1"><g transform="translate(65.336944, 98.59403)"><g><path d="M 1.4375 -4 L 2.046875 -1.953125 L 5.59375 -3.03125 L 5.96875 -1.8125 L 0.953125 -0.296875 L -1.296875 -7.703125 L 3.625 -9.1875 L 4 -7.953125 L 0.546875 -6.90625 L 1.0625 -5.1875 L 4.078125 -6.109375 L 4.453125 -4.921875 Z M 1.4375 -4 "/></g></g></g><g fill="#000000" fill-opacity="1"><g transform="translate(74.674133, 95.354209)"><g><path d="M 1.484375 -9.796875 L 2.125 -8.6875 L 0.203125 -7.578125 L 3.4375 -2 L 2.125 -1.234375 L -1.109375 -6.8125 L -3.046875 -5.6875 L -3.6875 -6.796875 Z M 1.484375 -9.796875 "/></g></g></g><g fill="#000000" fill-opacity="1"><g transform="translate(82.831738, 90.205045)"><g><path d="M -0.5 -4.203125 L 0.96875 -2.671875 L 3.65625 -5.21875 L 4.53125 -4.28125 L 0.734375 -0.6875 L -4.578125 -6.3125 L -0.84375 -9.84375 L 0.03125 -8.90625 L -2.59375 -6.421875 L -1.359375 -5.125 L 0.9375 -7.296875 L 1.796875 -6.375 Z M -0.5 -4.203125 "/></g></g></g><g fill="#000000" fill-opacity="1"><g transform="translate(89.855524, 83.119294)"><g><path d="M -4.546875 -7.3125 C -3.890625 -8.375 -3.109375 -9.015625 -2.203125 -9.234375 C -1.304688 -9.460938 -0.3125 -9.234375 0.78125 -8.546875 C 1.863281 -7.867188 2.503906 -7.078125 2.703125 -6.171875 C 2.898438 -5.265625 2.671875 -4.28125 2.015625 -3.21875 L 0.53125 -0.84375 L -6.03125 -4.9375 Z M 0.875 -3.8125 C 1.289062 -4.476562 1.425781 -5.085938 1.28125 -5.640625 C 1.144531 -6.203125 0.695312 -6.722656 -0.0625 -7.203125 C -0.832031 -7.691406 -1.492188 -7.875 -2.046875 -7.75 C -2.597656 -7.625 -3.082031 -7.226562 -3.5 -6.5625 L -4.125 -5.5625 L 0.25 -2.8125 Z M 0.875 -3.8125 "/></g></g></g><g clip-path="url(#ac5697058f)"><g clip-path="url(#884f3dde39)"><path fill="#9affd1" d="M 92.039062 63.238281 L 99.589844 63.238281 L 99.589844 70.792969 L 92.039062 70.792969 Z M 92.039062 63.238281 " fill-opacity="1" fill-rule="nonzero"/></g></g><g mask="url(#40af9688a1)"><g transform="matrix(1, 0, 0, 1, 21, 20)"><g clip-path="url(#8640c53be8)"><g clip-path="url(#f929124049)"><path fill="#ffffff" d="M 41.050781 62.734375 C 41.117188 62.75 41.191406 62.734375 41.246094 62.683594 C 41.609375 62.335938 41.089844 60.59375 39.9375 56.683594 C 39.9375 56.683594 39.082031 53.769531 38.285156 51.027344 C 37.863281 49.582031 37.53125 48.398438 37.3125 47.625 C 37.488281 48.40625 37.765625 49.605469 38.082031 51.078125 C 38.300781 52.078125 38.648438 53.664062 39.328125 56.835938 C 40.191406 60.820312 40.558594 62.597656 41.042969 62.734375 Z M 55.535156 56.398438 C 55.609375 56.378906 55.667969 56.320312 55.6875 56.246094 C 55.828125 55.765625 54.5 54.515625 51.542969 51.703125 C 51.542969 51.703125 49.339844 49.605469 47.273438 47.625 C 46.183594 46.582031 45.300781 45.726562 44.722656 45.164062 C 45.269531 45.753906 46.105469 46.660156 47.121094 47.769531 C 47.816406 48.523438 48.910156 49.726562 51.09375 52.132812 C 53.828125 55.164062 55.042969 56.519531 55.535156 56.398438 Z M 63.796875 42.179688 C 63.851562 42.125 63.871094 42.050781 63.855469 41.980469 C 63.734375 41.492188 61.957031 41.078125 57.988281 40.109375 C 57.988281 40.109375 55.027344 39.390625 52.242188 38.707031 C 50.777344 38.34375 49.582031 38.042969 48.800781 37.84375 C 49.570312 38.082031 50.75 38.445312 52.1875 38.90625 C 53.164062 39.21875 54.71875 39.710938 57.816406 40.710938 C 61.703125 41.96875 63.4375 42.535156 63.796875 42.1875 Z M 5.8125 41.324219 C 5.796875 41.398438 5.816406 41.472656 5.863281 41.527344 C 6.214844 41.886719 7.972656 41.375 11.882812 40.222656 C 11.882812 40.222656 14.808594 39.367188 17.5625 38.566406 C 19.015625 38.152344 20.203125 37.816406 20.976562 37.597656 C 20.191406 37.777344 18.988281 38.050781 17.515625 38.367188 C 16.511719 38.585938 14.917969 38.929688 11.734375 39.609375 C 7.734375 40.476562 5.949219 40.847656 5.8125 41.324219 Z M 13.675781 55.765625 C 13.695312 55.839844 13.75 55.898438 13.824219 55.914062 C 14.308594 56.054688 15.5625 54.734375 18.386719 51.785156 C 18.386719 51.785156 20.492188 49.589844 22.480469 47.527344 C 23.535156 46.445312 24.386719 45.5625 24.953125 44.988281 C 24.359375 45.535156 23.449219 46.367188 22.335938 47.378906 C 21.574219 48.070312 20.367188 49.164062 17.953125 51.335938 C 14.910156 54.074219 13.550781 55.285156 13.675781 55.765625 Z M 27.933594 62.507812 C 27.984375 62.558594 28.058594 62.578125 28.132812 62.5625 C 28.621094 62.441406 29.046875 60.671875 30.011719 56.714844 C 30.011719 56.714844 30.734375 53.761719 31.421875 50.988281 C 31.785156 49.527344 32.085938 48.335938 32.285156 47.558594 C 32.046875 48.324219 31.683594 49.5 31.21875 50.933594 C 30.90625 51.910156 30.410156 53.457031 29.414062 56.542969 C 28.144531 60.417969 27.574219 62.148438 27.925781 62.507812 Z M 50.796875 63.019531 C 50.886719 63.015625 50.96875 62.96875 51.011719 62.894531 C 51.3125 62.371094 50.148438 60.53125 47.554688 56.394531 C 47.554688 56.394531 45.617188 53.3125 43.804688 50.402344 C 42.851562 48.875 42.078125 47.617188 41.578125 46.792969 C 42.039062 47.636719 42.738281 48.933594 43.589844 50.523438 C 44.167969 51.609375 45.085938 53.324219 46.898438 56.765625 C 49.183594 61.085938 50.195312 63.019531 50.796875 63.019531 Z M 63.574219 50.472656 C 63.652344 50.425781 63.699219 50.34375 63.699219 50.253906 C 63.699219 49.652344 61.769531 48.644531 57.453125 46.359375 C 57.453125 46.359375 54.234375 44.65625 51.210938 43.050781 C 49.621094 42.203125 48.324219 41.5 47.480469 41.039062 C 48.300781 41.542969 49.554688 42.316406 51.089844 43.265625 C 52.132812 43.917969 53.785156 44.945312 57.078125 47.015625 C 61.214844 49.605469 63.058594 50.773438 63.574219 50.472656 Z M 6.320312 50.273438 C 6.320312 50.363281 6.367188 50.445312 6.445312 50.492188 C 6.964844 50.792969 8.804688 49.628906 12.941406 47.03125 C 12.941406 47.03125 16.023438 45.097656 18.933594 43.285156 C 20.464844 42.332031 21.71875 41.558594 22.542969 41.058594 C 21.695312 41.519531 20.402344 42.21875 18.808594 43.066406 C 17.722656 43.648438 16.007812 44.5625 12.570312 46.378906 C 8.25 48.664062 6.316406 49.671875 6.320312 50.273438 Z M 19.015625 62.902344 C 19.0625 62.980469 19.140625 63.027344 19.230469 63.027344 C 19.832031 63.027344 20.84375 61.097656 23.125 56.78125 C 23.125 56.78125 24.828125 53.5625 26.4375 50.539062 C 27.285156 48.949219 27.984375 47.652344 28.445312 46.808594 C 27.945312 47.628906 27.171875 48.886719 26.21875 50.417969 C 25.570312 51.460938 24.542969 53.113281 22.472656 56.40625 C 19.886719 60.542969 18.710938 62.382812 19.015625 62.902344 Z M 34.890625 67.015625 C 34.96875 67.058594 35.0625 67.058594 35.140625 67.015625 C 35.664062 66.714844 35.570312 64.539062 35.390625 59.660156 C 35.390625 59.660156 35.253906 56.019531 35.140625 52.597656 C 35.082031 50.789062 35.039062 49.320312 35.015625 48.359375 C 34.992188 49.320312 34.949219 50.792969 34.890625 52.597656 C 34.847656 53.824219 34.785156 55.769531 34.640625 59.65625 C 34.460938 64.539062 34.367188 66.71875 34.890625 67.015625 Z M 41.042969 4.726562 C 41.117188 4.707031 41.191406 4.722656 41.246094 4.773438 C 41.609375 5.121094 41.089844 6.863281 39.9375 10.773438 C 39.9375 10.773438 39.082031 13.6875 38.285156 16.429688 C 37.863281 17.875 37.53125 19.058594 37.3125 19.832031 C 37.488281 19.046875 37.765625 17.847656 38.082031 16.378906 C 38.300781 15.378906 38.648438 13.792969 39.328125 10.621094 C 40.191406 6.640625 40.558594 4.859375 41.042969 4.726562 Z M 55.535156 11.0625 C 55.609375 11.082031 55.667969 11.136719 55.6875 11.210938 C 55.828125 11.691406 54.5 12.941406 51.542969 15.753906 C 51.542969 15.753906 49.339844 17.851562 47.273438 19.832031 C 46.183594 20.875 45.300781 21.730469 44.722656 22.292969 C 45.269531 21.703125 46.105469 20.800781 47.121094 19.6875 C 47.816406 18.933594 48.910156 17.730469 51.09375 15.324219 C 53.828125 12.292969 55.042969 10.9375 55.535156 11.0625 Z M 63.796875 25.277344 C 63.851562 25.328125 63.871094 25.40625 63.855469 25.476562 C 63.734375 25.964844 61.957031 26.378906 57.988281 27.347656 C 57.988281 27.347656 55.027344 28.066406 52.242188 28.75 C 50.777344 29.109375 49.582031 29.414062 48.800781 29.613281 C 49.570312 29.375 50.75 29.011719 52.1875 28.550781 C 53.164062 28.238281 54.71875 27.746094 57.816406 26.746094 C 61.703125 25.488281 63.4375 24.929688 63.796875 25.273438 Z M 5.8125 26.132812 C 5.792969 26.058594 5.8125 25.984375 5.863281 25.929688 C 6.214844 25.566406 7.972656 26.089844 11.882812 27.234375 C 11.882812 27.234375 14.808594 28.089844 17.5625 28.882812 C 19.015625 29.300781 20.203125 29.632812 20.976562 29.851562 C 20.191406 29.671875 18.988281 29.398438 17.515625 29.082031 C 16.511719 28.867188 14.917969 28.519531 11.734375 27.839844 C 7.734375 26.984375 5.949219 26.613281 5.8125 26.132812 Z M 13.675781 11.691406 C 13.695312 11.617188 13.75 11.558594 13.824219 11.539062 C 14.308594 11.402344 15.5625 12.722656 18.386719 15.667969 C 18.386719 15.667969 20.492188 17.867188 22.480469 19.925781 C 23.535156 21.011719 24.386719 21.894531 24.953125 22.464844 C 24.359375 21.921875 23.449219 21.089844 22.335938 20.078125 C 21.574219 19.386719 20.367188 18.296875 17.953125 16.121094 C 14.910156 13.386719 13.550781 12.171875 13.675781 11.691406 Z M 27.933594 4.953125 C 27.984375 4.902344 28.058594 4.878906 28.132812 4.898438 C 28.621094 5.019531 29.046875 6.789062 30.011719 10.746094 C 30.011719 10.746094 30.734375 13.695312 31.421875 16.46875 C 31.785156 17.929688 32.085938 19.121094 32.285156 19.898438 C 32.046875 19.132812 31.683594 17.960938 31.21875 16.527344 C 30.90625 15.550781 30.410156 14.003906 29.414062 10.917969 C 28.144531 7.039062 27.574219 5.3125 27.925781 4.953125 Z M 50.796875 4.441406 C 50.886719 4.441406 50.96875 4.492188 51.011719 4.566406 C 51.3125 5.085938 50.148438 6.925781 47.554688 11.0625 C 47.554688 11.0625 45.617188 14.148438 43.804688 17.054688 C 42.851562 18.585938 42.078125 19.84375 41.578125 20.664062 C 42.039062 19.820312 42.738281 18.523438 43.589844 16.933594 C 44.167969 15.847656 45.085938 14.132812 46.898438 10.691406 C 49.183594 6.371094 50.195312 4.4375 50.796875 4.441406 Z M 63.574219 16.988281 C 63.652344 17.035156 63.699219 17.117188 63.699219 17.203125 C 63.699219 17.804688 61.769531 18.816406 57.453125 21.097656 C 57.453125 21.097656 54.234375 22.800781 51.210938 24.40625 C 49.621094 25.257812 48.324219 25.960938 47.480469 26.417969 C 48.300781 25.917969 49.554688 25.144531 51.089844 24.191406 C 52.132812 23.542969 53.785156 22.515625 57.078125 20.445312 C 61.214844 17.859375 63.058594 16.683594 63.574219 16.988281 Z M 69.792969 33.617188 C 69.835938 33.691406 69.835938 33.789062 69.792969 33.867188 C 69.492188 34.386719 67.316406 34.296875 62.433594 34.113281 C 62.433594 34.113281 58.796875 33.980469 55.371094 33.867188 C 53.566406 33.804688 52.097656 33.765625 51.136719 33.742188 C 52.097656 33.714844 53.570312 33.675781 55.371094 33.617188 C 56.601562 33.574219 58.546875 33.511719 62.433594 33.367188 C 67.316406 33.183594 69.496094 33.09375 69.792969 33.617188 Z M 0.214844 33.839844 C 0.171875 33.765625 0.171875 33.667969 0.214844 33.589844 C 0.515625 33.070312 2.691406 33.160156 7.570312 33.34375 C 7.570312 33.34375 11.210938 33.476562 14.640625 33.589844 C 16.445312 33.652344 17.917969 33.691406 18.878906 33.714844 C 17.917969 33.742188 16.441406 33.78125 14.640625 33.839844 C 13.414062 33.882812 11.46875 33.945312 7.582031 34.089844 C 2.691406 34.273438 0.511719 34.363281 0.214844 33.839844 Z M 6.320312 17.191406 C 6.320312 17.101562 6.367188 17.019531 6.445312 16.972656 C 6.964844 16.671875 8.804688 17.839844 12.941406 20.433594 C 12.941406 20.433594 16.023438 22.371094 18.933594 24.183594 C 20.464844 25.136719 21.71875 25.90625 22.542969 26.410156 C 21.695312 25.957031 20.402344 25.246094 18.808594 24.398438 C 17.722656 23.820312 16.007812 22.902344 12.570312 21.089844 C 8.25 18.796875 6.316406 17.785156 6.320312 17.183594 Z M 19.015625 4.554688 C 19.0625 4.480469 19.140625 4.429688 19.230469 4.429688 C 19.832031 4.429688 20.84375 6.359375 23.125 10.675781 C 23.125 10.675781 24.828125 13.898438 26.4375 16.921875 C 27.285156 18.511719 27.984375 19.804688 28.445312 20.652344 C 27.945312 19.832031 27.171875 18.574219 26.21875 17.042969 C 25.570312 16 24.542969 14.347656 22.472656 11.050781 C 19.886719 6.917969 18.710938 5.074219 19.015625 4.554688 Z M 34.890625 0.441406 C 34.96875 0.398438 35.0625 0.398438 35.140625 0.441406 C 35.664062 0.742188 35.570312 2.921875 35.390625 7.800781 C 35.390625 7.800781 35.253906 11.441406 35.140625 14.871094 C 35.082031 16.675781 35.039062 18.148438 35.015625 19.109375 C 34.992188 18.148438 34.949219 16.671875 34.890625 14.871094 C 34.847656 13.644531 34.785156 11.695312 34.640625 7.808594 C 34.460938 2.921875 34.367188 0.742188 34.890625 0.441406 " fill-opacity="1" fill-rule="nonzero"/></g></g></g></g><path fill="#94d3bf" d="M 67.53125 58.277344 C 68.617188 57.371094 70.035156 57.75 71.15625 54.953125 C 72.667969 51.199219 76.214844 51.164062 76.367188 46.082031 C 74.988281 49.777344 72.023438 49.644531 69.988281 53.476562 C 70.691406 50.023438 71.914062 48.429688 73.394531 46.839844 L 67.523438 41.207031 L 58.191406 48.761719 Z M 67.53125 58.277344 " fill-opacity="1" fill-rule="evenodd"/><path fill="#59688c" d="M 67.503906 41.75 L 72.824219 46.859375 C 71.417969 48.410156 70.265625 50.046875 69.582031 53.394531 C 69.542969 53.59375 69.65625 53.796875 69.847656 53.863281 C 70.039062 53.933594 70.253906 53.851562 70.351562 53.671875 C 71.335938 51.820312 72.546875 50.933594 73.675781 50.054688 C 74.355469 49.527344 75.003906 49.003906 75.570312 48.3125 C 75.085938 49.691406 74.207031 50.515625 73.3125 51.375 C 72.367188 52.285156 71.40625 53.234375 70.777344 54.800781 C 70.085938 56.515625 69.28125 56.929688 68.519531 57.261719 C 68.191406 57.40625 67.871094 57.542969 67.570312 57.734375 L 66.609375 56.757812 C 68.585938 55.503906 68.558594 53.324219 68.558594 53.324219 C 69.015625 50.007812 70.769531 46.8125 70.769531 46.8125 Z M 67.503906 41.75 " fill-opacity="1" fill-rule="evenodd"/><path fill="#94d3bf" d="M 62.703125 64.960938 C 64.777344 63.714844 65.496094 62.953125 66.554688 59.847656 C 66.824219 59.050781 67.15625 58.589844 67.53125 58.277344 L 58.191406 48.761719 L 48.851562 39.242188 L 39.527344 47.828125 C 40.613281 49.15625 41.503906 50.726562 42.0625 53.476562 C 40.023438 49.644531 37.0625 49.777344 35.683594 46.082031 C 35.835938 51.164062 39.382812 51.199219 40.890625 54.953125 C 42.402344 58.707031 44.441406 56.738281 45.496094 59.847656 C 46.550781 62.953125 47.269531 63.714844 49.34375 64.960938 C 49.40625 64.347656 49.445312 63.757812 49.46875 63.203125 C 49.476562 63.066406 49.480469 62.9375 49.484375 62.808594 C 49.375 62.742188 49.238281 62.710938 49.0625 62.632812 C 48.515625 62.386719 46.761719 60.363281 47.457031 58.820312 C 47.824219 58.011719 48.621094 58.300781 49.164062 58.625 C 49.398438 59.65625 49.527344 61.078125 49.484375 62.808594 C 49.480469 62.9375 49.476562 63.066406 49.46875 63.203125 C 49.445312 63.757812 49.40625 64.347656 49.34375 64.960938 C 49.261719 65.824219 49.136719 66.734375 48.96875 67.695312 C 49.453125 66.996094 49.816406 66.175781 50.089844 65.285156 C 50.648438 63.457031 50.816406 61.328125 50.816406 59.316406 C 50.816406 56.320312 51.570312 55.769531 52.480469 56.1875 C 52.488281 56.675781 52.625 57.199219 52.96875 57.714844 C 53.21875 55.988281 54.648438 54.746094 56.023438 56.121094 C 57.402344 54.746094 58.828125 55.988281 59.082031 57.714844 C 59.425781 57.199219 59.5625 56.675781 59.570312 56.1875 C 60.476562 55.769531 61.230469 56.320312 61.230469 59.316406 C 61.230469 61.328125 61.402344 63.457031 61.960938 65.285156 C 62.234375 66.175781 62.597656 66.996094 63.082031 67.695312 C 62.914062 66.734375 62.789062 65.824219 62.703125 64.960938 C 62.644531 64.347656 62.601562 63.757812 62.578125 63.203125 C 62.574219 63.066406 62.570312 62.9375 62.566406 62.808594 C 62.519531 61.078125 62.648438 59.65625 62.882812 58.625 C 63.425781 58.300781 64.222656 58.011719 64.589844 58.820312 C 65.289062 60.363281 63.535156 62.386719 62.988281 62.632812 C 62.808594 62.710938 62.675781 62.742188 62.566406 62.808594 C 62.570312 62.9375 62.574219 63.066406 62.578125 63.203125 C 62.601562 63.757812 62.644531 64.347656 62.703125 64.960938 Z M 62.703125 64.960938 " fill-opacity="1" fill-rule="evenodd"/><path fill="#59688c" d="M 48.839844 39.8125 L 43.480469 48.628906 C 43.480469 48.628906 43.097656 50.714844 43.480469 53.789062 C 43.796875 56.371094 45.472656 56.710938 46.90625 59.285156 C 46.816406 60.007812 47.0625 60.773438 47.4375 61.421875 C 47.914062 62.246094 48.582031 62.871094 48.894531 63.011719 C 48.953125 63.039062 49.011719 63.058594 49.0625 63.078125 C 49.0625 63.113281 49.058594 63.148438 49.058594 63.183594 C 49.042969 63.53125 49.023438 63.886719 48.996094 64.257812 C 47.433594 63.242188 46.792969 62.382812 45.886719 59.710938 C 45.300781 57.988281 44.449219 57.667969 43.527344 57.261719 C 42.769531 56.929688 41.964844 56.515625 41.273438 54.800781 C 40.644531 53.234375 39.679688 52.285156 38.734375 51.375 C 37.839844 50.515625 36.964844 49.691406 36.476562 48.3125 C 37.046875 49.003906 37.695312 49.527344 38.375 50.054688 C 39.5 50.933594 40.714844 51.820312 41.699219 53.671875 C 41.796875 53.851562 42.007812 53.933594 42.203125 53.863281 C 42.394531 53.796875 42.507812 53.59375 42.464844 53.394531 C 41.929688 50.757812 41.097656 49.179688 40.082031 47.871094 Z M 48.839844 39.8125 " fill-opacity="1" fill-rule="evenodd"/><path fill="#e28f8a" d="M 58.910156 72.429688 C 58.363281 72.277344 57.765625 72.167969 57.128906 72.105469 L 57.128906 70.179688 C 56.679688 70.363281 56.34375 70.386719 56.023438 70.386719 C 55.679688 70.386719 55.3125 70.359375 54.808594 70.128906 L 54.808594 72.117188 C 54.214844 72.179688 53.652344 72.285156 53.140625 72.429688 C 53.40625 75.039062 55.308594 75.523438 56.027344 75.523438 C 56.742188 75.523438 58.648438 75.039062 58.910156 72.429688 Z M 58.910156 72.429688 " fill-opacity="1" fill-rule="evenodd"/><path fill="#d45e8c" d="M 56.613281 70.757812 C 56.292969 70.835938 55.335938 71.207031 55.355469 72.878906 C 55.359375 73.164062 54.925781 74.089844 54.664062 74.617188 C 54.195312 74.265625 53.769531 73.679688 53.597656 72.738281 C 53.992188 72.644531 54.410156 72.574219 54.851562 72.527344 C 55.058594 72.507812 55.21875 72.328125 55.21875 72.117188 L 55.21875 70.714844 C 55.519531 70.789062 55.777344 70.800781 56.023438 70.800781 C 56.210938 70.800781 56.402344 70.792969 56.613281 70.757812 Z M 56.613281 70.757812 " fill-opacity="1" fill-rule="evenodd"/><path fill="#e28f8a" d="M 65.703125 69.992188 C 66.128906 70.632812 66.582031 71.519531 66.675781 72.617188 C 68.457031 71.140625 72.449219 67.789062 73.234375 66.761719 C 74.253906 65.433594 74.253906 60.792969 74.632812 59.582031 C 75.007812 58.367188 77.535156 58.273438 78.121094 57.398438 C 79.839844 54.328125 79.347656 53.742188 79.027344 53.683594 C 78.707031 53.628906 77.554688 55.542969 77.292969 56.066406 C 77.058594 56.527344 76.78125 56.519531 75.363281 56.851562 C 75.179688 56.894531 74.972656 56.945312 74.746094 57.003906 C 74.214844 57.136719 73.851562 57.316406 73.589844 57.527344 C 72.894531 58.097656 72.972656 58.898438 72.667969 59.617188 C 72.253906 60.605469 71.046875 65.683594 71.046875 65.683594 C 69.171875 66.964844 67.019531 68.816406 65.703125 69.992188 Z M 65.703125 69.992188 " fill-opacity="1" fill-rule="evenodd"/><path fill="#d14194" d="M 66.238281 70.070312 C 66.238281 70.070312 66.972656 71.304688 67.566406 70.84375 C 68.160156 70.382812 72.007812 67.234375 72.527344 66.328125 C 73.042969 65.417969 73.691406 60.609375 73.90625 59.40625 C 74.125 58.203125 75.40625 58.015625 76.351562 57.675781 C 77.917969 57.105469 78.195312 57.269531 78.195312 57.269531 C 78.195312 57.269531 75.238281 58.554688 74.824219 59.226562 C 74.40625 59.898438 73.777344 65.421875 73.546875 66.183594 C 73.320312 66.941406 66.679688 72.527344 66.628906 72.242188 C 66.582031 71.957031 66.238281 70.070312 66.238281 70.070312 Z M 66.238281 70.070312 " fill-opacity="1" fill-rule="evenodd"/><path fill="#d45e8c" d="M 66.238281 70.070312 C 66.257812 70.101562 66.980469 71.296875 67.566406 70.84375 C 68.160156 70.382812 72.007812 67.234375 72.527344 66.328125 C 73.042969 65.417969 73.691406 60.609375 73.90625 59.40625 C 74.125 58.203125 75.40625 58.015625 76.351562 57.675781 C 76.980469 57.445312 77.398438 57.335938 77.679688 57.285156 C 77.5625 57.390625 77.394531 57.476562 77.210938 57.5625 C 76.894531 57.710938 76.519531 57.835938 76.152344 57.976562 C 75.660156 58.160156 75.179688 58.371094 74.828125 58.644531 C 74.546875 58.867188 74.339844 59.136719 74.238281 59.457031 C 74.007812 60.195312 73.910156 62.183594 73.652344 63.949219 C 73.492188 65.027344 73.285156 66.015625 72.910156 66.511719 C 72.203125 67.429688 68.894531 70.234375 66.96875 71.839844 C 66.808594 71.148438 66.527344 70.554688 66.238281 70.070312 Z M 66.238281 70.070312 " fill-opacity="1" fill-rule="evenodd"/><path fill="#e28f8a" d="M 36.6875 56.851562 C 35.269531 56.519531 34.992188 56.527344 34.761719 56.066406 C 34.496094 55.542969 33.34375 53.628906 33.023438 53.683594 C 32.703125 53.742188 32.210938 54.328125 33.929688 57.398438 C 34.515625 58.273438 37.042969 58.367188 37.421875 59.582031 C 37.796875 60.792969 37.796875 65.433594 38.816406 66.761719 C 39.601562 67.789062 43.59375 71.140625 45.375 72.617188 C 45.472656 71.519531 45.921875 70.632812 46.347656 69.992188 C 45.03125 68.816406 42.882812 66.964844 41.003906 65.683594 C 41.003906 65.683594 39.796875 60.605469 39.382812 59.617188 C 39.078125 58.898438 39.15625 58.097656 38.460938 57.527344 C 38.203125 57.316406 37.835938 57.136719 37.308594 57.003906 C 37.078125 56.945312 36.875 56.894531 36.6875 56.851562 Z M 36.6875 56.851562 " fill-opacity="1" fill-rule="evenodd"/><path fill="#d45e8c" d="M 33.121094 54.371094 C 33.386719 55.125 33.9375 56.535156 34.527344 57.078125 C 35.347656 57.835938 37.917969 57.765625 38.144531 59.203125 C 38.375 60.640625 38.765625 64.976562 39.304688 65.980469 C 39.765625 66.835938 43.957031 70.386719 45.195312 71.425781 C 45.152344 71.558594 45.117188 71.695312 45.082031 71.839844 C 43.15625 70.234375 39.847656 67.429688 39.140625 66.511719 C 38.765625 66.015625 38.558594 65.027344 38.402344 63.949219 C 38.140625 62.183594 38.042969 60.195312 37.8125 59.457031 C 37.714844 59.136719 37.507812 58.867188 37.222656 58.644531 C 36.871094 58.371094 36.390625 58.160156 35.898438 57.976562 C 35.53125 57.835938 35.15625 57.710938 34.839844 57.5625 C 34.601562 57.453125 34.390625 57.339844 34.277344 57.183594 C 33.472656 55.738281 33.171875 54.878906 33.121094 54.371094 Z M 33.121094 54.371094 " fill-opacity="1" fill-rule="evenodd"/><g clip-path="url(#c8619e284a)"><path fill="#f285b1" d="M 45.375 72.617188 C 45.472656 71.519531 45.921875 70.632812 46.347656 69.992188 C 46.613281 69.589844 46.871094 69.285156 47.027344 69.089844 C 49.433594 70.738281 51.867188 72.65625 52.152344 72.664062 C 52.152344 72.699219 52.152344 72.734375 52.15625 72.773438 C 52.234375 73.636719 52.742188 76.609375 56.027344 76.609375 C 59.308594 76.609375 59.820312 73.636719 59.894531 72.773438 C 59.898438 72.734375 59.898438 72.699219 59.898438 72.664062 C 60.183594 72.65625 62.621094 70.738281 65.023438 69.089844 C 65.179688 69.285156 65.4375 69.589844 65.703125 69.992188 C 66.128906 70.632812 66.582031 71.519531 66.675781 72.617188 C 66.730469 73.207031 66.679688 73.859375 66.46875 74.5625 L 61.609375 78.351562 C 61.609375 78.351562 60.628906 80.8125 60.667969 84.1875 C 59.804688 85.085938 57.667969 85.46875 56.027344 85.46875 C 54.382812 85.46875 52.246094 85.085938 51.386719 84.1875 C 51.421875 80.8125 50.441406 78.351562 50.441406 78.351562 L 45.582031 74.5625 C 45.371094 73.859375 45.320312 73.207031 45.375 72.617188 Z M 45.375 72.617188 " fill-opacity="1" fill-rule="evenodd"/></g><path fill="#bb3995" d="M 60.09375 84.132812 C 59.851562 83.339844 59.566406 81.257812 61.125 77.277344 C 61.125 77.277344 65.613281 74.792969 66.28125 73.203125 C 66.269531 73.554688 66.21875 73.929688 66.109375 74.320312 C 66.109375 74.320312 61.355469 78.023438 61.355469 78.023438 C 61.300781 78.066406 61.253906 78.128906 61.226562 78.195312 C 61.226562 78.195312 60.25 80.636719 60.253906 84.011719 C 60.203125 84.054688 60.152344 84.09375 60.09375 84.132812 Z M 60.09375 84.132812 " fill-opacity="1" fill-rule="evenodd"/><path fill="#e28f8a" d="M 57.128906 70.179688 C 57.691406 69.945312 58.421875 69.449219 59.496094 68.414062 C 61.070312 66.898438 61.683594 66.390625 61.960938 65.285156 C 61.402344 63.457031 61.230469 61.328125 61.230469 59.316406 C 61.230469 56.320312 60.476562 55.769531 59.570312 56.1875 C 59.5625 56.675781 59.425781 57.199219 59.082031 57.714844 C 58.828125 55.988281 57.402344 54.746094 56.023438 56.121094 C 54.648438 54.746094 53.21875 55.988281 52.96875 57.714844 C 52.625 57.199219 52.488281 56.675781 52.480469 56.1875 C 51.570312 55.769531 50.816406 56.320312 50.816406 59.316406 C 50.816406 61.328125 50.648438 63.457031 50.089844 65.285156 C 50.363281 66.390625 50.980469 66.898438 52.550781 68.414062 C 53.554688 69.382812 54.261719 69.878906 54.808594 70.128906 C 55.3125 70.359375 55.679688 70.386719 56.023438 70.386719 C 56.34375 70.386719 56.679688 70.363281 57.128906 70.179688 Z M 58.144531 67.007812 C 58.308594 66.726562 58.425781 66.414062 58.488281 66.078125 C 57.753906 65.707031 56.917969 65.496094 56.023438 65.496094 C 55.132812 65.496094 54.292969 65.707031 53.558594 66.078125 C 53.625 66.414062 53.742188 66.726562 53.902344 67.007812 L 53.90625 67.007812 C 54.351562 67.785156 55.132812 68.300781 56.023438 68.300781 C 56.914062 68.300781 57.699219 67.785156 58.144531 67.007812 Z M 59.667969 61.097656 C 59.667969 60.019531 59.132812 59.144531 58.476562 59.144531 C 57.820312 59.144531 57.289062 60.019531 57.289062 61.097656 C 57.289062 62.175781 57.820312 63.050781 58.476562 63.050781 C 59.132812 63.050781 59.667969 62.175781 59.667969 61.097656 Z M 52.382812 61.097656 C 52.382812 62.175781 52.914062 63.050781 53.570312 63.050781 C 54.226562 63.050781 54.761719 62.175781 54.761719 61.097656 C 54.761719 60.019531 54.226562 59.144531 53.570312 59.144531 C 52.914062 59.144531 52.382812 60.019531 52.382812 61.097656 Z M 52.382812 61.097656 " fill-opacity="1" fill-rule="evenodd"/><path fill="#d45e8c" d="M 52.5625 57.84375 C 52.261719 57.925781 51.898438 58.171875 51.785156 58.957031 C 51.566406 60.484375 51.347656 63.992188 51.414062 65.058594 C 51.480469 66.125 54.425781 69.972656 56.023438 69.972656 C 55.730469 69.972656 55.410156 69.953125 54.980469 69.753906 L 54.976562 69.753906 C 54.457031 69.511719 53.789062 69.035156 52.839844 68.117188 C 51.402344 66.730469 50.789062 66.257812 50.515625 65.285156 C 51.054688 63.445312 51.226562 61.324219 51.226562 59.316406 C 51.226562 58.457031 51.289062 57.8125 51.40625 57.335938 C 51.472656 57.050781 51.558594 56.835938 51.664062 56.679688 C 51.730469 56.585938 51.800781 56.519531 51.886719 56.492188 C 51.949219 56.472656 52.015625 56.472656 52.085938 56.488281 C 52.132812 56.925781 52.277344 57.386719 52.5625 57.84375 Z M 52.5625 57.84375 " fill-opacity="1" fill-rule="evenodd"/><path fill="#d45e8c" d="M 56.023438 56.390625 C 54.886719 56.390625 53.597656 56.597656 52.96875 57.984375 C 53.789062 56.046875 54.652344 55.191406 56.023438 56.390625 Z M 56.023438 56.390625 " fill-opacity="1" fill-rule="evenodd"/><path fill="#bfd0d8" d="M 53.90625 67.007812 C 54.351562 67.785156 55.132812 68.300781 56.023438 68.300781 C 56.914062 68.300781 57.699219 67.785156 58.144531 67.007812 C 57.476562 66.851562 56.765625 66.761719 56.023438 66.761719 C 55.285156 66.761719 54.570312 66.851562 53.90625 67.007812 Z M 53.90625 67.007812 " fill-opacity="1" fill-rule="evenodd"/><path fill="#bfd0d8" d="M 58.144531 67.007812 C 58.308594 66.726562 58.425781 66.414062 58.488281 66.078125 C 57.753906 65.707031 56.917969 65.496094 56.023438 65.496094 C 55.132812 65.496094 54.292969 65.707031 53.558594 66.078125 C 53.625 66.414062 53.742188 66.726562 53.902344 67.007812 L 53.90625 67.007812 C 54.570312 66.851562 55.285156 66.761719 56.023438 66.761719 C 56.765625 66.761719 57.476562 66.851562 58.144531 67.007812 Z M 58.144531 67.007812 " fill-opacity="1" fill-rule="evenodd"/><path fill="#8fb4e0" d="M 59.667969 61.097656 C 59.667969 60.019531 59.132812 59.144531 58.476562 59.144531 C 57.820312 59.144531 57.289062 60.019531 57.289062 61.097656 C 57.289062 62.175781 57.820312 63.050781 58.476562 63.050781 C 59.132812 63.050781 59.667969 62.175781 59.667969 61.097656 Z M 59.667969 61.097656 " fill-opacity="1" fill-rule="evenodd"/><path fill="#8fb4e0" d="M 52.382812 61.097656 C 52.382812 62.175781 52.914062 63.050781 53.570312 63.050781 C 54.226562 63.050781 54.761719 62.175781 54.761719 61.097656 C 54.761719 60.019531 54.226562 59.144531 53.570312 59.144531 C 52.914062 59.144531 52.382812 60.019531 52.382812 61.097656 Z M 52.382812 61.097656 " fill-opacity="1" fill-rule="evenodd"/><path fill="#8fb4e0" d="M 39.527344 47.828125 C 38.632812 46.738281 37.605469 45.808594 36.515625 44.527344 C 34.097656 41.683594 35.53125 40.203125 33.644531 36.71875 C 31.757812 33.226562 34.363281 33.078125 38.703125 34.480469 C 43.042969 35.882812 43.953125 32.925781 46.816406 33.652344 C 52.480469 35.085938 53.003906 33.34375 56.023438 33.34375 C 59.042969 33.34375 59.570312 35.085938 65.230469 33.652344 C 68.097656 32.925781 69.007812 35.882812 73.347656 34.480469 C 77.683594 33.078125 80.289062 33.226562 78.402344 36.71875 C 76.515625 40.203125 77.949219 41.683594 75.535156 44.527344 C 74.785156 45.410156 74.0625 46.125 73.394531 46.839844 L 67.523438 41.207031 L 58.191406 48.761719 L 48.851562 39.242188 Z M 58.894531 36.917969 C 60.476562 36.917969 61.761719 38.207031 61.761719 39.796875 C 61.761719 41.386719 60.476562 42.679688 58.894531 42.679688 C 57.308594 42.679688 56.027344 41.386719 56.027344 39.796875 C 56.027344 38.207031 57.308594 36.917969 58.894531 36.917969 Z M 58.894531 36.917969 " fill-opacity="1" fill-rule="evenodd"/><path fill="#fde266" d="M 61.761719 39.796875 C 61.761719 40.179688 61.6875 40.546875 61.542969 40.898438 C 61.398438 41.253906 61.1875 41.5625 60.921875 41.835938 C 60.652344 42.105469 60.339844 42.3125 59.992188 42.457031 C 59.640625 42.605469 59.273438 42.679688 58.894531 42.679688 C 58.511719 42.679688 58.148438 42.605469 57.796875 42.457031 C 57.445312 42.3125 57.132812 42.105469 56.867188 41.835938 C 56.597656 41.5625 56.390625 41.253906 56.242188 40.898438 C 56.097656 40.546875 56.027344 40.179688 56.027344 39.796875 C 56.027344 39.414062 56.097656 39.046875 56.242188 38.695312 C 56.390625 38.34375 56.597656 38.03125 56.867188 37.761719 C 57.132812 37.488281 57.445312 37.28125 57.796875 37.136719 C 58.148438 36.988281 58.511719 36.917969 58.894531 36.917969 C 59.273438 36.917969 59.640625 36.988281 59.992188 37.136719 C 60.339844 37.28125 60.652344 37.488281 60.921875 37.761719 C 61.1875 38.03125 61.398438 38.34375 61.542969 38.695312 C 61.6875 39.046875 61.761719 39.414062 61.761719 39.796875 Z M 61.761719 39.796875 " fill-opacity="1" fill-rule="nonzero"/><path fill="#d3744f" d="M 58.894531 37.324219 C 60.25 37.324219 61.351562 38.433594 61.351562 39.796875 C 61.351562 41.160156 60.25 42.269531 58.894531 42.269531 C 57.535156 42.269531 56.433594 41.160156 56.433594 39.796875 C 56.433594 38.433594 57.535156 37.324219 58.894531 37.324219 Z M 58.894531 37.707031 C 57.742188 37.707031 56.8125 38.644531 56.8125 39.796875 C 56.8125 40.953125 57.742188 41.890625 58.894531 41.890625 C 60.042969 41.890625 60.976562 40.953125 60.976562 39.796875 C 60.976562 38.644531 60.042969 37.707031 58.894531 37.707031 Z M 58.894531 37.707031 " fill-opacity="1" fill-rule="evenodd"/><path fill="#f285b1" d="M 58.910156 72.429688 C 58.964844 72.089844 59.886719 71.921875 59.898438 72.664062 C 59.898438 72.699219 59.898438 72.734375 59.894531 72.773438 C 59.816406 73.636719 59.308594 76.609375 56.027344 76.609375 C 52.742188 76.609375 52.234375 73.636719 52.15625 72.773438 C 52.152344 72.734375 52.152344 72.699219 52.152344 72.664062 C 52.164062 71.921875 53.082031 72.089844 53.140625 72.429688 C 53.40625 75.039062 55.308594 75.523438 56.027344 75.523438 C 56.742188 75.523438 58.648438 75.039062 58.910156 72.429688 Z M 58.910156 72.429688 " fill-opacity="1" fill-rule="evenodd"/><path fill="#e28f8a" d="M 62.566406 62.808594 C 62.519531 61.078125 62.648438 59.65625 62.882812 58.625 C 63.425781 58.300781 64.222656 58.011719 64.589844 58.820312 C 65.289062 60.363281 63.535156 62.386719 62.988281 62.632812 C 62.808594 62.710938 62.675781 62.742188 62.566406 62.808594 Z M 62.566406 62.808594 " fill-opacity="1" fill-rule="evenodd"/><path fill="#e28f8a" d="M 49.164062 58.625 C 48.621094 58.300781 47.824219 58.011719 47.457031 58.820312 C 46.761719 60.363281 48.515625 62.386719 49.0625 62.632812 C 49.238281 62.710938 49.375 62.742188 49.484375 62.808594 C 49.527344 61.078125 49.398438 59.65625 49.164062 58.625 Z M 49.164062 58.625 " fill-opacity="1" fill-rule="evenodd"/><path fill="#e28f8a" d="M 75.363281 56.851562 C 75.808594 55.765625 76.027344 54.933594 75.480469 54.785156 C 74.933594 54.632812 74.261719 56.296875 73.589844 57.527344 C 73.851562 57.316406 74.214844 57.136719 74.746094 57.003906 C 74.972656 56.945312 75.179688 56.894531 75.363281 56.851562 Z M 75.363281 56.851562 " fill-opacity="1" fill-rule="evenodd"/><path fill="#e28f8a" d="M 36.6875 56.851562 C 36.242188 55.765625 36.023438 54.933594 36.570312 54.785156 C 37.117188 54.632812 37.789062 56.296875 38.460938 57.527344 C 38.203125 57.316406 37.835938 57.136719 37.308594 57.003906 C 37.078125 56.945312 36.875 56.894531 36.6875 56.851562 Z M 36.6875 56.851562 " fill-opacity="1" fill-rule="evenodd"/><g clip-path="url(#e05ad930b2)"><path fill="#bb3995" d="M 45.769531 72.851562 C 45.933594 73.199219 46.1875 73.605469 46.578125 73.996094 C 47.554688 74.976562 50.902344 77.277344 50.902344 77.277344 C 50.902344 77.277344 52.085938 78.046875 52.296875 80.273438 C 52.507812 82.496094 54.953125 84.226562 60.253906 84.011719 C 59.945312 84.273438 59.507812 84.472656 59.007812 84.632812 C 58.089844 84.921875 56.972656 85.054688 56.027344 85.054688 C 55.078125 85.054688 53.960938 84.921875 53.042969 84.632812 C 52.542969 84.472656 52.105469 84.273438 51.796875 84.011719 C 51.800781 80.636719 50.824219 78.195312 50.824219 78.195312 C 50.796875 78.128906 50.753906 78.066406 50.695312 78.023438 L 45.941406 74.320312 C 45.796875 73.796875 45.75 73.304688 45.769531 72.851562 Z M 45.769531 72.851562 " fill-opacity="1" fill-rule="evenodd"/></g><path fill="#d45e8c" d="M 48.800781 58.894531 C 48.976562 59.75 49.082031 60.851562 49.078125 62.160156 C 48.824219 61.960938 48.449219 61.523438 48.148438 61.007812 C 47.796875 60.390625 47.539062 59.644531 47.832031 58.992188 C 47.890625 58.863281 47.960938 58.777344 48.050781 58.738281 C 48.144531 58.699219 48.25 58.707031 48.355469 58.726562 C 48.507812 58.757812 48.660156 58.820312 48.800781 58.894531 Z M 48.800781 58.894531 " fill-opacity="1" fill-rule="evenodd"/><g clip-path="url(#5cc88cb996)"><path fill="#303e64" d="M 44.949219 72.800781 C 43.082031 71.25 39.261719 68.023438 38.488281 67.015625 C 38.054688 66.445312 37.769531 65.3125 37.585938 64.070312 C 37.332031 62.355469 37.25 60.421875 37.027344 59.703125 C 36.960938 59.488281 36.785156 59.335938 36.574219 59.199219 C 36.296875 59.019531 35.957031 58.882812 35.605469 58.75 C 35.140625 58.574219 34.660156 58.410156 34.289062 58.210938 C 33.980469 58.046875 33.738281 57.855469 33.585938 57.632812 C 33.582031 57.621094 33.574219 57.613281 33.570312 57.601562 C 32.46875 55.632812 32.25 54.601562 32.300781 54.09375 C 32.359375 53.484375 32.707031 53.320312 32.953125 53.277344 C 33.035156 53.261719 33.132812 53.265625 33.242188 53.3125 C 33.335938 53.347656 33.460938 53.433594 33.59375 53.570312 C 34.085938 54.070312 34.90625 55.441406 35.125 55.878906 C 35.214844 56.046875 35.324219 56.09375 35.574219 56.164062 C 35.699219 56.203125 35.851562 56.238281 36.035156 56.277344 C 35.902344 55.871094 35.828125 55.515625 35.835938 55.25 C 35.851562 54.789062 36.058594 54.496094 36.460938 54.386719 C 36.746094 54.304688 37.09375 54.429688 37.410156 54.8125 C 37.835938 55.328125 38.3125 56.386719 38.785156 57.261719 C 39.164062 57.59375 39.34375 57.984375 39.464844 58.398438 C 39.566406 58.746094 39.617188 59.113281 39.761719 59.457031 C 40.136719 60.351562 41.160156 64.566406 41.367188 65.433594 C 43.070312 66.613281 44.976562 68.226562 46.277344 69.375 C 46.445312 69.148438 46.597656 68.96875 46.703125 68.832031 C 46.835938 68.660156 47.078125 68.625 47.257812 68.746094 C 48.941406 69.902344 50.640625 71.1875 51.609375 71.859375 C 51.714844 71.933594 51.828125 72.007812 51.925781 72.070312 C 51.972656 72.007812 52.027344 71.953125 52.089844 71.910156 C 52.363281 71.699219 52.761719 71.683594 53.058594 71.808594 C 53.15625 71.84375 53.238281 71.898438 53.304688 71.957031 C 53.652344 71.871094 54.015625 71.800781 54.394531 71.75 L 54.394531 70.386719 C 53.855469 70.09375 53.175781 69.59375 52.265625 68.714844 C 51.160156 67.644531 50.515625 67.042969 50.121094 66.414062 C 49.894531 66.960938 49.625 67.472656 49.304688 67.929688 C 49.195312 68.089844 48.988281 68.152344 48.8125 68.078125 C 48.632812 68.003906 48.527344 67.8125 48.5625 67.621094 C 48.710938 66.769531 48.828125 65.953125 48.910156 65.179688 C 46.914062 63.953125 46.171875 63.113281 45.105469 59.980469 C 44.636719 58.59375 43.9375 58.347656 43.199219 58.019531 C 42.296875 57.625 41.328125 57.148438 40.507812 55.109375 C 39.78125 53.292969 38.542969 52.386719 37.484375 51.308594 C 36.328125 50.128906 35.351562 48.777344 35.273438 46.09375 C 35.265625 45.890625 35.40625 45.714844 35.605469 45.675781 C 35.800781 45.636719 36 45.746094 36.070312 45.9375 C 36.726562 47.695312 37.765625 48.539062 38.878906 49.402344 C 39.589844 49.957031 40.328125 50.515625 41.03125 51.289062 C 40.539062 49.9375 39.921875 48.960938 39.21875 48.097656 C 39.210938 48.089844 39.207031 48.085938 39.203125 48.078125 C 38.3125 46.988281 37.285156 46.074219 36.203125 44.796875 C 34.925781 43.292969 34.664062 42.152344 34.476562 40.925781 C 34.300781 39.804688 34.195312 38.601562 33.285156 36.914062 C 32.640625 35.722656 32.503906 34.859375 32.695312 34.296875 C 32.902344 33.695312 33.449219 33.335938 34.320312 33.253906 C 35.363281 33.160156 36.9375 33.476562 38.828125 34.085938 C 41.289062 34.882812 42.582031 34.183594 43.808594 33.652344 C 44.753906 33.246094 45.667969 32.933594 46.917969 33.25 C 50.203125 34.082031 51.699219 33.816406 53.003906 33.464844 C 53.933594 33.214844 54.773438 32.929688 56.023438 32.929688 C 57.277344 32.929688 58.117188 33.214844 59.046875 33.464844 C 60.347656 33.816406 61.847656 34.082031 65.132812 33.25 C 66.382812 32.933594 67.292969 33.246094 68.238281 33.652344 C 69.464844 34.183594 70.757812 34.882812 73.21875 34.085938 C 75.109375 33.476562 76.683594 33.160156 77.726562 33.253906 C 78.601562 33.335938 79.148438 33.695312 79.351562 34.296875 C 79.542969 34.859375 79.410156 35.722656 78.765625 36.914062 C 77.851562 38.601562 77.746094 39.804688 77.574219 40.925781 C 77.382812 42.152344 77.125 43.292969 75.847656 44.796875 C 75.101562 45.675781 74.378906 46.382812 73.714844 47.097656 C 73.707031 47.105469 73.699219 47.113281 73.691406 47.125 C 73.683594 47.132812 73.675781 47.136719 73.667969 47.144531 C 72.613281 48.273438 71.695312 49.425781 71.015625 51.289062 C 71.71875 50.515625 72.460938 49.957031 73.171875 49.402344 C 74.285156 48.539062 75.324219 47.695312 75.980469 45.9375 C 76.050781 45.746094 76.246094 45.636719 76.445312 45.675781 C 76.640625 45.714844 76.78125 45.890625 76.777344 46.09375 C 76.695312 48.777344 75.71875 50.128906 74.5625 51.308594 C 73.503906 52.386719 72.269531 53.292969 71.539062 55.109375 C 70.71875 57.148438 69.75 57.625 68.851562 58.019531 C 68.109375 58.347656 67.414062 58.59375 66.941406 59.980469 C 65.878906 63.113281 65.136719 63.953125 63.140625 65.179688 C 63.222656 65.953125 63.335938 66.769531 63.488281 67.621094 C 63.519531 67.8125 63.417969 68.003906 63.238281 68.078125 C 63.058594 68.152344 62.855469 68.089844 62.742188 67.929688 C 62.425781 67.472656 62.15625 66.960938 61.929688 66.414062 C 61.535156 67.042969 60.886719 67.644531 59.78125 68.714844 C 58.808594 69.652344 58.097656 70.164062 57.539062 70.445312 C 57.539062 70.886719 57.539062 71.738281 57.539062 71.738281 C 57.960938 71.789062 58.363281 71.863281 58.742188 71.957031 C 58.8125 71.898438 58.894531 71.84375 58.992188 71.808594 C 59.289062 71.683594 59.6875 71.699219 59.964844 71.910156 C 60.023438 71.953125 60.078125 72.007812 60.125 72.070312 C 60.226562 72.007812 60.335938 71.933594 60.445312 71.859375 C 61.410156 71.1875 63.109375 69.902344 64.792969 68.746094 C 64.972656 68.625 65.214844 68.660156 65.347656 68.832031 C 65.453125 68.96875 65.605469 69.148438 65.773438 69.375 C 67.074219 68.226562 68.980469 66.613281 70.683594 65.433594 C 70.890625 64.566406 71.914062 60.351562 72.289062 59.457031 C 72.433594 59.113281 72.484375 58.746094 72.585938 58.398438 C 72.707031 57.984375 72.890625 57.59375 73.265625 57.261719 C 73.738281 56.386719 74.214844 55.328125 74.640625 54.8125 C 74.960938 54.429688 75.304688 54.304688 75.589844 54.386719 C 75.992188 54.496094 76.199219 54.789062 76.214844 55.25 C 76.226562 55.515625 76.148438 55.871094 76.015625 56.277344 C 76.199219 56.238281 76.351562 56.203125 76.476562 56.164062 C 76.730469 56.097656 76.839844 56.046875 76.925781 55.878906 C 77.148438 55.441406 77.964844 54.070312 78.457031 53.570312 C 78.589844 53.433594 78.714844 53.347656 78.808594 53.3125 C 78.917969 53.265625 79.015625 53.261719 79.101562 53.277344 C 79.324219 53.316406 79.621094 53.460938 79.726562 53.933594 C 79.789062 54.207031 79.773438 54.664062 79.523438 55.390625 C 79.335938 55.933594 79.011719 56.652344 78.480469 57.601562 C 78.476562 57.613281 78.46875 57.621094 78.464844 57.632812 C 78.3125 57.855469 78.070312 58.046875 77.761719 58.210938 C 77.390625 58.410156 76.914062 58.574219 76.445312 58.75 C 76.097656 58.882812 75.753906 59.019531 75.476562 59.199219 C 75.265625 59.335938 75.089844 59.488281 75.023438 59.703125 C 74.800781 60.421875 74.71875 62.355469 74.464844 64.070312 C 74.28125 65.3125 74 66.445312 73.5625 67.015625 C 72.789062 68.023438 68.96875 71.25 67.101562 72.800781 C 67.128906 73.378906 67.066406 74.007812 66.863281 74.683594 C 66.839844 74.765625 66.789062 74.835938 66.722656 74.890625 C 66.722656 74.890625 61.953125 78.605469 61.953125 78.605469 C 61.777344 79.09375 61.046875 81.296875 61.078125 84.183594 C 61.078125 84.292969 61.039062 84.398438 60.960938 84.476562 C 60.578125 84.875 59.96875 85.195312 59.257812 85.421875 C 58.257812 85.738281 57.050781 85.882812 56.027344 85.882812 C 55 85.882812 53.792969 85.738281 52.792969 85.421875 C 52.082031 85.195312 51.472656 84.875 51.089844 84.476562 C 51.011719 84.398438 50.972656 84.292969 50.972656 84.183594 C 51.003906 81.296875 50.273438 79.09375 50.097656 78.605469 L 45.332031 74.890625 C 45.261719 74.835938 45.214844 74.765625 45.1875 74.683594 C 44.984375 74.007812 44.921875 73.378906 44.949219 72.800781 Z M 36.59375 57.253906 C 35.863281 57.082031 35.425781 56.996094 35.144531 56.898438 C 34.742188 56.757812 34.5625 56.585938 34.394531 56.253906 C 34.230469 55.933594 33.730469 55.082031 33.304688 54.507812 C 33.246094 54.433594 33.179688 54.355469 33.117188 54.285156 C 33.117188 54.3125 33.121094 54.34375 33.121094 54.371094 C 33.171875 54.878906 33.472656 55.738281 34.277344 57.183594 C 34.390625 57.339844 34.601562 57.453125 34.839844 57.5625 C 35.15625 57.710938 35.53125 57.835938 35.898438 57.976562 C 36.390625 58.160156 36.871094 58.371094 37.222656 58.644531 C 37.507812 58.867188 37.714844 59.136719 37.8125 59.457031 C 38.042969 60.195312 38.140625 62.183594 38.402344 63.949219 C 38.558594 65.027344 38.765625 66.015625 39.140625 66.511719 C 39.847656 67.429688 43.15625 70.234375 45.082031 71.839844 C 45.242188 71.148438 45.523438 70.554688 45.8125 70.070312 C 44.496094 68.902344 42.515625 67.21875 40.773438 66.027344 C 40.6875 65.96875 40.628906 65.882812 40.605469 65.78125 C 40.605469 65.78125 39.414062 60.753906 39.003906 59.78125 C 38.875 59.472656 38.804688 59.152344 38.726562 58.835938 C 38.640625 58.484375 38.542969 58.140625 38.21875 57.863281 C 38.207031 57.855469 38.195312 57.84375 38.183594 57.835938 C 37.960938 57.660156 37.652344 57.515625 37.207031 57.402344 C 36.984375 57.347656 36.777344 57.296875 36.597656 57.253906 C 36.59375 57.253906 36.59375 57.253906 36.59375 57.253906 Z M 37.535156 56.636719 C 37.332031 56.234375 37.128906 55.851562 36.9375 55.558594 C 36.855469 55.4375 36.730469 55.304688 36.660156 55.234375 C 36.65625 55.289062 36.65625 55.351562 36.664062 55.417969 C 36.699219 55.710938 36.824219 56.078125 36.988281 56.5 C 37.121094 56.53125 37.257812 56.5625 37.40625 56.601562 C 37.449219 56.613281 37.492188 56.625 37.535156 56.636719 Z M 51.757812 72.9375 C 51.6875 72.898438 51.605469 72.851562 51.515625 72.796875 C 50.714844 72.277344 48.929688 70.910156 47.109375 69.644531 C 46.988281 69.796875 46.851562 69.976562 46.710938 70.183594 C 46.699219 70.210938 46.683594 70.230469 46.664062 70.253906 C 46.074219 71.15625 45.457031 72.546875 45.941406 74.320312 L 50.695312 78.023438 C 50.753906 78.066406 50.796875 78.128906 50.824219 78.195312 C 50.824219 78.195312 51.800781 80.636719 51.796875 84.011719 C 52.105469 84.273438 52.542969 84.472656 53.042969 84.632812 C 53.960938 84.921875 55.078125 85.054688 56.027344 85.054688 C 56.972656 85.054688 58.089844 84.921875 59.007812 84.632812 C 59.507812 84.472656 59.945312 84.273438 60.253906 84.011719 C 60.25 80.636719 61.226562 78.195312 61.226562 78.195312 C 61.253906 78.128906 61.300781 78.066406 61.355469 78.023438 C 61.355469 78.023438 66.109375 74.320312 66.109375 74.320312 C 66.59375 72.546875 65.976562 71.15625 65.386719 70.253906 C 65.367188 70.230469 65.351562 70.210938 65.339844 70.183594 C 65.199219 69.976562 65.0625 69.796875 64.945312 69.644531 C 63.121094 70.910156 61.335938 72.277344 60.535156 72.796875 C 60.445312 72.851562 60.367188 72.898438 60.292969 72.9375 C 60.167969 74.027344 59.496094 77.023438 56.027344 77.023438 C 52.554688 77.023438 51.882812 74.027344 51.757812 72.9375 Z M 53.597656 72.738281 C 53.953125 74.703125 55.4375 75.109375 56.027344 75.109375 C 56.613281 75.109375 58.097656 74.707031 58.453125 72.738281 C 58.023438 72.636719 57.566406 72.5625 57.089844 72.519531 C 56.878906 72.5 56.714844 72.320312 56.714844 72.105469 L 56.714844 70.738281 C 56.464844 70.792969 56.238281 70.800781 56.023438 70.800781 C 55.777344 70.800781 55.519531 70.789062 55.21875 70.714844 L 55.21875 72.117188 C 55.21875 72.328125 55.058594 72.507812 54.851562 72.527344 C 54.410156 72.574219 53.992188 72.644531 53.597656 72.738281 Z M 56.027344 75.9375 C 55.226562 75.9375 53.082031 75.433594 52.742188 72.574219 C 52.714844 72.566406 52.679688 72.554688 52.652344 72.554688 C 52.628906 72.554688 52.601562 72.550781 52.585938 72.570312 C 52.5625 72.589844 52.566406 72.625 52.5625 72.671875 C 52.5625 72.671875 52.5625 72.675781 52.5625 72.679688 C 52.5625 72.695312 52.5625 72.714844 52.566406 72.734375 C 52.636719 73.511719 53.078125 76.195312 56.027344 76.195312 C 58.972656 76.195312 59.414062 73.515625 59.484375 72.734375 C 59.488281 72.714844 59.488281 72.699219 59.488281 72.679688 C 59.488281 72.675781 59.488281 72.671875 59.488281 72.671875 C 59.484375 72.625 59.488281 72.589844 59.464844 72.570312 C 59.449219 72.550781 59.421875 72.554688 59.398438 72.554688 C 59.371094 72.554688 59.335938 72.566406 59.308594 72.574219 C 58.96875 75.433594 56.824219 75.9375 56.027344 75.9375 Z M 50.515625 65.285156 C 50.789062 66.257812 51.402344 66.730469 52.839844 68.117188 C 53.789062 69.035156 54.457031 69.511719 54.976562 69.753906 C 54.976562 69.753906 54.980469 69.753906 54.980469 69.753906 C 55.410156 69.953125 55.730469 69.972656 56.023438 69.972656 C 56.296875 69.972656 56.589844 69.957031 56.972656 69.796875 C 57.503906 69.574219 58.195312 69.097656 59.210938 68.117188 C 60.648438 66.730469 61.261719 66.257812 61.535156 65.285156 C 60.992188 63.445312 60.820312 61.324219 60.820312 59.316406 C 60.820312 58.191406 60.71875 57.433594 60.527344 56.953125 C 60.429688 56.710938 60.328125 56.554688 60.179688 56.5 C 60.113281 56.472656 60.039062 56.472656 59.964844 56.484375 C 59.914062 56.960938 59.75 57.457031 59.421875 57.945312 C 59.328125 58.085938 59.15625 58.15625 58.988281 58.117188 C 58.824219 58.078125 58.699219 57.941406 58.675781 57.773438 C 58.546875 56.914062 58.109375 56.175781 57.5 55.984375 C 57.136719 55.871094 56.726562 56 56.316406 56.414062 C 56.261719 56.46875 56.191406 56.507812 56.113281 56.523438 C 56.078125 56.550781 56.054688 56.5625 56.054688 56.5625 C 56.035156 56.5625 56.019531 56.5625 56.003906 56.558594 L 55.996094 56.5625 C 55.824219 56.5625 55.671875 56.453125 55.613281 56.300781 C 55.242188 55.980469 54.878906 55.882812 54.546875 55.984375 C 53.9375 56.175781 53.5 56.914062 53.375 57.773438 C 53.351562 57.941406 53.226562 58.078125 53.058594 58.117188 C 52.894531 58.15625 52.722656 58.085938 52.625 57.945312 C 52.300781 57.457031 52.136719 56.960938 52.085938 56.488281 C 52.015625 56.472656 51.949219 56.472656 51.886719 56.492188 C 51.800781 56.519531 51.730469 56.585938 51.664062 56.679688 C 51.558594 56.835938 51.472656 57.050781 51.40625 57.335938 C 51.289062 57.8125 51.226562 58.457031 51.226562 59.316406 C 51.226562 61.324219 51.054688 63.445312 50.515625 65.285156 Z M 40.082031 47.871094 C 41.097656 49.179688 41.929688 50.757812 42.464844 53.394531 C 42.507812 53.59375 42.394531 53.796875 42.203125 53.863281 C 42.007812 53.933594 41.796875 53.851562 41.699219 53.671875 C 40.714844 51.820312 39.5 50.933594 38.375 50.054688 C 37.695312 49.527344 37.046875 49.003906 36.476562 48.3125 C 36.964844 49.691406 37.839844 50.515625 38.734375 51.375 C 39.679688 52.285156 40.644531 53.234375 41.273438 54.800781 C 41.964844 56.515625 42.769531 56.929688 43.527344 57.261719 C 44.449219 57.667969 45.300781 57.988281 45.886719 59.710938 C 46.792969 62.382812 47.433594 63.242188 48.996094 64.257812 C 49.023438 63.886719 49.042969 63.53125 49.058594 63.183594 C 49.058594 63.148438 49.0625 63.113281 49.0625 63.078125 C 49.011719 63.058594 48.953125 63.039062 48.894531 63.011719 C 48.582031 62.871094 47.914062 62.246094 47.4375 61.421875 C 46.953125 60.578125 46.679688 59.542969 47.082031 58.652344 C 47.40625 57.933594 47.972656 57.804688 48.53125 57.921875 C 48.5 57.839844 48.46875 57.761719 48.433594 57.6875 C 48.339844 57.480469 48.425781 57.234375 48.632812 57.140625 C 48.839844 57.042969 49.085938 57.132812 49.179688 57.339844 C 49.328125 57.65625 49.457031 58.054688 49.566406 58.535156 C 49.808594 59.589844 49.941406 61.046875 49.894531 62.8125 C 49.894531 62.816406 49.894531 62.820312 49.894531 62.824219 C 49.890625 62.953125 49.886719 63.085938 49.882812 63.21875 C 49.859375 63.773438 49.820312 64.355469 49.757812 64.964844 C 50.257812 63.222656 50.40625 61.214844 50.40625 59.316406 C 50.40625 58.042969 50.542969 57.1875 50.757812 56.648438 C 50.964844 56.125 51.257812 55.847656 51.570312 55.726562 C 51.738281 55.664062 51.917969 55.640625 52.105469 55.65625 C 52.21875 54.953125 52.550781 54.355469 52.890625 53.992188 C 53.113281 53.753906 53.347656 53.609375 53.542969 53.558594 C 53.761719 53.5 53.988281 53.632812 54.046875 53.855469 C 54.101562 54.074219 53.972656 54.300781 53.75 54.359375 C 53.628906 54.390625 53.496094 54.53125 53.363281 54.710938 C 53.101562 55.0625 52.882812 55.589844 52.890625 56.183594 C 52.894531 56.285156 52.902344 56.394531 52.917969 56.5 C 53.246094 55.851562 53.742188 55.367188 54.304688 55.195312 C 54.832031 55.03125 55.429688 55.109375 56.023438 55.570312 C 56.621094 55.109375 57.21875 55.03125 57.746094 55.195312 C 58.304688 55.367188 58.804688 55.851562 59.128906 56.5 C 59.144531 56.402344 59.15625 56.304688 59.15625 56.210938 C 59.15625 56.203125 59.15625 56.195312 59.15625 56.1875 C 59.15625 56.175781 59.15625 56.164062 59.15625 56.152344 C 59.15625 55.574219 58.941406 55.054688 58.6875 54.710938 C 58.550781 54.53125 58.417969 54.390625 58.296875 54.359375 C 58.078125 54.300781 57.945312 54.074219 58.003906 53.855469 C 58.0625 53.632812 58.285156 53.5 58.507812 53.558594 C 58.699219 53.609375 58.9375 53.753906 59.160156 53.992188 C 59.5 54.355469 59.832031 54.953125 59.941406 55.65625 C 60.128906 55.640625 60.308594 55.664062 60.476562 55.726562 C 60.789062 55.847656 61.082031 56.125 61.292969 56.648438 C 61.507812 57.1875 61.644531 58.042969 61.644531 59.316406 C 61.644531 61.214844 61.792969 63.222656 62.289062 64.964844 C 62.230469 64.355469 62.191406 63.773438 62.167969 63.21875 C 62.164062 63.085938 62.160156 62.953125 62.15625 62.824219 C 62.15625 62.820312 62.15625 62.816406 62.15625 62.8125 C 62.109375 61.046875 62.242188 59.589844 62.484375 58.535156 C 62.589844 58.054688 62.722656 57.65625 62.867188 57.339844 C 62.964844 57.132812 63.210938 57.042969 63.414062 57.140625 C 63.621094 57.234375 63.710938 57.480469 63.613281 57.6875 C 63.582031 57.761719 63.550781 57.839844 63.519531 57.921875 C 64.074219 57.804688 64.640625 57.933594 64.964844 58.652344 C 65.367188 59.542969 65.097656 60.578125 64.613281 61.421875 C 64.136719 62.246094 63.464844 62.871094 63.15625 63.011719 C 63.09375 63.039062 63.039062 63.058594 62.988281 63.078125 C 62.988281 63.113281 62.988281 63.148438 62.992188 63.183594 C 63.003906 63.53125 63.027344 63.886719 63.054688 64.257812 C 64.617188 63.242188 65.257812 62.382812 66.164062 59.710938 C 66.386719 59.050781 66.652344 58.597656 66.945312 58.261719 L 57.90625 49.050781 C 57.902344 49.050781 57.902344 49.046875 57.898438 49.042969 L 48.839844 39.8125 Z M 56.023438 33.757812 C 54.859375 33.757812 54.082031 34.03125 53.21875 34.265625 C 51.824219 34.640625 50.226562 34.941406 46.714844 34.054688 C 45.386719 33.714844 44.519531 34.261719 43.472656 34.699219 C 42.273438 35.203125 40.878906 35.617188 38.578125 34.875 C 36.820312 34.304688 35.363281 33.992188 34.394531 34.078125 C 33.925781 34.121094 33.585938 34.242188 33.476562 34.5625 C 33.414062 34.75 33.421875 34.984375 33.492188 35.269531 C 33.574219 35.621094 33.746094 36.035156 34.007812 36.519531 C 34.980469 38.320312 35.105469 39.601562 35.289062 40.800781 C 35.457031 41.894531 35.6875 42.917969 36.828125 44.257812 C 37.808594 45.410156 38.734375 46.285156 39.5625 47.242188 L 48.578125 38.941406 C 48.738281 38.792969 48.988281 38.796875 49.144531 38.957031 L 58.222656 48.210938 L 67.269531 40.886719 C 67.429688 40.757812 67.660156 40.765625 67.808594 40.910156 L 73.382812 46.261719 C 73.964844 45.644531 74.582031 45.011719 75.222656 44.257812 C 76.359375 42.917969 76.589844 41.894531 76.761719 40.800781 C 76.945312 39.601562 77.066406 38.320312 78.042969 36.519531 C 78.304688 36.035156 78.472656 35.621094 78.558594 35.269531 C 78.625 34.984375 78.636719 34.75 78.574219 34.5625 C 78.464844 34.242188 78.125 34.121094 77.652344 34.078125 C 76.683594 33.992188 75.226562 34.304688 73.472656 34.875 C 71.167969 35.617188 69.773438 35.203125 68.578125 34.699219 C 67.53125 34.261719 66.660156 33.714844 65.332031 34.054688 C 61.824219 34.941406 60.222656 34.640625 58.832031 34.265625 C 57.964844 34.03125 57.1875 33.757812 56.023438 33.757812 Z M 67.570312 57.734375 C 67.871094 57.542969 68.191406 57.40625 68.519531 57.261719 C 69.28125 56.929688 70.085938 56.515625 70.777344 54.800781 C 71.40625 53.234375 72.367188 52.285156 73.3125 51.375 C 74.207031 50.515625 75.085938 49.691406 75.570312 48.3125 C 75.003906 49.003906 74.355469 49.527344 73.675781 50.054688 C 72.546875 50.933594 71.335938 51.820312 70.351562 53.671875 C 70.253906 53.851562 70.039062 53.933594 69.847656 53.863281 C 69.65625 53.796875 69.542969 53.59375 69.582031 53.394531 C 70.265625 50.046875 71.417969 48.410156 72.824219 46.859375 L 67.503906 41.75 L 58.796875 48.796875 Z M 73.832031 57.863281 C 73.507812 58.136719 73.410156 58.484375 73.324219 58.835938 C 73.246094 59.152344 73.179688 59.472656 73.046875 59.78125 C 72.636719 60.753906 71.445312 65.78125 71.445312 65.78125 C 71.421875 65.882812 71.363281 65.96875 71.277344 66.027344 C 69.535156 67.214844 67.554688 68.902344 66.238281 70.070312 C 66.527344 70.554688 66.808594 71.148438 66.96875 71.839844 C 68.894531 70.234375 72.203125 67.429688 72.910156 66.511719 C 73.285156 66.015625 73.492188 65.027344 73.652344 63.949219 C 73.910156 62.183594 74.007812 60.195312 74.238281 59.457031 C 74.339844 59.136719 74.546875 58.867188 74.828125 58.644531 C 75.179688 58.371094 75.660156 58.160156 76.152344 57.976562 C 76.519531 57.835938 76.894531 57.710938 77.210938 57.5625 C 77.449219 57.453125 77.660156 57.339844 77.773438 57.179688 C 78.578125 55.734375 78.878906 54.878906 78.929688 54.371094 C 78.933594 54.34375 78.933594 54.3125 78.933594 54.285156 C 78.871094 54.355469 78.804688 54.433594 78.75 54.507812 C 78.320312 55.082031 77.820312 55.933594 77.660156 56.253906 C 77.488281 56.585938 77.308594 56.757812 76.910156 56.898438 C 76.625 56.996094 76.1875 57.082031 75.457031 57.253906 C 75.273438 57.296875 75.070312 57.347656 74.84375 57.402344 C 74.398438 57.515625 74.089844 57.660156 73.867188 57.835938 C 73.855469 57.84375 73.84375 57.855469 73.832031 57.863281 Z M 75.0625 56.5 C 75.230469 56.078125 75.351562 55.710938 75.386719 55.417969 C 75.394531 55.351562 75.398438 55.289062 75.390625 55.234375 C 75.320312 55.304688 75.195312 55.4375 75.113281 55.558594 C 74.921875 55.851562 74.71875 56.234375 74.515625 56.636719 C 74.558594 56.625 74.601562 56.613281 74.644531 56.601562 C 74.792969 56.5625 74.933594 56.53125 75.0625 56.5 Z M 38.191406 57.839844 Z M 48.800781 58.894531 C 48.660156 58.820312 48.507812 58.757812 48.355469 58.726562 C 48.25 58.707031 48.144531 58.699219 48.050781 58.738281 C 47.960938 58.777344 47.890625 58.863281 47.832031 58.992188 C 47.539062 59.644531 47.796875 60.390625 48.148438 61.007812 C 48.449219 61.523438 48.824219 61.960938 49.078125 62.160156 C 49.082031 60.851562 48.976562 59.75 48.800781 58.894531 Z M 63.246094 58.894531 C 63.070312 59.75 62.96875 60.851562 62.96875 62.160156 C 63.226562 61.960938 63.601562 61.523438 63.898438 61.007812 C 64.253906 60.390625 64.511719 59.644531 64.214844 58.992188 C 64.15625 58.863281 64.089844 58.777344 64 58.738281 C 63.90625 58.699219 63.800781 58.707031 63.695312 58.726562 C 63.542969 58.757812 63.386719 58.820312 63.246094 58.894531 Z M 73.847656 57.851562 Z M 58.894531 36.507812 C 60.699219 36.507812 62.167969 37.980469 62.167969 39.796875 C 62.167969 41.613281 60.699219 43.085938 58.894531 43.085938 C 57.085938 43.085938 55.617188 41.613281 55.617188 39.796875 C 55.617188 37.980469 57.085938 36.507812 58.894531 36.507812 Z M 58.894531 37.324219 C 57.535156 37.324219 56.433594 38.433594 56.433594 39.796875 C 56.433594 41.160156 57.535156 42.269531 58.894531 42.269531 C 60.25 42.269531 61.351562 41.160156 61.351562 39.796875 C 61.351562 38.433594 60.25 37.324219 58.894531 37.324219 Z M 53.5625 67.242188 C 53.558594 67.234375 53.554688 67.226562 53.546875 67.214844 C 53.363281 66.894531 53.230469 66.539062 53.15625 66.15625 C 53.121094 65.972656 53.210938 65.789062 53.375 65.707031 C 54.164062 65.308594 55.066406 65.082031 56.023438 65.082031 C 56.984375 65.082031 57.886719 65.308594 58.675781 65.707031 C 58.839844 65.789062 58.929688 65.972656 58.894531 66.15625 C 58.820312 66.539062 58.6875 66.894531 58.5 67.214844 C 57.980469 68.125 57.0625 68.714844 56.023438 68.714844 C 54.996094 68.714844 54.085938 68.132812 53.5625 67.242188 Z M 57.921875 66.535156 C 57.953125 66.460938 57.980469 66.386719 58.007812 66.308594 C 57.402344 66.050781 56.730469 65.910156 56.023438 65.910156 C 55.316406 65.910156 54.648438 66.050781 54.042969 66.308594 C 54.066406 66.386719 54.097656 66.460938 54.128906 66.535156 C 54.730469 66.414062 55.367188 66.347656 56.023438 66.347656 C 56.679688 66.347656 57.316406 66.414062 57.921875 66.535156 Z M 54.628906 67.285156 C 55 67.660156 55.488281 67.886719 56.023438 67.886719 C 56.5625 67.886719 57.050781 67.660156 57.417969 67.285156 C 56.96875 67.214844 56.503906 67.175781 56.023438 67.175781 C 55.546875 67.175781 55.078125 67.214844 54.628906 67.285156 Z M 51.972656 61.097656 C 51.972656 60.339844 52.207031 59.671875 52.554688 59.257812 C 52.835938 58.914062 53.195312 58.730469 53.570312 58.730469 C 53.949219 58.730469 54.308594 58.914062 54.589844 59.257812 C 54.933594 59.671875 55.171875 60.339844 55.171875 61.097656 C 55.171875 61.855469 54.933594 62.523438 54.589844 62.9375 C 54.308594 63.277344 53.949219 63.464844 53.570312 63.464844 C 53.195312 63.464844 52.835938 63.277344 52.554688 62.9375 C 52.207031 62.523438 51.972656 61.855469 51.972656 61.097656 Z M 53.152344 59.828125 C 52.929688 60.125 52.792969 60.585938 52.792969 61.097656 C 52.792969 61.632812 52.941406 62.113281 53.1875 62.40625 C 53.296875 62.542969 53.425781 62.636719 53.570312 62.636719 C 53.71875 62.636719 53.847656 62.542969 53.957031 62.40625 C 54.203125 62.113281 54.347656 61.632812 54.347656 61.097656 C 54.347656 60.570312 54.207031 60.09375 53.96875 59.800781 L 53.96875 61.210938 C 53.96875 61.433594 53.785156 61.617188 53.558594 61.617188 C 53.335938 61.617188 53.152344 61.433594 53.152344 61.210938 Z M 60.078125 61.097656 C 60.078125 61.855469 59.839844 62.523438 59.496094 62.9375 C 59.210938 63.277344 58.855469 63.464844 58.476562 63.464844 C 58.101562 63.464844 57.742188 63.277344 57.460938 62.9375 C 57.113281 62.523438 56.878906 61.855469 56.878906 61.097656 C 56.878906 60.339844 57.113281 59.671875 57.460938 59.257812 C 57.742188 58.914062 58.101562 58.730469 58.476562 58.730469 C 58.855469 58.730469 59.210938 58.914062 59.496094 59.257812 C 59.839844 59.671875 60.078125 60.339844 60.078125 61.097656 Z M 58.070312 59.8125 C 57.839844 60.109375 57.699219 60.578125 57.699219 61.097656 C 57.699219 61.632812 57.847656 62.113281 58.09375 62.40625 C 58.203125 62.542969 58.328125 62.636719 58.476562 62.636719 C 58.625 62.636719 58.753906 62.542969 58.863281 62.40625 C 59.109375 62.113281 59.253906 61.632812 59.253906 61.097656 C 59.253906 60.578125 59.117188 60.109375 58.886719 59.8125 L 58.886719 61.210938 C 58.886719 61.433594 58.703125 61.617188 58.476562 61.617188 C 58.253906 61.617188 58.070312 61.433594 58.070312 61.210938 Z M 58.070312 59.8125 " fill-opacity="1" fill-rule="evenodd"/></g></svg>