<svg xmlns="http://www.w3.org/2000/svg" xmlns:xlink="http://www.w3.org/1999/xlink" width="150" zoomAndPan="magnify" viewBox="0 0 112.5 112.499997" height="150" preserveAspectRatio="xMidYMid meet" version="1.0"><defs><filter x="0%" y="0%" width="100%" height="100%" id="86f7cffa49"><feColorMatrix values="0 0 0 0 1 0 0 0 0 1 0 0 0 0 1 0 0 0 1 0" color-interpolation-filters="sRGB"/></filter><g/><clipPath id="bdb8ba5aa8"><path d="M 0 0 L 112.003906 0 L 112.003906 112.003906 L 0 112.003906 Z M 0 0 " clip-rule="nonzero"/></clipPath><clipPath id="655ed3623e"><path d="M 56 0 L 63.886719 6.21875 L 73.304688 2.742188 L 78.882812 11.09375 L 88.917969 10.695312 L 91.640625 20.363281 L 101.308594 23.085938 L 100.910156 33.121094 L 109.261719 38.695312 L 105.78125 48.117188 L 112.003906 56 L 105.78125 63.886719 L 109.261719 73.304688 L 100.910156 78.882812 L 101.308594 88.917969 L 91.640625 91.640625 L 88.917969 101.308594 L 78.882812 100.910156 L 73.304688 109.261719 L 63.886719 105.78125 L 56 112.003906 L 48.117188 105.78125 L 38.695312 109.261719 L 33.121094 100.910156 L 23.085938 101.308594 L 20.363281 91.640625 L 10.695312 88.917969 L 11.09375 78.882812 L 2.742188 73.304688 L 6.21875 63.886719 L 0 56 L 6.21875 48.117188 L 2.742188 38.695312 L 11.09375 33.121094 L 10.695312 23.085938 L 20.363281 20.363281 L 23.085938 10.695312 L 33.121094 11.09375 L 38.695312 2.742188 L 48.117188 6.21875 Z M 56 0 " clip-rule="nonzero"/></clipPath><clipPath id="d43d74d87b"><path d="M 12.539062 56.261719 L 20.09375 56.261719 L 20.09375 63.816406 L 12.539062 63.816406 Z M 12.539062 56.261719 " clip-rule="nonzero"/></clipPath><clipPath id="acdf27d6b2"><path d="M 16.316406 56.261719 L 17.519531 58.839844 L 20.09375 60.039062 L 17.519531 61.242188 L 16.316406 63.816406 L 15.113281 61.242188 L 12.539062 60.039062 L 15.113281 58.839844 Z M 16.316406 56.261719 " clip-rule="nonzero"/></clipPath><clipPath id="95a9ce415e"><path d="M 91.910156 56.261719 L 99.464844 56.261719 L 99.464844 63.816406 L 91.910156 63.816406 Z M 91.910156 56.261719 " clip-rule="nonzero"/></clipPath><clipPath id="c1ec264cf5"><path d="M 95.6875 56.261719 L 96.886719 58.839844 L 99.464844 60.039062 L 96.886719 61.242188 L 95.6875 63.816406 L 94.484375 61.242188 L 91.910156 60.039062 L 94.484375 58.839844 Z M 95.6875 56.261719 " clip-rule="nonzero"/></clipPath><mask id="edc30cb0c8"><g filter="url(#86f7cffa49)"><rect x="-11.25" width="135" fill="#000000" y="-11.25" height="134.999996" fill-opacity="0.42"/></g></mask><clipPath id="f990c49e0e"><path d="M 0.152344 15.382812 L 69.59375 15.382812 L 69.59375 66.847656 L 0.152344 66.847656 Z M 0.152344 15.382812 " clip-rule="nonzero"/></clipPath><clipPath id="8023af5a73"><rect x="0" width="71" y="0" height="68"/></clipPath><clipPath id="47bc8e0908"><path d="M 32 43 L 70 43 L 70 75.992188 L 32 75.992188 Z M 32 43 " clip-rule="nonzero"/></clipPath><clipPath id="b1b3db59b1"><path d="M 38 44 L 70 44 L 70 75.992188 L 38 75.992188 Z M 38 44 " clip-rule="nonzero"/></clipPath><clipPath id="3994ca1517"><path d="M 29 43 L 70 43 L 70 75.992188 L 29 75.992188 Z M 29 43 " clip-rule="nonzero"/></clipPath></defs><g clip-path="url(#bdb8ba5aa8)"><g clip-path="url(#655ed3623e)"><path fill="#9cc4e4" d="M 0 0 L 112.003906 0 L 112.003906 112.003906 L 0 112.003906 Z M 0 0 " fill-opacity="1" fill-rule="nonzero"/></g></g><g clip-path="url(#d43d74d87b)"><g clip-path="url(#acdf27d6b2)"><path fill="#0762ab" d="M 12.539062 56.261719 L 20.09375 56.261719 L 20.09375 63.816406 L 12.539062 63.816406 Z M 12.539062 56.261719 " fill-opacity="1" fill-rule="nonzero"/></g></g><g fill="#000000" fill-opacity="1"><g transform="translate(19.757191, 50.655665)"><g><path d="M -6.6875 -5.578125 C -6.5625 -6.117188 -6.359375 -6.5625 -6.078125 -6.90625 C -5.796875 -7.25 -5.453125 -7.476562 -5.046875 -7.59375 C -4.648438 -7.707031 -4.21875 -7.710938 -3.75 -7.609375 C -3.269531 -7.492188 -2.878906 -7.300781 -2.578125 -7.03125 C -2.273438 -6.769531 -2.066406 -6.421875 -1.953125 -5.984375 C -1.835938 -5.554688 -1.84375 -5.070312 -1.96875 -4.53125 L -2.28125 -3.09375 L 0.546875 -2.46875 L 0.21875 -0.96875 L -7.328125 -2.640625 Z M -3.171875 -4.59375 C -2.992188 -5.425781 -3.300781 -5.929688 -4.09375 -6.109375 C -4.882812 -6.285156 -5.367188 -5.957031 -5.546875 -5.125 L -5.828125 -3.890625 L -3.453125 -3.359375 Z M -3.171875 -4.59375 "/></g></g></g><g fill="#000000" fill-opacity="1"><g transform="translate(22.822198, 39.75698)"><g><path d="M 3.78125 -6.390625 L 2.953125 -5 L 1.125 -5.40625 L -0.375 -2.859375 L 0.859375 -1.453125 L 0.0625 -0.09375 L -5.234375 -6.34375 L -4.234375 -8.03125 Z M -3.40625 -6.28125 L -1.296875 -3.875 L -0.203125 -5.703125 L -3.34375 -6.390625 Z M -3.40625 -6.28125 "/></g></g></g><g fill="#000000" fill-opacity="1"><g transform="translate(29.380302, 29.984568)"><g><path d="M 3.28125 -2.703125 C 2.726562 -2.234375 2.148438 -1.929688 1.546875 -1.796875 C 0.941406 -1.660156 0.328125 -1.71875 -0.296875 -1.96875 C -0.921875 -2.21875 -1.519531 -2.671875 -2.09375 -3.328125 C -2.65625 -3.984375 -3.015625 -4.632812 -3.171875 -5.28125 C -3.335938 -5.9375 -3.3125 -6.554688 -3.09375 -7.140625 C -2.882812 -7.722656 -2.503906 -8.25 -1.953125 -8.71875 C -1.398438 -9.195312 -0.828125 -9.492188 -0.234375 -9.609375 C 0.347656 -9.734375 0.921875 -9.644531 1.484375 -9.34375 L 1.078125 -8.09375 L 0.984375 -8.015625 C 0.585938 -8.210938 0.226562 -8.28125 -0.09375 -8.21875 C -0.425781 -8.15625 -0.753906 -7.984375 -1.078125 -7.703125 C -1.566406 -7.273438 -1.804688 -6.785156 -1.796875 -6.234375 C -1.785156 -5.679688 -1.484375 -5.054688 -0.890625 -4.359375 C -0.273438 -3.660156 0.300781 -3.269531 0.84375 -3.1875 C 1.394531 -3.101562 1.914062 -3.273438 2.40625 -3.703125 C 3.15625 -4.359375 3.300781 -5.125 2.84375 -6 L 2.9375 -6.078125 L 4.171875 -6.390625 C 4.492188 -5.703125 4.582031 -5.050781 4.4375 -4.4375 C 4.289062 -3.820312 3.90625 -3.242188 3.28125 -2.703125 Z M 3.28125 -2.703125 "/></g></g></g><g fill="#000000" fill-opacity="1"><g transform="translate(38.934072, 22.823321)"><g><path d="M 2.28125 -1.09375 L 0.90625 -0.4375 L -2.421875 -7.421875 L -1.046875 -8.078125 Z M 2.28125 -1.09375 "/></g></g></g><g fill="#000000" fill-opacity="1"><g transform="translate(46.198594, 19.666481)"><g><path d="M 2.453125 -0.40625 L 0.984375 -0.15625 L -0.265625 -7.796875 L 1.484375 -8.078125 L 5.34375 -3.65625 L 5.46875 -3.71875 L 4.671875 -8.609375 L 6.125 -8.84375 L 7.375 -1.203125 L 5.828125 -0.953125 L 1.734375 -5.6875 L 1.59375 -5.65625 Z M 2.453125 -0.40625 "/></g></g></g><g fill="#000000" fill-opacity="1"><g transform="translate(58.788553, 18.371515)"><g><path d="M 3.6875 0.78125 C 3.050781 0.664062 2.523438 0.421875 2.109375 0.046875 C 1.703125 -0.316406 1.421875 -0.816406 1.265625 -1.453125 C 1.117188 -2.085938 1.125 -2.835938 1.28125 -3.703125 C 1.4375 -4.566406 1.71875 -5.265625 2.125 -5.796875 C 2.53125 -6.335938 3.03125 -6.703125 3.625 -6.890625 C 4.21875 -7.078125 4.867188 -7.109375 5.578125 -6.984375 C 6.304688 -6.847656 6.898438 -6.597656 7.359375 -6.234375 C 7.828125 -5.878906 8.117188 -5.410156 8.234375 -4.828125 L 7.015625 -4.359375 L 6.890625 -4.375 C 6.785156 -4.757812 6.601562 -5.050781 6.34375 -5.25 C 6.09375 -5.457031 5.757812 -5.597656 5.34375 -5.671875 C 4.6875 -5.785156 4.144531 -5.664062 3.71875 -5.3125 C 3.300781 -4.96875 3.007812 -4.335938 2.84375 -3.421875 C 2.675781 -2.492188 2.71875 -1.796875 2.96875 -1.328125 C 3.21875 -0.859375 3.660156 -0.566406 4.296875 -0.453125 C 4.847656 -0.347656 5.273438 -0.394531 5.578125 -0.59375 C 5.878906 -0.789062 6.070312 -1.128906 6.15625 -1.609375 L 6.21875 -1.953125 L 4.40625 -2.28125 L 4.625 -3.5 L 7.9375 -2.90625 L 7.1875 1.296875 L 5.734375 1.03125 L 5.921875 0.015625 L 5.8125 -0.015625 C 5.59375 0.316406 5.304688 0.550781 4.953125 0.6875 C 4.597656 0.832031 4.175781 0.863281 3.6875 0.78125 Z M 3.6875 0.78125 "/></g></g></g><g fill="#000000" fill-opacity="1"><g transform="translate(70.823542, 21.49527)"><g/></g></g><g fill="#000000" fill-opacity="1"><g transform="translate(77.034399, 24.749832)"><g><path d="M 8.03125 -3.375 C 8.445312 -3.019531 8.742188 -2.632812 8.921875 -2.21875 C 9.097656 -1.8125 9.144531 -1.40625 9.0625 -1 C 8.976562 -0.59375 8.785156 -0.207031 8.484375 0.15625 C 8.171875 0.53125 7.820312 0.789062 7.4375 0.9375 C 7.0625 1.09375 6.65625 1.117188 6.21875 1.015625 C 5.78125 0.921875 5.351562 0.695312 4.9375 0.34375 L 3.796875 -0.59375 L 1.9375 1.625 L 0.765625 0.640625 L 5.71875 -5.296875 Z M 5.546875 -0.703125 C 6.191406 -0.160156 6.773438 -0.203125 7.296875 -0.828125 C 7.816406 -1.453125 7.753906 -2.035156 7.109375 -2.578125 L 6.125 -3.390625 L 4.5625 -1.515625 Z M 5.546875 -0.703125 "/></g></g></g><g fill="#000000" fill-opacity="1"><g transform="translate(85.298304, 32.49833)"><g><path d="M 0.53125 0.84375 L 7.0625 -3.296875 L 8.734375 -0.671875 C 9.160156 0.00390625 9.328125 0.613281 9.234375 1.15625 C 9.148438 1.707031 8.832031 2.160156 8.28125 2.515625 C 7.882812 2.765625 7.492188 2.863281 7.109375 2.8125 C 6.734375 2.769531 6.347656 2.59375 5.953125 2.28125 L 5.859375 2.328125 C 5.910156 2.609375 5.882812 2.863281 5.78125 3.09375 C 5.6875 3.332031 5.5 3.613281 5.21875 3.9375 L 3.6875 5.84375 L 2.84375 4.5 L 4.40625 2.640625 C 4.550781 2.441406 4.65625 2.269531 4.71875 2.125 C 4.78125 1.976562 4.789062 1.820312 4.75 1.65625 C 4.71875 1.5 4.640625 1.320312 4.515625 1.125 L 4.078125 0.421875 L 1.359375 2.140625 Z M 5.84375 0.9375 C 6.25 1.570312 6.742188 1.707031 7.328125 1.34375 C 7.921875 0.96875 8.015625 0.460938 7.609375 -0.171875 L 6.875 -1.34375 L 5.109375 -0.234375 Z M 5.84375 0.9375 "/></g></g></g><g fill="#000000" fill-opacity="1"><g transform="translate(90.905039, 42.488112)"><g><path d="M 0.875 4.140625 C 0.707031 3.441406 0.703125 2.796875 0.859375 2.203125 C 1.015625 1.609375 1.347656 1.09375 1.859375 0.65625 C 2.367188 0.21875 3.050781 -0.101562 3.90625 -0.3125 C 4.769531 -0.519531 5.523438 -0.539062 6.171875 -0.375 C 6.828125 -0.21875 7.359375 0.0859375 7.765625 0.546875 C 8.171875 1.003906 8.457031 1.582031 8.625 2.28125 C 8.789062 2.96875 8.796875 3.609375 8.640625 4.203125 C 8.484375 4.796875 8.148438 5.304688 7.640625 5.734375 C 7.140625 6.171875 6.457031 6.492188 5.59375 6.703125 C 4.738281 6.910156 3.984375 6.9375 3.328125 6.78125 C 2.671875 6.625 2.140625 6.316406 1.734375 5.859375 C 1.328125 5.398438 1.039062 4.828125 0.875 4.140625 Z M 2.171875 3.828125 C 2.328125 4.460938 2.648438 4.898438 3.140625 5.140625 C 3.628906 5.378906 4.320312 5.390625 5.21875 5.171875 C 6.113281 4.960938 6.726562 4.640625 7.0625 4.203125 C 7.394531 3.765625 7.484375 3.226562 7.328125 2.59375 C 7.171875 1.945312 6.847656 1.503906 6.359375 1.265625 C 5.867188 1.023438 5.175781 1.007812 4.28125 1.21875 C 3.382812 1.4375 2.769531 1.765625 2.4375 2.203125 C 2.101562 2.640625 2.015625 3.179688 2.171875 3.828125 Z M 2.171875 3.828125 "/></g></g></g><g fill="#000000" fill-opacity="1"><g transform="translate(15.707416, 70.256082)"><g><path d="M 1.578125 3.9375 C 1.296875 3.28125 1.179688 2.640625 1.234375 2.015625 C 1.296875 1.398438 1.535156 0.832031 1.953125 0.3125 C 2.378906 -0.195312 2.992188 -0.625 3.796875 -0.96875 C 4.585938 -1.300781 5.320312 -1.445312 6 -1.40625 C 6.675781 -1.363281 7.253906 -1.148438 7.734375 -0.765625 C 8.222656 -0.378906 8.609375 0.140625 8.890625 0.796875 C 9.179688 1.472656 9.296875 2.109375 9.234375 2.703125 C 9.171875 3.296875 8.910156 3.816406 8.453125 4.265625 L 7.375 3.5 L 7.328125 3.390625 C 7.640625 3.066406 7.816406 2.738281 7.859375 2.40625 C 7.898438 2.082031 7.835938 1.71875 7.671875 1.3125 C 7.410156 0.71875 7.015625 0.34375 6.484375 0.1875 C 5.953125 0.03125 5.265625 0.128906 4.421875 0.484375 C 3.566406 0.847656 3.015625 1.273438 2.765625 1.765625 C 2.523438 2.265625 2.535156 2.8125 2.796875 3.40625 C 3.191406 4.320312 3.875 4.703125 4.84375 4.546875 L 4.890625 4.65625 L 4.8125 5.921875 C 4.050781 6.015625 3.398438 5.898438 2.859375 5.578125 C 2.328125 5.253906 1.898438 4.707031 1.578125 3.9375 Z M 1.578125 3.9375 "/></g></g></g><g fill="#000000" fill-opacity="1"><g transform="translate(21.243245, 81.436643)"><g><path d="M 2.671875 3.28125 C 2.210938 2.738281 1.910156 2.164062 1.765625 1.5625 C 1.628906 0.96875 1.6875 0.363281 1.9375 -0.25 C 2.195312 -0.875 2.660156 -1.476562 3.328125 -2.0625 C 3.992188 -2.632812 4.65625 -3 5.3125 -3.15625 C 5.96875 -3.3125 6.582031 -3.28125 7.15625 -3.0625 C 7.726562 -2.84375 8.242188 -2.460938 8.703125 -1.921875 C 9.160156 -1.390625 9.457031 -0.820312 9.59375 -0.21875 C 9.726562 0.382812 9.671875 0.992188 9.421875 1.609375 C 9.171875 2.234375 8.710938 2.832031 8.046875 3.40625 C 7.378906 3.988281 6.710938 4.359375 6.046875 4.515625 C 5.390625 4.671875 4.773438 4.632812 4.203125 4.40625 C 3.640625 4.1875 3.128906 3.8125 2.671875 3.28125 Z M 3.671875 2.40625 C 4.097656 2.894531 4.585938 3.132812 5.140625 3.125 C 5.691406 3.113281 6.316406 2.804688 7.015625 2.203125 C 7.710938 1.609375 8.109375 1.035156 8.203125 0.484375 C 8.296875 -0.0546875 8.128906 -0.570312 7.703125 -1.0625 C 7.273438 -1.5625 6.785156 -1.800781 6.234375 -1.78125 C 5.679688 -1.769531 5.054688 -1.46875 4.359375 -0.875 C 3.660156 -0.269531 3.265625 0.300781 3.171875 0.84375 C 3.078125 1.382812 3.242188 1.90625 3.671875 2.40625 Z M 3.671875 2.40625 "/></g></g></g><g fill="#000000" fill-opacity="1"><g transform="translate(30.530956, 91.143298)"><g><path d="M 2.078125 1.203125 L 0.859375 0.5 L 4.734375 -6.1875 L 6.46875 -5.1875 L 5.328125 0.71875 L 5.421875 0.78125 L 9.96875 -3.171875 L 11.65625 -2.1875 L 7.78125 4.5 L 6.515625 3.765625 L 9.078125 -0.65625 L 8.96875 -0.75 L 4.859375 2.8125 L 3.75 2.171875 L 4.78125 -3.171875 L 4.640625 -3.21875 Z M 2.078125 1.203125 "/></g></g></g><g fill="#000000" fill-opacity="1"><g transform="translate(43.896759, 97.698796)"><g><path d="M 5.5 -6.765625 C 6.03125 -6.648438 6.46875 -6.445312 6.8125 -6.15625 C 7.164062 -5.875 7.398438 -5.535156 7.515625 -5.140625 C 7.640625 -4.753906 7.648438 -4.328125 7.546875 -3.859375 C 7.453125 -3.378906 7.269531 -2.976562 7 -2.65625 C 6.738281 -2.34375 6.390625 -2.128906 5.953125 -2.015625 C 5.523438 -1.898438 5.046875 -1.898438 4.515625 -2.015625 L 3.078125 -2.3125 L 2.484375 0.515625 L 0.984375 0.203125 L 2.5625 -7.375 Z M 4.5625 -3.21875 C 5.394531 -3.050781 5.890625 -3.367188 6.046875 -4.171875 C 6.210938 -4.960938 5.878906 -5.441406 5.046875 -5.609375 L 3.8125 -5.875 L 3.328125 -3.484375 Z M 4.5625 -3.21875 "/></g></g></g><g fill="#000000" fill-opacity="1"><g transform="translate(55.598087, 99.426515)"><g><path d="M 2.03125 -7.890625 L 2.453125 -1.453125 L 5.921875 -1.671875 L 6 -0.390625 L 1 -0.0625 L 0.5 -7.78125 Z M 2.03125 -7.890625 "/></g></g></g><g fill="#000000" fill-opacity="1"><g transform="translate(66.531624, 98.106292)"><g><path d="M 1.28125 -4.046875 L 1.96875 -2.046875 L 5.46875 -3.25 L 5.890625 -2.03125 L 0.953125 -0.328125 L -1.5625 -7.640625 L 3.296875 -9.3125 L 3.71875 -8.109375 L 0.296875 -6.9375 L 0.875 -5.234375 L 3.859375 -6.25 L 4.265625 -5.0625 Z M 1.28125 -4.046875 "/></g></g></g><g fill="#000000" fill-opacity="1"><g transform="translate(77.085674, 93.791093)"><g><path d="M 0.765625 -9.890625 L 1.484375 -8.828125 L -0.359375 -7.5625 L 3.28125 -2.234375 L 2.03125 -1.375 L -1.609375 -6.703125 L -3.453125 -5.453125 L -4.171875 -6.515625 Z M 0.765625 -9.890625 "/></g></g></g><g fill="#000000" fill-opacity="1"><g transform="translate(85.95002, 87.001274)"><g><path d="M -0.953125 -4.125 L 0.671875 -2.75 L 3.078125 -5.578125 L 4.046875 -4.75 L 0.640625 -0.765625 L -5.25 -5.78125 L -1.90625 -9.6875 L -0.9375 -8.859375 L -3.28125 -6.109375 L -1.90625 -4.9375 L 0.140625 -7.34375 L 1.09375 -6.53125 Z M -0.953125 -4.125 "/></g></g></g><g fill="#000000" fill-opacity="1"><g transform="translate(92.93954, 77.872244)"><g><path d="M -5.546875 -6.578125 C -5.046875 -7.722656 -4.367188 -8.46875 -3.515625 -8.8125 C -2.660156 -9.164062 -1.644531 -9.085938 -0.46875 -8.578125 C 0.707031 -8.054688 1.457031 -7.359375 1.78125 -6.484375 C 2.113281 -5.617188 2.03125 -4.613281 1.53125 -3.46875 L 0.40625 -0.921875 L -6.671875 -4.03125 Z M 0.3125 -3.90625 C 0.632812 -4.632812 0.6875 -5.257812 0.46875 -5.78125 C 0.25 -6.3125 -0.273438 -6.757812 -1.109375 -7.125 C -1.941406 -7.488281 -2.617188 -7.570312 -3.140625 -7.375 C -3.671875 -7.175781 -4.097656 -6.710938 -4.421875 -5.984375 L -4.890625 -4.90625 L -0.15625 -2.828125 Z M 0.3125 -3.90625 "/></g></g></g><g clip-path="url(#95a9ce415e)"><g clip-path="url(#c1ec264cf5)"><path fill="#0762ab" d="M 91.910156 56.261719 L 99.464844 56.261719 L 99.464844 63.816406 L 91.910156 63.816406 Z M 91.910156 56.261719 " fill-opacity="1" fill-rule="nonzero"/></g></g><g mask="url(#edc30cb0c8)"><g transform="matrix(1, 0, 0, 1, 21, 20)"><g clip-path="url(#8023af5a73)"><g clip-path="url(#f990c49e0e)"><path fill="#ffffff" d="M 41.050781 62.734375 C 41.117188 62.75 41.191406 62.734375 41.246094 62.683594 C 41.609375 62.335938 41.089844 60.59375 39.9375 56.683594 C 39.9375 56.683594 39.082031 53.769531 38.285156 51.027344 C 37.863281 49.582031 37.53125 48.398438 37.3125 47.625 C 37.488281 48.40625 37.765625 49.605469 38.082031 51.078125 C 38.300781 52.078125 38.648438 53.664062 39.328125 56.835938 C 40.191406 60.820312 40.558594 62.597656 41.042969 62.734375 Z M 55.535156 56.398438 C 55.609375 56.378906 55.667969 56.320312 55.6875 56.246094 C 55.828125 55.765625 54.5 54.515625 51.542969 51.703125 C 51.542969 51.703125 49.339844 49.605469 47.273438 47.625 C 46.183594 46.582031 45.300781 45.726562 44.722656 45.164062 C 45.269531 45.753906 46.105469 46.660156 47.121094 47.769531 C 47.816406 48.523438 48.910156 49.726562 51.09375 52.132812 C 53.828125 55.164062 55.042969 56.519531 55.535156 56.398438 Z M 63.796875 42.179688 C 63.851562 42.125 63.871094 42.050781 63.855469 41.980469 C 63.734375 41.492188 61.957031 41.078125 57.988281 40.109375 C 57.988281 40.109375 55.027344 39.390625 52.242188 38.707031 C 50.777344 38.34375 49.582031 38.042969 48.800781 37.84375 C 49.570312 38.082031 50.75 38.445312 52.1875 38.90625 C 53.164062 39.21875 54.71875 39.710938 57.816406 40.710938 C 61.703125 41.96875 63.4375 42.535156 63.796875 42.1875 Z M 5.8125 41.324219 C 5.796875 41.398438 5.816406 41.472656 5.863281 41.527344 C 6.214844 41.886719 7.972656 41.375 11.882812 40.222656 C 11.882812 40.222656 14.808594 39.367188 17.5625 38.566406 C 19.015625 38.152344 20.203125 37.816406 20.976562 37.597656 C 20.191406 37.777344 18.988281 38.050781 17.515625 38.367188 C 16.511719 38.585938 14.917969 38.929688 11.734375 39.609375 C 7.734375 40.476562 5.949219 40.847656 5.8125 41.324219 Z M 13.675781 55.765625 C 13.695312 55.839844 13.75 55.898438 13.824219 55.914062 C 14.308594 56.054688 15.5625 54.734375 18.386719 51.785156 C 18.386719 51.785156 20.492188 49.589844 22.480469 47.527344 C 23.535156 46.445312 24.386719 45.5625 24.953125 44.988281 C 24.359375 45.535156 23.449219 46.367188 22.335938 47.378906 C 21.574219 48.070312 20.367188 49.164062 17.953125 51.335938 C 14.910156 54.074219 13.550781 55.285156 13.675781 55.765625 Z M 27.933594 62.507812 C 27.984375 62.558594 28.058594 62.578125 28.132812 62.5625 C 28.621094 62.441406 29.046875 60.671875 30.011719 56.714844 C 30.011719 56.714844 30.734375 53.761719 31.421875 50.988281 C 31.785156 49.527344 32.085938 48.335938 32.285156 47.558594 C 32.046875 48.324219 31.683594 49.5 31.21875 50.933594 C 30.90625 51.910156 30.410156 53.457031 29.414062 56.542969 C 28.144531 60.417969 27.574219 62.148438 27.925781 62.507812 Z M 50.796875 63.019531 C 50.886719 63.015625 50.96875 62.96875 51.011719 62.894531 C 51.3125 62.371094 50.148438 60.53125 47.554688 56.394531 C 47.554688 56.394531 45.617188 53.3125 43.804688 50.402344 C 42.851562 48.875 42.078125 47.617188 41.578125 46.792969 C 42.039062 47.636719 42.738281 48.933594 43.589844 50.523438 C 44.167969 51.609375 45.085938 53.324219 46.898438 56.765625 C 49.183594 61.085938 50.195312 63.019531 50.796875 63.019531 Z M 63.574219 50.472656 C 63.652344 50.425781 63.699219 50.34375 63.699219 50.253906 C 63.699219 49.652344 61.769531 48.644531 57.453125 46.359375 C 57.453125 46.359375 54.234375 44.65625 51.210938 43.050781 C 49.621094 42.203125 48.324219 41.5 47.480469 41.039062 C 48.300781 41.542969 49.554688 42.316406 51.089844 43.265625 C 52.132812 43.917969 53.785156 44.945312 57.078125 47.015625 C 61.214844 49.605469 63.058594 50.773438 63.574219 50.472656 Z M 6.320312 50.273438 C 6.320312 50.363281 6.367188 50.445312 6.445312 50.492188 C 6.964844 50.792969 8.804688 49.628906 12.941406 47.03125 C 12.941406 47.03125 16.023438 45.097656 18.933594 43.285156 C 20.464844 42.332031 21.71875 41.558594 22.542969 41.058594 C 21.695312 41.519531 20.402344 42.21875 18.808594 43.066406 C 17.722656 43.648438 16.007812 44.5625 12.570312 46.378906 C 8.25 48.664062 6.316406 49.671875 6.320312 50.273438 Z M 19.015625 62.902344 C 19.0625 62.980469 19.140625 63.027344 19.230469 63.027344 C 19.832031 63.027344 20.84375 61.097656 23.125 56.78125 C 23.125 56.78125 24.828125 53.5625 26.4375 50.539062 C 27.285156 48.949219 27.984375 47.652344 28.445312 46.808594 C 27.945312 47.628906 27.171875 48.886719 26.21875 50.417969 C 25.570312 51.460938 24.542969 53.113281 22.472656 56.40625 C 19.886719 60.542969 18.710938 62.382812 19.015625 62.902344 Z M 34.890625 67.015625 C 34.96875 67.058594 35.0625 67.058594 35.140625 67.015625 C 35.664062 66.714844 35.570312 64.539062 35.390625 59.660156 C 35.390625 59.660156 35.253906 56.019531 35.140625 52.597656 C 35.082031 50.789062 35.039062 49.320312 35.015625 48.359375 C 34.992188 49.320312 34.949219 50.792969 34.890625 52.597656 C 34.847656 53.824219 34.785156 55.769531 34.640625 59.65625 C 34.460938 64.539062 34.367188 66.71875 34.890625 67.015625 Z M 41.042969 4.726562 C 41.117188 4.707031 41.191406 4.722656 41.246094 4.773438 C 41.609375 5.121094 41.089844 6.863281 39.9375 10.773438 C 39.9375 10.773438 39.082031 13.6875 38.285156 16.429688 C 37.863281 17.875 37.53125 19.058594 37.3125 19.832031 C 37.488281 19.046875 37.765625 17.847656 38.082031 16.378906 C 38.300781 15.378906 38.648438 13.792969 39.328125 10.621094 C 40.191406 6.640625 40.558594 4.859375 41.042969 4.726562 Z M 55.535156 11.0625 C 55.609375 11.082031 55.667969 11.136719 55.6875 11.210938 C 55.828125 11.691406 54.5 12.941406 51.542969 15.753906 C 51.542969 15.753906 49.339844 17.851562 47.273438 19.832031 C 46.183594 20.875 45.300781 21.730469 44.722656 22.292969 C 45.269531 21.703125 46.105469 20.800781 47.121094 19.6875 C 47.816406 18.933594 48.910156 17.730469 51.09375 15.324219 C 53.828125 12.292969 55.042969 10.9375 55.535156 11.0625 Z M 63.796875 25.277344 C 63.851562 25.328125 63.871094 25.40625 63.855469 25.476562 C 63.734375 25.964844 61.957031 26.378906 57.988281 27.347656 C 57.988281 27.347656 55.027344 28.066406 52.242188 28.75 C 50.777344 29.109375 49.582031 29.414062 48.800781 29.613281 C 49.570312 29.375 50.75 29.011719 52.1875 28.550781 C 53.164062 28.238281 54.71875 27.746094 57.816406 26.746094 C 61.703125 25.488281 63.4375 24.929688 63.796875 25.273438 Z M 5.8125 26.132812 C 5.792969 26.058594 5.8125 25.984375 5.863281 25.929688 C 6.214844 25.566406 7.972656 26.089844 11.882812 27.234375 C 11.882812 27.234375 14.808594 28.089844 17.5625 28.882812 C 19.015625 29.300781 20.203125 29.632812 20.976562 29.851562 C 20.191406 29.671875 18.988281 29.398438 17.515625 29.082031 C 16.511719 28.867188 14.917969 28.519531 11.734375 27.839844 C 7.734375 26.984375 5.949219 26.613281 5.8125 26.132812 Z M 13.675781 11.691406 C 13.695312 11.617188 13.75 11.558594 13.824219 11.539062 C 14.308594 11.402344 15.5625 12.722656 18.386719 15.667969 C 18.386719 15.667969 20.492188 17.867188 22.480469 19.925781 C 23.535156 21.011719 24.386719 21.894531 24.953125 22.464844 C 24.359375 21.921875 23.449219 21.089844 22.335938 20.078125 C 21.574219 19.386719 20.367188 18.296875 17.953125 16.121094 C 14.910156 13.386719 13.550781 12.171875 13.675781 11.691406 Z M 27.933594 4.953125 C 27.984375 4.902344 28.058594 4.878906 28.132812 4.898438 C 28.621094 5.019531 29.046875 6.789062 30.011719 10.746094 C 30.011719 10.746094 30.734375 13.695312 31.421875 16.46875 C 31.785156 17.929688 32.085938 19.121094 32.285156 19.898438 C 32.046875 19.132812 31.683594 17.960938 31.21875 16.527344 C 30.90625 15.550781 30.410156 14.003906 29.414062 10.917969 C 28.144531 7.039062 27.574219 5.3125 27.925781 4.953125 Z M 50.796875 4.441406 C 50.886719 4.441406 50.96875 4.492188 51.011719 4.566406 C 51.3125 5.085938 50.148438 6.925781 47.554688 11.0625 C 47.554688 11.0625 45.617188 14.148438 43.804688 17.054688 C 42.851562 18.585938 42.078125 19.84375 41.578125 20.664062 C 42.039062 19.820312 42.738281 18.523438 43.589844 16.933594 C 44.167969 15.847656 45.085938 14.132812 46.898438 10.691406 C 49.183594 6.371094 50.195312 4.4375 50.796875 4.441406 Z M 63.574219 16.988281 C 63.652344 17.035156 63.699219 17.117188 63.699219 17.203125 C 63.699219 17.804688 61.769531 18.816406 57.453125 21.097656 C 57.453125 21.097656 54.234375 22.800781 51.210938 24.40625 C 49.621094 25.257812 48.324219 25.960938 47.480469 26.417969 C 48.300781 25.917969 49.554688 25.144531 51.089844 24.191406 C 52.132812 23.542969 53.785156 22.515625 57.078125 20.445312 C 61.214844 17.859375 63.058594 16.683594 63.574219 16.988281 Z M 69.792969 33.617188 C 69.835938 33.691406 69.835938 33.789062 69.792969 33.867188 C 69.492188 34.386719 67.316406 34.296875 62.433594 34.113281 C 62.433594 34.113281 58.796875 33.980469 55.371094 33.867188 C 53.566406 33.804688 52.097656 33.765625 51.136719 33.742188 C 52.097656 33.714844 53.570312 33.675781 55.371094 33.617188 C 56.601562 33.574219 58.546875 33.511719 62.433594 33.367188 C 67.316406 33.183594 69.496094 33.09375 69.792969 33.617188 Z M 0.214844 33.839844 C 0.171875 33.765625 0.171875 33.667969 0.214844 33.589844 C 0.515625 33.070312 2.691406 33.160156 7.570312 33.34375 C 7.570312 33.34375 11.210938 33.476562 14.640625 33.589844 C 16.445312 33.652344 17.917969 33.691406 18.878906 33.714844 C 17.917969 33.742188 16.441406 33.78125 14.640625 33.839844 C 13.414062 33.882812 11.46875 33.945312 7.582031 34.089844 C 2.691406 34.273438 0.511719 34.363281 0.214844 33.839844 Z M 6.320312 17.191406 C 6.320312 17.101562 6.367188 17.019531 6.445312 16.972656 C 6.964844 16.671875 8.804688 17.839844 12.941406 20.433594 C 12.941406 20.433594 16.023438 22.371094 18.933594 24.183594 C 20.464844 25.136719 21.71875 25.90625 22.542969 26.410156 C 21.695312 25.957031 20.402344 25.246094 18.808594 24.398438 C 17.722656 23.820312 16.007812 22.902344 12.570312 21.089844 C 8.25 18.796875 6.316406 17.785156 6.320312 17.183594 Z M 19.015625 4.554688 C 19.0625 4.480469 19.140625 4.429688 19.230469 4.429688 C 19.832031 4.429688 20.84375 6.359375 23.125 10.675781 C 23.125 10.675781 24.828125 13.898438 26.4375 16.921875 C 27.285156 18.511719 27.984375 19.804688 28.445312 20.652344 C 27.945312 19.832031 27.171875 18.574219 26.21875 17.042969 C 25.570312 16 24.542969 14.347656 22.472656 11.050781 C 19.886719 6.917969 18.710938 5.074219 19.015625 4.554688 Z M 34.890625 0.441406 C 34.96875 0.398438 35.0625 0.398438 35.140625 0.441406 C 35.664062 0.742188 35.570312 2.921875 35.390625 7.800781 C 35.390625 7.800781 35.253906 11.441406 35.140625 14.871094 C 35.082031 16.675781 35.039062 18.148438 35.015625 19.109375 C 34.992188 18.148438 34.949219 16.671875 34.890625 14.871094 C 34.847656 13.644531 34.785156 11.695312 34.640625 7.808594 C 34.460938 2.921875 34.367188 0.742188 34.890625 0.441406 " fill-opacity="1" fill-rule="nonzero"/></g></g></g></g><path fill="#fc785e" d="M 77.910156 51.742188 C 77.910156 52.652344 77.820312 53.558594 77.640625 54.453125 C 77.464844 55.351562 77.199219 56.21875 76.851562 57.066406 C 76.5 57.910156 76.074219 58.710938 75.566406 59.46875 C 75.058594 60.230469 74.480469 60.933594 73.835938 61.578125 C 73.1875 62.222656 72.484375 62.800781 71.726562 63.308594 C 70.96875 63.816406 70.164062 64.246094 69.320312 64.59375 C 68.476562 64.945312 67.605469 65.207031 66.710938 65.386719 C 65.816406 65.5625 64.910156 65.652344 63.996094 65.652344 C 63.082031 65.652344 62.179688 65.5625 61.28125 65.386719 C 60.386719 65.207031 59.515625 64.945312 58.671875 64.59375 C 57.828125 64.246094 57.027344 63.816406 56.269531 63.308594 C 55.507812 62.800781 54.804688 62.222656 54.160156 61.578125 C 53.511719 60.933594 52.9375 60.230469 52.429688 59.46875 C 51.921875 58.710938 51.492188 57.910156 51.144531 57.066406 C 50.792969 56.21875 50.53125 55.351562 50.351562 54.453125 C 50.171875 53.558594 50.085938 52.652344 50.085938 51.742188 C 50.085938 50.828125 50.171875 49.921875 50.351562 49.027344 C 50.53125 48.128906 50.792969 47.261719 51.144531 46.417969 C 51.492188 45.574219 51.921875 44.769531 52.429688 44.011719 C 52.9375 43.25 53.511719 42.546875 54.160156 41.902344 C 54.804688 41.257812 55.507812 40.679688 56.269531 40.171875 C 57.027344 39.664062 57.828125 39.238281 58.671875 38.886719 C 59.515625 38.539062 60.386719 38.273438 61.28125 38.09375 C 62.179688 37.917969 63.082031 37.828125 63.996094 37.828125 C 64.910156 37.828125 65.816406 37.917969 66.710938 38.09375 C 67.605469 38.273438 68.476562 38.539062 69.320312 38.886719 C 70.164062 39.238281 70.96875 39.664062 71.726562 40.171875 C 72.484375 40.679688 73.1875 41.257812 73.835938 41.902344 C 74.480469 42.546875 75.058594 43.25 75.566406 44.011719 C 76.074219 44.769531 76.5 45.574219 76.851562 46.417969 C 77.199219 47.261719 77.464844 48.128906 77.640625 49.027344 C 77.820312 49.921875 77.910156 50.828125 77.910156 51.742188 Z M 77.910156 51.742188 " fill-opacity="1" fill-rule="nonzero"/><g clip-path="url(#47bc8e0908)"><path fill="#ffffff" d="M 65.988281 65.15625 C 66.207031 59.324219 66.882812 59.394531 66.855469 54.300781 C 66.820312 47.585938 66.710938 47.601562 66.945312 44.632812 C 65.070312 44.417969 55.839844 43.351562 43.347656 43.652344 C 37.988281 43.777344 39.121094 48.019531 39.21875 50.09375 C 41.4375 49.738281 41.386719 49.496094 43.625 49.625 C 43.5625 52.21875 43.210938 52.179688 43.441406 54.277344 C 47.339844 55.996094 52.015625 57.707031 50.363281 60.339844 C 48.992188 62.523438 47.316406 61.332031 38.71875 55.914062 C 38.371094 56.6875 37.660156 56.589844 38.011719 61.539062 C 37.097656 61.839844 33.828125 62.886719 32.832031 65.042969 C 41.957031 70.503906 42.367188 69.9375 42.859375 70.714844 C 43.191406 71.238281 43.242188 74.890625 44.964844 75.414062 C 45.792969 75.667969 65.09375 75.863281 66.386719 75.691406 C 68.65625 75.386719 70.160156 74.175781 68.859375 65.375 C 67.421875 65.292969 67.453125 65.226562 65.988281 65.15625 Z M 65.988281 65.15625 " fill-opacity="1" fill-rule="evenodd"/></g><path fill="#ffffff" d="M 75.921875 40.007812 C 69.710938 40.632812 70.167969 49.542969 75.613281 50.324219 C 83.324219 49.902344 82.464844 40.324219 75.921875 40.007812 Z M 75.921875 40.007812 " fill-opacity="1" fill-rule="evenodd"/><g clip-path="url(#b1b3db59b1)"><path fill="#fc785e" d="M 48.035156 70.902344 L 48.035156 44.164062 C 41.894531 44.011719 37.050781 43.582031 39.644531 49.625 L 43.34375 50.316406 L 44.328125 58.894531 C 50.144531 61.761719 45.847656 63.066406 42.988281 65.109375 L 44.328125 75.792969 C 44.328125 75.792969 66.96875 75.855469 68.421875 75.792969 C 69.878906 75.730469 69.414062 70.777344 69.414062 70.777344 Z M 48.035156 70.902344 " fill-opacity="1" fill-rule="evenodd"/></g><path fill="#fc785e" d="M 80.304688 41.496094 C 71.367188 35.980469 66.34375 48.328125 75.539062 50.285156 C 70.808594 46.378906 75.429688 39.664062 80.304688 41.496094 Z M 80.304688 41.496094 " fill-opacity="1" fill-rule="evenodd"/><path fill="#ffbf35" d="M 71.640625 48.339844 C 71.539062 48.1875 71.664062 48.464844 70.6875 50.414062 C 68.996094 54.242188 73.5 54.921875 74.828125 51.152344 C 74.917969 50.636719 72.328125 49.378906 71.640625 48.339844 Z M 71.640625 48.339844 " fill-opacity="1" fill-rule="evenodd"/><path fill="#ffbf35" d="M 48.078125 56.835938 C 47.441406 56.332031 41.882812 51.9375 38.890625 52.503906 C 37.8125 52.707031 37.125 53.796875 37.667969 54.808594 C 38.152344 55.699219 50.808594 64.601562 50.253906 59.320312 C 50.167969 58.488281 48.285156 57 48.078125 56.835938 Z M 48.078125 56.835938 " fill-opacity="1" fill-rule="evenodd"/><path fill="#ffbf35" d="M 29.894531 67.867188 C 30.023438 68.917969 38.160156 73.519531 38.472656 73.671875 C 41.78125 75.304688 43.261719 73.683594 42.175781 71.882812 C 41.023438 69.96875 29.273438 62.824219 29.894531 67.867188 Z M 29.894531 67.867188 " fill-opacity="1" fill-rule="evenodd"/><path fill="#3f2865" d="M 39.800781 68.113281 C 41.632812 68.6875 41.070312 66.335938 40.882812 64.792969 C 40.839844 64.511719 40.886719 64.25 41.027344 64 C 41.167969 63.753906 41.371094 63.578125 41.636719 63.476562 C 42.195312 63.203125 43.59375 63.039062 43.3125 62.070312 C 43.183594 61.660156 42.742188 61.46875 42.339844 61.582031 C 41.171875 61.820312 40.257812 61.214844 39.585938 59.914062 C 39.414062 59.570312 38.859375 59.710938 38.875 60.097656 C 38.882812 60.683594 38.949219 61.367188 39.152344 62.03125 C 39.199219 62.1875 39.214844 62.339844 39.195312 62.5 C 39.179688 62.660156 39.136719 62.808594 39.058594 62.953125 C 38.984375 63.09375 38.886719 63.214844 38.761719 63.316406 C 38.640625 63.417969 38.5 63.492188 38.347656 63.539062 C 32.960938 65.46875 37.246094 66.488281 39.800781 68.113281 Z M 39.800781 68.113281 " fill-opacity="1" fill-rule="nonzero"/><g clip-path="url(#3994ca1517)"><path fill="#3f2865" d="M 68.109375 64.613281 L 67.21875 64.613281 C 67 64.101562 67.765625 43.601562 66.730469 43.800781 C 66.402344 43.472656 66.007812 43.308594 65.546875 43.308594 C 60.972656 43.324219 45.675781 43.300781 41.367188 43.308594 C 39.882812 43.277344 38.574219 44.585938 38.605469 46.070312 L 38.605469 49.855469 C 38.605469 50.054688 38.675781 50.21875 38.816406 50.359375 C 38.953125 50.496094 39.121094 50.566406 39.316406 50.566406 L 42.710938 50.566406 L 42.710938 52.820312 C 40.863281 51.652344 38.679688 50.292969 37.109375 52.699219 C 36.445312 53.800781 36.730469 55.339844 37.738281 56.132812 C 36.847656 57.894531 36.585938 59.824219 37.003906 61.515625 C 35.332031 61.996094 33.785156 63.191406 32.703125 64.847656 C 31.515625 64.375 30.039062 64.894531 29.417969 66.023438 C 29.238281 66.332031 29.125 66.664062 29.082031 67.019531 C 29.035156 67.371094 29.058594 67.722656 29.148438 68.066406 C 29.242188 68.410156 29.398438 68.726562 29.613281 69.007812 C 29.832031 69.292969 30.09375 69.523438 30.402344 69.703125 C 30.753906 69.902344 31.796875 70.511719 32.125 70.699219 L 39.636719 75.035156 C 40.683594 75.644531 42.027344 75.464844 42.882812 74.617188 C 43.28125 75.648438 44.355469 76.316406 45.472656 76.308594 C 47.144531 76.304688 65.554688 76.308594 67.5 76.308594 C 68.652344 76.332031 69.667969 75.316406 69.644531 74.164062 L 69.644531 66.144531 C 69.644531 65.941406 69.605469 65.746094 69.527344 65.558594 C 69.449219 65.371094 69.335938 65.203125 69.195312 65.058594 C 69.050781 64.917969 68.882812 64.804688 68.695312 64.726562 C 68.507812 64.652344 68.3125 64.613281 68.109375 64.613281 Z M 40.027344 49.148438 L 40.027344 46.070312 C 40.011719 45.351562 40.648438 44.714844 41.367188 44.730469 C 42.089844 44.714844 42.726562 45.351562 42.710938 46.070312 L 42.710938 49.148438 Z M 38.339844 53.410156 C 38.425781 53.261719 38.535156 53.140625 38.667969 53.035156 C 38.800781 52.933594 38.953125 52.859375 39.113281 52.816406 C 39.277344 52.773438 39.441406 52.761719 39.609375 52.785156 C 39.777344 52.804688 39.933594 52.859375 40.082031 52.941406 C 40.746094 53.328125 47.230469 57.070312 48.074219 57.558594 L 49.3125 58.273438 C 50.75 59.136719 49.507812 61.296875 48.039062 60.480469 C 46.109375 59.363281 40.660156 56.226562 38.808594 55.152344 C 38.207031 54.820312 37.984375 53.996094 38.339844 53.410156 Z M 38.019531 62.746094 C 39.582031 62.402344 37.140625 60.328125 38.953125 56.875 L 46.472656 61.214844 C 45.449219 62.726562 43.933594 63.773438 42.414062 63.996094 C 42.308594 64.011719 42.207031 64.050781 42.117188 64.109375 C 42.027344 64.171875 41.957031 64.25 41.902344 64.34375 C 41.847656 64.4375 41.816406 64.539062 41.808594 64.648438 C 41.800781 64.753906 41.816406 64.859375 41.859375 64.960938 C 42.425781 66.390625 42.273438 68.230469 41.476562 69.871094 L 33.957031 65.53125 C 34.980469 64.019531 36.496094 62.964844 38.019531 62.746094 Z M 42.710938 70.632812 L 42.691406 70.613281 C 42.695312 70.601562 42.703125 70.589844 42.710938 70.574219 Z M 42.089844 73.339844 C 41.277344 74.628906 40.023438 73.621094 39.101562 73.085938 C 38.222656 72.582031 31.816406 68.878906 31.113281 68.476562 C 30.96875 68.390625 30.84375 68.28125 30.738281 68.148438 C 30.636719 68.015625 30.5625 67.867188 30.519531 67.703125 C 30.476562 67.539062 30.464844 67.371094 30.488281 67.207031 C 30.507812 67.039062 30.5625 66.878906 30.648438 66.734375 C 30.730469 66.585938 30.839844 66.460938 30.976562 66.359375 C 31.109375 66.257812 31.257812 66.183594 31.421875 66.140625 C 31.585938 66.09375 31.75 66.085938 31.917969 66.105469 C 32.085938 66.128906 32.242188 66.183594 32.390625 66.265625 L 35.773438 68.21875 C 35.773438 68.21875 41.394531 71.46875 41.394531 71.464844 L 41.621094 71.597656 C 41.769531 71.683594 41.890625 71.792969 41.996094 71.925781 C 42.097656 72.058594 42.171875 72.207031 42.214844 72.371094 C 42.257812 72.535156 42.269531 72.699219 42.246094 72.867188 C 42.226562 73.035156 42.171875 73.191406 42.089844 73.339844 Z M 44.128906 73.726562 L 44.128906 64.976562 C 45.527344 64.394531 46.796875 63.316406 47.722656 61.898438 C 48.917969 62.375 50.386719 61.851562 51.011719 60.726562 C 51.1875 60.414062 51.300781 60.082031 51.347656 59.730469 C 51.394531 59.375 51.371094 59.023438 51.277344 58.679688 C 51.1875 58.335938 51.03125 58.019531 50.8125 57.738281 C 50.597656 57.453125 50.332031 57.222656 50.023438 57.042969 L 44.128906 53.640625 L 44.128906 46.070312 C 44.140625 45.605469 44.003906 45.132812 43.78125 44.730469 C 45.96875 44.730469 62.925781 44.726562 65.546875 44.730469 C 65.617188 44.730469 65.675781 44.753906 65.726562 44.804688 C 65.773438 44.851562 65.800781 44.914062 65.800781 44.984375 L 65.800781 64.613281 L 48.347656 64.613281 C 48.175781 64.613281 48.011719 64.636719 47.855469 64.691406 C 47.402344 64.441406 46.800781 64.796875 46.8125 65.320312 C 46.808594 65.425781 46.816406 73.347656 46.8125 73.726562 C 46.8125 74.023438 46.683594 74.308594 46.445312 74.527344 C 45.71875 75.242188 44.132812 74.832031 44.128906 73.726562 Z M 68.222656 74.164062 C 68.230469 74.554688 67.886719 74.894531 67.5 74.886719 L 47.9375 74.886719 C 48.644531 74.222656 47.910156 66.796875 48.347656 66.03125 C 48.460938 66.144531 68.242188 65.816406 68.222656 66.144531 C 68.222656 66.144531 68.222656 74.164062 68.222656 74.164062 Z M 68.222656 74.164062 " fill-opacity="1" fill-rule="nonzero"/></g><path fill="#3f2865" d="M 81.902344 43.640625 C 79.558594 35.671875 67.691406 39.613281 70.59375 47.402344 C 71.820312 50.132812 67.886719 51.753906 70.132812 53.390625 C 71.246094 53.933594 72.953125 55.59375 73.96875 53.96875 C 74.207031 53.558594 74.464844 53.105469 74.757812 52.605469 C 75.234375 51.765625 76.074219 51.234375 77.007812 51.09375 C 80.457031 50.667969 82.878906 46.972656 81.902344 43.640625 Z M 74.152344 49.351562 C 73.917969 49.238281 73.695312 49.105469 73.484375 48.949219 L 74.433594 47.304688 L 75.113281 47.695312 Z M 74.289062 50.921875 C 74.085938 51.117188 73.90625 51.328125 73.746094 51.558594 L 71.816406 50.445312 C 71.9375 50.1875 72.035156 49.917969 72.105469 49.640625 C 72.734375 50.234375 73.460938 50.660156 74.285156 50.921875 Z M 72.746094 53.257812 L 70.84375 52.167969 L 71.125 51.683594 L 73.019531 52.777344 C 72.917969 52.949219 72.828125 53.097656 72.742188 53.257812 Z M 80.078125 47.464844 C 79.199219 49.042969 77.34375 49.921875 75.570312 49.738281 L 76.34375 48.40625 C 77.332031 48.992188 78.640625 47.984375 78.335938 46.878906 C 78.066406 45.761719 76.464844 45.570312 75.839844 46.476562 L 75.140625 46.070312 C 75.691406 45.066406 74.675781 43.820312 73.589844 44.136719 C 72.484375 44.398438 72.253906 46 73.203125 46.589844 L 72.460938 47.875 C 70.234375 44.945312 72.539062 40.539062 76.144531 40.636719 C 79.511719 40.519531 81.878906 44.589844 80.078125 47.464844 Z M 80.078125 47.464844 " fill-opacity="1" fill-rule="nonzero"/><path fill="#3f2865" d="M 52.796875 48.308594 L 58.433594 48.308594 C 58.628906 48.308594 58.796875 48.242188 58.933594 48.101562 C 59.074219 47.964844 59.140625 47.796875 59.140625 47.601562 C 59.140625 47.402344 59.074219 47.238281 58.933594 47.097656 C 58.796875 46.960938 58.628906 46.890625 58.433594 46.890625 L 52.796875 46.890625 C 51.871094 46.894531 51.867188 48.304688 52.796875 48.308594 Z M 52.796875 48.308594 " fill-opacity="1" fill-rule="nonzero"/><path fill="#3f2865" d="M 48.410156 51.859375 L 62.820312 51.859375 C 63.742188 51.855469 63.75 50.445312 62.820312 50.441406 L 48.410156 50.441406 C 47.488281 50.445312 47.480469 51.855469 48.410156 51.859375 Z M 48.410156 51.859375 " fill-opacity="1" fill-rule="nonzero"/><path fill="#3f2865" d="M 63.527344 54.746094 C 63.527344 54.550781 63.457031 54.382812 63.320312 54.246094 C 63.183594 54.105469 63.015625 54.035156 62.820312 54.035156 L 48.410156 54.035156 C 48.214844 54.035156 48.046875 54.105469 47.910156 54.246094 C 47.769531 54.382812 47.703125 54.550781 47.703125 54.746094 C 47.703125 54.941406 47.769531 55.109375 47.910156 55.25 C 48.046875 55.386719 48.214844 55.457031 48.410156 55.457031 L 62.820312 55.457031 C 63.015625 55.457031 63.183594 55.386719 63.320312 55.25 C 63.457031 55.109375 63.527344 54.941406 63.527344 54.746094 Z M 63.527344 54.746094 " fill-opacity="1" fill-rule="nonzero"/></svg>