<?xml version="1.0" encoding="utf-8"?>
<!-- Generator: Adobe Illustrator 23.0.3, SVG Export Plug-In . SVG Version: 6.00 Build 0)  -->
<svg version="1.1" id="Layer_1" xmlns="http://www.w3.org/2000/svg" xmlns:xlink="http://www.w3.org/1999/xlink" x="0px" y="0px"
	 viewBox="0 0 1200 1200" enable-background="new 0 0 1200 1200" xml:space="preserve">
<g>
	<g>
		<g>
			<path fill="#FF9C88" d="M906.807,314.859c-0.444-0.712-0.78-1.405-0.855-2.228c-1.924-0.259-3.851-0.414-5.699-1.155
				c-3.713-1.489-7.631-1.519-11.517-1.106c-2.551,0.271-4.335-0.587-5.905-2.524c-12.27-15.139-24.264-30.442-32.199-48.476
				c-3.202-7.275-5.889-14.73-8.631-22.589c-2.044,2.113-2.119,4.656-2.429,7.049c-0.228,1.761-0.103,3.565-0.202,5.347
				c-0.066,1.188-0.464,2.249-1.737,2.656c-1.264,0.404-2.22-0.14-2.935-1.145c-0.657-0.924-1.324-1.855-1.864-2.848
				c-5.125-9.428-9.7-19.099-12.524-29.497c-1.581-5.821-2.23-11.775-2.032-17.815c0.037-1.134,0.023-2.273-0.035-3.405
				c-0.081-1.585-0.979-1.931-2.303-1.324c-1.327,0.607-2.619,1.291-3.911,1.972c-17.623,9.289-36.158,16.067-55.811,19.387
				c-6.946,1.173-14.042,2.569-21.185,0.991c-1.554-0.343-2.878,0.366-4.206,0.897c-13.765,5.5-28.277,8.345-42.55,12.037
				c-0.193,0.045-0.386,0.09-0.579,0.135c-7.492,0.578-6.409,20.495-6.536,26.102c-0.165,7.332,0.272,14.674,1.272,21.939
				c4.467-3.919,10.448-6.51,17.924-6.521c15.468-0.022,27.493,12.123,27.454,27.64c-0.041,16.246-13.501,27.775-27.748,27.187
				c-0.579,0.032-1.155,0.004-1.731-0.011c4.683,8.559,10.27,16.618,16.716,23.956c0.499,0.568,1.032,1.209,1.018,1.964
				c-0.016,0.795-0.632,1.435-1.223,1.966c-7.352,6.612-17.302,10.19-27.195,8.875c-5.219-0.694-6.022,7.8-6.029,11.786
				c-0.016,9.127,2.245,17.955,3.497,26.91c1.163,8.322,2.963,16.553,4.244,24.862c2.117,13.739,4.364,27.457,6.198,41.244
				c1.368,10.281,2.77,20.522,2.718,30.917c-0.031,6.255,0.007,6.18,5.825,3.435c12.349-5.826,23.846-13.172,35.766-19.764
				c17.893-9.894,35.659-19.952,51.719-32.738c6.461-5.144,12.674-10.517,18.34-16.566c2.285-2.44,4.271-5.154,6.637-7.52
				c1.008-1.008,1.69-1.87,2.033-2.664c0.742-1.721-0.114-3.125-2.721-5.008c-6.279-4.535-10.998-11.166-13.311-18.55
				c-1.053-3.362-5.481-16.348-0.451-18.12c2.122-0.747,4.527-0.483,6.713-0.908c11.706-2.275,23.065-5.757,33.023-12.423
				c10.479-7.014,20.873-14.261,28.983-24.177c0.307-0.376,0.703-0.677,1.023-1.043c1.468-1.677,2.803-1.327,3.963,0.314
				c1.035,1.463,2.098,2.771,3.752,3.694c8.333,4.651,17.149,3.433,23.93-3.452C911.825,336.093,913.086,324.906,906.807,314.859z"
				/>
		</g>
		<g>
			<path fill="#FF6A46" d="M727.812,300.376c0.039-15.516-11.986-27.661-27.454-27.64c-7.476,0.01-13.458,2.601-17.924,6.521
				c0.561,4.082,1.297,8.141,2.213,12.158c2.874,12.593,7.485,24.804,13.686,36.138c0.576,0.015,1.152,0.043,1.731,0.011
				C714.312,328.151,727.772,316.622,727.812,300.376z"/>
		</g>
	</g>
	<g>
		<path fill="#FFF7E6" d="M745.946,696.551c0.984,6.058,1.979,12.115,2.951,18.175c2.819,17.577,6.588,34.961,10.767,52.256
			c3.232,13.378,6.884,26.658,9.887,40.086c5.659,25.3,13.742,49.958,19.608,75.197c3.992,17.176,8.267,34.292,11.888,51.545
			c2.386,11.369,4.276,22.863,5.452,34.453c0.423,4.173,1.331,8.295,1.948,12.45c1.306,8.785,2.636,17.566,3.828,26.367
			c1.277,9.434,2.366,18.893,3.631,28.328c0.297,2.215-0.743,3.473-2.543,4.123c-1.661,0.6-3.481,1.22-5.195,1.132
			c-6.681-0.345-13.237,1.464-19.883,1.043c-4.431-0.28-8.683,0.991-13.056,1.047c-7.236,0.406-14.46,0.897-21.67,1.711
			c-10.722,1.211-21.486,2.044-32.209,3.245c-3.809,0.427-7.73,0.408-11.379,1.887c-10.865,1.563-21.708,3.322-32.608,4.579
			c-3.682,0.425-7.333,1.358-11.078,1.228c-3.377-0.117-3.703-0.656-4.198-3.979c-1.226-8.227-1.16-16.505-0.884-24.755
			c0.294-8.786-0.623-17.516-1.277-26.205c-0.847-11.246-1.784-22.53-3.493-33.723c-0.752-4.927-0.592-10-0.94-15.002
			c-0.517-7.431-1.431-14.805-2.281-22.182c-0.961-8.334-2.423-16.611-3.692-24.91c-2.001-13.09-3.621-26.23-5.702-39.316
			c-2.234-14.046-4.334-28.119-7.342-42.007c-3.254-15.026-7.277-29.885-10.901-44.833c-2.097-8.648-3.956-17.355-6.127-25.983
			c-2.811-11.174-6.936-21.925-10.835-32.748c-0.551-1.529-1.554-2.352-2.801-3.17c-10.164-6.662-20.321-13.334-30.448-20.053
			c-9.451-6.27-18.806-12.684-28.626-18.383c-12.617-7.322-25.226-14.661-37.76-22.123c-15.883-9.456-32.278-17.998-48.277-27.257
			c-11.777-6.815-24.215-12.524-36.597-18.263c-11.19-5.186-22.259-10.653-33.05-16.659c-5.953-3.313-12.014-6.432-18.027-9.638
			c-14.602-7.784-29.173-15.627-43.824-23.318c-4.879-2.561-9.997-4.662-14.945-7.096c-8.46-4.16-16.332-9.317-24.146-14.554
			c-1.066-0.714-1.957-1.698-2.89-2.597c-1.617-1.558-1.819-3.192-0.645-5.23c8.303-14.407,13.979-29.957,19.443-45.571
			c2.032-5.808,4.613-11.435,6.029-17.457c0.278-0.393,0.67-0.746,0.818-1.183c6.964-20.563,13.801-41.174,18.425-62.416
			c1.093-5.018,2.682-10.048,2.213-15.326c1.261-2.122,1.68-4.471,1.96-6.884c0.691-5.966,3.24-7.602,8.884-5.164
			c5.194,2.243,10.308,4.76,15.196,7.607c16.269,9.476,31.277,20.818,45.605,32.92c15.863,13.399,32.436,25.757,49.582,37.409
			c10.585,7.193,20.842,14.908,31.72,21.619c17.642,10.885,34.962,22.32,53.232,32.177c4.123,2.224,8.039,4.832,12.047,7.263
			c-5.004,4.46-5.193,5.027-1.971,10.63c6.413,11.152,13.723,21.643,22.353,31.251c8.357,9.304,16.958,18.391,24.879,28.096
			c5.342,6.544,11.285,12.608,17.87,17.934c13.769,11.138,27.745,22.017,42.339,32.063c2.365,1.628,3.487,3.614,3.989,6.295
			c0.777,4.148,1.598,8.297,2.648,12.382c4.769,18.558,9.697,37.075,14.421,55.644c2.807,11.034,4.84,22.227,5.376,33.626
			c0.807,17.181-1.794,34.003-5.506,50.711c-1.627,7.323-4.454,14.256-6.516,21.431c-1.738,6.046-1.356,6.763,3.849,9.814
			c8.817,5.168,18.207,9.393,26.185,15.947c1.587,1.304,3.046,0.945,3.984-0.888c0.515-1.006,0.844-2.108,1.243-3.172
			c5.616-14.963,7.241-30.63,7.746-46.412c0.572-17.895-1.072-35.705-3.087-53.472c-1.525-13.448-4.495-26.542-9.218-39.266
			c-3.79-10.212-8.402-20.077-12.283-30.244c-1.25-3.273-2.721-6.502-3.157-10.217c4.023,1.43,4.145,1.508,7.006,4.415
			c-1.284,4.048-0.486,7.607,2.22,10.907c4.935,6.015,10.886,10.679,18.128,13.479c4.529,1.751,9.263,2.971,13.9,4.444
			C733.993,693.679,740.303,693.86,745.946,696.551z"/>
	</g>
	<g>
		<path fill="#FFF7E6" d="M563.482,512.485c0.275-2.547,2.236-3.916,3.964-5.315c8.494-6.878,15.819-14.805,21.952-23.852
			c3.817-5.631,7.661-11.245,11.616-16.779c2.657-3.718,4.309-7.988,6.8-11.788c1.329-2.028,0.504-3.712-1.092-5.154
			c-4.8-4.338-9.704-8.541-14.852-12.479c-10.313-7.889-21.634-14.25-32.298-21.584c-19.405-13.346-40.19-24.272-60.709-35.696
			c-11.175-6.222-21.988-13.092-33.057-19.51c-7.707-4.469-15.595-8.627-23.362-12.995c-9.191-5.169-17.916-11.069-26.365-17.361
			c-3.577-2.664-3.643-5.272-1.238-8.958c5.596-8.577,13.13-15.577,19.159-23.797c0.763-1.04,1.838-1.853,1.918-3.278
			c1.539-0.963,2.632-2.354,3.717-3.773c9.137-11.95,16.922-24.789,24.614-37.675c2.38-3.987,5.47-7.623,6.73-12.239
			c2.939-3.303,4.875-7.248,6.968-11.076c3.203-5.857,5.183-6.504,11.325-4.282c6.952,2.515,13.032,6.575,19.176,10.466
			c14.519,9.194,28.446,19.285,41.714,30.176c12.38,10.162,24.831,20.248,36.996,30.686c10.922,9.372,21.638,19.048,33.29,27.525
			c13.094,9.526,26.398,18.768,39.741,27.943c4.262,2.931,8.902,5.324,13.443,7.829c2.248,1.241,4.452,2.669,7.223,2.684
			c1.486,0.008,2.822,0.7,3.775,1.94c-0.147,0.788-0.029,1.81-0.484,2.328c-2.476,2.821-2.521,6.174-2.527,9.628
			c-0.016,9.128,2.245,17.956,3.497,26.912c1.163,8.322,2.963,16.554,4.244,24.862c2.117,13.739,4.363,27.457,6.198,41.244
			c1.368,10.281,2.77,20.522,2.718,30.917c-0.031,6.255,0.007,6.18,5.825,3.435c12.348-5.826,23.846-13.172,35.766-19.764
			c17.893-9.894,35.659-19.952,51.719-32.738c6.461-5.144,12.674-10.517,18.34-16.566c3.084-3.293,5.668-7.069,9.26-9.885
			c4.216,0.376,7.681,2.645,11.005,4.871c8.331,5.58,16.632,11.228,24.064,18.03c1.906,1.745,4.065,3.185,5.948,4.997
			c13.045,12.554,23.691,27.014,33.804,41.933c13.118,19.353,21.567,40.638,26.148,63.451c1.426,7.102,2.561,14.341,2.335,21.676
			c-0.13,4.221,0.913,8.336,1.05,12.57c0.422,13.031-0.953,25.89-3.182,38.656c-2.116,12.119-4.537,24.22-8.843,35.792
			c-5.496,14.773-11.68,29.249-21.329,41.911c-5.417,7.108-11.432,13.661-18.538,19.179c-2.68,2.081-4.842,4.838-7.55,6.874
			c-7.92,5.953-16.586,10.749-25.221,15.555c-3.687,2.052-7.317,4.184-10.947,6.328c-2.091,1.235-4.245,2.46-6.522,3.258
			c-3.274,1.147-4.915-0.094-5.22-3.493c-1.029-11.447-2.008-22.882-2.12-34.402c-0.047-4.808-0.875-9.658-0.898-14.521
			c0.15-5.686-0.815-11.297-1.338-16.927c-0.657-7.076-2.179-14.055-3.303-21.077c-1.967-12.285-3.377-24.659-5.021-36.996
			c0.194-2.309-0.17-4.564-1.094-6.651c-1.01-2.282-0.177-3.717,1.749-4.822c0.843-0.484,1.718-0.917,2.601-1.324
			c12.339-5.69,24.581-11.62,37.991-14.539c3.468-0.755,3.595-1.219,2.527-4.689c-2.171-7.05-6.108-13.221-9.917-19.419
			c-4.67-7.599-10.699-14.174-16.432-20.968c-2.478-2.938-3.007-3.173-5.576-0.266c-2.564,2.901-4.897,6.014-7.214,9.121
			c-6.185,8.292-12.579,16.447-18.376,25.004c-5.63,8.31-10.544,17.094-14.731,26.252c-0.468,1.024-0.932,2.085-1.918,2.765
			c-4.331-0.875-7.26-4.105-10.544-6.588c-9.609-7.264-19.179-14.302-31.804-15.502c-3.139-0.298-6.064-0.36-9.071,0.419
			c-5.476,1.418-8.136,5.005-7.816,10.642c0.255,4.487-0.009,4.936-3.997,6.803c-6.248,2.924-7.146,4.401-6.835,11.179
			c0.06,1.298,0.141,2.577,0.617,3.816c0.629,1.635,0.041,2.857-1.486,3.61c-1.013,0.5-2.074,0.899-3.114,1.344
			c-3.654-2.993-7.602-5.561-11.657-7.964c-3.357-1.99-6.665-4.046-9.747-6.448c-17.59-13.712-34.017-28.7-49.264-44.978
			c-8.112-8.66-16.454-17.107-25.267-25.037c-11.008-9.904-21.363-20.441-31.559-31.148
			C568.559,519.629,565.681,516.311,563.482,512.485z"/>
	</g>
	<g>
		<g>
			<path fill="#FFDC48" d="M905.951,312.63c-1.924-0.259-3.85-0.414-5.699-1.155c-3.713-1.488-7.631-1.519-11.517-1.106
				c-2.551,0.271-4.335-0.587-5.905-2.524c-12.27-15.139-24.264-30.442-32.2-48.476c-3.201-7.275-5.889-14.73-8.631-22.589
				c-2.045,2.113-2.119,4.656-2.429,7.049c-0.228,1.761-0.103,3.565-0.202,5.347c-0.066,1.188-0.464,2.249-1.737,2.656
				c-1.264,0.404-2.22-0.14-2.935-1.145c-0.657-0.925-1.324-1.855-1.864-2.848c-5.125-9.428-9.701-19.099-12.524-29.497
				c-1.581-5.821-2.23-11.775-2.032-17.815c0.037-1.134,0.023-2.273-0.035-3.406c-0.081-1.584-0.979-1.931-2.303-1.324
				c-1.326,0.607-2.619,1.291-3.911,1.972c-17.623,9.289-36.158,16.067-55.81,19.387c-6.946,1.173-14.042,2.569-21.186,0.991
				c-1.554-0.343-2.878,0.366-4.206,0.897c-13.765,5.5-28.277,8.345-42.554,12.039c-3.378,0.871-4.573-1.839-4.724-4.764
				c-0.547-10.564,1.586-20.417,6.927-29.637c4.8-8.285,11.231-15.481,17.322-22.869c4.752-5.765,9.318-11.68,13.955-17.537
				c4.625-5.841,9.721-10.063,15.487-14.766c2.698-2.201,2.079-4.858-1.402-5.761c-3.973-1.031-8.169,0.138-12.008,1.592
				c-11.742,4.446-23.703,11.878-31.524,21.85c-0.906,1.155-1.881,2.376-3.621,1.897c-1.682-0.463-2.045-1.911-2.307-3.399
				c-1.185-6.727,0.26-12.928,3.846-18.648c3.422-5.459,8.066-9.719,13.361-13.332c1.425-0.972,3.224-1.521,4.321-3.611
				c-5.403-2.899-10.932-4.845-17.112-4.61c-2.758,0.105-5.527,0.345-8.274,0.206c-4.023-0.203-5.722-2.65-4.846-6.621
				c0.579-2.623,1.97-4.774,3.914-6.606c7.004-6.601,15.224-9.736,24.889-8.798c1.25,0.121,2.509,0.604,4.105-0.242
				c-4.077-2.981-8.416-5.082-12.767-7.14c-2.2-1.041-4.498-1.872-6.754-2.794c-2.342-0.958-4.507-2.121-4.485-5.1
				c0.022-2.963,2.242-4.11,4.518-5.134c5.352-2.407,10.963-2.78,16.712-2.109c8.178,0.954,15.756,3.792,23.134,7.287
				c1.593,0.755,3.017,1.947,4.875,2.034c0.974-0.893,0.472-1.84,0.057-2.678c-4.113-8.291-7.929-16.76-14.025-23.89
				c-0.421-0.492-0.858-0.995-1.16-1.561c-1.278-2.398-0.26-4.225,2.411-4.335c1.84-0.076,3.507,0.614,5.146,1.335
				c5.115,2.251,9.563,5.512,13.687,9.224c9.399,8.46,17.435,18.356,23.905,29.216c3.216,5.398,6.048,11.021,8.529,16.796
				c2.516,5.856,0.944,13.497,8.764,15.132c2.732,0.571,5.559,0.292,8.348,0.396c6.72,0.251,13.134,2.717,19.402,5.152
				c17.655,6.859,35.421,13.772,51.563,23.679c10.036,6.16,19.371,13.456,27.79,21.688c4.253,4.158,8.273,8.555,12.033,13.164
				c3.792,4.649,7.699,9.364,9.81,15.042c1.475,3.968,0.925,9.858,3.562,13.218c3.913,4.985,7.782-2.228,10.327-4.433
				c10.663-9.24,22.773-15.621,36.891-17.458c6.94-0.903,13.604,0.473,19.454,4.64c1.319,0.939,2.779,1.94,2.458,3.876
				c-0.492,2.965-5.439,3.237-7.73,3.996c-4.708,1.56-9.774,3.643-13.445,7.042c1.861,2.867,9.791,3.641,13.233,5.343
				c5.221,2.581,9.92,6.114,13.909,10.354c3.066,3.26,5.067,7.153,6.166,11.479c1.063,4.183-0.503,6.116-4.859,6.238
				c-2.839,0.079-5.421-0.904-8.036-1.798c-4.611-1.578-9.311-2.575-14.198-2.455c-0.292,2.071,1.232,2.478,2.081,3.341
				c6.342,6.443,11.561,13.645,14.478,22.273c1.946,5.756,2.765,11.701,1.496,17.767c-0.718,3.434-2.14,6.488-5.063,8.621
				c-3.131,2.284-5.349,1.707-6.805-1.962c-1.736-4.376-3.188-8.863-4.905-13.246c-0.739-1.887-1.564-3.813-3.381-5.712
				c-1.201,1.938-0.657,3.533-0.511,4.993c1.201,11.988-2.342,22.795-8.112,33.06c-2.357,4.193-5.731,7.454-9.602,10.22
				c-1.307,0.934-2.704,2.006-4.459,1.112c-1.742-0.887-1.755-2.588-1.74-4.233c0.072-7.964,0.162-15.925-1.119-23.83
				c-1.887-11.642-5.418-22.741-10.905-33.191c-1.802-3.431-6.337-4.415-9.483-2.198c-1.257,0.886-1.173,2.25-1.278,3.51
				c-0.866,10.385-2.948,20.586-5.022,30.761C913.95,299.639,911.511,306.918,905.951,312.63z M967.175,270.969
				c-0.077-0.108-0.159-0.223-0.241-0.339c-0.101,0.1-0.273,0.193-0.282,0.301c-0.009,0.108,0.144,0.229,0.226,0.345
				C966.977,271.174,967.075,271.072,967.175,270.969z"/>
		</g>
	</g>
	<g>
		<path fill="#46174B" d="M252.576,418.696c-2.79,0.829-4.428-1.178-6.462-2.456c-8.112-5.098-16.316-10.05-24.487-15.056
			c-1.108-0.679-2.289-1.261-3.313-2.049c-3.716-2.861-7.866-5.164-11.115-8.625c-1.037-7.195-4.639-13.784-4.409-21.348
			c0.238-7.84,1.619-15.491,2.595-23.215c2.057-16.286,6.156-32.207,8.632-48.42c2.891-18.93,6.134-37.791,7.727-56.919
			c1.119-13.445,4.006-26.658,9.432-39.147c3.517-8.096,9.1-14.528,16.222-19.703c6.779-4.925,13.662-5.669,21.504-2.147
			c10.075,4.525,15.964,12.577,20.174,22.114c3.901,8.838,5.609,18.31,6.235,27.918c0.635,9.756-0.342,19.463-1.304,29.171
			c-0.992,10.01-1.791,20.042-2.501,30.076c-0.619,8.749-0.442,17.531-0.73,26.297c-0.382,11.607-1.653,23.374,2.4,34.714
			c-1.38,1.081-1.721,2.725-2.199,4.253c-4.69,14.972-11.985,28.698-19.837,42.195C266.181,404.873,260.013,412.285,252.576,418.696
			z"/>
	</g>
	<g>
		<path fill="#FF9C88" d="M470.979,240.251c-1.26,4.615-4.35,8.252-6.73,12.239c-7.692,12.886-15.477,25.726-24.614,37.675
			c-1.085,1.42-2.178,2.81-3.717,3.773c-2.665-1.526-4.059-4.251-5.566-6.645c-3.919-6.227-8.917-11.55-13.744-16.975
			c-11.329-12.731-23.129-25.066-35.68-36.577c-10.059-9.226-19.519-19.023-29.252-28.558c-7.574-7.42-11.011-17.06-13.248-27.132
			c-1.195-5.381-1.511-10.837-0.422-16.383c0.755-3.845,2.754-6.181,6.395-7.057c1.575-0.379,2.761-0.792,3.044-2.543
			c1.044-6.469,5.607-8.842,11.399-9.195c2.903-0.177,3.703-1.176,4.182-3.945c0.974-5.622,4.106-7.876,9.872-7.972
			c0.974-0.016,1.961-0.087,2.92,0.038c2.539,0.33,4.088-0.34,5.172-3.024c1.41-3.492,3.743-4.137,7.568-3.097
			c5.115,1.39,9.609,3.845,13.289,7.691c4.706,4.918,9.745,9.496,14.047,14.831c3.103,3.848,6.805,7.239,11.667,10.011
			c0.624-3.598,1.422-6.657,1.454-9.863c0.013-1.298-0.048-2.612,0.124-3.892c0.404-3.013,2.161-5.11,4.667-5.598
			c2.824-0.549,4.689,1.127,6.067,3.175c1.163,1.728,1.99,3.721,2.737,5.684c2.961,7.781,4.096,15.943,4.997,24.167
			c0.739,6.74,1.776,13.447,2.605,20.178c0.791,6.415,1.507,12.84,2.214,19.265c0.731,6.647,1.838,13.251,5.45,18.984
			C460.994,234.455,464.628,239.097,470.979,240.251z"/>
	</g>
	<g>
		<path fill="#46174B" d="M563.482,512.485c2.2,3.826,5.078,7.143,8.09,10.308c10.196,10.707,20.551,21.244,31.559,31.148
			c8.813,7.929,17.155,16.376,25.267,25.037c15.247,16.278,31.674,31.266,49.264,44.978c3.082,2.402,6.39,4.459,9.747,6.448
			c4.055,2.403,8.002,4.971,11.656,7.962c-0.909,5.381,0.907,10.115,3.474,14.679c0.78,1.386,1.908,2.787,1.105,4.475
			c-1.087,2.286-3.506,3.229-5.298,4.807c-1.289,1.135-2.82,1.508-4.465,0.66c-2.862-2.907-2.984-2.986-7.006-4.415
			c0.436,3.716,1.907,6.944,3.157,10.217c3.881,10.166,8.493,20.032,12.283,30.244c4.723,12.724,7.693,25.817,9.218,39.266
			c2.014,17.767,3.659,35.576,3.087,53.472c-0.504,15.783-2.13,31.449-7.746,46.412c-0.399,1.064-0.728,2.166-1.243,3.172
			c-0.938,1.832-2.397,2.192-3.984,0.888c-7.978-6.554-17.368-10.779-26.185-15.947c-5.206-3.051-5.587-3.768-3.849-9.814
			c2.062-7.175,4.889-14.109,6.516-21.431c3.713-16.708,6.313-33.53,5.506-50.711c-0.535-11.399-2.569-22.592-5.376-33.626
			c-4.723-18.569-9.652-37.086-14.421-55.644c-1.05-4.085-1.87-8.235-2.648-12.382c-0.503-2.681-1.624-4.667-3.989-6.295
			c-14.594-10.046-28.571-20.924-42.339-32.063c-6.584-5.326-12.528-11.39-17.87-17.934c-7.921-9.705-16.522-18.792-24.879-28.096
			c-8.63-9.608-15.94-20.1-22.353-31.251c-3.222-5.603-3.033-6.17,1.971-10.63c2.558-0.854,4.727-2.436,7.025-3.767
			C560.331,511.738,561.853,511.051,563.482,512.485z"/>
	</g>
	<g>
		<path fill="#FF9C88" d="M693.882,662.987c1.646,0.849,3.176,0.476,4.465-0.66c1.792-1.578,4.211-2.521,5.298-4.807
			c0.802-1.688-0.326-3.089-1.105-4.475c-2.568-4.563-4.383-9.298-3.474-14.679c1.041-0.442,2.103-0.842,3.115-1.341
			c1.526-0.753,2.115-1.975,1.486-3.61c-0.477-1.239-0.558-2.518-0.617-3.816c-0.311-6.778,0.587-8.255,6.835-11.179
			c3.989-1.867,4.252-2.316,3.997-6.803c-0.32-5.637,2.34-9.224,7.816-10.642c3.008-0.779,5.933-0.717,9.071-0.419
			c12.625,1.2,22.195,8.238,31.804,15.502c3.284,2.483,6.213,5.713,10.545,6.586c0.949,1.336,2.16,2.356,3.667,3.011
			c8.533,3.709,17.13,7.157,26.723,6.529c1.643,12.337,3.053,24.711,5.021,36.996c1.124,7.021,2.646,14.001,3.303,21.077
			c0.523,5.63,1.488,11.241,1.338,16.927c-11.858-1.151-23.762-2.029-35.391-4.785c-8.793-2.084-17.685-3.605-26.553-5.28
			c-1.766-0.334-3.496-0.571-5.277-0.564c-5.643-2.691-11.953-2.873-17.817-4.735c-4.637-1.473-9.371-2.693-13.9-4.444
			c-7.242-2.801-13.193-7.464-18.128-13.479C693.396,670.594,692.597,667.034,693.882,662.987z"/>
	</g>
	<g>
		<path fill="#FF9C88" d="M709.97,1049.598c3.649-1.479,7.57-1.461,11.379-1.887c10.723-1.202,21.487-2.035,32.209-3.245
			c7.21-0.814,14.434-1.306,21.67-1.711c1.642,7.575,3.398,15.127,4.88,22.733c0.821,4.211,2.771,7.929,4.798,11.534
			c1.762,3.135,4.905,5.091,8.347,6.381c12.025,4.505,24.509,7.177,37.171,8.967c4.328,0.612,8.569,1.595,12.861,2.334
			c2.402,0.413,4.781,0.757,7.204,0.888c2.649,2.217,6.06,2.113,9.152,2.925c5.247,1.377,10.126,3.538,14.53,6.641
			c3.923,2.764,3.717,5.321-0.497,7.733c-1.529,0.875-3.253,1.458-4.946,1.986c-6.712,2.094-13.641,2.878-20.632,2.988
			c-11.521,0.182-23.051,0.003-34.566,0.344c-22.391,0.663-44.785,0.901-67.18,0.599c-8.253-0.111-16.538-0.436-24.707-1.925
			c-2.18-1.465-3.164-3.401-3.002-6.126c0.442-7.444-0.159-14.884-1.049-22.249c-0.791-6.548-2.344-13.007-3.622-19.493
			C712.693,1062.53,710.591,1056.217,709.97,1049.598z"/>
	</g>
	<g>
		<path fill="#46174B" d="M721.644,1116.882c8.169,1.489,16.454,1.814,24.707,1.925c22.394,0.302,44.788,0.064,67.18-0.599
			c11.515-0.341,23.045-0.163,34.566-0.344c6.991-0.11,13.919-0.894,20.632-2.988c1.694-0.528,3.418-1.111,4.946-1.986
			c4.215-2.412,4.421-4.969,0.497-7.733c-4.405-3.103-9.284-5.264-14.53-6.641c-3.092-0.812-6.503-0.708-9.152-2.925
			c10.062-0.099,20.123-0.394,30.187-0.052c3.432,0.117,6.751,0.708,10.058,1.607c13.167,3.577,19.691,10.216,22.379,27.304
			c0.617,3.921-1.484,6.902-4.675,8.986c-3.968,2.591-8.348,4.422-12.912,5.556c-21.939,5.452-44.102,9.08-66.831,9.122
			c-14.096,0.026-28.187,1.175-42.285,1.686c-16.715,0.605-33.428-0.359-50.145-0.256c-4.367,0.027-8.747-0.414-13.103-0.828
			c-5.021-0.477-6.635-2.036-6.946-7.021c-0.446-7.136,0.086-14.262,0.613-21.385
			C717.069,1117.078,719.263,1116.929,721.644,1116.882z"/>
	</g>
	<g>
		<path fill="#FF9C88" d="M252.576,418.696c7.437-6.411,13.605-13.823,18.563-22.346c7.852-13.497,15.147-27.223,19.837-42.195
			c0.479-1.528,0.82-3.172,2.199-4.253c2.99,5.003,6.528,9.552,10.799,13.559c1.866,1.75,3.367,3.885,5.065,5.819
			c4.909,5.591,10.929,9.999,16.24,15.172c2.292,2.232,5.278,3.678,8.226,5.019c0.469,5.279-1.121,10.309-2.213,15.327
			c-4.625,21.242-11.461,41.853-18.425,62.416c-0.148,0.437-0.54,0.791-0.818,1.183c-5.091-4.01-9.102-9.197-14.376-13.033
			c-3.131-2.277-5.893-5.053-8.978-7.4c-5.412-4.118-10.382-8.749-15.607-13.076c-5.971-4.947-12.263-9.507-18.451-14.19
			C253.853,420.103,253.058,419.576,252.576,418.696z"/>
	</g>
	<g>
		<path fill="#D8E8FF" d="M967.175,270.969c-0.1,0.103-0.198,0.205-0.297,0.307c-0.082-0.115-0.236-0.237-0.226-0.345
			c0.009-0.108,0.181-0.201,0.282-0.301C967.016,270.746,967.098,270.861,967.175,270.969z"/>
	</g>
	<g>
		<path d="M767.502,291.72c-4.701,5.66-9.046,11.587-12.402,18.085c-0.88,1.779-1.942,3.309-2.279,4.7
			c-0.088,0.333-0.105,0.623-0.077,0.792c0.04,0.14,0.008,0.328,0.215,0.586c0.368,0.545,1.312,0.993,2.096,1.335
			c3.289,1.449,6.974,2.059,10.656,2.642l-0.147,1.152c-3.713-0.36-7.527-0.727-11.204-2.074c-0.456-0.175-0.91-0.354-1.357-0.558
			c-0.446-0.186-0.978-0.326-1.516-0.669c-0.533-0.315-1.139-0.916-1.346-1.682c-0.23-0.733-0.21-1.404-0.138-1.987
			c0.341-2.321,1.376-4,1.938-5.653c2.768-7.162,6.639-13.841,10.837-20.176L767.502,291.72z"/>
	</g>
	<g>
		<path d="M745.22,341.836c3.917,0.699,7.658,1.168,11.32,1.309c1.789,0.074,3.707,0.047,5.479,0.055
			c1.77,0.004,3.469,0.124,5.199,0.203c6.909,0.301,14.021-1.779,20.646-5.664c0.375-0.223,0.861-0.1,1.084,0.275
			c0.173,0.291,0.134,0.653-0.065,0.903c-2.515,3.097-5.661,5.796-9.299,7.81c-3.62,2.048-7.733,3.378-11.977,3.927
			c-2.118,0.282-4.281,0.279-6.344-0.113c-2.056-0.413-3.956-1-5.934-1.733c-3.873-1.468-7.462-3.567-10.443-6.301
			c-0.158-0.145-0.169-0.391-0.024-0.55C744.956,341.855,745.094,341.814,745.22,341.836z"/>
	</g>
	<g>
		<path d="M887.49,340.845c2.45,0.115,4.889-0.507,6.813-1.952c1.879-1.44,3.569-3.772,4.541-6.166
			c1.004-2.435,1.351-5.092,0.668-7.599c-0.667-2.534-2.196-4.923-4.188-6.815c-0.447-0.418-0.47-1.119-0.052-1.566
			c0.398-0.425,1.062-0.459,1.509-0.102c2.413,1.966,4.415,4.541,5.503,7.623c1.124,3.112,0.939,6.62-0.062,9.674
			c-1.036,3.102-2.629,5.882-5.209,8.26c-2.613,2.322-6.123,3.508-9.524,3.607l-0.043,0.001c-1.371,0.04-2.515-1.039-2.556-2.41
			c-0.04-1.371,1.039-2.516,2.41-2.556C887.362,340.842,887.429,340.842,887.49,340.845z"/>
	</g>
	<g>
		<path d="M716.078,353.104c0.167-0.162,5.586,4.207,6.111,4.585c2.219,1.596,4.511,3.092,6.861,4.488
			c4.65,2.763,9.526,5.139,14.544,7.156c6.364,2.558,12.93,4.454,19.49,6.422c6.754,2.026,13.516,4.033,20.344,5.795
			c2.993,0.772,5.995,1.332,8.993,1.963c1.112,0.234,0.815,0.935,0.028,1.4c-1.986,1.172-4.852,1.308-7.091,1.473
			c-2.688,0.199-5.389,0.14-8.073-0.081c-5.501-0.451-10.917-1.574-16.322-2.65c-7.429-1.479-14.901-2.858-22.119-5.156
			c-8.707-2.772-16.532-7.143-23.483-13.054c-1.16-0.986-2.272-2.02-3.375-3.069c-0.98-0.93-2.154-1.627-3.181-2.537
			c1.327-1.134,2.68-2.339,4.05-3.619C713.98,355.172,715.054,354.131,716.078,353.104z"/>
	</g>
	<g>
		<path d="M773.252,120.433c-3.075,0.94-6.005,2.348-8.903,3.693c-2.924,1.261-5.968,2.137-8.884,3.372
			c-2.939,1.165-5.879,2.442-8.829,3.712l-8.912,3.775l-0.005,0.002l0.464-1.397l2.205,4.792l0.002,0.004l-1.25-0.592
			c2.157-0.913,4.349-1.641,6.499-2.486c2.14-0.87,4.263-1.764,6.368-2.695c4.213-1.872,8.29-3.948,12.643-5.716
			c0.557-0.23,1.195,0.035,1.425,0.592c0.184,0.445,0.045,0.947-0.299,1.246c-3.655,3.126-7.925,5.396-12.345,7.207
			c-2.21,0.912-4.468,1.71-6.767,2.361c-2.286,0.689-4.648,1.123-6.979,1.576l-0.07,0.014c-0.496,0.097-0.979-0.166-1.181-0.606
			l-0.002-0.004l-2.205-4.792c-0.221-0.481-0.056-1.041,0.367-1.331l0.098-0.067l0.004-0.003c5.399-3.669,11.016-6.952,17.019-9.704
			c3.032-1.3,6.057-2.669,9.278-3.416c3.247-0.667,6.544-1.012,9.744-1.629c0.585-0.113,1.151,0.27,1.263,0.855
			C774.105,119.742,773.771,120.273,773.252,120.433z"/>
	</g>
	<g>
		<path d="M920.193,217.414c1.106,3.051,2.536,5.991,3.912,9.014c1.389,3.037,1.57,6.356,2.188,9.553l0.735,4.841
			c0.227,1.615,0.27,3.24,0.4,4.859c0.196,3.242,0.336,6.485,0.38,9.721v0.002l0.001,0.079c0.005,0.455-0.275,0.847-0.673,1.008
			l-3.747,1.507L923.387,258c-0.42,0.169-0.886,0.036-1.159-0.297l-0.241-0.296c-3.539-4.333-4.941-9.885-5.498-15.219
			c-0.276-2.647-0.376-5.202-0.67-7.79c-0.291-2.582-0.81-5.131-1.186-7.727l-0.012-0.079c-0.086-0.589,0.323-1.135,0.912-1.221
			c0.524-0.076,1.014,0.239,1.176,0.724c0.843,2.518,1.751,5.034,2.509,7.605c0.786,2.559,1.477,5.204,1.988,7.754
			c0.498,2.549,1.043,4.962,1.574,7.447c0.507,2.484,1,4.983,1.202,7.692l-1.399-0.592l0.002-0.001l3.747-1.508l-0.672,1.087
			l-0.001-0.002c-0.688-3.15-1.279-6.293-1.814-9.437c-0.447-3.163-1.124-6.26-1.782-9.352l-0.903-4.655
			c-0.289-1.556-0.696-3.064-0.866-4.652c-0.34-3.172-0.921-6.345-2.114-9.296c-0.223-0.552,0.043-1.18,0.595-1.403
			c0.552-0.223,1.18,0.043,1.403,0.595C920.183,217.388,920.189,217.403,920.193,217.414z"/>
	</g>
	<g>
		<path d="M698.016,487.084c6.865-2.116,16.639-5.235,28.299-9.332c18.04-6.339,27.06-9.509,37.518-14.869
			c10.452-5.357,19.762-11.365,26.799-15.906c11.097-7.162,18.642-12.773,19.05-12.249c0.434,0.557-7.654,7.525-9.927,9.482
			c-4.612,3.973-10.822,9.288-20.457,15.942c-5.182,3.579-11.104,7.092-22.946,14.119c-3.355,1.991-1.93,1.126-23.727,13.743
			c-11.934,6.908-17.35,10.055-25.769,13.93c-3.455,1.591-6.364,2.819-8.377,3.645C698.325,499.42,698.17,493.252,698.016,487.084z"
			/>
	</g>
	<g>
		<path d="M669.643,366.499c1.136,12.176,2.49,24.333,3.785,36.49c0.679,6.076,1.237,12.163,2.026,18.227
			c0.758,6.066,1.409,12.143,2.524,18.167c0.962,6.041,1.965,12.075,2.757,18.133c0.788,6.058,1.436,12.133,2.095,18.207
			c1.265,12.156,2.24,24.35,2.714,36.631l0.001,0.037c0.023,0.596-0.441,1.097-1.037,1.12c-0.534,0.021-0.992-0.35-1.098-0.856
			c-2.535-12.001-4.568-24.089-6.311-36.215c-0.846-6.066-1.701-12.133-2.418-18.216c-0.713-6.083-1.214-12.19-1.756-18.29
			c-0.258-3.051-0.507-6.103-0.62-9.169l-0.55-9.175c-0.33-6.119-0.891-12.214-1.331-18.321
			c-0.943-12.207-1.826-24.415-2.928-36.604c-0.054-0.592,0.383-1.116,0.976-1.17c0.592-0.054,1.116,0.383,1.17,0.976
			L669.643,366.499z"/>
	</g>
	<g>
		<path d="M611.5,549.214c7.052-4.585,14.323-8.598,21.62-12.556c3.649-1.976,7.312-3.916,11.047-5.722l11.293-5.276
			c7.542-3.53,14.736-7.737,21.978-11.802c7.19-4.163,14.28-8.49,21.105-13.192c1.05-0.724,2.489-0.46,3.213,0.591
			c0.724,1.05,0.459,2.489-0.591,3.213c-0.035,0.024-0.078,0.052-0.114,0.074c-7.171,4.346-14.36,8.62-21.592,12.806
			c-7.183,4.28-14.544,8.191-21.611,12.68c-3.544,2.234-7.133,4.396-10.752,6.508c-3.649,2.055-7.404,3.91-11.208,5.66
			c-7.609,3.494-15.38,6.661-23.497,8.976c-0.579,0.165-1.181-0.17-1.346-0.749C610.911,549.956,611.11,549.468,611.5,549.214z"/>
	</g>
	<g>
		<path d="M634.66,563.657c16.298-10.317,32.937-20,49.629-29.586c16.719-9.528,33.573-18.836,50.495-27.963
			c16.901-9.104,33.751-18.091,49.483-28.754c7.85-5.341,15.386-11.13,22.384-17.523c6.986-6.417,13.391-13.375,19.751-20.56
			c0.395-0.45,1.079-0.495,1.529-0.101c0.388,0.34,0.472,0.901,0.235,1.337c-4.706,8.565-11.037,16.149-17.928,23.054
			c-6.88,6.94-14.341,13.281-22.12,19.156c-15.561,11.781-32.402,21.596-49.318,30.81c-16.943,9.154-33.971,18.092-51.124,26.829
			c-17.183,8.675-34.418,17.253-51.995,25.197c-0.543,0.246-1.183,0.004-1.429-0.539C634.029,564.517,634.212,563.94,634.66,563.657
			z"/>
	</g>
	<g>
		<path d="M755.085,635.133c-3.852-0.514-7.638-1.475-11.3-2.79c-1.832-0.648-3.648-1.385-5.388-2.229l-5.097-2.726
			c-3.373-1.853-6.785-3.68-10.046-5.68c-3.279-1.966-6.512-4.012-9.701-6.129c-0.497-0.33-0.633-1-0.303-1.497
			c0.299-0.451,0.878-0.604,1.354-0.383l0.013,0.006c3.468,1.61,6.893,3.291,10.272,5.052l10.154,5.083l5.025,2.616
			c1.675,0.852,3.409,1.53,5.12,2.293l10.451,4.303c0.555,0.226,0.822,0.86,0.596,1.416
			C756.044,634.932,755.562,635.194,755.085,635.133z"/>
	</g>
	<g>
		<path d="M744.561,650.469c-7.423,0.591-14.99-0.605-22.064-3.075c-7.064-2.499-13.709-6.315-19.115-11.437
			c-0.435-0.412-0.453-1.099-0.041-1.534c0.35-0.37,0.905-0.435,1.329-0.194c6.275,3.57,12.6,6.731,19.273,9.069
			c6.654,2.394,13.565,3.908,20.694,5.018c0.592,0.089,1,0.642,0.91,1.234C745.471,650.057,745.05,650.428,744.561,650.469z"/>
	</g>
	<g>
		<path d="M744.855,670.569c-3.669,0.81-7.44,0.972-11.178,0.712c-3.747-0.234-7.451-0.972-11.064-2.006
			c-3.589-1.114-7.092-2.524-10.357-4.377c-3.271-1.827-6.342-4.02-8.976-6.697c-0.428-0.433-0.424-1.131,0.009-1.56
			c0.315-0.311,0.774-0.393,1.163-0.248l9.994,3.756c3.299,1.172,6.575,2.311,9.909,3.268c3.317,1.012,6.682,1.852,10.085,2.671
			l10.421,2.326c0.594,0.133,0.969,0.722,0.836,1.317C745.602,670.162,745.26,670.479,744.855,670.569z"/>
	</g>
	<g>
		<path d="M802.227,620.908c6.782-3.454,13.316-7.407,20.284-10.546c3.471-1.605,6.982-3.156,10.561-4.552
			c1.791-0.687,3.611-1.347,5.476-1.939c1.889-0.598,3.692-0.996,5.389-1.568l10.517-3.667c3.443-1.262,6.761-2.64,9.657-4.756
			c5.85-4.171,9.96-10.628,12.461-17.565c0.201-0.56,0.818-0.851,1.379-0.65c0.538,0.193,0.826,0.774,0.671,1.315
			c-2.151,7.405-6.14,14.529-12.286,19.735c-3.056,2.587-6.559,4.674-10.127,6.238c-3.606,1.601-7.046,2.864-10.857,3.996
			c-3.911,1.084-7.317,1.682-10.94,2.818c-3.593,1.029-7.158,2.183-10.658,3.53c-3.521,1.292-6.967,2.848-10.325,4.524
			c-3.388,1.631-6.777,3.271-10.141,4.964l-0.088,0.044c-0.531,0.267-1.178,0.053-1.445-0.478
			C801.487,621.82,801.696,621.175,802.227,620.908z"/>
	</g>
	<g>
		<path d="M845.579,732.649c1.219-10.384,1.752-20.859,1.453-31.306c-0.128-5.223-0.398-10.442-0.932-15.635
			c-0.535-5.194-1.391-10.347-2.303-15.474l-2.914-15.347c-0.499-2.597-0.918-5.071-1.486-7.594l-1.729-7.648
			c-1.142-5.144-2.168-10.336-3-15.542c-0.81-5.209-1.514-10.436-2.109-15.675c-0.067-0.593,0.359-1.128,0.952-1.196
			c0.528-0.06,1.01,0.271,1.157,0.763l0.006,0.02c3.031,10.097,5.498,20.263,8.264,30.34c0.7,2.522,1.353,5.067,1.99,7.656
			c0.644,2.587,1.194,5.274,1.626,7.844c0.969,5.194,1.561,10.481,1.993,15.764c0.423,5.288,0.626,10.585,0.79,15.868
			c0.173,5.282,0.326,10.56,0.258,15.837c-0.139,10.553-0.751,21.084-1.877,31.567c-0.064,0.592-0.595,1.02-1.186,0.956
			s-1.02-0.595-0.956-1.186L845.579,732.649z"/>
	</g>
	<g>
		<path d="M510.036,243.213c-0.532,10.682-3.446,21.103-7.625,30.917c-4.102,9.879-10.222,18.876-16.903,27.048l-9.92,12.25
			c-3.337,4.054-6.248,8.449-9.498,12.596c-6.742,8.078-14.375,15.406-22.679,21.867c-0.472,0.367-1.152,0.282-1.519-0.19
			c-0.322-0.413-0.296-0.987,0.032-1.37c6.799-7.938,13.525-15.788,20.335-23.576c3.531-3.782,7.168-7.515,10.183-11.736
			c3.008-4.203,5.96-8.541,8.612-12.971c5.39-8.845,9.869-17.936,14.297-27.107c4.425-9.196,8.263-18.619,12.589-28.228
			c0.246-0.553,0.894-0.802,1.447-0.556C509.81,242.345,510.055,242.776,510.036,243.213z"/>
	</g>
	<g>
		<path d="M402.14,139.628c2.733,6.569,5.008,13.21,7.472,19.787l0.071,0.228l-0.042-0.148c0,0,0.009,0.025,0.012,0.036l0.034,0.097
			l0.061,0.182l0.114,0.353l0.212,0.691l0.388,1.365l0.699,2.713c0.44,1.807,0.841,3.613,1.222,5.42
			c0.373,1.823,0.744,3.579,1.068,5.478c0.153,0.955,0.284,1.949,0.297,3.039c-0.01,1.078-0.078,2.34-0.828,3.668
			c-0.74,1.354-2.281,2.232-3.557,2.421c-1.301,0.225-2.456,0.107-3.533-0.174c-2.288-0.56-4.151-1.916-5.554-3.402
			c-2.822-3.016-4.461-6.573-5.863-10.036c-2.69-6.771-5.64-13.438-8.654-20.096c-2.967-6.678-6.086-13.293-9.127-19.95
			c-0.25-0.54-0.015-1.181,0.525-1.431c0.52-0.241,1.139-0.024,1.406,0.476c6.828,12.963,13.454,26.052,19.241,39.592
			c1.394,3.268,3.05,6.409,5.264,8.752c1.103,1.158,2.376,1.974,3.659,2.275c0.684,0.193,1.403,0.214,1.903,0.116
			c0.522-0.116,0.694-0.269,0.854-0.531c0.393-0.595,0.319-2.416,0.008-4.059c-0.305-1.706-0.702-3.53-1.078-5.29
			c-0.388-1.771-0.795-3.534-1.235-5.281l-0.691-2.598l-0.373-1.273l-0.455-1.4l0.071,0.227c-2.539-6.696-4.581-13.581-5.668-20.67
			c-0.091-0.592,0.316-1.146,0.908-1.237C401.476,138.894,401.953,139.178,402.14,139.628z"/>
	</g>
	<g>
		<path d="M363.546,140.86c1.145,4.202,2.462,8.346,4.071,12.371c1.6,3.998,3.532,7.865,5.573,11.749
			c2.07,3.825,4.035,7.906,6.253,11.43c1.194,1.969,2.232,3.89,3.298,5.832c1.023,1.913,2.087,3.641,3.371,5.237
			c1.268,1.581,2.735,3.008,4.327,4.125c0.756,0.538,1.433,0.786,1.769,0.746c0.328-0.019,0.693-0.199,1.166-0.806
			c0.431-0.552,0.927-1.541,1.182-2.278c0.275-0.802,0.424-1.68,0.434-2.606c0.023-1.853-0.387-3.821-1-5.79
			c-2.932-8.247-5.112-17.033-6.391-25.75c-0.087-0.59,0.32-1.139,0.91-1.226c0.544-0.081,1.054,0.261,1.198,0.778
			c2.365,8.484,4.882,16.695,8.122,24.921c0.768,2.193,1.359,4.571,1.34,7.126c-0.003,1.272-0.192,2.595-0.615,3.877
			c-0.479,1.327-0.939,2.352-1.849,3.546c-0.836,1.126-2.435,2.358-4.349,2.393c-1.898,0.034-3.275-0.825-4.297-1.53
			c-1.993-1.433-3.678-3.133-5.141-4.993c-1.457-1.845-2.676-3.899-3.701-5.873c-1.027-1.924-2.062-3.883-3.128-5.685
			c-0.54-0.845-1.212-2.016-1.676-2.976l-1.474-2.981l-2.888-5.943c-1.897-3.972-3.835-8.023-5.228-12.3
			c-1.414-4.233-2.572-8.544-3.38-12.915c-0.108-0.586,0.279-1.148,0.865-1.256C362.864,139.979,363.398,140.326,363.546,140.86z"/>
	</g>
	<g>
		<path d="M347.755,153.313c2.005,5.627,4.257,11.059,6.894,16.315c1.308,2.631,2.728,5.212,4.223,7.712
			c1.507,2.492,3.212,4.932,4.916,7.412l-0.235-0.28l2.15,2.846c0.666,0.853,1.351,1.694,2.049,2.523
			c1.386,1.62,2.886,3.365,4.312,4.682c1.439,1.326,2.837,1.86,4.294,1.639c0.552-0.155,0.636-0.209,0.88-0.822
			c0.193-0.618,0.181-1.582,0.052-2.556c-0.626-4.136-1.89-8.449-3.016-12.686c-1.172-4.254-2.476-8.484-3.752-12.721
			c-0.173-0.57,0.149-1.172,0.719-1.345c0.537-0.163,1.105,0.12,1.313,0.629c1.662,4.133,3.17,8.319,4.626,12.538
			c1.452,4.244,2.768,8.447,3.68,13.053c0.184,1.208,0.349,2.51-0.017,4.052c-0.191,0.761-0.58,1.613-1.255,2.299
			c-0.664,0.7-1.547,1.114-2.34,1.309c-0.793,0.201-1.586,0.216-2.226,0.179c-0.735-0.037-1.477-0.186-2.168-0.426
			c-1.391-0.488-2.522-1.308-3.455-2.126c-1.848-1.679-3.247-3.309-4.77-5.033c-0.741-0.858-1.467-1.729-2.177-2.615l-1.054-1.343
			l-0.519-0.684l-0.258-0.348l-0.129-0.177l-0.066-0.091l-0.032-0.045c0.057,0.081,0.124,0.158,0.197,0.227l-0.235-0.281
			c-1.73-2.454-3.505-4.925-5.144-7.56c-1.65-2.627-3.056-5.363-4.349-8.155c-2.56-5.592-4.364-11.552-5.2-17.612
			c-0.082-0.592,0.332-1.139,0.924-1.221C347.103,152.53,347.587,152.84,347.755,153.313z"/>
	</g>
	<g>
		<path d="M339.337,175.785c1.077,3.035,2.214,6.008,3.427,8.933c0.619,1.457,1.246,2.906,1.994,4.31l2.061,4.281
			c1.437,2.871,2.965,5.596,4.74,8.2c1.824,2.533,3.662,5.48,5.703,6.953c0.98,0.699,2.408,1.199,3.693,1.409
			c0.634,0.089,1.228,0.095,1.661-0.005c0.416-0.122,0.659-0.267,0.839-0.547c0.42-0.569,0.451-2.155,0.287-3.65
			c-0.166-1.563-0.347-3.139-0.678-4.616c-0.64-2.98-1.879-5.968-2.846-9.118l-2.687-9.454c-0.163-0.572,0.169-1.166,0.741-1.329
			c0.547-0.156,1.116,0.142,1.306,0.669l0.029,0.08l3.246,9.087c1.12,2.988,2.559,5.954,3.39,9.31
			c0.435,1.678,0.683,3.326,0.918,4.98c0.109,0.846,0.201,1.724,0.187,2.685c-0.036,0.955-0.132,2.062-0.781,3.195
			c-0.621,1.144-1.836,1.96-2.969,2.276c-1.141,0.31-2.201,0.298-3.17,0.17c-1.908-0.303-3.637-0.861-5.342-1.992
			c-1.643-1.132-2.794-2.548-3.832-3.863c-1.036-1.348-1.97-2.619-2.945-4.006c-1.916-2.736-3.601-5.666-5.101-8.579
			c-1.356-3.03-2.897-5.985-3.865-9.183c-1.036-3.163-1.737-6.427-2.108-9.717c-0.067-0.595,0.361-1.132,0.956-1.199
			C338.703,175.008,339.173,175.321,339.337,175.785z"/>
	</g>
	<g>
		<path d="M434.708,138.843c-1.887,1.298-2.733,2.101-3.281,3.968c-0.237,0.881-0.282,2.048-0.44,3.319l-0.5,3.616
			c-0.355,2.359-0.695,4.714-0.793,6.919l-0.749,7.257c-0.301,2.425-0.487,4.81-0.883,7.261c-0.401,2.439-0.971,4.844-1.683,7.196
			c-1.467,4.694-3.464,9.188-5.909,13.392c-0.299,0.515-0.959,0.689-1.474,0.39c-0.488-0.284-0.668-0.896-0.43-1.397
			c2.038-4.271,3.766-8.671,4.917-13.206c0.6-2.258,1.059-4.548,1.357-6.853c0.292-2.295,0.4-4.702,0.61-7.044l0.631-7.062
			c0.085-2.59,0.422-4.991,0.748-7.376l0.446-3.514c0.137-1.106,0.141-2.354,0.487-3.807c0.334-1.394,1.033-2.946,2.307-3.997
			c1.257-1.049,2.893-1.462,4.301-1.191c0.62,0.12,1.026,0.719,0.906,1.339c-0.059,0.306-0.235,0.559-0.472,0.724L434.708,138.843z"
			/>
	</g>
	<g>
		<path d="M268.672,180.778c4.259,3.077,7.141,7.643,8.896,12.529c1.75,4.964,2.364,10.377,2.377,15.321
			c0.107,5.009-0.183,9.853-0.321,14.737c-0.174,4.884-0.35,9.772-0.72,14.715c-0.192,2.472-0.437,4.967-0.913,7.5
			c-0.483,2.516-1.098,4.929-1.817,7.318c-1.436,4.762-3.086,9.369-4.686,13.987c-1.601,4.615-3.074,9.254-4.526,13.967
			l-2.287,6.978c-0.367,1.135-0.644,2.156-0.86,3.243c-0.214,1.084-0.422,2.267-0.572,3.384c-0.301,2.236-0.402,4.408-0.392,6.793
			l-0.021,7.243l-0.314,14.66c-0.134,4.88-0.245,9.768-0.576,14.721c-0.163,2.476-0.383,4.973-0.692,7.462l-0.948,7.301
			c-0.718,4.862-1.685,10.002-3.717,14.799c-2.013,4.741-4.65,9.136-7.832,13.098c-6.396,7.868-14.942,13.936-24.38,17.131
			c-0.564,0.191-1.177-0.112-1.368-0.676c-0.178-0.525,0.079-1.095,0.569-1.325c4.34-2.016,8.413-4.533,12.066-7.529
			c3.658-2.989,6.828-6.521,9.589-10.294c2.744-3.784,4.955-7.955,6.541-12.275c1.573-4.294,2.209-8.866,2.688-13.662l0.716-7.232
			c0.22-2.358,0.357-4.727,0.442-7.12c0.148-4.788,0.195-9.652,0.249-14.521l0.076-14.592c0.049-2.439,0.038-4.873,0.168-7.383
			c0.141-2.486,0.372-5.197,1.017-7.749c0.307-1.277,0.615-2.479,1.03-3.75c0.411-1.27,0.934-2.555,1.457-3.69l3.034-6.647
			c1.989-4.412,3.74-8.978,5.417-13.547c3.204-9.202,6.585-18.306,6.25-27.8c0.009-9.572-0.373-19.52-0.66-29.05
			c-0.238-4.784-0.653-9.194-2.162-13.457l-2.23-6.498c-0.785-2.189-1.619-4.393-2.331-6.823l-0.009-0.031
			c-0.176-0.601,0.168-1.23,0.769-1.406C268.037,180.508,268.399,180.583,268.672,180.778z"/>
	</g>
	<g>
		<path d="M831.777,282.494c-2.078-3.167-3.847-6.545-6.189-9.521c-4.09-5.199-9.576-9.031-15.339-12.147
			c-1.173-0.634-2.328-1.331-3.287-2.268c-0.423-0.413-0.81-0.88-1.02-1.433s-0.221-1.203,0.08-1.712
			c0.307-0.518,0.878-0.814,1.432-1.051c1.849-0.792,3.848-1.232,5.859-1.295c2.238-0.07,4.327,0.635,6.324,1.595
			c5.694,2.737,10.206,7.542,13.444,12.902c1.357,2.245,2.465,4.641,3.294,7.13c0.83,2.492,1.375,5.228,0.555,7.723
			c-0.359,1.091-1.159,2.216-2.306,2.27c-1.176,0.055-2.065-1.013-2.716-1.995C831.864,282.625,831.82,282.56,831.777,282.494z"/>
	</g>
	<g>
		<path d="M731.639,244.032c3.47-0.756,6.873-1.856,10.395-2.312c6.152-0.795,12.341,0.241,18.246,1.938
			c1.202,0.345,2.432,0.638,3.69,0.64c0.554,0.001,1.12-0.058,1.623-0.29c0.503-0.232,0.938-0.661,1.07-1.199
			c0.135-0.549-0.053-1.121-0.268-1.644c-0.718-1.744-1.767-3.351-3.072-4.713c-1.453-1.516-3.314-2.416-5.281-3.084
			c-5.609-1.906-11.785-1.651-17.472-0.189c-2.382,0.613-4.697,1.489-6.886,2.611c-2.192,1.124-4.353,2.597-5.442,4.807
			c-0.476,0.966-0.679,2.244,0.054,3.034c0.751,0.81,2.048,0.678,3.128,0.447C731.495,244.063,731.567,244.048,731.639,244.032z"/>
	</g>
	<g>
		<ellipse transform="matrix(0.2973 -0.9548 0.9548 0.2973 286.4609 977.3414)" cx="807.184" cy="294.064" rx="10.607" ry="6.08"/>
	</g>
	<g>
		<ellipse transform="matrix(0.2973 -0.9548 0.9548 0.2973 260.8026 892.9678)" cx="737.036" cy="269.309" rx="10.607" ry="6.08"/>
	</g>
	<g>
		<path fill="#FF6A46" d="M852.677,338.62c-0.031,14.784-12.358,27.012-27.313,26.769c-15.096-0.245-26.909-12.358-26.723-27.396
			c0.177-14.327,11.708-26.809,27.362-26.73C840.345,311.335,853.116,323.457,852.677,338.62z"/>
	</g>
</g>
</svg>
