<svg xmlns="http://www.w3.org/2000/svg" xmlns:xlink="http://www.w3.org/1999/xlink" width="150" zoomAndPan="magnify" viewBox="0 0 112.5 112.499997" height="150" preserveAspectRatio="xMidYMid meet" version="1.0"><defs><filter x="0%" y="0%" width="100%" height="100%" id="e0a4e214c5"><feColorMatrix values="0 0 0 0 1 0 0 0 0 1 0 0 0 0 1 0 0 0 1 0" color-interpolation-filters="sRGB"/></filter><g/><clipPath id="30b01bc262"><path d="M 0 0 L 112.003906 0 L 112.003906 112.003906 L 0 112.003906 Z M 0 0 " clip-rule="nonzero"/></clipPath><clipPath id="39535a1e78"><path d="M 56 0 L 63.886719 6.21875 L 73.304688 2.742188 L 78.882812 11.09375 L 88.917969 10.695312 L 91.640625 20.363281 L 101.308594 23.085938 L 100.910156 33.121094 L 109.261719 38.695312 L 105.78125 48.117188 L 112.003906 56 L 105.78125 63.886719 L 109.261719 73.304688 L 100.910156 78.882812 L 101.308594 88.917969 L 91.640625 91.640625 L 88.917969 101.308594 L 78.882812 100.910156 L 73.304688 109.261719 L 63.886719 105.78125 L 56 112.003906 L 48.117188 105.78125 L 38.695312 109.261719 L 33.121094 100.910156 L 23.085938 101.308594 L 20.363281 91.640625 L 10.695312 88.917969 L 11.09375 78.882812 L 2.742188 73.304688 L 6.21875 63.886719 L 0 56 L 6.21875 48.117188 L 2.742188 38.695312 L 11.09375 33.121094 L 10.695312 23.085938 L 20.363281 20.363281 L 23.085938 10.695312 L 33.121094 11.09375 L 38.695312 2.742188 L 48.117188 6.21875 Z M 56 0 " clip-rule="nonzero"/></clipPath><clipPath id="4acff78260"><path d="M 12.695312 63.164062 L 20.25 63.164062 L 20.25 70.714844 L 12.695312 70.714844 Z M 12.695312 63.164062 " clip-rule="nonzero"/></clipPath><clipPath id="90a297755e"><path d="M 16.472656 63.164062 L 17.675781 65.738281 L 20.25 66.9375 L 17.675781 68.140625 L 16.472656 70.714844 L 15.269531 68.140625 L 12.695312 66.9375 L 15.269531 65.738281 Z M 16.472656 63.164062 " clip-rule="nonzero"/></clipPath><clipPath id="2b171ef6b1"><path d="M 90.847656 63.164062 L 98.402344 63.164062 L 98.402344 70.714844 L 90.847656 70.714844 Z M 90.847656 63.164062 " clip-rule="nonzero"/></clipPath><clipPath id="8dbd83a0c0"><path d="M 94.625 63.164062 L 95.828125 65.738281 L 98.402344 66.9375 L 95.828125 68.140625 L 94.625 70.714844 L 93.425781 68.140625 L 90.847656 66.9375 L 93.425781 65.738281 Z M 94.625 63.164062 " clip-rule="nonzero"/></clipPath><mask id="0fe12642f5"><g filter="url(#e0a4e214c5)"><rect x="-11.25" width="135" fill="#000000" y="-11.25" height="134.999996" fill-opacity="0.23"/></g></mask><clipPath id="1e1481c297"><path d="M 0.152344 15.382812 L 69.59375 15.382812 L 69.59375 66.847656 L 0.152344 66.847656 Z M 0.152344 15.382812 " clip-rule="nonzero"/></clipPath><clipPath id="9c1c0e78b8"><rect x="0" width="71" y="0" height="68"/></clipPath><clipPath id="c119073ccd"><path d="M 28.230469 33.089844 L 83.484375 33.089844 L 83.484375 74.902344 L 28.230469 74.902344 Z M 28.230469 33.089844 " clip-rule="nonzero"/></clipPath><clipPath id="57dab8fc30"><path d="M 28.230469 50 L 76 50 L 76 74.902344 L 28.230469 74.902344 Z M 28.230469 50 " clip-rule="nonzero"/></clipPath><clipPath id="7dcc37b5c0"><path d="M 40 33.089844 L 83 33.089844 L 83 73 L 40 73 Z M 40 33.089844 " clip-rule="nonzero"/></clipPath></defs><g clip-path="url(#30b01bc262)"><g clip-path="url(#39535a1e78)"><path fill="#e8b13a" d="M 0 0 L 112.003906 0 L 112.003906 112.003906 L 0 112.003906 Z M 0 0 " fill-opacity="1" fill-rule="nonzero"/></g></g><g clip-path="url(#4acff78260)"><g clip-path="url(#90a297755e)"><path fill="#ff5100" d="M 12.695312 63.164062 L 20.25 63.164062 L 20.25 70.714844 L 12.695312 70.714844 Z M 12.695312 63.164062 " fill-opacity="1" fill-rule="nonzero"/></g></g><g fill="#000000" fill-opacity="1"><g transform="translate(18.590281, 58.319902)"><g><path d="M 0.015625 -3.015625 L 0.015625 -1.625 L -6.328125 -0.21875 L -6.3125 -1.46875 L -1.859375 -2.390625 L -1.859375 -2.5 L -6.296875 -3.65625 L -6.296875 -4.734375 L -1.828125 -5.859375 L -1.828125 -5.96875 L -6.28125 -6.953125 L -6.265625 -8.15625 L 0.046875 -6.671875 L 0.03125 -5.265625 L -4.046875 -4.1875 L -4.046875 -4.09375 Z M 0.015625 -3.015625 "/></g></g></g><g fill="#000000" fill-opacity="1"><g transform="translate(18.828912, 49.484841)"><g><path d="M 0.171875 -0.8125 L -6.015625 -2.140625 L -5.484375 -4.609375 C -5.347656 -5.253906 -5.09375 -5.707031 -4.71875 -5.96875 C -4.351562 -6.226562 -3.910156 -6.300781 -3.390625 -6.1875 C -3.015625 -6.101562 -2.726562 -5.941406 -2.53125 -5.703125 C -2.332031 -5.460938 -2.21875 -5.140625 -2.1875 -4.734375 L -2.09375 -4.71875 C -1.957031 -4.90625 -1.796875 -5.035156 -1.609375 -5.109375 C -1.421875 -5.191406 -1.148438 -5.253906 -0.796875 -5.296875 L 1.171875 -5.515625 L 0.90625 -4.265625 L -1.0625 -4.046875 C -1.257812 -4.023438 -1.414062 -3.984375 -1.53125 -3.921875 C -1.644531 -3.867188 -1.738281 -3.785156 -1.8125 -3.671875 C -1.894531 -3.566406 -1.957031 -3.421875 -2 -3.234375 L -2.140625 -2.578125 L 0.4375 -2.03125 Z M -2.875 -3.890625 C -2.75 -4.492188 -2.960938 -4.851562 -3.515625 -4.96875 C -4.066406 -5.082031 -4.40625 -4.835938 -4.53125 -4.234375 L -4.765625 -3.140625 L -3.109375 -2.796875 Z M -2.875 -3.890625 "/></g></g></g><g fill="#000000" fill-opacity="1"><g transform="translate(20.370277, 43.019621)"><g><path d="M 0.703125 -1.953125 L 0.28125 -0.78125 L -5.671875 -2.9375 L -5.25 -4.109375 Z M 0.703125 -1.953125 "/></g></g></g><g fill="#000000" fill-opacity="1"><g transform="translate(21.592658, 39.564824)"><g><path d="M -3.296875 -7.40625 L -2.34375 -6.921875 L -3.1875 -5.3125 L 1.484375 -2.890625 L 0.921875 -1.78125 L -3.75 -4.203125 L -4.59375 -2.578125 L -5.546875 -3.0625 Z M -3.296875 -7.40625 "/></g></g></g><g fill="#000000" fill-opacity="1"><g transform="translate(24.313702, 34.328839)"><g><path d="M 3.640625 -4.84375 L 2.859375 -3.796875 L 1.421875 -4.296875 L -0.03125 -2.359375 L 0.828125 -1.09375 L 0.0625 -0.078125 L -3.671875 -5.640625 L -2.703125 -6.921875 Z M -2.1875 -5.40625 L -0.703125 -3.265625 L 0.359375 -4.65625 L -2.125 -5.5 Z M -2.1875 -5.40625 "/></g></g></g><g fill="#000000" fill-opacity="1"><g transform="translate(28.490248, 28.940488)"><g><path d="M -0.65625 -8.078125 L 0.078125 -7.296875 L -1.25 -6.0625 L 2.359375 -2.234375 L 1.453125 -1.375 L -2.15625 -5.203125 L -3.484375 -3.953125 L -4.21875 -4.734375 Z M -0.65625 -8.078125 "/></g></g></g><g fill="#000000" fill-opacity="1"><g transform="translate(32.75327, 24.891257)"><g><path d="M 1.96875 -5.96875 L 0.65625 -7.984375 L 1.703125 -8.671875 L 5.15625 -3.359375 L 4.109375 -2.671875 L 2.546875 -5.078125 L 0.1875 -3.53125 L 1.75 -1.125 L 0.6875 -0.453125 L -2.765625 -5.765625 L -1.703125 -6.4375 L -0.390625 -4.421875 Z M 1.96875 -5.96875 "/></g></g></g><g fill="#000000" fill-opacity="1"><g transform="translate(39.122046, 20.825531)"><g><path d="M 3.25 -1.171875 C 2.695312 -0.960938 2.171875 -0.882812 1.671875 -0.9375 C 1.171875 -1 0.71875 -1.210938 0.3125 -1.578125 C -0.09375 -1.941406 -0.425781 -2.457031 -0.6875 -3.125 C -0.957031 -3.800781 -1.066406 -4.40625 -1.015625 -4.9375 C -0.960938 -5.476562 -0.773438 -5.941406 -0.453125 -6.328125 C -0.128906 -6.722656 0.304688 -7.023438 0.859375 -7.234375 C 1.390625 -7.453125 1.90625 -7.53125 2.40625 -7.46875 C 2.90625 -7.40625 3.359375 -7.191406 3.765625 -6.828125 C 4.171875 -6.472656 4.507812 -5.957031 4.78125 -5.28125 C 5.039062 -4.613281 5.144531 -4.003906 5.09375 -3.453125 C 5.050781 -2.910156 4.863281 -2.445312 4.53125 -2.0625 C 4.207031 -1.6875 3.78125 -1.390625 3.25 -1.171875 Z M 2.84375 -2.203125 C 3.332031 -2.398438 3.644531 -2.707031 3.78125 -3.125 C 3.914062 -3.550781 3.847656 -4.113281 3.578125 -4.8125 C 3.296875 -5.519531 2.960938 -5.976562 2.578125 -6.1875 C 2.191406 -6.40625 1.753906 -6.414062 1.265625 -6.21875 C 0.753906 -6.019531 0.425781 -5.707031 0.28125 -5.28125 C 0.144531 -4.863281 0.21875 -4.300781 0.5 -3.59375 C 0.769531 -2.894531 1.097656 -2.4375 1.484375 -2.21875 C 1.878906 -2.007812 2.332031 -2.003906 2.84375 -2.203125 Z M 2.84375 -2.203125 "/></g></g></g><g fill="#000000" fill-opacity="1"><g transform="translate(46.089884, 18.128428)"><g><path d="M 2 -0.359375 L 0.8125 -0.140625 L -0.296875 -6.375 L 1.109375 -6.625 L 4.328125 -3.0625 L 4.421875 -3.09375 L 3.71875 -7.09375 L 4.90625 -7.3125 L 6.015625 -1.078125 L 4.75 -0.859375 L 1.34375 -4.671875 L 1.234375 -4.625 Z M 2 -0.359375 "/></g></g></g><g fill="#000000" fill-opacity="1"><g transform="translate(53.664455, 16.992846)"><g/></g></g><g fill="#000000" fill-opacity="1"><g transform="translate(56.536427, 16.829944)"><g><path d="M 2.3125 -2.59375 L 2.171875 -0.875 L 5.171875 -0.625 L 5.078125 0.421875 L 0.828125 0.0625 L 1.359375 -6.25 L 5.53125 -5.890625 L 5.4375 -4.84375 L 2.515625 -5.09375 L 2.390625 -3.609375 L 4.953125 -3.390625 L 4.875 -2.375 Z M 2.3125 -2.59375 "/></g></g></g><g fill="#000000" fill-opacity="1"><g transform="translate(62.584575, 17.323203)"><g><path d="M 1.953125 0.53125 L 0.796875 0.21875 L 2.453125 -5.890625 L 3.828125 -5.515625 L 5.21875 -0.921875 L 5.328125 -0.90625 L 6.390625 -4.828125 L 7.546875 -4.515625 L 5.890625 1.59375 L 4.65625 1.265625 L 3.203125 -3.640625 L 3.078125 -3.640625 Z M 1.953125 0.53125 "/></g></g></g><g fill="#000000" fill-opacity="1"><g transform="translate(69.846279, 19.426976)"><g><path d="M 7.296875 -3.546875 L 6.84375 -2.578125 L 5.203125 -3.359375 L 2.9375 1.390625 L 1.8125 0.859375 L 4.078125 -3.890625 L 2.421875 -4.671875 L 2.875 -5.640625 Z M 7.296875 -3.546875 "/></g></g></g><g fill="#000000" fill-opacity="1"><g transform="translate(75.165655, 21.930839)"><g><path d="M 6.28125 -0.34375 L 7.671875 -2.28125 L 8.6875 -1.546875 L 5 3.59375 L 3.984375 2.859375 L 5.65625 0.53125 L 3.359375 -1.109375 L 1.6875 1.21875 L 0.671875 0.484375 L 4.359375 -4.65625 L 5.375 -3.921875 L 3.984375 -1.984375 Z M 6.28125 -0.34375 "/></g></g></g><g fill="#000000" fill-opacity="1"><g transform="translate(81.267085, 26.395624)"><g><path d="M 2.234375 2.515625 C 1.628906 1.878906 1.332031 1.265625 1.34375 0.671875 C 1.363281 0.0859375 1.671875 -0.484375 2.265625 -1.046875 L 5.15625 -3.734375 L 5.984375 -2.84375 L 3.09375 -0.15625 C 2.757812 0.15625 2.585938 0.46875 2.578125 0.78125 C 2.566406 1.101562 2.71875 1.429688 3.03125 1.765625 C 3.632812 2.421875 4.269531 2.4375 4.9375 1.8125 L 7.828125 -0.875 L 8.65625 0.015625 L 5.765625 2.703125 C 5.171875 3.265625 4.578125 3.53125 3.984375 3.5 C 3.398438 3.476562 2.816406 3.148438 2.234375 2.515625 Z M 2.234375 2.515625 "/></g></g></g><g fill="#000000" fill-opacity="1"><g transform="translate(86.184537, 31.837926)"><g><path d="M 1.4375 2.390625 C 1.195312 2.023438 1.03125 1.671875 0.9375 1.328125 C 0.851562 0.992188 0.820312 0.679688 0.84375 0.390625 C 0.863281 0.0976562 0.929688 -0.15625 1.046875 -0.375 L 2.109375 -0.265625 L 2.171875 -0.171875 C 2.054688 0.148438 2.003906 0.476562 2.015625 0.8125 C 2.023438 1.15625 2.132812 1.488281 2.34375 1.8125 C 2.53125 2.101562 2.726562 2.28125 2.9375 2.34375 C 3.15625 2.40625 3.363281 2.367188 3.5625 2.234375 C 3.6875 2.148438 3.773438 2.0625 3.828125 1.96875 C 3.890625 1.875 3.914062 1.75 3.90625 1.59375 C 3.894531 1.445312 3.851562 1.273438 3.78125 1.078125 L 3.5 0.265625 C 3.300781 -0.265625 3.253906 -0.726562 3.359375 -1.125 C 3.460938 -1.53125 3.71875 -1.863281 4.125 -2.125 C 4.425781 -2.320312 4.738281 -2.414062 5.0625 -2.40625 C 5.382812 -2.40625 5.703125 -2.300781 6.015625 -2.09375 C 6.328125 -1.894531 6.613281 -1.597656 6.875 -1.203125 C 7.144531 -0.785156 7.316406 -0.394531 7.390625 -0.03125 C 7.472656 0.332031 7.460938 0.6875 7.359375 1.03125 L 6.3125 0.96875 L 6.25 0.875 C 6.3125 0.632812 6.320312 0.390625 6.28125 0.140625 C 6.238281 -0.0976562 6.132812 -0.347656 5.96875 -0.609375 C 5.78125 -0.890625 5.585938 -1.070312 5.390625 -1.15625 C 5.191406 -1.25 5.003906 -1.234375 4.828125 -1.109375 C 4.660156 -1.003906 4.5625 -0.867188 4.53125 -0.703125 C 4.5 -0.535156 4.535156 -0.300781 4.640625 0 L 4.953125 0.796875 C 5.179688 1.378906 5.238281 1.867188 5.125 2.265625 C 5.007812 2.671875 4.742188 3.007812 4.328125 3.28125 C 3.992188 3.488281 3.65625 3.597656 3.3125 3.609375 C 2.976562 3.617188 2.648438 3.523438 2.328125 3.328125 C 2.003906 3.128906 1.707031 2.816406 1.4375 2.390625 Z M 1.4375 2.390625 "/></g></g></g><g fill="#000000" fill-opacity="1"><g transform="translate(89.424255, 37.103974)"><g><path d="M 0.890625 1.875 L 0.359375 0.75 L 6.078125 -1.953125 L 6.609375 -0.828125 Z M 0.890625 1.875 "/></g></g></g><g fill="#000000" fill-opacity="1"><g transform="translate(91.033867, 40.36553)"><g><path d="M 1.796875 5.796875 L 1.40625 4.53125 L 2.65625 3.65625 L 1.9375 1.34375 L 0.40625 1.3125 L 0.03125 0.09375 L 6.71875 0.296875 L 7.203125 1.84375 Z M 5.671875 1.375 L 3.0625 1.34375 L 3.578125 3.015625 L 5.703125 1.484375 Z M 5.671875 1.375 "/></g></g></g><g fill="#000000" fill-opacity="1"><g transform="translate(92.967722, 46.899522)"><g><path d="M 0.265625 2.796875 C 0.210938 2.359375 0.21875 1.960938 0.28125 1.609375 C 0.34375 1.253906 0.445312 0.953125 0.59375 0.703125 C 0.75 0.460938 0.914062 0.265625 1.09375 0.109375 L 2.03125 0.671875 L 2.046875 0.78125 C 1.785156 1.019531 1.585938 1.296875 1.453125 1.609375 C 1.316406 1.921875 1.273438 2.269531 1.328125 2.65625 C 1.367188 2.988281 1.472656 3.226562 1.640625 3.375 C 1.804688 3.519531 2.007812 3.578125 2.25 3.546875 C 2.40625 3.523438 2.53125 3.484375 2.625 3.421875 C 2.71875 3.359375 2.789062 3.253906 2.84375 3.109375 C 2.90625 2.972656 2.945312 2.796875 2.96875 2.578125 L 3.0625 1.75 C 3.101562 1.164062 3.253906 0.71875 3.515625 0.40625 C 3.785156 0.101562 4.160156 -0.078125 4.640625 -0.140625 C 4.992188 -0.191406 5.316406 -0.144531 5.609375 0 C 5.898438 0.132812 6.144531 0.359375 6.34375 0.671875 C 6.539062 0.992188 6.664062 1.394531 6.71875 1.875 C 6.789062 2.351562 6.78125 2.773438 6.6875 3.140625 C 6.601562 3.503906 6.441406 3.820312 6.203125 4.09375 L 5.28125 3.59375 L 5.265625 3.484375 C 5.429688 3.273438 5.546875 3.050781 5.609375 2.8125 C 5.671875 2.570312 5.679688 2.304688 5.640625 2.015625 C 5.597656 1.671875 5.503906 1.414062 5.359375 1.25 C 5.222656 1.09375 5.050781 1.03125 4.84375 1.0625 C 4.644531 1.082031 4.492188 1.160156 4.390625 1.296875 C 4.296875 1.441406 4.234375 1.675781 4.203125 2 L 4.140625 2.828125 C 4.085938 3.460938 3.925781 3.929688 3.65625 4.234375 C 3.382812 4.546875 3 4.738281 2.5 4.8125 C 2.101562 4.863281 1.75 4.820312 1.4375 4.6875 C 1.132812 4.5625 0.878906 4.335938 0.671875 4.015625 C 0.460938 3.691406 0.328125 3.285156 0.265625 2.796875 Z M 0.265625 2.796875 "/></g></g></g><g fill="#000000" fill-opacity="1"><g transform="translate(93.697873, 52.964736)"><g><path d="M 6.171875 5.25 L 5.109375 5.21875 L 5.171875 3.40625 L -0.09375 3.25 L -0.0625 2 L 5.203125 2.15625 L 5.265625 0.328125 L 6.328125 0.359375 Z M 6.171875 5.25 "/></g></g></g><g fill="#000000" fill-opacity="1"><g transform="translate(17.298911, 79.764843)"><g><path d="M 2.03125 2.796875 C 1.675781 2.328125 1.457031 1.84375 1.375 1.34375 C 1.300781 0.84375 1.378906 0.347656 1.609375 -0.140625 C 1.847656 -0.640625 2.25 -1.109375 2.8125 -1.546875 C 3.375 -1.984375 3.921875 -2.25 4.453125 -2.34375 C 4.992188 -2.445312 5.492188 -2.398438 5.953125 -2.203125 C 6.421875 -2.003906 6.832031 -1.671875 7.1875 -1.203125 C 7.570312 -0.722656 7.796875 -0.242188 7.859375 0.234375 C 7.929688 0.710938 7.828125 1.179688 7.546875 1.640625 L 6.546875 1.25 L 6.5 1.15625 C 6.664062 0.851562 6.734375 0.566406 6.703125 0.296875 C 6.679688 0.0234375 6.554688 -0.25 6.328125 -0.53125 C 6.015625 -0.945312 5.628906 -1.164062 5.171875 -1.1875 C 4.710938 -1.207031 4.1875 -0.988281 3.59375 -0.53125 C 3 -0.0703125 2.65625 0.378906 2.5625 0.828125 C 2.46875 1.273438 2.578125 1.707031 2.890625 2.125 C 3.398438 2.769531 4.03125 2.921875 4.78125 2.578125 L 4.84375 2.671875 L 5.015625 3.703125 C 4.441406 3.921875 3.90625 3.957031 3.40625 3.8125 C 2.914062 3.675781 2.457031 3.335938 2.03125 2.796875 Z M 2.03125 2.796875 "/></g></g></g><g fill="#000000" fill-opacity="1"><g transform="translate(24.334141, 88.007172)"><g><path d="M 2.640625 2.234375 C 2.179688 1.867188 1.851562 1.453125 1.65625 0.984375 C 1.46875 0.523438 1.425781 0.03125 1.53125 -0.5 C 1.632812 -1.039062 1.910156 -1.59375 2.359375 -2.15625 C 2.816406 -2.726562 3.296875 -3.125 3.796875 -3.34375 C 4.296875 -3.5625 4.789062 -3.625 5.28125 -3.53125 C 5.769531 -3.445312 6.242188 -3.222656 6.703125 -2.859375 C 7.148438 -2.503906 7.472656 -2.09375 7.671875 -1.625 C 7.867188 -1.164062 7.914062 -0.671875 7.8125 -0.140625 C 7.707031 0.390625 7.425781 0.941406 6.96875 1.515625 C 6.519531 2.078125 6.039062 2.472656 5.53125 2.703125 C 5.03125 2.929688 4.535156 3 4.046875 2.90625 C 3.554688 2.8125 3.085938 2.585938 2.640625 2.234375 Z M 3.328125 1.375 C 3.742188 1.707031 4.164062 1.820312 4.59375 1.71875 C 5.03125 1.625 5.484375 1.285156 5.953125 0.703125 C 6.429688 0.109375 6.664062 -0.40625 6.65625 -0.84375 C 6.65625 -1.289062 6.445312 -1.679688 6.03125 -2.015625 C 5.601562 -2.359375 5.171875 -2.484375 4.734375 -2.390625 C 4.296875 -2.296875 3.835938 -1.953125 3.359375 -1.359375 C 2.890625 -0.773438 2.660156 -0.257812 2.671875 0.1875 C 2.679688 0.632812 2.898438 1.03125 3.328125 1.375 Z M 3.328125 1.375 "/></g></g></g><g fill="#000000" fill-opacity="1"><g transform="translate(33.717749, 94.819916)"><g><path d="M 1.796875 0.796875 L 0.765625 0.328125 L 3.3125 -5.46875 L 4.796875 -4.8125 L 4.390625 0.09375 L 4.484375 0.140625 L 7.796875 -3.5 L 9.265625 -2.84375 L 6.71875 2.953125 L 5.640625 2.46875 L 7.3125 -1.34375 L 7.21875 -1.40625 L 4.1875 1.84375 L 3.234375 1.421875 L 3.59375 -3.015625 L 3.46875 -3.015625 Z M 1.796875 0.796875 "/></g></g></g><g fill="#000000" fill-opacity="1"><g transform="translate(45.720159, 99.29751)"><g><path d="M 4.265625 -5.6875 C 4.710938 -5.613281 5.082031 -5.46875 5.375 -5.25 C 5.664062 -5.039062 5.863281 -4.773438 5.96875 -4.453125 C 6.082031 -4.140625 6.109375 -3.785156 6.046875 -3.390625 C 5.984375 -3.003906 5.84375 -2.675781 5.625 -2.40625 C 5.414062 -2.132812 5.140625 -1.941406 4.796875 -1.828125 C 4.453125 -1.722656 4.054688 -1.707031 3.609375 -1.78125 L 2.4375 -1.984375 L 2.046875 0.34375 L 0.8125 0.140625 L 1.859375 -6.09375 Z M 3.609375 -2.78125 C 4.285156 -2.664062 4.679688 -2.9375 4.796875 -3.59375 C 4.898438 -4.238281 4.613281 -4.617188 3.9375 -4.734375 L 2.921875 -4.90625 L 2.59375 -2.953125 Z M 3.609375 -2.78125 "/></g></g></g><g fill="#000000" fill-opacity="1"><g transform="translate(55.98616, 100.489519)"><g><path d="M 1.78125 -6.421875 L 2.03125 -1.140625 L 4.875 -1.28125 L 4.921875 -0.234375 L 0.828125 -0.03125 L 0.53125 -6.359375 Z M 1.78125 -6.421875 "/></g></g></g><g fill="#000000" fill-opacity="1"><g transform="translate(65.612711, 99.576877)"><g><path d="M 1.3125 -3.21875 L 1.75 -1.546875 L 4.65625 -2.3125 L 4.921875 -1.296875 L 0.796875 -0.203125 L -0.8125 -6.328125 L 3.25 -7.390625 L 3.515625 -6.375 L 0.671875 -5.640625 L 1.046875 -4.203125 L 3.53125 -4.859375 L 3.796875 -3.875 Z M 1.3125 -3.21875 "/></g></g></g><g fill="#000000" fill-opacity="1"><g transform="translate(75.138616, 96.574895)"><g><path d="M 1.671875 -7.9375 L 2.140625 -6.984375 L 0.53125 -6.171875 L 2.90625 -1.46875 L 1.78125 -0.90625 L -0.59375 -5.609375 L -2.21875 -4.78125 L -2.6875 -5.734375 Z M 1.671875 -7.9375 "/></g></g></g><g fill="#000000" fill-opacity="1"><g transform="translate(83.664041, 91.753517)"><g><path d="M -0.125 -3.46875 L 0.96875 -2.109375 L 3.3125 -4 L 3.96875 -3.1875 L 0.640625 -0.515625 L -3.328125 -5.453125 L -0.0625 -8.078125 L 0.59375 -7.25 L -1.6875 -5.40625 L -0.75 -4.25 L 1.25 -5.875 L 1.875 -5.09375 Z M -0.125 -3.46875 "/></g></g></g><g fill="#000000" fill-opacity="1"><g transform="translate(91.201536, 85.115402)"><g><path d="M -3.078125 -6.34375 C -2.441406 -7.15625 -1.742188 -7.609375 -0.984375 -7.703125 C -0.222656 -7.796875 0.566406 -7.519531 1.390625 -6.875 C 2.210938 -6.226562 2.660156 -5.53125 2.734375 -4.78125 C 2.816406 -4.03125 2.539062 -3.25 1.90625 -2.4375 L 0.515625 -0.65625 L -4.46875 -4.5625 Z M 1.046875 -3.03125 C 1.441406 -3.53125 1.609375 -4.007812 1.546875 -4.46875 C 1.484375 -4.9375 1.160156 -5.398438 0.578125 -5.859375 C -0.015625 -6.316406 -0.535156 -6.519531 -0.984375 -6.46875 C -1.441406 -6.414062 -1.867188 -6.140625 -2.265625 -5.640625 L -2.859375 -4.890625 L 0.453125 -2.28125 Z M 1.046875 -3.03125 "/></g></g></g><g clip-path="url(#2b171ef6b1)"><g clip-path="url(#8dbd83a0c0)"><path fill="#ff5100" d="M 90.847656 63.164062 L 98.402344 63.164062 L 98.402344 70.714844 L 90.847656 70.714844 Z M 90.847656 63.164062 " fill-opacity="1" fill-rule="nonzero"/></g></g><g mask="url(#0fe12642f5)"><g transform="matrix(1, 0, 0, 1, 21, 20)"><g clip-path="url(#9c1c0e78b8)"><g clip-path="url(#1e1481c297)"><path fill="#ffffff" d="M 41.050781 62.734375 C 41.117188 62.75 41.191406 62.734375 41.246094 62.683594 C 41.609375 62.335938 41.089844 60.59375 39.9375 56.683594 C 39.9375 56.683594 39.082031 53.769531 38.285156 51.027344 C 37.863281 49.582031 37.53125 48.398438 37.3125 47.625 C 37.488281 48.40625 37.765625 49.605469 38.082031 51.078125 C 38.300781 52.078125 38.648438 53.664062 39.328125 56.835938 C 40.191406 60.820312 40.558594 62.597656 41.042969 62.734375 Z M 55.535156 56.398438 C 55.609375 56.378906 55.667969 56.320312 55.6875 56.246094 C 55.828125 55.765625 54.5 54.515625 51.542969 51.703125 C 51.542969 51.703125 49.339844 49.605469 47.273438 47.625 C 46.183594 46.582031 45.300781 45.726562 44.722656 45.164062 C 45.269531 45.753906 46.105469 46.660156 47.121094 47.769531 C 47.816406 48.523438 48.910156 49.726562 51.09375 52.132812 C 53.828125 55.164062 55.042969 56.519531 55.535156 56.398438 Z M 63.796875 42.179688 C 63.851562 42.125 63.871094 42.050781 63.855469 41.980469 C 63.734375 41.492188 61.957031 41.078125 57.988281 40.109375 C 57.988281 40.109375 55.027344 39.390625 52.242188 38.707031 C 50.777344 38.34375 49.582031 38.042969 48.800781 37.84375 C 49.570312 38.082031 50.75 38.445312 52.1875 38.90625 C 53.164062 39.21875 54.71875 39.710938 57.816406 40.710938 C 61.703125 41.96875 63.4375 42.535156 63.796875 42.1875 Z M 5.8125 41.324219 C 5.796875 41.398438 5.816406 41.472656 5.863281 41.527344 C 6.214844 41.886719 7.972656 41.375 11.882812 40.222656 C 11.882812 40.222656 14.808594 39.367188 17.5625 38.566406 C 19.015625 38.152344 20.203125 37.816406 20.976562 37.597656 C 20.191406 37.777344 18.988281 38.050781 17.515625 38.367188 C 16.511719 38.585938 14.917969 38.929688 11.734375 39.609375 C 7.734375 40.476562 5.949219 40.847656 5.8125 41.324219 Z M 13.675781 55.765625 C 13.695312 55.839844 13.75 55.898438 13.824219 55.914062 C 14.308594 56.054688 15.5625 54.734375 18.386719 51.785156 C 18.386719 51.785156 20.492188 49.589844 22.480469 47.527344 C 23.535156 46.445312 24.386719 45.5625 24.953125 44.988281 C 24.359375 45.535156 23.449219 46.367188 22.335938 47.378906 C 21.574219 48.070312 20.367188 49.164062 17.953125 51.335938 C 14.910156 54.074219 13.550781 55.285156 13.675781 55.765625 Z M 27.933594 62.507812 C 27.984375 62.558594 28.058594 62.578125 28.132812 62.5625 C 28.621094 62.441406 29.046875 60.671875 30.011719 56.714844 C 30.011719 56.714844 30.734375 53.761719 31.421875 50.988281 C 31.785156 49.527344 32.085938 48.335938 32.285156 47.558594 C 32.046875 48.324219 31.683594 49.5 31.21875 50.933594 C 30.90625 51.910156 30.410156 53.457031 29.414062 56.542969 C 28.144531 60.417969 27.574219 62.148438 27.925781 62.507812 Z M 50.796875 63.019531 C 50.886719 63.015625 50.96875 62.96875 51.011719 62.894531 C 51.3125 62.371094 50.148438 60.53125 47.554688 56.394531 C 47.554688 56.394531 45.617188 53.3125 43.804688 50.402344 C 42.851562 48.875 42.078125 47.617188 41.578125 46.792969 C 42.039062 47.636719 42.738281 48.933594 43.589844 50.523438 C 44.167969 51.609375 45.085938 53.324219 46.898438 56.765625 C 49.183594 61.085938 50.195312 63.019531 50.796875 63.019531 Z M 63.574219 50.472656 C 63.652344 50.425781 63.699219 50.34375 63.699219 50.253906 C 63.699219 49.652344 61.769531 48.644531 57.453125 46.359375 C 57.453125 46.359375 54.234375 44.65625 51.210938 43.050781 C 49.621094 42.203125 48.324219 41.5 47.480469 41.039062 C 48.300781 41.542969 49.554688 42.316406 51.089844 43.265625 C 52.132812 43.917969 53.785156 44.945312 57.078125 47.015625 C 61.214844 49.605469 63.058594 50.773438 63.574219 50.472656 Z M 6.320312 50.273438 C 6.320312 50.363281 6.367188 50.445312 6.445312 50.492188 C 6.964844 50.792969 8.804688 49.628906 12.941406 47.03125 C 12.941406 47.03125 16.023438 45.097656 18.933594 43.285156 C 20.464844 42.332031 21.71875 41.558594 22.542969 41.058594 C 21.695312 41.519531 20.402344 42.21875 18.808594 43.066406 C 17.722656 43.648438 16.007812 44.5625 12.570312 46.378906 C 8.25 48.664062 6.316406 49.671875 6.320312 50.273438 Z M 19.015625 62.902344 C 19.0625 62.980469 19.140625 63.027344 19.230469 63.027344 C 19.832031 63.027344 20.84375 61.097656 23.125 56.78125 C 23.125 56.78125 24.828125 53.5625 26.4375 50.539062 C 27.285156 48.949219 27.984375 47.652344 28.445312 46.808594 C 27.945312 47.628906 27.171875 48.886719 26.21875 50.417969 C 25.570312 51.460938 24.542969 53.113281 22.472656 56.40625 C 19.886719 60.542969 18.710938 62.382812 19.015625 62.902344 Z M 34.890625 67.015625 C 34.96875 67.058594 35.0625 67.058594 35.140625 67.015625 C 35.664062 66.714844 35.570312 64.539062 35.390625 59.660156 C 35.390625 59.660156 35.253906 56.019531 35.140625 52.597656 C 35.082031 50.789062 35.039062 49.320312 35.015625 48.359375 C 34.992188 49.320312 34.949219 50.792969 34.890625 52.597656 C 34.847656 53.824219 34.785156 55.769531 34.640625 59.65625 C 34.460938 64.539062 34.367188 66.71875 34.890625 67.015625 Z M 41.042969 4.726562 C 41.117188 4.707031 41.191406 4.722656 41.246094 4.773438 C 41.609375 5.121094 41.089844 6.863281 39.9375 10.773438 C 39.9375 10.773438 39.082031 13.6875 38.285156 16.429688 C 37.863281 17.875 37.53125 19.058594 37.3125 19.832031 C 37.488281 19.046875 37.765625 17.847656 38.082031 16.378906 C 38.300781 15.378906 38.648438 13.792969 39.328125 10.621094 C 40.191406 6.640625 40.558594 4.859375 41.042969 4.726562 Z M 55.535156 11.0625 C 55.609375 11.082031 55.667969 11.136719 55.6875 11.210938 C 55.828125 11.691406 54.5 12.941406 51.542969 15.753906 C 51.542969 15.753906 49.339844 17.851562 47.273438 19.832031 C 46.183594 20.875 45.300781 21.730469 44.722656 22.292969 C 45.269531 21.703125 46.105469 20.800781 47.121094 19.6875 C 47.816406 18.933594 48.910156 17.730469 51.09375 15.324219 C 53.828125 12.292969 55.042969 10.9375 55.535156 11.0625 Z M 63.796875 25.277344 C 63.851562 25.328125 63.871094 25.40625 63.855469 25.476562 C 63.734375 25.964844 61.957031 26.378906 57.988281 27.347656 C 57.988281 27.347656 55.027344 28.066406 52.242188 28.75 C 50.777344 29.109375 49.582031 29.414062 48.800781 29.613281 C 49.570312 29.375 50.75 29.011719 52.1875 28.550781 C 53.164062 28.238281 54.71875 27.746094 57.816406 26.746094 C 61.703125 25.488281 63.4375 24.929688 63.796875 25.273438 Z M 5.8125 26.132812 C 5.792969 26.058594 5.8125 25.984375 5.863281 25.929688 C 6.214844 25.566406 7.972656 26.089844 11.882812 27.234375 C 11.882812 27.234375 14.808594 28.089844 17.5625 28.882812 C 19.015625 29.300781 20.203125 29.632812 20.976562 29.851562 C 20.191406 29.671875 18.988281 29.398438 17.515625 29.082031 C 16.511719 28.867188 14.917969 28.519531 11.734375 27.839844 C 7.734375 26.984375 5.949219 26.613281 5.8125 26.132812 Z M 13.675781 11.691406 C 13.695312 11.617188 13.75 11.558594 13.824219 11.539062 C 14.308594 11.402344 15.5625 12.722656 18.386719 15.667969 C 18.386719 15.667969 20.492188 17.867188 22.480469 19.925781 C 23.535156 21.011719 24.386719 21.894531 24.953125 22.464844 C 24.359375 21.921875 23.449219 21.089844 22.335938 20.078125 C 21.574219 19.386719 20.367188 18.296875 17.953125 16.121094 C 14.910156 13.386719 13.550781 12.171875 13.675781 11.691406 Z M 27.933594 4.953125 C 27.984375 4.902344 28.058594 4.878906 28.132812 4.898438 C 28.621094 5.019531 29.046875 6.789062 30.011719 10.746094 C 30.011719 10.746094 30.734375 13.695312 31.421875 16.46875 C 31.785156 17.929688 32.085938 19.121094 32.285156 19.898438 C 32.046875 19.132812 31.683594 17.960938 31.21875 16.527344 C 30.90625 15.550781 30.410156 14.003906 29.414062 10.917969 C 28.144531 7.039062 27.574219 5.3125 27.925781 4.953125 Z M 50.796875 4.441406 C 50.886719 4.441406 50.96875 4.492188 51.011719 4.566406 C 51.3125 5.085938 50.148438 6.925781 47.554688 11.0625 C 47.554688 11.0625 45.617188 14.148438 43.804688 17.054688 C 42.851562 18.585938 42.078125 19.84375 41.578125 20.664062 C 42.039062 19.820312 42.738281 18.523438 43.589844 16.933594 C 44.167969 15.847656 45.085938 14.132812 46.898438 10.691406 C 49.183594 6.371094 50.195312 4.4375 50.796875 4.441406 Z M 63.574219 16.988281 C 63.652344 17.035156 63.699219 17.117188 63.699219 17.203125 C 63.699219 17.804688 61.769531 18.816406 57.453125 21.097656 C 57.453125 21.097656 54.234375 22.800781 51.210938 24.40625 C 49.621094 25.257812 48.324219 25.960938 47.480469 26.417969 C 48.300781 25.917969 49.554688 25.144531 51.089844 24.191406 C 52.132812 23.542969 53.785156 22.515625 57.078125 20.445312 C 61.214844 17.859375 63.058594 16.683594 63.574219 16.988281 Z M 69.792969 33.617188 C 69.835938 33.691406 69.835938 33.789062 69.792969 33.867188 C 69.492188 34.386719 67.316406 34.296875 62.433594 34.113281 C 62.433594 34.113281 58.796875 33.980469 55.371094 33.867188 C 53.566406 33.804688 52.097656 33.765625 51.136719 33.742188 C 52.097656 33.714844 53.570312 33.675781 55.371094 33.617188 C 56.601562 33.574219 58.546875 33.511719 62.433594 33.367188 C 67.316406 33.183594 69.496094 33.09375 69.792969 33.617188 Z M 0.214844 33.839844 C 0.171875 33.765625 0.171875 33.667969 0.214844 33.589844 C 0.515625 33.070312 2.691406 33.160156 7.570312 33.34375 C 7.570312 33.34375 11.210938 33.476562 14.640625 33.589844 C 16.445312 33.652344 17.917969 33.691406 18.878906 33.714844 C 17.917969 33.742188 16.441406 33.78125 14.640625 33.839844 C 13.414062 33.882812 11.46875 33.945312 7.582031 34.089844 C 2.691406 34.273438 0.511719 34.363281 0.214844 33.839844 Z M 6.320312 17.191406 C 6.320312 17.101562 6.367188 17.019531 6.445312 16.972656 C 6.964844 16.671875 8.804688 17.839844 12.941406 20.433594 C 12.941406 20.433594 16.023438 22.371094 18.933594 24.183594 C 20.464844 25.136719 21.71875 25.90625 22.542969 26.410156 C 21.695312 25.957031 20.402344 25.246094 18.808594 24.398438 C 17.722656 23.820312 16.007812 22.902344 12.570312 21.089844 C 8.25 18.796875 6.316406 17.785156 6.320312 17.183594 Z M 19.015625 4.554688 C 19.0625 4.480469 19.140625 4.429688 19.230469 4.429688 C 19.832031 4.429688 20.84375 6.359375 23.125 10.675781 C 23.125 10.675781 24.828125 13.898438 26.4375 16.921875 C 27.285156 18.511719 27.984375 19.804688 28.445312 20.652344 C 27.945312 19.832031 27.171875 18.574219 26.21875 17.042969 C 25.570312 16 24.542969 14.347656 22.472656 11.050781 C 19.886719 6.917969 18.710938 5.074219 19.015625 4.554688 Z M 34.890625 0.441406 C 34.96875 0.398438 35.0625 0.398438 35.140625 0.441406 C 35.664062 0.742188 35.570312 2.921875 35.390625 7.800781 C 35.390625 7.800781 35.253906 11.441406 35.140625 14.871094 C 35.082031 16.675781 35.039062 18.148438 35.015625 19.109375 C 34.992188 18.148438 34.949219 16.671875 34.890625 14.871094 C 34.847656 13.644531 34.785156 11.695312 34.640625 7.808594 C 34.460938 2.921875 34.367188 0.742188 34.890625 0.441406 " fill-opacity="1" fill-rule="nonzero"/></g></g></g></g><g clip-path="url(#c119073ccd)"><path fill="#1e3f48" d="M 82.90625 59.769531 C 82.136719 59.960938 81.347656 59.976562 80.5625 60.019531 C 79.347656 60.089844 78.140625 60.179688 76.945312 60.402344 C 76.753906 60.4375 76.632812 60.515625 76.507812 60.667969 C 74.980469 62.515625 73.761719 64.582031 72.371094 66.527344 C 70.738281 68.804688 69.09375 71.074219 67.394531 73.304688 C 67.039062 73.769531 66.796875 74.328125 66.253906 74.636719 C 65.949219 74.8125 65.652344 74.890625 65.277344 74.828125 C 60.90625 74.117188 56.554688 73.277344 52.15625 72.722656 C 49.628906 72.40625 47.152344 71.816406 44.640625 71.414062 C 42.679688 71.101562 40.699219 70.910156 38.761719 70.460938 C 37.074219 70.066406 35.421875 69.511719 33.726562 69.148438 C 32.339844 68.851562 31.015625 68.390625 29.671875 67.976562 C 29.394531 67.890625 29.1875 67.714844 29.171875 67.429688 C 29.117188 66.460938 28.65625 65.609375 28.429688 64.6875 C 28.234375 63.878906 28.265625 63.121094 28.898438 62.503906 C 30.003906 61.429688 30.851562 60.164062 31.707031 58.898438 C 31.910156 58.601562 32.128906 58.308594 32.378906 58.050781 C 34.386719 55.988281 35.910156 53.527344 37.878906 51.429688 C 38.289062 50.992188 38.574219 50.441406 38.925781 49.945312 C 39.113281 49.683594 39.136719 49.4375 38.988281 49.128906 C 38.683594 48.496094 38.453125 47.832031 38.269531 47.148438 C 38.097656 46.503906 38.277344 46.210938 38.921875 46.085938 C 40.074219 45.863281 40.054688 45.859375 40.195312 44.582031 C 40.269531 43.941406 40.226562 43.269531 40.605469 42.683594 C 40.714844 42.511719 40.824219 42.378906 40.996094 42.273438 C 42.621094 41.273438 44.414062 40.800781 46.277344 40.511719 C 47.316406 40.351562 48.359375 40.253906 49.210938 40.304688 C 51.460938 40.285156 53.480469 40.441406 55.417969 41.152344 C 55.617188 41.222656 55.6875 41.167969 55.742188 41.007812 C 55.9375 40.460938 56.347656 40.082031 56.746094 39.691406 C 57.078125 39.371094 57.386719 39.03125 57.691406 38.6875 C 58.359375 37.9375 59.0625 37.25 59.949219 36.734375 C 61.035156 36.097656 62.027344 35.308594 63.164062 34.734375 C 64.554688 34.035156 66.050781 33.785156 67.550781 33.519531 C 68.648438 33.324219 69.757812 33.1875 70.871094 33.148438 C 72.105469 33.105469 72.398438 33.304688 72.859375 34.34375 C 73.238281 35.195312 73.539062 36.082031 73.914062 36.933594 C 75.226562 39.925781 76.773438 42.792969 78.445312 45.59375 C 79.140625 46.753906 79.589844 48.023438 80.21875 49.210938 C 80.695312 50.109375 81.167969 51.007812 81.671875 51.886719 C 82.230469 52.863281 82.21875 52.828125 81.195312 53.367188 C 80.863281 53.542969 80.78125 53.617188 81.050781 53.917969 C 81.453125 54.371094 81.808594 54.867188 82.203125 55.328125 C 82.574219 55.761719 82.648438 56.257812 82.5625 56.792969 C 82.488281 57.234375 82.535156 57.621094 82.839844 57.988281 C 83.078125 58.273438 83.25 58.621094 83.363281 58.984375 C 83.492188 59.402344 83.332031 59.664062 82.90625 59.769531 Z M 82.90625 59.769531 " fill-opacity="1" fill-rule="nonzero"/></g><path fill="#767fa7" d="M 82.449219 58.410156 C 82.855469 59.128906 83.066406 59.273438 82.105469 59.386719 C 81.570312 59.449219 81.027344 59.503906 80.488281 59.507812 C 77.703125 59.53125 75.046875 60.167969 72.417969 61.035156 C 70.316406 61.730469 68.25 62.492188 66.257812 63.457031 C 65.503906 63.824219 64.710938 63.601562 63.832031 63.691406 C 61.816406 63.496094 59.703125 63.644531 57.59375 63.785156 C 55.679688 63.914062 53.789062 64.230469 51.890625 64.484375 C 50.394531 64.6875 48.933594 65.027344 47.46875 65.371094 C 46.648438 65.566406 46.554688 65.480469 46.316406 64.703125 C 45.984375 63.605469 45.566406 62.535156 45.011719 61.53125 C 44.097656 59.878906 43.648438 58.027344 42.789062 56.355469 C 41.445312 53.730469 40.582031 50.898438 39.257812 48.269531 C 39.058594 47.875 38.953125 47.4375 38.777344 47.035156 C 38.671875 46.796875 38.746094 46.703125 38.972656 46.664062 C 39.214844 46.621094 39.457031 46.578125 39.695312 46.535156 C 39.863281 46.503906 39.945312 46.539062 40.007812 46.730469 C 40.246094 47.445312 40.53125 48.140625 40.777344 48.847656 C 41.363281 50.550781 42.203125 52.140625 42.984375 53.757812 C 43.328125 54.464844 43.433594 55.25 43.78125 55.960938 C 44.5625 57.539062 45.300781 59.140625 45.898438 60.804688 C 46.207031 61.664062 46.398438 62.5625 46.789062 63.398438 C 47.046875 63.949219 47.183594 64.054688 47.828125 63.941406 C 48.535156 63.816406 49.242188 63.667969 49.949219 63.527344 C 53.230469 62.863281 56.523438 62.296875 59.890625 62.3125 C 61.382812 62.316406 62.820312 62.65625 64.253906 62.996094 C 64.78125 63.121094 65.253906 63.089844 65.707031 62.78125 C 67.628906 61.472656 69.742188 60.550781 71.925781 59.792969 C 73.757812 59.160156 75.632812 58.691406 77.5625 58.488281 C 78.261719 58.417969 78.96875 58.410156 79.675781 58.371094 C 80.507812 58.328125 81.351562 58.472656 82.175781 58.273438 C 82.324219 58.238281 82.390625 58.304688 82.449219 58.410156 Z M 82.449219 58.410156 " fill-opacity="1" fill-rule="nonzero"/><path fill="#e48d7a" d="M 32.101562 63.695312 C 31.15625 63.453125 30.179688 63.34375 29.199219 63.171875 C 32.667969 58.816406 36.097656 54.503906 39.519531 50.203125 C 39.910156 50.949219 40.199219 51.820312 40.550781 52.660156 C 40.601562 52.789062 40.554688 52.871094 40.488281 52.976562 C 38.234375 56.445312 35.859375 59.835938 33.398438 63.167969 C 33.054688 63.636719 32.730469 63.855469 32.101562 63.695312 Z M 69.171875 62.765625 C 68.179688 63.148438 67.191406 63.535156 66.199219 63.90625 C 65.617188 64.125 65.011719 64.324219 64.386719 64.230469 C 64.011719 64.175781 63.859375 64.324219 63.699219 64.605469 C 62.839844 66.105469 61.539062 66.792969 59.808594 66.625 C 59.011719 66.550781 58.308594 66.171875 57.585938 65.871094 C 57.058594 65.65625 56.652344 65.285156 56.421875 64.789062 C 56.265625 64.457031 56.070312 64.425781 55.773438 64.457031 C 53.804688 64.667969 51.855469 65.027344 49.898438 65.320312 C 48.945312 65.464844 48.054688 65.898438 47.0625 65.863281 C 46.21875 65.835938 46.074219 65.746094 45.84375 64.960938 C 45.605469 64.160156 45.292969 63.390625 44.960938 62.625 C 44.304688 61.128906 43.519531 59.695312 42.992188 58.140625 C 42.664062 57.175781 42.246094 56.230469 41.738281 55.339844 C 39.539062 58.207031 38.21875 61.621094 35.765625 64.320312 C 36.871094 64.5625 37.910156 64.769531 38.941406 65.019531 C 40.78125 65.46875 42.582031 66.058594 44.441406 66.429688 C 46.46875 66.835938 48.523438 67.003906 50.570312 67.234375 C 52.796875 67.488281 55.035156 67.640625 57.25 68 C 58.71875 68.238281 60.21875 68.265625 61.675781 68.605469 C 62.539062 68.804688 63.40625 68.9375 64.292969 68.992188 C 64.535156 69.007812 64.636719 68.945312 64.753906 68.757812 C 65.015625 68.34375 65.273438 67.921875 65.578125 67.539062 C 66.808594 65.984375 68.054688 64.441406 69.296875 62.890625 C 69.410156 62.832031 69.496094 62.746094 69.554688 62.613281 C 69.398438 62.613281 69.273438 62.664062 69.171875 62.765625 Z M 69.171875 62.765625 " fill-opacity="1" fill-rule="nonzero"/><g clip-path="url(#57dab8fc30)"><path fill="#daa972" d="M 74.601562 61.21875 C 73.671875 62.605469 72.738281 63.992188 71.738281 65.328125 C 70.992188 66.324219 70.089844 67.203125 69.355469 68.207031 C 68.597656 69.238281 67.683594 70.144531 66.992188 71.226562 C 66.648438 71.761719 66.234375 72.257812 65.84375 72.765625 C 65.726562 72.921875 65.574219 73.074219 65.347656 73.015625 C 65.121094 72.960938 65.078125 72.761719 65.035156 72.5625 C 64.855469 71.683594 64.65625 70.804688 64.496094 69.921875 C 64.429688 69.535156 64.296875 69.339844 63.867188 69.394531 C 63.558594 69.429688 63.230469 69.425781 62.933594 69.355469 C 61.1875 68.964844 59.410156 68.8125 57.644531 68.554688 C 54.675781 68.117188 51.691406 67.839844 48.710938 67.535156 C 45.898438 67.246094 43.148438 66.703125 40.453125 65.878906 C 38.894531 65.40625 37.296875 65.105469 35.679688 64.78125 C 35.882812 66.160156 36.078125 67.496094 36.277344 68.828125 C 36.316406 69.082031 36.425781 69.246094 36.726562 69.308594 C 37.351562 69.429688 37.960938 69.640625 38.585938 69.773438 C 40.542969 70.191406 42.53125 70.414062 44.507812 70.71875 C 47.246094 71.140625 49.953125 71.777344 52.703125 72.109375 C 56.90625 72.617188 61.0625 73.414062 65.234375 74.128906 C 65.925781 74.25 66.273438 74.019531 66.601562 73.515625 C 67.179688 72.640625 67.769531 71.773438 68.460938 70.980469 C 69.402344 69.902344 70.117188 68.660156 70.9375 67.496094 C 72.476562 65.3125 74.042969 63.148438 75.601562 60.976562 C 75.648438 60.910156 75.707031 60.847656 75.664062 60.730469 C 75.226562 60.703125 74.882812 60.800781 74.601562 61.21875 Z M 62.808594 71.921875 C 62.660156 72.144531 62.710938 72.542969 62.320312 72.5 C 61.792969 72.429688 61.292969 72.40625 60.828125 72.304688 C 60.347656 72.199219 60.027344 71.722656 59.695312 71.347656 C 59.664062 71.308594 59.671875 71.21875 59.6875 71.164062 C 59.761719 70.925781 60.566406 70.433594 60.820312 70.449219 C 61.246094 70.472656 61.65625 70.597656 62.085938 70.570312 C 62.480469 70.542969 62.589844 70.945312 62.84375 71.128906 C 63.199219 71.386719 62.992188 71.65625 62.808594 71.921875 Z M 33.84375 67.738281 C 33.929688 67.992188 33.976562 68.265625 34.054688 68.566406 C 32.886719 68.359375 31.800781 68.050781 30.722656 67.652344 C 30.035156 67.398438 29.691406 67.109375 29.613281 66.371094 C 29.550781 65.8125 29.289062 65.277344 29.117188 64.730469 C 29.078125 64.605469 29.042969 64.476562 29.011719 64.351562 C 28.816406 63.503906 28.867188 63.460938 29.6875 63.632812 C 30.597656 63.824219 31.511719 63.992188 32.429688 64.15625 C 32.609375 64.191406 32.734375 64.238281 32.785156 64.429688 C 33.074219 65.550781 33.46875 66.640625 33.84375 67.738281 Z M 56.714844 64.363281 C 58.875 64.25 60.984375 64.117188 63.152344 64.191406 C 62.378906 65.734375 60.789062 66.359375 59.078125 65.792969 C 58.480469 65.589844 57.84375 65.457031 57.316406 65.066406 C 57.09375 64.902344 56.894531 64.707031 56.714844 64.363281 Z M 52.28125 51.199219 C 52.917969 52.871094 53.5625 54.542969 54.210938 56.226562 C 53.664062 56.449219 53.109375 56.3125 52.585938 56.40625 C 51.742188 56.554688 50.9375 56.8125 50.179688 57.210938 C 49.898438 57.359375 49.78125 57.316406 49.675781 57 C 49.195312 55.527344 48.675781 54.066406 48.082031 52.636719 C 47.910156 52.21875 47.679688 51.824219 47.484375 51.429688 C 48.867188 50.988281 50.246094 50.773438 51.664062 50.78125 C 52.003906 50.785156 52.167969 50.898438 52.28125 51.199219 Z M 52.28125 51.199219 " fill-opacity="1" fill-rule="nonzero"/></g><g clip-path="url(#7dcc37b5c0)"><path fill="#e5dad8" d="M 41.4375 44.730469 C 42.132812 46.683594 43.097656 48.527344 43.8125 50.476562 C 44.292969 51.785156 44.804688 53.074219 45.519531 54.277344 C 45.921875 54.957031 46.226562 55.671875 46.464844 56.421875 C 46.875 57.714844 47.441406 58.953125 47.753906 60.277344 C 47.820312 60.558594 47.980469 60.8125 48.074219 61.027344 C 53.398438 58.566406 58.789062 58.152344 64.375 60.078125 C 64.136719 59.292969 63.832031 58.542969 63.453125 57.816406 C 62.351562 55.714844 61.28125 53.597656 60.136719 51.519531 C 58.972656 49.402344 58.300781 47.078125 57.277344 44.902344 C 56.894531 44.089844 56.402344 43.324219 56.058594 42.5 C 55.835938 41.964844 55.503906 41.714844 54.976562 41.582031 C 51.945312 40.800781 48.890625 40.6875 45.8125 41.257812 C 44.191406 41.558594 42.628906 42.019531 41.199219 42.871094 C 40.910156 43.039062 40.851562 43.1875 40.988281 43.492188 C 41.167969 43.890625 41.289062 44.316406 41.4375 44.730469 Z M 54.398438 56.792969 C 52.980469 56.832031 51.617188 57.109375 50.296875 57.648438 C 49.617188 57.925781 49.542969 57.84375 49.246094 57.15625 C 48.480469 55.371094 47.960938 53.488281 47.105469 51.738281 C 46.851562 51.214844 46.960938 51.078125 47.542969 50.957031 C 48.242188 50.8125 48.898438 50.496094 49.625 50.433594 C 50.125 50.386719 50.628906 50.316406 51.128906 50.253906 C 51.132812 50.273438 51.132812 50.289062 51.132812 50.308594 C 51.445312 50.308594 51.753906 50.308594 52.066406 50.304688 C 52.453125 50.300781 52.601562 50.566406 52.710938 50.871094 C 53.207031 52.234375 53.703125 53.597656 54.199219 54.960938 C 54.367188 55.421875 54.53125 55.878906 54.71875 56.332031 C 54.863281 56.679688 54.710938 56.78125 54.398438 56.792969 Z M 61.488281 56.613281 C 61.433594 56.878906 61.191406 56.800781 61.042969 56.761719 C 60.40625 56.605469 59.765625 56.515625 59.113281 56.441406 C 58.449219 56.371094 57.808594 56.449219 57.160156 56.535156 C 56.898438 56.566406 56.640625 56.570312 56.378906 56.578125 C 56.242188 56.582031 56.097656 56.554688 56.097656 56.382812 C 56.09375 56.253906 56.21875 56.203125 56.335938 56.183594 C 57.046875 56.070312 57.753906 55.957031 58.363281 55.859375 C 59.378906 55.972656 60.292969 56.042969 61.167969 56.332031 C 61.3125 56.378906 61.539062 56.375 61.488281 56.613281 Z M 60.226562 54.699219 C 60.414062 54.761719 60.65625 54.808594 60.582031 55.066406 C 60.515625 55.296875 60.269531 55.21875 60.113281 55.179688 C 59.234375 54.964844 58.332031 54.9375 57.457031 54.789062 C 56.875 54.859375 56.304688 54.953125 55.730469 54.914062 C 55.601562 54.90625 55.398438 54.980469 55.390625 54.75 C 55.382812 54.542969 55.59375 54.539062 55.714844 54.527344 C 56.652344 54.460938 57.582031 54.195312 58.539062 54.417969 C 59.09375 54.546875 59.679688 54.511719 60.226562 54.699219 Z M 59.246094 52.46875 C 59.246094 52.621094 59.132812 52.644531 59.011719 52.648438 C 58.894531 52.652344 58.78125 52.648438 58.554688 52.648438 C 57.59375 52.386719 56.550781 52.613281 55.507812 52.820312 C 55.339844 52.851562 55.105469 52.890625 55.058594 52.644531 C 55.011719 52.371094 55.242188 52.351562 55.441406 52.324219 C 56.074219 52.238281 56.699219 52.125 57.332031 52.058594 C 57.90625 52 58.464844 52.207031 59.035156 52.242188 C 59.164062 52.25 59.25 52.332031 59.246094 52.46875 Z M 57.835938 50.28125 C 58.097656 50.292969 58.359375 50.363281 58.566406 50.535156 C 58.65625 50.609375 58.734375 50.703125 58.660156 50.832031 C 58.605469 50.933594 58.511719 50.976562 58.410156 50.941406 C 57.113281 50.515625 55.777344 50.71875 54.457031 50.664062 C 54.40625 50.664062 54.355469 50.664062 54.308594 50.660156 C 54.167969 50.652344 54.03125 50.613281 54.015625 50.457031 C 53.992188 50.265625 54.15625 50.191406 54.296875 50.1875 C 54.738281 50.167969 55.183594 50.179688 55.484375 50.179688 C 56.371094 50.097656 57.097656 50.25 57.835938 50.28125 Z M 56.652344 47.972656 C 56.835938 48.023438 57.019531 48.097656 56.953125 48.335938 C 56.894531 48.546875 56.691406 48.519531 56.539062 48.480469 C 55.066406 48.117188 53.566406 48.140625 52.082031 48.238281 C 50.144531 48.367188 48.1875 48.367188 46.292969 48.894531 C 45.914062 49 45.554688 49.164062 45.179688 49.273438 C 45.050781 49.308594 44.847656 49.347656 44.785156 49.179688 C 44.710938 48.984375 44.933594 48.964844 45.046875 48.90625 C 46.042969 48.378906 47.121094 48.113281 48.234375 48.019531 C 49.945312 47.871094 51.65625 47.644531 53.558594 47.703125 C 54.378906 47.6875 55.378906 47.691406 56.367188 47.902344 C 56.460938 47.921875 56.558594 47.945312 56.652344 47.972656 Z M 56.148438 45.617188 C 56.085938 45.929688 55.800781 45.816406 55.574219 45.773438 C 53.398438 45.386719 51.234375 45.601562 49.066406 45.878906 C 47.589844 46.070312 46.125 46.316406 44.699219 46.742188 C 44.621094 46.765625 44.53125 46.808594 44.460938 46.789062 C 44.347656 46.757812 44.164062 46.78125 44.160156 46.609375 C 44.15625 46.480469 44.300781 46.464844 44.410156 46.425781 C 45.941406 45.824219 47.554688 45.574219 49.171875 45.335938 C 50.40625 45.152344 51.640625 45.019531 52.933594 45.039062 C 53.828125 44.980469 54.757812 45.085938 55.679688 45.246094 C 55.898438 45.285156 56.207031 45.308594 56.148438 45.617188 Z M 43.726562 43.855469 C 44.761719 43.195312 45.945312 42.996094 47.121094 42.792969 C 47.988281 42.644531 48.871094 42.546875 49.757812 42.570312 C 51.535156 42.582031 53.273438 42.878906 55 43.261719 C 55.21875 43.308594 55.488281 43.363281 55.441406 43.617188 C 55.378906 43.925781 55.105469 43.828125 54.875 43.777344 C 53.050781 43.363281 51.210938 43.011719 49.332031 43.113281 C 47.484375 43.210938 45.652344 43.460938 43.945312 44.257812 C 43.792969 44.332031 43.59375 44.476562 43.472656 44.253906 C 43.347656 44.023438 43.585938 43.945312 43.726562 43.855469 Z M 81.640625 56.167969 C 81.8125 56.199219 82.023438 56.171875 82.003906 56.457031 C 81.984375 56.753906 81.765625 56.671875 81.601562 56.671875 C 80.914062 56.664062 80.226562 56.664062 79.539062 56.761719 C 76.273438 57.226562 72.996094 57.65625 69.957031 59.046875 C 68.734375 59.605469 67.402344 59.984375 66.386719 60.945312 C 66.226562 61.097656 66.023438 61.199219 65.898438 61.527344 C 70.878906 58.5 76.246094 57.253906 81.957031 57.097656 C 81.824219 57.855469 81.824219 57.863281 81.046875 57.832031 C 76.988281 57.648438 73.15625 58.539062 69.449219 60.164062 C 68.152344 60.734375 66.886719 61.347656 65.753906 62.183594 C 65.042969 62.703125 64.34375 62.554688 63.667969 62.328125 C 61.066406 61.441406 58.429688 61.660156 55.777344 61.941406 C 53.082031 62.226562 50.457031 62.855469 47.820312 63.445312 C 47.761719 63.457031 47.695312 63.445312 47.621094 63.445312 C 47.636719 63.050781 47.816406 62.863281 48.1875 62.710938 C 50.113281 61.910156 52.09375 61.308594 54.164062 61.046875 C 55.90625 60.824219 57.65625 60.558594 59.410156 60.738281 C 60.710938 60.867188 61.976562 61.214844 63.242188 61.542969 C 63.722656 61.664062 64.203125 61.878906 64.738281 61.703125 C 62.972656 60.988281 61.152344 60.5 59.25 60.304688 C 57.320312 60.109375 55.417969 60.394531 53.523438 60.640625 C 51.601562 60.890625 49.78125 61.53125 48.007812 62.398438 C 47.96875 62.019531 48.167969 61.808594 48.425781 61.621094 C 49.378906 60.9375 50.492188 60.671875 51.589844 60.328125 C 54.023438 59.5625 56.511719 59.355469 59.03125 59.566406 C 60.894531 59.722656 62.761719 59.929688 64.4375 60.878906 C 64.707031 61.03125 64.984375 61.035156 65.292969 60.9375 C 66.082031 60.695312 66.769531 60.25 67.492188 59.871094 C 70.503906 58.289062 73.609375 56.960938 76.992188 56.417969 C 78.386719 56.195312 79.792969 56.054688 81.207031 56.105469 C 81.351562 56.109375 81.5 56.140625 81.640625 56.167969 Z M 65.671875 69.125 C 65.613281 69.214844 65.453125 69.339844 65.632812 69.453125 C 65.78125 69.542969 65.890625 69.410156 65.957031 69.304688 C 66.484375 68.527344 67.160156 67.875 67.761719 67.164062 C 68.921875 65.785156 70.109375 64.425781 71.101562 62.914062 C 71.371094 62.503906 71.804688 62.226562 72.074219 61.804688 C 72.179688 61.640625 72.394531 61.609375 72.691406 61.601562 C 72.15625 62.339844 71.742188 63.042969 71.214844 63.675781 C 69.597656 65.632812 67.886719 67.515625 66.347656 69.535156 C 66.179688 69.757812 66.03125 69.996094 65.882812 70.230469 C 65.816406 70.332031 65.78125 70.46875 65.890625 70.539062 C 66 70.613281 66.109375 70.515625 66.183594 70.425781 C 66.449219 70.113281 66.734375 69.8125 66.964844 69.476562 C 67.609375 68.523438 68.398438 67.683594 69.105469 66.78125 C 69.992188 65.648438 70.976562 64.589844 71.894531 63.480469 C 72.40625 62.859375 72.875 62.207031 73.339844 61.550781 C 73.550781 61.253906 73.820312 61.140625 74.132812 61.117188 C 71.53125 65.023438 68.265625 68.417969 65.523438 72.335938 C 65.324219 71.402344 65.152344 70.578125 64.972656 69.75 C 64.917969 69.503906 65.027344 69.316406 65.15625 69.121094 C 66.027344 67.804688 67.046875 66.601562 68.039062 65.382812 C 68.808594 64.441406 69.4375 63.402344 70.285156 62.519531 C 70.589844 62.203125 70.925781 62.113281 71.324219 61.984375 C 69.863281 63.945312 68.375 65.828125 66.773438 67.617188 C 66.355469 68.082031 66.015625 68.605469 65.671875 69.125 Z M 40.691406 44.898438 C 40.605469 44.617188 40.699219 44.328125 40.78125 44.046875 C 41.351562 46.113281 42.371094 47.988281 43.085938 49.984375 C 43.722656 51.769531 44.5 53.488281 45.375 55.175781 C 46.132812 56.632812 46.632812 58.222656 47.078125 59.8125 C 47.222656 60.335938 47.402344 60.835938 47.652344 61.316406 C 47.734375 61.472656 47.890625 61.644531 47.664062 61.90625 C 47.242188 60.789062 46.597656 59.828125 46.222656 58.734375 C 45.945312 57.933594 45.636719 57.144531 45.230469 56.402344 C 44.433594 54.957031 43.851562 53.421875 43.292969 51.878906 C 42.894531 50.773438 42.390625 49.71875 41.933594 48.640625 C 41.421875 47.425781 41.0625 46.160156 40.691406 44.898438 Z M 40.640625 47.070312 C 40.5 46.597656 40.453125 46.148438 40.570312 45.644531 C 40.664062 45.953125 40.769531 46.253906 40.847656 46.5625 C 41.125 47.640625 41.527344 48.675781 42.027344 49.664062 C 42.808594 51.207031 43.3125 52.859375 43.925781 54.46875 C 44.335938 55.542969 44.960938 56.503906 45.398438 57.558594 C 45.5 57.796875 45.597656 58.039062 45.671875 58.277344 C 46.058594 59.589844 46.796875 60.738281 47.3125 61.988281 C 47.480469 62.390625 47.507812 62.730469 47.234375 63.113281 C 46.816406 62.195312 46.582031 61.234375 46.234375 60.3125 C 45.625 58.703125 44.804688 57.195312 44.132812 55.621094 C 43.664062 54.53125 43.265625 53.410156 42.746094 52.335938 C 41.921875 50.632812 41.1875 48.890625 40.640625 47.070312 Z M 81.847656 55.675781 C 80.972656 55.605469 80.1875 55.613281 79.394531 55.660156 C 76.640625 55.824219 74 56.429688 71.449219 57.496094 C 69.910156 58.140625 68.363281 58.769531 66.929688 59.636719 C 66.84375 59.738281 66.734375 59.800781 66.605469 59.828125 C 66.566406 59.671875 66.679688 59.652344 66.777344 59.621094 C 67.253906 59.160156 67.78125 58.769531 68.371094 58.472656 C 70.039062 57.632812 71.691406 56.761719 73.390625 55.984375 C 74.910156 55.292969 76.550781 54.925781 78.136719 54.414062 C 78.761719 54.214844 79.386719 54.027344 80.003906 53.808594 C 80.226562 53.730469 80.316406 53.769531 80.464844 53.96875 C 80.878906 54.535156 81.34375 55.066406 81.847656 55.675781 Z M 81.121094 52.148438 C 80.585938 51.324219 80.15625 50.4375 79.679688 49.578125 C 78.988281 48.332031 78.46875 47.003906 77.75 45.765625 C 75.871094 42.539062 74 39.304688 72.710938 35.777344 C 72.484375 35.164062 72.296875 34.53125 71.949219 33.96875 C 71.832031 33.777344 71.730469 33.675781 71.449219 33.714844 C 70.511719 33.851562 69.554688 33.882812 68.617188 34.035156 C 67.050781 34.292969 65.464844 34.460938 63.984375 35.105469 C 62.738281 35.648438 61.636719 36.40625 60.523438 37.167969 C 60.011719 37.519531 59.445312 37.785156 59 38.238281 C 58.226562 39.019531 57.515625 39.855469 56.6875 40.585938 C 56.027344 41.167969 56.019531 41.480469 56.398438 42.25 C 56.476562 42.410156 56.566406 42.566406 56.660156 42.71875 C 57.492188 44.023438 58.199219 45.398438 58.699219 46.847656 C 59.628906 49.546875 61.082031 51.984375 62.359375 54.503906 C 63.328125 56.414062 64.449219 58.242188 65.105469 60.320312 C 65.183594 60.28125 65.242188 60.257812 65.289062 60.21875 C 65.921875 59.695312 66.542969 59.160156 67.191406 58.65625 C 68.191406 57.871094 69.390625 57.433594 70.507812 56.859375 C 71.746094 56.226562 72.917969 55.441406 74.253906 55.023438 C 75.597656 54.605469 76.917969 54.117188 78.285156 53.765625 C 79.152344 53.539062 80 53.222656 80.847656 52.925781 C 81.445312 52.71875 81.457031 52.667969 81.121094 52.148438 Z M 58.5625 41.917969 C 58.472656 41.785156 58.601562 41.671875 58.699219 41.585938 C 60.203125 40.273438 61.585938 38.773438 63.449219 37.960938 C 65.167969 37.210938 66.957031 36.628906 68.792969 36.199219 C 69.054688 36.136719 69.347656 36.191406 69.625 36.191406 C 69.625 36.179688 69.625 36.164062 69.625 36.152344 C 69.839844 36.152344 70.054688 36.140625 70.265625 36.15625 C 70.429688 36.171875 70.671875 36.113281 70.671875 36.386719 C 70.675781 36.652344 70.425781 36.613281 70.269531 36.640625 C 70.074219 36.671875 69.875 36.667969 69.679688 36.660156 C 68.878906 36.628906 68.121094 36.824219 67.375 37.082031 C 66.414062 37.410156 65.453125 37.730469 64.492188 38.054688 C 63.148438 38.503906 62 39.273438 60.960938 40.21875 C 60.320312 40.808594 59.628906 41.332031 58.9375 41.863281 C 58.828125 41.949219 58.691406 42.09375 58.5625 41.917969 Z M 59.894531 44.632812 C 59.789062 44.675781 59.621094 44.71875 59.550781 44.566406 C 59.484375 44.421875 59.636719 44.382812 59.726562 44.320312 C 60.128906 44.03125 60.46875 43.679688 60.824219 43.339844 C 62.421875 41.792969 64.261719 40.625 66.386719 39.929688 C 66.933594 39.753906 67.476562 39.578125 67.996094 39.332031 C 69.078125 38.808594 70.390625 38.519531 71.796875 38.476562 C 71.910156 38.480469 72.097656 38.480469 72.136719 38.683594 C 72.1875 38.933594 71.976562 38.996094 71.804688 39.019531 C 71.320312 39.09375 70.832031 39.152344 70.34375 39.191406 C 69.117188 39.289062 68.117188 40.027344 66.972656 40.359375 C 64.613281 41.046875 62.566406 42.265625 60.824219 44 C 60.558594 44.265625 60.25 44.492188 59.894531 44.632812 Z M 61.703125 47.203125 C 61.589844 47.375 61.429688 47.621094 61.199219 47.457031 C 60.933594 47.265625 61.167969 47.070312 61.289062 46.878906 C 62.632812 44.789062 64.734375 43.652344 66.824219 42.519531 C 68.433594 41.644531 70.152344 41.015625 71.929688 40.566406 C 72.351562 40.460938 72.796875 40.429688 73.175781 40.308594 C 73.351562 40.320312 73.496094 40.296875 73.53125 40.480469 C 73.554688 40.628906 73.488281 40.738281 73.359375 40.800781 C 73.253906 40.847656 73.144531 40.90625 73.035156 40.914062 C 72.074219 40.96875 71.210938 41.394531 70.292969 41.625 C 69.113281 41.917969 68.058594 42.546875 66.96875 43.066406 C 64.910156 44.046875 63.007812 45.25 61.703125 47.203125 Z M 62.433594 49.800781 C 62.25 49.648438 62.554688 49.414062 62.667969 49.230469 C 63.492188 47.914062 64.742188 47.042969 65.972656 46.179688 C 67.003906 45.457031 68.125 44.859375 69.242188 44.273438 C 70.65625 43.53125 72.246094 43.410156 73.789062 43.152344 C 73.992188 43.113281 74.234375 43.058594 74.273438 43.328125 C 74.3125 43.601562 74.066406 43.644531 73.84375 43.683594 C 72.394531 43.929688 70.878906 44.027344 69.585938 44.769531 C 67.941406 45.710938 66.210938 46.527344 64.789062 47.832031 C 64.21875 48.355469 63.597656 48.8125 63.136719 49.445312 C 63.121094 49.472656 63.097656 49.496094 63.074219 49.519531 C 62.886719 49.695312 62.625 49.960938 62.433594 49.800781 Z M 63.195312 52.433594 C 63.089844 52.417969 63.007812 52.367188 62.980469 52.261719 C 62.953125 52.164062 62.976562 52.085938 63.085938 52.023438 C 65.230469 50.726562 67.171875 49.121094 69.359375 47.886719 C 70.40625 47.296875 71.527344 46.875 72.636719 46.441406 C 73.339844 46.164062 74.125 46.265625 74.863281 46.132812 C 75.121094 46.085938 75.382812 46.054688 75.625 46.019531 C 75.8125 46.035156 76.046875 45.976562 76.070312 46.226562 C 76.089844 46.449219 75.894531 46.515625 75.707031 46.542969 C 75.15625 46.628906 74.609375 46.761719 74.058594 46.792969 C 72.496094 46.878906 71.160156 47.609375 69.851562 48.320312 C 68.296875 49.160156 66.789062 50.09375 65.394531 51.203125 C 64.875 51.617188 64.273438 51.9375 63.707031 52.296875 C 63.550781 52.394531 63.386719 52.464844 63.195312 52.433594 Z M 64.703125 54.59375 C 64.59375 54.667969 64.488281 54.746094 64.382812 54.824219 C 64.300781 54.886719 64.210938 54.929688 64.125 54.835938 C 64.039062 54.75 64.058594 54.660156 64.132812 54.578125 C 64.246094 54.457031 64.351562 54.332031 64.46875 54.214844 C 66.226562 52.492188 68.269531 51.238281 70.605469 50.433594 C 72.007812 49.949219 73.332031 49.246094 74.765625 48.828125 C 75.332031 48.660156 75.886719 48.46875 76.488281 48.476562 C 76.667969 48.484375 76.847656 48.492188 77.027344 48.503906 C 77.179688 48.511719 77.277344 48.59375 77.285156 48.746094 C 77.292969 48.902344 77.195312 48.976562 77.042969 48.992188 C 73.570312 49.382812 70.574219 51.074219 67.488281 52.503906 C 66.425781 52.996094 65.664062 53.9375 64.703125 54.59375 Z M 78.75 50.46875 C 78.703125 50.710938 78.476562 50.714844 78.320312 50.71875 C 77.207031 50.761719 76.1875 51.191406 75.128906 51.460938 C 74.761719 51.550781 74.390625 51.640625 74.070312 51.847656 C 72.183594 53.050781 70.054688 53.761719 68.066406 54.757812 C 67.210938 55.1875 66.371094 55.617188 65.722656 56.34375 C 65.671875 56.402344 65.605469 56.457031 65.539062 56.503906 C 65.421875 56.582031 65.285156 56.632812 65.183594 56.507812 C 65.097656 56.398438 65.128906 56.28125 65.238281 56.164062 C 65.804688 55.546875 66.394531 54.96875 67.164062 54.585938 C 68.699219 53.8125 70.285156 53.152344 71.855469 52.453125 C 72.09375 52.347656 72.351562 52.261719 72.5625 52.117188 C 74.230469 50.96875 76.15625 50.613281 78.09375 50.285156 C 78.253906 50.257812 78.421875 50.265625 78.585938 50.273438 C 78.703125 50.277344 78.761719 50.347656 78.75 50.46875 Z M 78.75 50.46875 " fill-opacity="1" fill-rule="nonzero"/></g></svg>