<?xml version="1.0" standalone="no"?>
<!DOCTYPE svg PUBLIC "-//W3C//DTD SVG 20010904//EN"
 "http://www.w3.org/TR/2001/REC-SVG-20010904/DTD/svg10.dtd">
<svg version="1.0" xmlns="http://www.w3.org/2000/svg"
 width="501.000000pt" height="626.000000pt" viewBox="0 0 501.000000 626.000000"
 preserveAspectRatio="xMidYMid meet">

<g transform="translate(0.000000,626.000000) scale(0.100000,-0.100000)"
fill="#000000" stroke="none">
<path d="M3633 5945 c-181 -56 -462 -314 -718 -659 -351 -474 -591 -920 -835
-1555 -208 -539 -466 -1401 -594 -1978 l-23 -103 32 0 c31 0 32 2 55 83 105
367 344 1028 534 1480 375 889 741 1566 1121 2072 106 141 300 375 311 375 3
0 -3 -11 -13 -24 -309 -400 -554 -796 -850 -1376 -259 -506 -581 -1251 -860
-1990 -96 -253 -223 -608 -223 -621 0 -5 12 -15 27 -23 l28 -14 37 80 c78 165
191 304 344 424 81 64 206 142 279 175 26 12 33 19 20 19 -36 0 -167 -40 -242
-75 -40 -19 -71 -30 -68 -25 3 5 72 57 153 116 398 290 503 375 627 506 144
153 260 321 382 554 55 105 143 298 143 312 0 2 -20 -12 -43 -31 -24 -20 -85
-61 -135 -91 -95 -58 -451 -240 -458 -234 -2 2 46 38 105 80 397 280 633 555
737 860 44 130 133 548 189 888 8 52 18 105 20 117 5 22 3 21 -57 -11 -35 -19
-108 -48 -163 -65 -55 -17 -135 -48 -178 -70 -59 -30 -74 -34 -60 -19 28 32
136 99 269 167 150 76 206 123 233 195 30 80 51 207 51 306 0 96 -12 145 -40
160 -25 14 -86 11 -137 -5z"/>
<path d="M1416 1504 c-21 -45 -75 -152 -121 -236 l-83 -153 -5 -365 c-2 -201
-1 -351 3 -335 122 497 130 533 114 565 -28 55 11 130 67 130 39 0 59 -24 59
-72 0 -34 -6 -46 -39 -77 -43 -40 -40 -29 -132 -385 -27 -105 -49 -195 -49
-200 0 -6 17 21 37 59 47 92 176 316 280 487 l83 137 -10 48 c-6 28 -10 134
-8 246 l3 197 -40 0 c-22 0 -58 9 -80 19 l-41 18 -38 -83z"/>
<path d="M3190 1549 c-768 -36 -1215 -120 -1296 -244 -25 -38 -13 -99 26 -140
69 -71 189 -114 604 -219 309 -79 405 -109 499 -159 141 -74 142 -166 1 -239
-208 -109 -554 -161 -1421 -214 -162 -10 -283 -22 -283 -27 0 -15 636 -1 840
17 634 59 979 164 1009 308 31 145 -127 234 -609 347 -325 76 -422 104 -527
153 -64 30 -123 86 -123 117 0 70 156 143 406 190 286 54 613 84 1259 114 33
2 -1 3 -75 4 -74 0 -214 -4 -310 -8z"/>
</g>
</svg>
