<svg width="175" height="48" viewBox="0 0 175 48" fill="none" xmlns="http://www.w3.org/2000/svg">
<g clip-path="url(#clip0_49_6)">
<rect width="175" height="48" fill="white"/>
<path d="M10.112 20.096C9.87733 20.288 9.632 20.4693 9.376 20.64C9.12 20.8107 8.82133 20.896 8.48 20.896C8.16 20.896 8 20.608 8 20.032C8 18.8587 8.544 17.8987 9.632 17.152C10.6773 16.384 11.936 16 13.408 16C14.88 16 15.9573 16.5227 16.64 17.568C17.1947 18.4 17.472 19.5307 17.472 20.96C17.472 21.5787 17.3547 22.3787 17.12 23.36C15.904 28.4373 15.2853 31.9573 15.264 33.92C15.2853 34.8587 15.68 35.4987 16.448 35.84C16.7467 35.968 17.0987 36.032 17.504 36.032C19.4027 36.032 21.1947 34.912 22.88 32.672C22.0267 29.6853 21.6 26.2933 21.6 22.496C21.6 21.088 21.9307 19.9467 22.592 19.072C23.2747 18.176 24.3733 17.728 25.888 17.728C27.0187 17.728 27.872 18.048 28.448 18.688C29.0453 19.328 29.344 20.1707 29.344 21.216C29.344 23.3707 28.7787 26.0267 27.648 29.184C27.264 30.2507 26.816 31.3067 26.304 32.352C27.2213 34.8267 28.4373 36.064 29.952 36.064C31.6587 36.064 33.152 34.912 34.432 32.608C35.3707 30.9227 36.1387 28.6293 36.736 25.728C35.1787 25.5147 33.9413 24.8533 33.024 23.744C32.128 22.6347 31.68 21.4507 31.68 20.192C31.68 18.9333 32.0747 17.888 32.864 17.056C33.6533 16.224 34.7307 15.808 36.096 15.808C37.4613 15.7867 38.4853 16.2667 39.168 17.248C39.8507 18.208 40.192 19.52 40.192 21.184V21.824C40.192 22.0587 40.1813 22.3147 40.16 22.592C40.5227 22.4213 40.832 22.2507 41.088 22.08C41.344 21.888 41.6 21.792 41.856 21.792C42.2827 21.792 42.496 21.9733 42.496 22.336C42.496 23.04 42.2613 23.6587 41.792 24.192C41.344 24.7253 40.736 25.1307 39.968 25.408C39.6907 27.904 39.3173 29.8667 38.848 31.296C37.9733 34.048 36.8213 36.1387 35.392 37.568C33.6853 39.232 31.584 40.0747 29.088 40.096C27.0187 40.096 25.3333 38.72 24.032 35.968C21.856 38.72 19.3813 40.096 16.608 40.096C14.7093 40.096 13.1947 39.6267 12.064 38.688C10.9547 37.728 10.4 36.224 10.4 34.176C10.4 33.6853 10.6667 32.3947 11.2 30.304C11.7547 28.192 12.192 26.464 12.512 25.12C12.832 23.7547 12.992 22.6773 12.992 21.888C12.992 20.16 12.5547 19.296 11.68 19.296C11.3813 19.296 11.104 19.3813 10.848 19.552C10.6133 19.7227 10.368 19.904 10.112 20.096ZM25.632 20.416C25.0773 20.416 24.8 21.28 24.8 23.008C24.8 24.736 24.9493 26.4747 25.248 28.224C26.0587 26.112 26.464 24.064 26.464 22.08C26.464 21.6533 26.3893 21.2693 26.24 20.928C26.112 20.5867 25.9093 20.416 25.632 20.416ZM36.448 18.592C36 18.592 35.776 18.944 35.776 19.648C35.776 20.928 36.2773 21.856 37.28 22.432C37.3653 21.6213 37.408 21.0773 37.408 20.8C37.408 20.2027 37.3333 19.7227 37.184 19.36C37.0133 18.848 36.768 18.592 36.448 18.592ZM46.5383 34.624L46.7303 38.528C46.7303 39.04 46.4636 39.4987 45.9303 39.904C45.3969 40.3093 44.6716 40.512 43.7543 40.512C43.2209 40.512 42.8476 40.2347 42.6343 39.68C42.4423 39.1253 42.3463 38.3147 42.3463 37.248C42.3463 35.008 42.4529 33.2587 42.6663 32C42.9009 30.72 43.3489 29.4293 44.0103 28.128C43.0289 27.1893 42.5383 26.3787 42.5383 25.696C42.5383 24.2667 43.3063 23.552 44.8423 23.552C45.6316 23.552 46.3249 23.968 46.9223 24.8C47.3489 25.376 47.6583 26.048 47.8503 26.816C48.1489 26.9227 48.5223 26.976 48.9703 26.976C49.5889 26.976 50.3036 26.7733 51.1143 26.368L51.9463 25.952C52.2023 25.824 52.4263 25.76 52.6183 25.76C53.2369 25.76 53.8556 26.6667 54.4743 28.48C54.2823 29.312 54.0689 30.112 53.8343 30.88C53.6209 31.648 53.3649 32.576 53.0663 33.664C52.7676 34.752 52.6076 35.488 52.5863 35.872C52.5863 36.2347 52.7036 36.416 52.9383 36.416C53.2583 36.416 53.6529 36.2133 54.1223 35.808C54.5916 35.4027 55.0609 34.9653 55.5303 34.496C55.9996 34.0053 56.4263 33.5573 56.8103 33.152C57.2156 32.7467 57.4929 32.544 57.6423 32.544C57.9409 32.544 58.0903 32.9067 58.0903 33.632C58.0903 35.104 57.4396 36.5547 56.1383 37.984C54.8583 39.4133 53.3863 40.1173 51.7223 40.096C50.7409 40.096 50.0049 39.7013 49.5143 38.912C49.0236 38.1227 48.7676 37.1627 48.7463 36.032C48.7463 33.792 49.2476 31.6693 50.2503 29.664C49.7809 29.856 49.2476 29.952 48.6503 29.952C48.0743 29.952 47.6583 29.9307 47.4023 29.888C47.2103 30.6987 47.0183 31.52 46.8263 32.352C46.6343 33.1627 46.5383 33.92 46.5383 34.624ZM60.3313 40.096C58.1979 40.096 57.1313 38.1013 57.1313 34.112C57.1313 31.936 57.3979 29.9627 57.9313 28.192C58.7633 25.4613 59.7019 24.096 60.7473 24.096C61.3659 24.096 61.8566 24.512 62.2193 25.344C62.5179 25.984 62.6566 26.6133 62.6353 27.232C62.6353 28.0853 62.3793 29.5893 61.8673 31.744C61.3766 33.6213 61.1313 34.784 61.1313 35.232C61.1313 35.68 61.2379 35.9893 61.4513 36.16C61.6859 36.3307 61.9526 36.416 62.2513 36.416C62.5713 36.416 62.9659 36.2133 63.4353 35.808C63.9046 35.4027 64.3739 34.9653 64.8433 34.496C65.3126 34.0053 65.7393 33.5573 66.1233 33.152C66.5286 32.7467 66.8059 32.544 66.9553 32.544C67.2539 32.544 67.4033 32.9067 67.4033 33.632C67.4033 35.1253 66.6459 36.5867 65.1313 38.016C63.6379 39.424 62.0379 40.1173 60.3313 40.096ZM61.6433 21.504C61.0673 20.6507 60.7793 19.7333 60.7793 18.752C60.7793 17.7707 60.9286 16.96 61.2273 16.32C61.5473 15.6587 61.8459 15.1787 62.1233 14.88C62.4006 14.56 62.7206 14.4 63.0833 14.4C63.6806 14.4 64.2246 14.848 64.7153 15.744C65.2059 16.6187 65.4513 17.3547 65.4513 17.952C65.4513 19.0613 65.0566 19.936 64.2673 20.576C63.4993 21.1947 62.6246 21.504 61.6433 21.504ZM67.2118 38.272C66.9771 37.696 66.8064 37.0347 66.6998 36.288C66.5931 35.52 66.5398 34.4533 66.5398 33.088C66.5398 31.7227 66.7958 29.8773 67.3078 27.552H65.8678C65.6118 27.552 65.4838 27.4453 65.4838 27.232C65.4838 26.72 65.5264 26.304 65.6118 25.984C65.7184 25.6427 65.9531 25.2587 66.3158 24.832H67.0838C67.3824 24.832 67.7024 24.8213 68.0438 24.8C69.0678 21.5147 70.1131 19.872 71.1798 19.872C72.0331 19.8933 72.6304 20.4373 72.9718 21.504C73.0571 21.8027 73.1531 22.1227 73.2598 22.464L71.9478 24.768C73.4411 24.8107 74.3798 24.832 74.7638 24.832C75.1691 24.832 75.3824 24.8747 75.4038 24.96C75.4464 25.024 75.4678 25.1307 75.4678 25.28C75.4678 25.664 75.3718 26.144 75.1798 26.72C75.0091 27.296 74.8064 27.5733 74.5718 27.552L71.3718 27.392C70.9238 29.9947 70.6998 32.1493 70.6998 33.856C70.6998 35.5627 70.9451 36.416 71.4358 36.416C71.8411 36.416 72.5771 36.0853 73.6438 35.424C74.7104 34.7413 75.4784 34.0907 75.9478 33.472C76.4171 32.8533 76.8011 32.544 77.0998 32.544C77.3984 32.544 77.5478 32.9067 77.5478 33.632C77.5478 34.3573 77.2918 35.104 76.7798 35.872C76.2678 36.6187 75.6171 37.312 74.8278 37.952C74.0598 38.5707 73.1958 39.0827 72.2358 39.488C71.2971 39.8933 70.4758 40.096 69.7718 40.096C69.0678 40.096 68.5238 39.936 68.1398 39.616C67.7771 39.2747 67.4678 38.8267 67.2118 38.272ZM83.416 36.512C85.08 36.512 86.6907 35.8507 88.248 34.528C88.824 34.0373 89.2933 33.5893 89.656 33.184C90.0187 32.7573 90.296 32.544 90.488 32.544C90.7867 32.544 90.936 32.8427 90.936 33.44C90.936 34.0373 90.776 34.7093 90.456 35.456C90.136 36.1813 89.6027 36.896 88.856 37.6C87.0213 39.328 84.504 40.192 81.304 40.192C78.7653 40.192 77.0373 39.2747 76.12 37.44C75.8 36.8 75.64 35.8827 75.64 34.688C75.64 33.4933 75.8747 32.256 76.344 30.976C76.8133 29.6747 77.432 28.5547 78.2 27.616C78.9893 26.6773 79.896 25.952 80.92 25.44C81.944 24.9067 83.032 24.64 84.184 24.64C85.3573 24.64 86.2533 24.928 86.872 25.504C87.512 26.08 87.832 26.8267 87.832 27.744C87.832 28.6613 87.5973 29.4187 87.128 30.016C86.68 30.592 86.0933 31.0827 85.368 31.488C84.6427 31.872 83.832 32.224 82.936 32.544C82.0613 32.8427 81.1973 33.184 80.344 33.568V34.368C80.3653 35.136 80.6853 35.68 81.304 36C81.9227 36.32 82.6267 36.4907 83.416 36.512ZM82.872 27.488C81.7627 27.488 80.9947 28.7787 80.568 31.36C81.016 31.0613 81.432 30.7947 81.816 30.56C82.2213 30.3253 82.5733 30.1013 82.872 29.888C83.512 29.4187 83.8427 28.8853 83.864 28.288C83.864 27.7547 83.5333 27.488 82.872 27.488Z" fill="black"/>
<path d="M120.823 32.448C121.186 32.448 121.367 32.9387 121.367 33.92C121.367 34.4533 121.143 35.104 120.695 35.872C120.247 36.6187 119.66 37.312 118.935 37.952C118.231 38.5707 117.442 39.0827 116.567 39.488C115.692 39.8933 114.764 40.096 113.783 40.096C112.823 40.096 112.066 39.7867 111.511 39.168C110.978 38.528 110.711 37.824 110.711 37.056C110.711 36.2667 110.839 35.3813 111.095 34.4C111.351 33.4187 111.628 32.3947 111.927 31.328C112.738 28.4907 113.154 26.496 113.175 25.344C113.175 24.8533 113.111 24.48 112.983 24.224C112.855 23.9467 112.61 23.808 112.247 23.808C111.607 23.808 110.924 24.192 110.199 24.96C109.474 25.728 108.791 26.7093 108.151 27.904C106.679 30.6347 105.9 33.3013 105.815 35.904C105.858 36.2027 105.9 36.5013 105.943 36.8C105.986 37.0987 106.007 37.4187 106.007 37.76C106.007 38.4427 105.666 39.072 104.983 39.648C104.322 40.2027 103.575 40.48 102.743 40.48C102.252 40.48 101.89 40.2453 101.655 39.776C101.42 39.2853 101.303 38.688 101.303 37.984C101.303 37.28 101.463 36.32 101.783 35.104C102.103 33.888 102.455 32.5973 102.839 31.232C103.863 27.6267 104.386 24.9387 104.407 23.168C104.407 22.272 104.29 21.568 104.055 21.056C103.842 20.544 103.415 20.288 102.775 20.288C101.623 20.288 100.482 21.1093 99.351 22.752C98.2203 24.3947 97.207 26.944 96.311 30.4C96.0763 31.296 95.895 32.0747 95.767 32.736L95.735 33.344C96.1403 35.3067 96.343 36.5867 96.343 37.184C96.343 38.4213 95.9057 39.2533 95.031 39.68C94.6257 39.872 94.231 40.0533 93.847 40.224C93.4843 40.3947 93.0897 40.48 92.663 40.48C91.5963 40.48 91.063 39.4667 91.063 37.44C91.063 35.392 91.6283 31.4027 92.759 25.472C93.1643 23.3387 93.367 22.144 93.367 21.888C93.367 20.16 92.9297 19.296 92.055 19.296C91.7563 19.296 91.479 19.3813 91.223 19.552C90.9883 19.7227 90.743 19.904 90.487 20.096C90.2523 20.288 90.007 20.4693 89.751 20.64C89.495 20.8107 89.1963 20.896 88.855 20.896C88.535 20.896 88.375 20.608 88.375 20.032C88.375 18.8587 88.919 17.8987 90.007 17.152C91.0523 16.384 92.3217 16 93.815 16C95.735 16 96.8657 16.896 97.207 18.688C97.2923 19.2213 97.3563 19.7867 97.399 20.384C98.9777 17.4187 100.972 15.936 103.383 15.936C106.007 15.936 107.511 17.1947 107.895 19.712C108.023 20.4373 108.076 21.216 108.055 22.048V22.304C109.442 20.384 111.084 19.424 112.983 19.424C115.671 19.424 117.015 21.0453 117.015 24.288C117.015 25.696 116.791 27.3493 116.343 29.248C115.916 31.1253 115.596 32.48 115.383 33.312C115.191 34.1227 115.095 34.752 115.095 35.2C115.095 36.0107 115.372 36.416 115.927 36.416C116.503 36.416 117.858 35.3067 119.991 33.088C120.375 32.6613 120.652 32.448 120.823 32.448ZM127.229 36.512C128.893 36.512 130.503 35.8507 132.061 34.528C132.637 34.0373 133.106 33.5893 133.469 33.184C133.831 32.7573 134.109 32.544 134.301 32.544C134.599 32.544 134.749 32.8427 134.749 33.44C134.749 34.0373 134.589 34.7093 134.269 35.456C133.949 36.1813 133.415 36.896 132.669 37.6C130.834 39.328 128.317 40.192 125.117 40.192C122.578 40.192 120.85 39.2747 119.933 37.44C119.613 36.8 119.453 35.8827 119.453 34.688C119.453 33.4933 119.687 32.256 120.157 30.976C120.626 29.6747 121.245 28.5547 122.013 27.616C122.802 26.6773 123.709 25.952 124.733 25.44C125.757 24.9067 126.845 24.64 127.997 24.64C129.17 24.64 130.066 24.928 130.685 25.504C131.325 26.08 131.645 26.8267 131.645 27.744C131.645 28.6613 131.41 29.4187 130.941 30.016C130.493 30.592 129.906 31.0827 129.181 31.488C128.455 31.872 127.645 32.224 126.749 32.544C125.874 32.8427 125.01 33.184 124.157 33.568V34.368C124.178 35.136 124.498 35.68 125.117 36C125.735 36.32 126.439 36.4907 127.229 36.512ZM126.685 27.488C125.575 27.488 124.807 28.7787 124.381 31.36C124.829 31.0613 125.245 30.7947 125.629 30.56C126.034 30.3253 126.386 30.1013 126.685 29.888C127.325 29.4187 127.655 28.8853 127.677 28.288C127.677 27.7547 127.346 27.488 126.685 27.488Z" fill="#97A8EE"/>
<path d="M171.23 7.13374C169.497 6.74227 166.282 7.22695 163.017 8.37069C158.537 9.94507 155.1 11.8 151.05 14.8454C147.604 17.4268 142.738 21.8639 139.866 25.019L139.352 25.5815L139.628 25.714C139.895 25.8423 139.91 25.8336 140.356 25.4116C142.387 23.5024 146.473 20.2702 149.497 18.17C155.456 14.0447 160.687 11.236 165.515 9.57728C166.862 9.11553 169.252 8.42406 169.347 8.46958C169.373 8.482 169.287 8.52741 169.161 8.56905C165.27 9.84468 161.944 11.3596 157.613 13.8386C153.829 15.9981 148.769 19.4232 144.098 22.9879C142.494 24.2063 140.311 25.9477 140.271 26.0308C140.256 26.0627 140.329 26.1762 140.434 26.2894L140.632 26.4947L141.197 26.1369C142.375 25.406 143.776 24.986 145.463 24.8529C146.358 24.7794 147.675 24.7986 148.406 24.89C148.667 24.9209 148.749 24.9052 148.637 24.8514C148.326 24.7024 147.074 24.4157 146.319 24.3288C145.916 24.2846 145.615 24.2266 145.656 24.207C145.697 24.1875 146.452 24.141 147.331 24.0995C151.653 23.8946 152.819 23.7864 154.29 23.463C156.001 23.0819 157.516 22.4891 159.282 21.506C160.079 21.0631 161.429 20.1947 161.472 20.1053C161.478 20.0926 161.263 20.0992 161.006 20.1253C160.738 20.1537 160.086 20.1631 159.563 20.1478C158.566 20.125 154.937 19.8139 154.895 19.7466C154.884 19.7256 155.409 19.6943 156.046 19.6703C160.328 19.5252 163.207 18.7457 165.038 17.2284C165.816 16.5803 167.865 14.2792 169.389 12.3396C169.618 12.0407 169.866 11.7436 169.921 11.6752C170.031 11.5554 170.011 11.5535 169.395 11.5096C169.035 11.486 168.317 11.3691 167.79 11.2501C167.264 11.131 166.479 10.9979 166.04 10.9604C165.439 10.9078 165.298 10.8713 165.464 10.8334C165.804 10.745 166.941 10.7641 168.296 10.8802C169.823 11.0157 170.45 10.9473 170.904 10.5992C171.408 10.2125 171.978 9.48837 172.281 8.85614C172.575 8.24307 172.622 7.88048 172.427 7.6688C172.254 7.47593 171.718 7.24263 171.23 7.13374Z" fill="black"/>
<path d="M138.499 26.3193C138.18 26.5198 137.386 26.9796 136.732 27.3257L135.547 27.9593L134.385 30.2695C133.752 31.5449 133.301 32.507 133.385 32.4213C135.96 29.7523 136.139 29.5555 136.099 29.2849C136.026 28.8178 136.593 28.5003 137.076 28.732C137.412 28.8934 137.511 29.1295 137.364 29.436C137.26 29.6531 137.171 29.705 136.792 29.7663C136.298 29.8438 136.358 29.786 134.473 31.6787C133.919 32.2375 133.453 32.7212 133.438 32.7532C133.419 32.7915 133.649 32.6894 133.938 32.5295C134.625 32.1365 136.424 31.2399 137.845 30.5783L138.981 30.0469L139.042 29.6989C139.076 29.4953 139.366 28.8018 139.726 28.0948L140.356 26.8492L140.011 26.6836C139.821 26.5926 139.538 26.3861 139.379 26.2312L139.081 25.9466L138.499 26.3193Z" fill="black"/>
<path d="M153.938 33.374C147.203 30.4255 143.091 29.1119 142.012 29.5686C141.68 29.7078 141.596 30.147 141.807 30.5702C142.185 31.3092 143.088 32.0805 146.346 34.4686C148.769 36.2519 149.505 36.8408 150.163 37.5492C151.152 38.6053 150.879 39.197 149.439 39.0796C147.311 38.9148 144.167 37.815 136.527 34.5652C135.099 33.9586 134.018 33.5345 134.003 33.5664C133.957 33.6622 139.486 36.205 141.3 36.9343C146.95 39.1814 150.247 39.9387 150.947 39.1433C151.659 38.3456 150.569 37.1233 146.757 34.4068C144.187 32.5764 143.436 31.9961 142.681 31.2487C142.221 30.7922 141.883 30.1904 141.978 29.9924C142.193 29.5454 143.762 29.7248 146.062 30.4593C148.695 31.2981 151.607 32.4599 157.271 34.9419C157.562 35.0657 157.272 34.9186 156.636 34.6059C155.998 34.2997 154.778 33.7458 153.938 33.374Z" fill="black"/>
</g>
<defs>
<clipPath id="clip0_49_6">
<rect width="175" height="48" fill="white"/>
</clipPath>
</defs>
</svg>
